<?xml version="1.0" standalone="no"?>
<!DOCTYPE svg PUBLIC "-//W3C//DTD SVG 1.1//EN" "http://www.w3.org/Graphics/SVG/1.1/DTD/svg11.dtd" >
<svg xmlns="http://www.w3.org/2000/svg" xmlns:xlink="http://www.w3.org/1999/xlink" version="1.1">
<metadata>
Created by FontForge 20170731 at Mon Apr 25 01:46:13 2022
 By Aleksey,,,
Copyright (c) 2021 by Fontfabric. All rights reserved.
</metadata>
<defs>
<font id="CodeNext-ExtraBoldItalic" horiz-adv-x="1515" >
  <font-face 
    font-family="Code Next ExtraBold"
    font-weight="800"
    font-style="italic"
    font-stretch="normal"
    units-per-em="2048"
    panose-1="0 0 9 0 0 0 0 0 0 0"
    ascent="1638"
    descent="-410"
    x-height="1085"
    cap-height="1434"
    bbox="-1069 -616 4317 1999"
    underline-thickness="102"
    underline-position="-307"
    slope="-11.3"
    unicode-range="U+000D-FB02"
  />
<missing-glyph horiz-adv-x="1206" 
d="M1069 0h-1079v1434h1079v-1434zM367 1188l161 -242l164 242h-325zM680 715l133 -195v395zM246 913v-395l131 199zM528 485l-161 -239h323z" />
    <glyph glyph-name="fi" unicode="fi" horiz-adv-x="1439" 
d="M1333 1538q84 0 132 -44.5t48 -117.5q0 -99 -73 -165t-178 -66q-85 0 -135 44.5t-50 117.5q0 13 4 41q19 85 88 137.5t164 52.5zM651 1063h756l-213 -1063h-352l155 778h-391l-157 -778h-353l156 778h-174l57 285h174l10 47q34 170 158 259t324 89q90 0 178 -16l-49 -244
q-46 6 -94 6q-84 0 -127.5 -32.5t-55.5 -102.5z" />
    <glyph glyph-name="fl" unicode="fl" horiz-adv-x="1445" 
d="M653 1061h244l-53 -273h-236l-159 -788h-353l160 788h-174l53 275h176l13 63q32 164 155.5 249t323.5 85q78 0 180 -18l-49 -248q-62 10 -92 10q-85 0 -130 -28t-55 -91zM856 0l287 1434h352l-287 -1434h-352z" />
    <glyph glyph-name="f_f" unicode="ff" horiz-adv-x="1593" 
d="M1608 1235q-84 0 -128.5 -32.5t-58.5 -102.5l-4 -19h246l-55 -282h-238l-160 -799h-352l160 799h-410l-159 -799h-353l160 799h-174l57 284h174l4 19q36 177 163 267.5t325 90.5q91 0 180 -18l-47 -242q-52 6 -104 6q-75 0 -117 -31t-62 -106h418l14 72q33 170 158.5 259
t325.5 89q73 0 178 -19l-47 -241q-52 6 -94 6z" />
    <glyph glyph-name="f_f_i" unicode="ffi" horiz-adv-x="2181" 
d="M2077 1559q85 0 133.5 -44.5t48.5 -117.5q0 -99 -74.5 -165.5t-179.5 -66.5q-84 0 -133 44.5t-49 115.5q0 15 4 43q19 85 88 138t162 53zM1401 1081h756l-215 -1081h-353l158 797h-393l-160 -797h-352l159 797h-393l-159 -797h-353l160 797h-174l57 284h174l4 21
q35 176 159.5 267t326.5 91q73 0 182 -16l-49 -244q-53 6 -102 6q-83 0 -122.5 -31t-56.5 -108h402l14 74q34 171 158 259.5t325 88.5q70 0 179 -16l-50 -244q-52 6 -94 6q-84 0 -127 -32.5t-57 -102.5z" />
    <glyph glyph-name="f_f_l" unicode="ffl" horiz-adv-x="2205" 
d="M1417 1081h246l-55 -282h-238l-160 -799h-352l160 799h-410l-159 -799h-353l160 799h-174l57 284h174l4 19q36 177 163 267.5t325 90.5q91 0 180 -18l-47 -242q-52 6 -104 6q-75 0 -117 -31t-62 -106h418l14 72q33 170 158.5 259t325.5 89q73 0 178 -19l-47 -241
q-52 6 -94 6q-84 0 -128.5 -32.5t-58.5 -102.5zM1616 0l287 1434h352l-287 -1434h-352z" />
    <glyph glyph-name=".notdef" horiz-adv-x="1206" 
d="M1069 0h-1079v1434h1079v-1434zM367 1188l161 -242l164 242h-325zM680 715l133 -195v395zM246 913v-395l131 199zM528 485l-161 -239h323z" />
    <glyph glyph-name=".null" horiz-adv-x="0" 
 />
    <glyph glyph-name="nonmarkingreturn" horiz-adv-x="682" 
 />
    <glyph glyph-name="CR" unicode="&#xd;" horiz-adv-x="509" 
 />
    <glyph glyph-name="space" unicode=" " horiz-adv-x="509" 
 />
    <glyph glyph-name="exclam" unicode="!" horiz-adv-x="636" 
d="M463 457h-334l86 479l102 498h351l-99 -498zM209 -18q-76 0 -119 39t-43 106q0 29 4 45q17 85 80 136.5t150 51.5q74 0 116.5 -39t42.5 -106q0 -29 -4 -45q-17 -86 -79 -137t-148 -51z" />
    <glyph glyph-name="quotedbl" unicode="&#x22;" horiz-adv-x="901" 
d="M469 940h-287l99 494h286zM879 940h-287l98 494h287z" />
    <glyph glyph-name="numbersign" unicode="#" horiz-adv-x="1372" 
d="M1384 1118l-55 -282h-168l-84 -238h137l-55 -283h-180l-111 -315h-307l111 315h-176l-113 -315h-305l110 315h-133l60 283h174l82 238h-142l58 282h184l111 316h305l-111 -316h178l111 316h305l-110 -316h124zM586 592h190l88 250h-190z" />
    <glyph glyph-name="dollar" unicode="$" horiz-adv-x="1226" 
d="M1235 991h-350q3 74 -41.5 113t-134.5 39q-149 0 -170 -103q-4 -24 -4 -32q0 -51 52.5 -85t184.5 -71q199 -55 290 -143.5t91 -223.5q0 -56 -10 -102q-70 -353 -498 -397l-33 -170h-286l36 182q-156 35 -241.5 135.5t-85.5 249.5q0 39 6 82h358q-8 -82 34.5 -124
t133.5 -42q180 0 201 109q4 20 4 26q0 51 -51.5 87t-167.5 67q-199 52 -293 142.5t-94 230.5q0 49 12 108q32 164 150.5 261t312.5 120l31 156h284l-32 -168q147 -35 231 -135t84 -244q0 -45 -4 -68z" />
    <glyph glyph-name="percent" unicode="%" horiz-adv-x="1822" 
d="M489 762q-132 0 -217.5 78t-85.5 202q0 26 7 70q30 150 144.5 249t270.5 99q131 0 217 -80t86 -204q0 -34 -6 -68q-30 -150 -145 -248t-271 -98zM561 0h-278l1048 1434h281zM524 973q63 0 109.5 48t46.5 120q0 47 -30 76.5t-77 29.5q-63 0 -109 -48.5t-46 -121.5
q0 -47 29.5 -75.5t76.5 -28.5zM1284 -27q-131 0 -217 79.5t-86 203.5q0 32 6 70q32 152 149 256t271 104q130 0 215.5 -84.5t85.5 -210.5q0 -22 -8 -72q-30 -150 -145 -248t-271 -98zM1319 184q55 0 97.5 37.5t56.5 97.5q4 24 4 35q0 52 -28.5 86.5t-76.5 34.5
q-62 0 -111 -57t-49 -127q0 -47 30 -77t77 -30z" />
    <glyph glyph-name="ampersand" unicode="&#x26;" horiz-adv-x="1292" 
d="M969 682h291q-57 -257 -222 -436q58 -80 123 -168q4 -5 12.5 -16.5t12.5 -16.5l-10 -45h-308q-51 71 -53 74q-193 -99 -414 -99q-178 0 -282.5 87.5t-104.5 238.5q0 31 11 92q27 139 108.5 230.5t206.5 160.5q-70 140 -70 246q0 36 6 74q31 158 162 256t314 98
q174 0 275 -77.5t101 -209.5q0 -41 -8 -77q-13 -63 -42 -118t-64 -94.5t-85 -76.5t-94 -62t-102 -53q64 -105 137 -209q70 92 99 201zM586 1051q0 -69 30 -138q86 42 135 85t60 102q4 20 4 26q0 35 -25 55.5t-69 20.5q-65 0 -100 -39t-35 -112zM489 262q86 0 164 37
q-98 136 -180 260q-123 -80 -123 -186q0 -53 36.5 -82t102.5 -29z" />
    <glyph glyph-name="quotesingle" unicode="'" horiz-adv-x="491" 
d="M469 940h-287l99 494h286z" />
    <glyph glyph-name="parenleft" unicode="(" horiz-adv-x="858" 
d="M659 -41l-77 -387q-225 127 -355.5 369.5t-130.5 533.5q0 107 27 252q82 404 307.5 663.5t589.5 368.5l-78 -389q-172 -85 -302 -273t-177 -423q-19 -100 -19 -189q0 -169 57.5 -310.5t157.5 -215.5z" />
    <glyph glyph-name="parenright" unicode=")" horiz-adv-x="858" 
d="M248 1372l78 387q226 -127 355.5 -370t129.5 -535q0 -119 -25 -250q-84 -403 -309.5 -663.5t-589.5 -368.5l78 389q172 85 302 273t177 423q21 99 21 195q0 167 -57.5 307t-159.5 213z" />
    <glyph glyph-name="asterisk" unicode="*" horiz-adv-x="823" 
d="M862 1303l33 -199l-209 -62l100 -174l-192 -125l-94 181l-158 -183l-164 138l160 174l-182 59l100 199l178 -66l41 209h225l-41 -213z" />
    <glyph glyph-name="plus" unicode="+" horiz-adv-x="993" 
d="M711 854h264l-57 -291h-265l-59 -301h-305l59 301h-262l55 291h267l59 297h303z" />
    <glyph glyph-name="comma" unicode="," horiz-adv-x="649" 
d="M262 -227h-325l10 41l194 499h357l-23 -108z" />
    <glyph glyph-name="hyphen" unicode="-" horiz-adv-x="833" 
d="M739 471h-673l59 303h676z" />
    <glyph glyph-name="period" unicode="." horiz-adv-x="532" 
d="M166 -18q-79 0 -123.5 39.5t-44.5 107.5q0 13 4 45q17 85 78 135.5t147 50.5q77 0 122.5 -41.5t45.5 -113.5q0 -13 -4 -41q-19 -82 -80 -132t-145 -50z" />
    <glyph glyph-name="slash" unicode="/" horiz-adv-x="966" 
d="M264 -131h-360l10 43l852 1618h360l-8 -43z" />
    <glyph glyph-name="zero" unicode="0" horiz-adv-x="1327" 
d="M575 -27q-235 0 -363 138t-128 387q0 103 25 231q71 355 255.5 543t464.5 188q236 0 364 -137.5t128 -386.5q0 -100 -25 -231q-71 -355 -256 -543.5t-465 -188.5zM623 315q225 0 303 408q20 100 20 180q0 217 -164 217q-224 0 -303 -409q-20 -100 -20 -179
q0 -217 164 -217z" />
    <glyph glyph-name="one" unicode="1" horiz-adv-x="888" 
d="M104 1085l584 349h240l-285 -1434h-364l120 602l78 338l-211 -123z" />
    <glyph glyph-name="two" unicode="2" horiz-adv-x="1181" 
d="M1182 954q-23 -116 -106 -219t-265 -243l-244 -189l189 12h307l-64 -315h-1046l49 256l571 451q142 111 190.5 160.5t59.5 107.5q4 24 4 37q0 51 -32.5 80.5t-92.5 29.5q-74 0 -123.5 -47.5t-66.5 -138.5h-360q47 248 203.5 386t387.5 138q198 0 323.5 -115.5
t125.5 -291.5q0 -44 -10 -99z" />
    <glyph glyph-name="three" unicode="3" horiz-adv-x="1157" 
d="M1159 1040q-38 -194 -211 -292q64 -46 98.5 -116.5t34.5 -156.5q0 -47 -8 -88q-40 -198 -195 -306t-399 -108q-215 0 -343 104.5t-128 274.5q0 39 10 94h355q-2 -8 -2 -26q0 -59 38.5 -93t106.5 -34q75 0 125 42t64 114q2 8 2 24q0 53 -39.5 84t-110.5 31h-131l59 297
h138q69 0 117.5 35.5t60.5 95.5q2 8 2 26q0 51 -34.5 82t-94.5 31q-65 0 -111 -36.5t-61 -100.5h-348q43 214 190.5 328t382.5 114q195 0 316.5 -98.5t121.5 -251.5q0 -32 -6 -70z" />
    <glyph glyph-name="four" unicode="4" horiz-adv-x="1220" 
d="M819 1434h361l-168 -842h168l-66 -316h-166l-55 -276h-350l53 276h-637l61 297zM768 993l-377 -409h281l30 147z" />
    <glyph glyph-name="five" unicode="5" horiz-adv-x="1189" 
d="M1153 1126h-569l-33 -108l-33 -105q105 54 219 54q181 0 286 -104.5t105 -278.5q0 -58 -12 -119q-46 -227 -208.5 -356t-401.5 -129q-212 0 -336.5 101.5t-124.5 272.5q0 47 8 86h346q-3 -63 39 -105t111 -42q79 0 139.5 54.5t77.5 141.5q4 32 4 46q0 65 -37.5 102
t-103.5 37q-101 0 -178 -68h-347l238 828h870z" />
    <glyph glyph-name="six" unicode="6" horiz-adv-x="1193" 
d="M764 948q172 0 274.5 -101.5t102.5 -268.5q0 -50 -13 -113q-44 -223 -213.5 -357.5t-408.5 -134.5q-218 0 -343.5 111.5t-125.5 300.5q0 59 12 123q22 106 83 206.5t222 291.5l359 428h417l-8 -43l-383 -443h25zM774 485q4 16 4 47q0 69 -40.5 109.5t-112.5 40.5
q-84 0 -145.5 -54.5t-78.5 -142.5q-6 -27 -6 -51q0 -66 40.5 -105.5t109.5 -39.5q86 0 148 54t81 142z" />
    <glyph glyph-name="seven" unicode="7" horiz-adv-x="1146" 
d="M188 1114l64 320h1028l-45 -226l-776 -1208h-408l8 35l697 1079h-568z" />
    <glyph glyph-name="eight" unicode="8" horiz-adv-x="1198" 
d="M1190 1047q-39 -190 -213 -299q70 -47 107.5 -117.5t37.5 -155.5q0 -43 -8 -82q-38 -192 -202.5 -306t-405.5 -114q-217 0 -351.5 102.5t-134.5 264.5q0 36 9 76q23 116 95.5 210.5t176.5 145.5q-94 88 -94 221q0 22 8 76q35 176 186 283.5t365 107.5q193 0 311.5 -96.5
t118.5 -247.5q0 -32 -6 -69zM858 1059q0 54 -35 84.5t-98 30.5q-74 0 -125.5 -41t-64.5 -111q-5 -30 -5 -33q0 -54 35.5 -85.5t98.5 -31.5q84 0 139 52t55 135zM762 487q0 60 -39.5 92.5t-110.5 32.5q-82 0 -139 -45t-72 -123q-4 -24 -4 -36q0 -60 39.5 -93.5t110.5 -33.5
q94 0 154.5 56t60.5 150z" />
    <glyph glyph-name="nine" unicode="9" horiz-adv-x="1193" 
d="M758 1460q219 0 345 -111.5t126 -301.5q0 -59 -12 -121q-22 -104 -83.5 -204.5t-222.5 -293.5l-358 -428h-420l8 45l383 442h-22q-173 0 -275 100.5t-102 266.5q0 54 12 115q43 224 212 357.5t409 133.5zM862 948q6 27 6 51q0 66 -40 106t-109 40q-86 0 -148 -54
t-79 -143q-7 -32 -7 -49q0 -67 41.5 -107t112.5 -40q84 0 145 54t78 142z" />
    <glyph glyph-name="colon" unicode=":" horiz-adv-x="534" 
d="M303 670q-78 0 -122 40t-44 109q0 13 4 45q17 84 78.5 134.5t147.5 50.5q77 0 122.5 -42t45.5 -112q0 -6 -5 -41q-19 -84 -80 -134t-147 -50zM166 -18q-78 0 -122 39.5t-44 107.5q0 13 4 45q17 85 78 135.5t147 50.5q76 0 121 -41t45 -112q0 -15 -4 -43q-17 -82 -78 -132
t-147 -50z" />
    <glyph glyph-name="semicolon" unicode=";" horiz-adv-x="610" 
d="M369 670q-79 0 -123.5 40t-44.5 111q0 15 4 43q19 84 80 134.5t145 50.5q78 0 123 -41.5t45 -112.5q0 -13 -4 -41q-17 -84 -78 -134t-147 -50zM262 -227h-325l10 41l194 499h357l-23 -108z" />
    <glyph glyph-name="less" unicode="&#x3c;" horiz-adv-x="948" 
d="M1008 1292l-74 -377l-483 -221l174 -96l223 -119l-64 -315h-30l-691 428l52 262l866 438h27z" />
    <glyph glyph-name="equal" unicode="=" horiz-adv-x="958" 
d="M920 743h-799l51 258h799zM842 356h-801l53 260h801z" />
    <glyph glyph-name="greater" unicode="&#x3e;" horiz-adv-x="948" 
d="M242 1292h28l691 -428l-52 -262l-866 -438h-27l74 379l279 127l206 92l-399 217z" />
    <glyph glyph-name="question" unicode="?" horiz-adv-x="1103" 
d="M698 457h-344l11 57q19 100 73.5 167t173.5 134q93 52 130 89t46 85q5 25 5 31q0 48 -32.5 76t-90.5 28q-77 0 -131 -49t-68 -129h-336q43 239 198 376.5t382 137.5q204 0 324 -103t120 -276q0 -42 -10 -100q-22 -113 -90.5 -193t-210.5 -159q-69 -37 -101.5 -71
t-41.5 -75zM438 -18q-76 0 -120 41t-44 110q0 8 5 43q17 83 77.5 133.5t145.5 50.5q76 0 120 -41t44 -110q0 -17 -4 -45q-17 -82 -77.5 -132t-146.5 -50z" />
    <glyph glyph-name="at" unicode="@" horiz-adv-x="1697" 
d="M1042 1423q300 0 483 -161t183 -416q0 -72 -14 -141q-44 -223 -173.5 -357.5t-301.5 -134.5q-72 0 -123.5 29t-69.5 84q-110 -113 -262 -113q-126 0 -202.5 84t-76.5 217q0 36 11 96q34 174 151 288t271 114q163 0 243 -111l45 78h183l-172 -451q-13 -37 -13 -57
q0 -47 53 -47q68 0 126 80t83 203q15 81 15 122q0 179 -118.5 280t-332.5 101q-141 0 -264 -45t-212.5 -123.5t-150.5 -183.5t-86 -227q-16 -88 -16 -158q0 -218 133 -340.5t371 -122.5q290 0 559 127l57 -200q-161 -72 -312 -105t-343 -33q-206 0 -367 84t-249.5 235.5
t-88.5 344.5q0 81 19 178q33 166 115.5 308.5t203.5 248t287 165.5t356 60zM840 457q64 0 111.5 46.5t62.5 125.5q4 24 4 37q0 47 -26 74.5t-72 27.5q-62 0 -108.5 -44.5t-63.5 -125.5q-5 -17 -5 -43q0 -46 25.5 -72t71.5 -26z" />
    <glyph glyph-name="A" unicode="A" horiz-adv-x="1398" 
d="M705 1434h348l233 -1391l-8 -43h-373l-24 229h-449l-119 -229h-407l10 43zM858 520l-57 430l-223 -430h280z" />
    <glyph glyph-name="B" unicode="B" horiz-adv-x="1286" 
d="M1266 1028q-34 -168 -193 -274q65 -46 101 -120t36 -161q0 -42 -8 -78q-34 -181 -179 -288t-355 -107h-637l286 1434h586q168 0 269.5 -88.5t101.5 -233.5q0 -45 -8 -84zM907 1030q0 47 -27.5 75t-76.5 28h-191l-49 -250h185q76 0 117.5 39.5t41.5 107.5zM838 455
q4 24 4 37q0 48 -28 76t-81 28h-229l-55 -281h223q67 0 110.5 36.5t55.5 103.5z" />
    <glyph glyph-name="C" unicode="C" horiz-adv-x="1556" 
d="M709 -27q-279 0 -450 172.5t-171 444.5q0 92 16 168q63 314 295.5 508t542.5 194q272 0 441.5 -164.5t172.5 -431.5h-366q-10 117 -86 181.5t-193 64.5q-159 0 -278.5 -108.5t-153.5 -282.5q-10 -55 -10 -94q0 -133 76.5 -217t202.5 -84q124 0 224 65t165 195h385
q-86 -285 -305.5 -448t-507.5 -163z" />
    <glyph glyph-name="D" unicode="D" horiz-adv-x="1484" 
d="M600 0h-569l286 1434h535q184 0 326.5 -77t219.5 -213t77 -308q0 -82 -17 -160q-65 -309 -294.5 -492.5t-563.5 -183.5zM625 1094l-150 -752h172q161 0 281 101.5t155 267.5q11 57 11 88q0 129 -79.5 212t-211.5 83h-178z" />
    <glyph glyph-name="E" unicode="E" horiz-adv-x="1159" 
d="M1237 1434l-63 -320h-551l-48 -231h510l-65 -314h-506l-49 -243h563l-63 -326h-934l286 1434h920z" />
    <glyph glyph-name="F" unicode="F" horiz-adv-x="1079" 
d="M1202 1434l-65 -330h-512l-56 -277h467l-65 -327h-465l-100 -500h-375l286 1434h885z" />
    <glyph glyph-name="G" unicode="G" horiz-adv-x="1560" 
d="M1114 528h-387l53 267h785q-57 -387 -282.5 -604.5t-575.5 -217.5q-275 0 -448 172.5t-173 442.5q0 88 16 164q42 207 164 368t302.5 250.5t389.5 89.5q264 0 431.5 -151t177.5 -398h-381q-19 98 -90.5 149.5t-184.5 51.5q-160 0 -281.5 -110t-156.5 -287
q-10 -55 -10 -92q0 -136 79.5 -221t211.5 -85q242 0 360 211z" />
    <glyph glyph-name="H" unicode="H" horiz-adv-x="1449" 
d="M1008 899l106 535h377l-287 -1434h-377l109 547h-422l-108 -547h-375l286 1434h375l-106 -535h422z" />
    <glyph glyph-name="I" unicode="I" horiz-adv-x="942" 
d="M1038 1434l-63 -316h-201l-160 -805h205l-63 -313h-787l64 313h205l161 805h-200l63 316h776z" />
    <glyph glyph-name="J" unicode="J" horiz-adv-x="1011" 
d="M203 -20q-112 0 -256 24l71 342q105 -18 179 -18q143 0 221 67t106 209l99 498h-322l68 332h696l-180 -906q-108 -548 -682 -548z" />
    <glyph glyph-name="K" unicode="K" horiz-adv-x="1318" 
d="M1055 1434h415l-8 -43l-588 -666l316 -682l-8 -43h-377l-273 635l-126 -635h-375l286 1434h375l-112 -564z" />
    <glyph glyph-name="L" unicode="L" horiz-adv-x="1128" 
d="M983 0h-952l286 1434h375l-219 -1094h580z" />
    <glyph glyph-name="M" unicode="M" horiz-adv-x="1720" 
d="M887 805l543 629h329l-284 -1434h-375l82 416l73 340l-340 -389h-178l-186 391l-64 -342l-81 -416h-375l286 1434h275z" />
    <glyph glyph-name="N" unicode="N" horiz-adv-x="1445" 
d="M1032 1036l80 398h373l-287 -1434h-258l-397 743l-60 -346l-80 -397h-372l286 1434h254l400 -752z" />
    <glyph glyph-name="O" unicode="O" horiz-adv-x="1601" 
d="M707 -27q-184 0 -325.5 79t-218.5 218.5t-77 317.5q0 82 18 170q42 208 164.5 367.5t304.5 247t396 87.5q279 0 449.5 -172t170.5 -444q0 -92 -16 -168q-63 -315 -302 -509t-564 -194zM756 324q159 0 283 111.5t159 283.5q10 55 10 94q0 133 -77.5 215t-208.5 82
q-160 0 -284.5 -111.5t-158.5 -283.5q-10 -55 -10 -97q0 -132 78.5 -213t208.5 -81z" />
    <glyph glyph-name="P" unicode="P" horiz-adv-x="1259" 
d="M317 1434h537q206 0 327.5 -116t121.5 -308q0 -52 -13 -119q-47 -237 -202.5 -362.5t-393.5 -125.5h-209l-79 -403h-375zM920 911q6 24 6 50q0 64 -39 102.5t-113 38.5h-153l-76 -375h162q84 0 140 47.5t73 136.5z" />
    <glyph glyph-name="Q" unicode="Q" horiz-adv-x="1603" 
d="M1573 680q-26 -128 -95.5 -249.5t-170.5 -215.5l166 -272l-9 -43h-327l-90 143q-162 -70 -340 -70q-184 0 -326 79t-218.5 218.5t-76.5 317.5q0 90 16 166q65 317 304.5 511.5t564.5 194.5q184 0 325.5 -78.5t217 -217.5t75.5 -316q0 -92 -16 -168zM479 715
q-10 -55 -10 -94q0 -133 78 -215t209 -82q62 0 121 18l-183 295l8 43h314l98 -160q63 87 84 199q10 58 10 100q0 134 -76 212.5t-210 78.5q-160 0 -284.5 -111.5t-158.5 -283.5z" />
    <glyph glyph-name="R" unicode="R" horiz-adv-x="1290" 
d="M1282 930q-34 -162 -132 -268t-251 -146l264 -473l-8 -43h-383l-266 512l-103 -512h-372l286 1434h506q215 0 342 -107t127 -291q0 -44 -10 -106zM907 932q4 28 4 39q0 59 -36 93t-105 34h-149l-66 -330h145q176 0 207 164z" />
    <glyph glyph-name="S" unicode="S" horiz-adv-x="1226" 
d="M526 -20q-227 0 -359 109t-132 294q0 39 6 82h358q-8 -82 34.5 -124t133.5 -42q180 0 201 109q4 20 4 26q0 49 -51.5 84t-167.5 64q-385 101 -385 387q0 42 10 100q37 188 186.5 287.5t395.5 99.5q218 0 347.5 -108.5t129.5 -290.5q0 -20 -4 -66h-348q3 74 -41.5 113
t-134.5 39q-149 0 -170 -103q-4 -20 -4 -28q0 -49 52 -83.5t185 -72.5q190 -53 285.5 -152t95.5 -237q0 -38 -10 -90q-79 -397 -617 -397z" />
    <glyph glyph-name="T" unicode="T" horiz-adv-x="1206" 
d="M240 1434h1083l-66 -334h-354l-221 -1100h-375l219 1100h-354z" />
    <glyph glyph-name="U" unicode="U" horiz-adv-x="1411" 
d="M616 -23q-230 0 -367.5 120.5t-137.5 322.5q0 56 12 121l180 893h375l-176 -885q-8 -46 -8 -66q0 -74 42.5 -114.5t120.5 -40.5q98 0 164.5 58t89.5 165l176 883h375l-184 -932q-50 -249 -223 -387t-439 -138z" />
    <glyph glyph-name="V" unicode="V" horiz-adv-x="1394" 
d="M971 1126l166 308h413l-8 -43l-797 -1391h-313l-244 1391l9 43h368l45 -308l70 -563z" />
    <glyph glyph-name="W" unicode="W" horiz-adv-x="2052" 
d="M1630 1085l172 349h404l-11 -43l-702 -1391h-301l-92 408l-53 258l-150 -258l-254 -408h-305l-148 1391l9 43h366l33 -349l31 -499l377 604h258l133 -602z" />
    <glyph glyph-name="X" unicode="X" horiz-adv-x="1400" 
d="M1096 1434h432l-8 -43l-541 -676l297 -672l-8 -43h-379l-117 289l-63 160l-349 -449h-440l8 43l572 696l-273 652l9 43h368l115 -291l53 -139z" />
    <glyph glyph-name="Y" unicode="Y" horiz-adv-x="1345" 
d="M1073 1434h436l-10 -48l-643 -817l-113 -569h-374l118 600l-303 791l9 43h376l80 -232l78 -250l176 250z" />
    <glyph glyph-name="Z" unicode="Z" horiz-adv-x="1214" 
d="M268 1434h1057l-41 -207l-745 -891l589 2l-67 -338h-1108l45 219l739 885l-534 -2z" />
    <glyph glyph-name="bracketleft" unicode="[" horiz-adv-x="669" 
d="M471 -305h-502l408 2031h497l-57 -284h-160l-292 -1465h161z" />
    <glyph glyph-name="backslash" unicode="\" horiz-adv-x="933" 
d="M758 -131h-320l-207 1618l9 43h321l205 -1618z" />
    <glyph glyph-name="bracketright" unicode="]" horiz-adv-x="669" 
d="M266 1726h502l-408 -2031h-497l55 282h162l293 1465h-162z" />
    <glyph glyph-name="asciicircum" unicode="^" horiz-adv-x="1126" 
d="M606 1434h275l239 -727l-6 -35h-332l-43 149l-53 189l-131 -189l-102 -149h-387l6 35z" />
    <glyph glyph-name="underscore" unicode="_" horiz-adv-x="1007" 
d="M819 -406h-1009l63 320h1008z" />
    <glyph glyph-name="grave" unicode="`" horiz-adv-x="913" 
d="M586 1192h-258l-125 295l4 16h319l64 -297z" />
    <glyph glyph-name="a" unicode="a" horiz-adv-x="1376" 
d="M1010 983l34 102h310l-217 -1085h-285v90q-154 -113 -348 -113q-203 0 -327 126.5t-124 328.5q0 62 15 133q49 248 217.5 395.5t400.5 147.5q205 0 324 -125zM598 289q102 0 183 72t104 184q6 34 6 63q0 87 -50 138t-136 51q-102 0 -181 -69t-102 -181q-8 -33 -8 -72
q0 -88 49 -137t135 -49z" />
    <glyph glyph-name="b" unicode="b" horiz-adv-x="1357" 
d="M868 1108q199 0 321 -124t122 -325q0 -63 -15 -133q-49 -250 -217 -399.5t-397 -149.5q-203 0 -326 129l-39 -106h-294l286 1434h350l-77 -400q132 74 286 74zM944 543q6 34 6 63q0 88 -50 139.5t-136 51.5q-102 0 -182 -69t-103 -181q-6 -35 -6 -64q0 -87 51 -140.5
t135 -53.5q105 0 182.5 69t102.5 185z" />
    <glyph glyph-name="c" unicode="c" horiz-adv-x="1241" 
d="M541 -25q-223 0 -357.5 128t-134.5 333q0 58 12 123q33 164 126 289.5t232 193.5t302 68q227 0 360 -129.5t125 -343.5h-340q-6 79 -51 120.5t-125 41.5q-100 0 -177 -71.5t-99 -184.5q-6 -35 -6 -64q0 -88 48 -140t132 -52q76 0 140.5 43t102.5 121h347
q-68 -220 -238 -348t-399 -128z" />
    <glyph glyph-name="d" unicode="d" horiz-adv-x="1366" 
d="M977 1014l84 420h352l-285 -1434h-276v90q-154 -113 -350 -113q-203 0 -327 124.5t-124 324.5q0 62 15 133q49 250 217.5 399.5t400.5 149.5q172 0 293 -94zM598 289q101 0 181.5 72t103.5 182q8 46 8 65q0 86 -51.5 137.5t-139.5 51.5q-101 0 -177.5 -68t-102.5 -182
q-8 -36 -8 -76q0 -86 49 -134t137 -48z" />
    <glyph glyph-name="e" unicode="e" horiz-adv-x="1243" 
d="M1171 438h-776q4 -81 52 -124.5t128 -43.5q111 0 187 76h368q-83 -172 -239 -271.5t-352 -99.5q-224 0 -357 125t-133 330q0 62 12 129q33 164 126 289.5t232 193.5t302 68q225 0 357 -126.5t132 -326.5q0 -109 -39 -219zM438 647h428q-8 77 -53.5 123.5t-126.5 46.5
t-145 -44.5t-103 -125.5z" />
    <glyph glyph-name="f" unicode="f" horiz-adv-x="833" 
d="M842 1204q-85 0 -130 -28t-55 -91l-4 -24h244l-53 -273h-236l-159 -788h-353l160 788h-174l53 275h176l13 63q32 164 155.5 249t323.5 85q78 0 180 -18l-49 -248q-62 10 -92 10z" />
    <glyph glyph-name="g" unicode="g" horiz-adv-x="1339" 
d="M985 985l35 100h297l-191 -952q-52 -254 -216.5 -378t-430.5 -124q-212 0 -340.5 99t-128.5 264q0 27 2 41h340q-2 -51 39 -77t127 -26q213 0 256 209v2q-121 -65 -272 -65q-196 0 -316 115.5t-120 302.5q0 54 12 116q44 227 206 361.5t386 134.5q198 0 315 -123z
M424 541q0 -75 47 -121.5t127 -46.5q100 0 172.5 60t91.5 155q4 32 4 45q0 76 -47.5 122t-128.5 46q-115 0 -190.5 -72t-75.5 -188z" />
    <glyph glyph-name="h" unicode="h" horiz-adv-x="1312" 
d="M897 1106q160 0 247 -88.5t87 -247.5q0 -68 -14 -137l-125 -633h-353l121 610q6 30 6 60q0 131 -141 131q-89 0 -150.5 -53t-78.5 -144l-121 -604h-352l286 1434h350l-86 -435q141 107 324 107z" />
    <glyph glyph-name="i" unicode="i" horiz-adv-x="612" 
d="M440 1176q-84 0 -132 42t-48 113q0 100 72.5 168t179.5 68q82 0 130 -43.5t48 -114.5q0 -100 -73 -166.5t-177 -66.5zM373 0h-350l217 1085h350z" />
    <glyph glyph-name="j" unicode="j" horiz-adv-x="614" 
d="M440 1176q-84 0 -132 43t-48 114q0 100 72.5 167t179.5 67q82 0 130 -43.5t48 -114.5q0 -100 -73 -166.5t-177 -66.5zM-92 -369q-68 0 -172 17l55 280q35 -6 82 -6q67 0 107 33.5t55 110.5l205 1019h352l-209 -1054q-40 -204 -162.5 -302t-312.5 -98z" />
    <glyph glyph-name="k" unicode="k" horiz-adv-x="1165" 
d="M815 1085h412l-8 -34l-426 -506l239 -510l-8 -35h-360l-197 457l-92 -457h-352l286 1434h353l-148 -734z" />
    <glyph glyph-name="l" unicode="l" horiz-adv-x="612" 
d="M375 0h-352l286 1434h353z" />
    <glyph glyph-name="m" unicode="m" horiz-adv-x="1996" 
d="M1573 1106q172 0 257 -89t85 -245q0 -70 -14 -139l-125 -633h-353l123 610q6 30 6 60q0 62 -34 96.5t-101 34.5q-82 0 -143 -49.5t-76 -128.5l-125 -623h-348l123 610q6 30 6 58q0 64 -34 98.5t-101 34.5q-84 0 -145 -53.5t-80 -143.5l-121 -604h-350l217 1085h321
l-10 -106q140 127 330 127q224 0 303 -164q75 78 176 121t213 43z" />
    <glyph glyph-name="n" unicode="n" horiz-adv-x="1312" 
d="M887 1106q162 0 252 -93t90 -255q0 -58 -12 -125l-127 -633h-353l121 610q6 30 6 56q0 65 -37 100t-104 35q-88 0 -149 -53t-80 -144l-121 -604h-350l217 1085h321l-10 -106q136 127 336 127z" />
    <glyph glyph-name="o" unicode="o" horiz-adv-x="1277" 
d="M549 -25q-227 0 -361.5 125.5t-134.5 337.5q0 71 15 144q29 153 122 273t234 187.5t307 67.5q229 0 364.5 -126.5t135.5 -334.5q0 -69 -14 -135q-50 -240 -233 -389.5t-435 -149.5zM592 299q102 0 176.5 67t97.5 181q6 30 6 59q0 85 -48.5 132.5t-133.5 47.5
q-102 0 -176.5 -66.5t-97.5 -178.5q-6 -35 -6 -64q0 -83 49 -130.5t133 -47.5z" />
    <glyph glyph-name="p" unicode="p" horiz-adv-x="1359" 
d="M860 1108q203 0 326 -123.5t123 -325.5q0 -63 -15 -133q-50 -251 -217 -400t-399 -149q-169 0 -289 99l-84 -418h-352l287 1427h282l-2 -88q155 111 340 111zM942 543q6 34 6 65q0 88 -49 140.5t-135 52.5q-103 0 -181 -67.5t-102 -182.5q-8 -33 -8 -72q0 -89 50 -141.5
t136 -52.5q106 0 183.5 72t99.5 186z" />
    <glyph glyph-name="q" unicode="q" horiz-adv-x="1363" 
d="M1010 983l32 102h301l-286 -1427h-352l77 387q-133 -68 -280 -68q-203 0 -326 126.5t-123 328.5q0 64 15 135q49 249 216.5 395t399.5 146q204 0 326 -125zM418 543q-6 -30 -6 -60q0 -90 52.5 -144t139.5 -54q99 0 176.5 72.5t102.5 185.5q6 30 6 61q0 89 -52.5 143
t-140.5 54q-102 0 -177.5 -70.5t-100.5 -187.5z" />
    <glyph glyph-name="r" unicode="r" horiz-adv-x="923" 
d="M856 1102q55 0 121 -17l-66 -333q-63 14 -127 14q-124 0 -203.5 -65.5t-105.5 -192.5l-100 -508h-352l217 1085h317l-8 -104q130 121 307 121z" />
    <glyph glyph-name="s" unicode="s" horiz-adv-x="1075" 
d="M463 -25q-201 0 -324 83t-123 231q0 26 7 61l350 -2q-6 -50 25.5 -78t95.5 -28q63 0 99 22t36 64q0 31 -37 51t-137 43q-176 40 -258 112.5t-82 188.5q0 41 8 80q20 101 91.5 171t171.5 102t222 32q188 0 309 -80.5t121 -222.5q0 -37 -4 -55h-334q4 49 -25 72.5t-89 23.5
q-59 0 -90 -20t-31 -56q0 -33 38.5 -53.5t137.5 -42.5q177 -39 259.5 -113.5t82.5 -191.5q0 -41 -8 -80q-31 -159 -169 -236.5t-343 -77.5z" />
    <glyph glyph-name="t" unicode="t" horiz-adv-x="849" 
d="M842 801h-242l-76 -383q-6 -27 -6 -47q0 -51 31.5 -73t97.5 -22q35 0 107 11l-58 -289q-114 -21 -207 -21q-161 0 -248 72t-87 215q0 56 12 117l84 420h-174l55 284h176l45 230l359 37l-54 -267h242z" />
    <glyph glyph-name="u" unicode="u" horiz-adv-x="1300" 
d="M805 481l121 604h352l-217 -1085h-322l11 111q-128 -131 -328 -131q-164 0 -252 88t-88 249q0 67 14 136l127 632h352l-122 -610q-7 -35 -7 -55q0 -65 36 -100t102 -35q84 0 143 52.5t78 143.5z" />
    <glyph glyph-name="v" unicode="v" horiz-adv-x="1175" 
d="M688 733l186 352h388l-7 -36l-618 -1049h-315l-201 1049l6 36h348l45 -352l29 -284z" />
    <glyph glyph-name="w" unicode="w" horiz-adv-x="1798" 
d="M1362 782l145 303h377l-8 -34l-541 -1051h-346l-35 213l-49 334l-180 -334l-121 -213h-358l-123 1051l6 34h358l25 -303l16 -311l320 563h276l97 -561z" />
    <glyph glyph-name="x" unicode="x" horiz-adv-x="1175" 
d="M850 1085h397l-10 -36l-412 -510l217 -502l-6 -37h-358l-64 170l-51 141l-98 -141l-133 -170h-410l8 37l430 526l-210 492l8 30h358l66 -163l47 -131l96 131z" />
    <glyph glyph-name="y" unicode="y" horiz-adv-x="1179" 
d="M670 705l207 380h389l-9 -36l-821 -1391h-387l6 33l262 426l-196 932l8 36h350l66 -378l24 -203z" />
    <glyph glyph-name="z" unicode="z" horiz-adv-x="997" 
d="M174 1085h870l-32 -155l-514 -608l147 2h266l-63 -324h-918l35 172l510 596h-364z" />
    <glyph glyph-name="braceleft" unicode="{" horiz-adv-x="722" 
d="M684 1726h242l-58 -286h-98q-64 0 -76 -62l-82 -426q-20 -99 -71.5 -165.5t-128.5 -92.5q100 -43 100 -186q0 -50 -12 -105l-72 -356q-2 -8 -2 -20q0 -24 13.5 -34.5t43.5 -10.5h97l-60 -287h-237q-105 0 -161 50t-56 146q0 39 8 78l90 441q6 27 6 49q0 94 -123 102
l62 311q82 4 121.5 37t54.5 107l88 440q26 131 105.5 200.5t205.5 69.5z" />
    <glyph glyph-name="bar" unicode="|" horiz-adv-x="649" 
d="M350 -256h-370l368 1849h373z" />
    <glyph glyph-name="braceright" unicode="}" horiz-adv-x="722" 
d="M715 1452l-88 -440q-6 -27 -6 -49q0 -95 120 -103l-61 -311q-83 -4 -122 -36.5t-54 -106.5l-88 -441q-25 -131 -105 -200.5t-207 -69.5h-241l59 287h98q63 0 74 61l84 426q19 99 70.5 165.5t128.5 92.5q-98 43 -98 191q0 38 10 100l71 356q2 8 2 21q0 45 -55 45h-96
l57 286h238q105 0 161 -50t56 -146q0 -39 -8 -78z" />
    <glyph glyph-name="asciitilde" unicode="~" horiz-adv-x="1185" 
d="M805 418q-64 0 -117.5 21t-114.5 59q-100 65 -172 65q-48 0 -92.5 -27t-103.5 -81l-162 211q99 116 188 173.5t183 57.5q75 0 127 -21.5t110 -62.5q47 -32 85 -48.5t87 -16.5q47 0 92.5 26t104.5 82l166 -215q-93 -110 -192.5 -166.5t-188.5 -56.5z" />
    <glyph glyph-name="uni00A0" unicode="&#xa0;" horiz-adv-x="509" 
 />
    <glyph glyph-name="exclamdown" unicode="&#xa1;" horiz-adv-x="636" 
d="M430 1110q74 0 117 -39.5t43 -105.5q0 -29 -4 -45q-17 -85 -80 -137t-150 -52q-74 0 -116.5 39.5t-42.5 106.5q0 29 4 45q17 85 79.5 136.5t149.5 51.5zM174 633h334l-86 -477l-100 -498h-353l99 498z" />
    <glyph glyph-name="cent" unicode="&#xa2;" horiz-adv-x="1234" 
d="M686 801q-98 0 -176 -73t-100 -185q-7 -40 -7 -64q0 -88 48 -141t131 -53q76 0 142.5 44.5t104.5 121.5h342q-58 -187 -193 -309t-319 -156l-32 -170h-283l35 178q-155 40 -242.5 156t-87.5 282q0 62 12 127q42 218 188 363.5t351 179.5l31 151h282l-32 -163
q156 -43 240.5 -162.5t78.5 -290.5h-336q-9 77 -56 120.5t-122 43.5z" />
    <glyph glyph-name="sterling" unicode="&#xa3;" horiz-adv-x="1193" 
d="M1223 1026h-322q4 24 4 37q0 47 -26.5 74.5t-73.5 27.5q-53 0 -91 -36t-50 -99l-41 -205h352l-57 -284h-351l-49 -240h584l-62 -301h-1091l61 301h158l49 240h-149l57 284h149l48 232q38 195 171.5 299t346.5 104q179 0 285 -96t106 -252q0 -47 -8 -86z" />
    <glyph glyph-name="currency" unicode="&#xa4;" horiz-adv-x="1140" 
d="M1032 1208l111 -141l-158 -133q19 -55 19 -115q0 -35 -11 -96q-21 -114 -98 -207l92 -119l-139 -116l-94 120q-91 -51 -199 -51q-125 0 -211 60l-154 -129l-110 143l158 131q-17 59 -17 113q0 41 10 96q20 111 101 209l-94 117l139 118l92 -123q96 52 203 52
q125 0 207 -60zM451 705q0 -58 35.5 -95t93.5 -37q69 0 123 48t69 122q4 24 4 37q0 59 -35.5 97t-93.5 38q-80 0 -138 -61.5t-58 -148.5z" />
    <glyph glyph-name="yen" unicode="&#xa5;" horiz-adv-x="1345" 
d="M1077 1434h432l-10 -48l-512 -636h221l-45 -222h-315l-21 -108h314l-45 -221h-314l-39 -199h-372l39 199h-316l45 221h316l20 108h-313l43 222h237l-258 641l9 43h372l84 -238l78 -244l174 244z" />
    <glyph glyph-name="brokenbar" unicode="&#xa6;" horiz-adv-x="649" 
d="M559 778h-373l162 815h373zM350 -256h-370l165 829h371z" />
    <glyph glyph-name="section" unicode="&#xa7;" horiz-adv-x="1024" 
d="M1083 1102h-331q6 48 -19.5 75t-77.5 27t-84.5 -21t-40.5 -57q-6 -37 28 -55t128 -29q328 -37 328 -245q0 -39 -8 -72q-23 -116 -113 -203q45 -51 45 -133q0 -38 -8 -74q-32 -157 -172.5 -246t-356.5 -89q-182 0 -286.5 82t-104.5 221q0 17 4 53h338q-6 -47 22.5 -76
t82.5 -29q59 0 96 26.5t37 70.5q0 29 -37 43.5t-131 25.5q-166 20 -247 80.5t-81 165.5q0 20 8 70q24 124 123 211q-39 55 -39 129q0 10 9 71q31 157 166.5 244.5t347.5 87.5q176 0 277 -81t101 -218q0 -19 -4 -55zM676 723q0 28 -38 45.5t-130 30.5q-3 1 -10 2t-11 2
q-51 -38 -51 -86q0 -31 40.5 -49.5t131.5 -30.5q8 0 10 -2q24 15 41 41t17 47z" />
    <glyph glyph-name="dieresis" unicode="&#xa8;" horiz-adv-x="1269" 
d="M455 1178q-76 0 -121 41t-45 108q0 96 66.5 158.5t166.5 62.5q76 0 121 -40.5t45 -108.5q0 -94 -67.5 -157.5t-165.5 -63.5zM954 1178q-77 0 -122.5 41.5t-45.5 109.5q0 95 68 157t168 62q76 0 120 -40t44 -107q0 -95 -67.5 -159t-164.5 -64z" />
    <glyph glyph-name="copyright" unicode="&#xa9;" horiz-adv-x="1615" 
d="M731 -27q-291 0 -470 166.5t-179 435.5q0 72 16 160q43 210 165 374.5t304 257.5t394 93q290 0 468.5 -166t178.5 -434q0 -84 -17 -162q-43 -209 -165 -374t-303.5 -258t-391.5 -93zM733 176q232 0 410.5 157t228.5 400q12 59 12 115q0 183 -117.5 296t-308.5 113
q-232 0 -410.5 -157t-228.5 -400q-12 -58 -12 -114q0 -183 117 -296.5t309 -113.5zM780 365q-139 0 -222 76t-83 200q0 40 8 76q31 156 153 255t284 99q138 0 222 -84.5t75 -214.5h-228q-6 37 -36 61.5t-70 24.5q-62 0 -111 -51t-49 -121q0 -50 28.5 -80.5t75.5 -30.5
q41 0 81 25.5t59 63.5h229q-43 -132 -159 -215.5t-257 -83.5z" />
    <glyph glyph-name="ordfeminine" unicode="&#xaa;" horiz-adv-x="710" 
d="M623 1354l14 39h194l-114 -574h-182v35q-74 -47 -166 -47q-107 0 -170.5 65.5t-63.5 171.5q0 34 6 72q26 132 114 210.5t210 78.5q98 0 158 -51zM424 993q52 0 91.5 40.5t39.5 99.5q0 40 -22.5 64t-59.5 24q-55 0 -94 -41.5t-39 -102.5q0 -38 23 -61t61 -23z" />
    <glyph glyph-name="guillemotleft" unicode="&#xab;" horiz-adv-x="1140" 
d="M670 1047l-6 -33l-308 -424l166 -387l-6 -33h-313l-174 412l12 55l297 410h332zM848 1047h330l-7 -33l-307 -424l166 -387l-6 -33h-313l-172 412l12 55z" />
    <glyph glyph-name="logicalnot" unicode="&#xac;" horiz-adv-x="1146" 
d="M999 309h-323l55 279h-643l62 309h968z" />
    <glyph glyph-name="uni00AD" unicode="&#xad;" horiz-adv-x="833" 
d="M739 471h-673l59 303h676z" />
    <glyph glyph-name="registered" unicode="&#xae;" horiz-adv-x="974" 
d="M664 1460q157 0 257.5 -107.5t100.5 -267.5q0 -49 -8 -90q-41 -203 -183 -325.5t-335 -122.5q-154 0 -256.5 108t-102.5 267q0 39 10 94q40 201 181.5 322.5t335.5 121.5zM881 1008q8 36 8 73q0 111 -67.5 181.5t-176.5 70.5q-131 0 -234 -93t-132 -236q-9 -44 -9 -80
q0 -114 66 -182t178 -68q130 0 234 95.5t133 238.5zM469 1229h168q67 0 105 -31.5t38 -85.5q0 -9 -4 -33q-21 -101 -104 -129l63 -149l-2 -13h-131l-63 164l-31 -164h-127zM612 1116h-43l-16 -92h41q21 0 37 12t20 33v10q0 37 -39 37z" />
    <glyph glyph-name="macron" unicode="&#xaf;" horiz-adv-x="1034" 
d="M887 1227h-684l47 229h686z" />
    <glyph glyph-name="degree" unicode="&#xb0;" horiz-adv-x="868" 
d="M487 745q-131 0 -217 85t-86 214q0 34 6 72q30 150 142 247t276 97q131 0 217 -81t86 -208q0 -31 -6 -69q-31 -151 -144.5 -254t-273.5 -103zM516 969q68 0 111 50t43 120q0 44 -27.5 71t-71.5 27q-61 0 -104 -47t-43 -117q0 -46 24 -75t68 -29z" />
    <glyph glyph-name="plusminus" unicode="&#xb1;" horiz-adv-x="999" 
d="M791 1241l-60 -293h264l-57 -291h-264l-53 -260h-304l52 260h-265l60 291h264l57 293h306zM809 0h-838l54 274h841z" />
    <glyph glyph-name="uni00B2" unicode="&#xb2;" horiz-adv-x="665" 
d="M772 1329q-12 -67 -52.5 -123t-123.5 -121l-104 -77l88 6h137l-39 -195h-584l29 156l311 237q62 47 85.5 74.5t23.5 52.5q0 21 -11.5 34t-31.5 13q-30 0 -50 -20.5t-28 -56.5h-225q25 132 114 207t224 75q111 0 177 -55t66 -150q0 -27 -6 -57z" />
    <glyph glyph-name="uni00B3" unicode="&#xb3;" horiz-adv-x="657" 
d="M772 1405q0 -56 -31.5 -104t-85.5 -80q74 -55 74 -150q0 -118 -94.5 -192t-241.5 -74q-125 0 -196.5 54t-71.5 145q0 28 6 55h227q-2 -6 -2 -17q0 -25 14.5 -39t39.5 -14q34 0 56.5 22t22.5 56q0 57 -59 57h-63l34 168h64q65 0 80 66q5 29 -8 46t-41 17q-31 0 -51 -18
t-25 -49h-217q22 113 103.5 175t209.5 62q115 0 185.5 -52t70.5 -134z" />
    <glyph glyph-name="acute" unicode="&#xb4;" horiz-adv-x="931" 
d="M686 1192h-266l4 14l178 295h324l-4 -16z" />
    <glyph glyph-name="uni00B5" unicode="&#xb5;" horiz-adv-x="1376" 
d="M1294 1085l-137 -688q-4 -28 -4 -37q0 -67 78 -67q37 0 53 2l-59 -295q-77 -12 -133 -12q-96 0 -162 37t-94 104q-141 -141 -369 -141q-51 0 -94 16l-29 -166l-35 -180h-356l287 1427h350l-123 -610q-6 -27 -6 -53q0 -65 36 -101t103 -36q84 0 143 52.5t78 143.5l121 604
h352z" />
    <glyph glyph-name="paragraph" unicode="&#xb6;" horiz-adv-x="1441" 
d="M680 1434h801l-328 -1643h-360l260 1301h-215l-263 -1301h-358l150 754q-126 29 -197.5 126t-71.5 234q0 39 11 107q38 191 194.5 306.5t376.5 115.5z" />
    <glyph glyph-name="periodcentered" unicode="&#xb7;" horiz-adv-x="532" 
d="M270 498q-79 0 -123.5 40t-44.5 111q0 15 4 43q17 85 78.5 135t147.5 50q78 0 123 -41.5t45 -112.5q0 -13 -4 -41q-17 -84 -78.5 -134t-147.5 -50z" />
    <glyph glyph-name="cedilla" unicode="&#xb8;" horiz-adv-x="638" 
d="M238 51l-86 -125q78 -10 119.5 -47t41.5 -96q0 -13 -4 -37q-41 -203 -332 -203q-105 0 -210 25l40 188q93 -22 154 -22q55 0 82 12t27 43q0 37 -68 37q-20 0 -70 -8l-24 43l127 190h203z" />
    <glyph glyph-name="uni00B9" unicode="&#xb9;" horiz-adv-x="534" 
d="M174 1386l307 191h187l-152 -758h-242l64 314l31 143l-99 -64z" />
    <glyph glyph-name="ordmasculine" unicode="&#xba;" horiz-adv-x="667" 
d="M399 807q-122 0 -194 67t-72 177q0 31 6 65q28 132 125.5 211.5t229.5 79.5q122 0 194 -67t72 -177q0 -31 -6 -65q-26 -131 -124 -211t-231 -80zM424 993q54 0 92.5 41t38.5 105q0 37 -22.5 59.5t-59.5 22.5q-49 0 -84.5 -31t-46.5 -84q-2 -10 -2 -27q0 -40 22 -63
t62 -23z" />
    <glyph glyph-name="guillemotright" unicode="&#xbb;" horiz-adv-x="1140" 
d="M457 1047l172 -412l-11 -55l-299 -410h-329l6 33l307 424l-166 387l6 33h314zM653 1047h314l172 -412l-13 -55l-297 -410h-329l6 33l307 424l-166 387z" />
    <glyph glyph-name="onequarter" unicode="&#xbc;" horiz-adv-x="1863" 
d="M487 676h-241l63 313l31 144l-98 -64l-97 174l308 191h186zM309 0l903 1434h265l-906 -1434h-262zM1548 758h250l-88 -436h80l-39 -195h-80l-24 -127h-222l27 127h-346l39 188zM1534 492l-164 -179h123l14 72z" />
    <glyph glyph-name="onehalf" unicode="&#xbd;" horiz-adv-x="1845" 
d="M487 676h-241l63 313l31 144l-98 -64l-97 174l308 191h186zM309 0l903 1434h265l-906 -1434h-262zM1788 510q-12 -67 -52.5 -123t-123.5 -121l-105 -78l88 7h138l-39 -195h-584l29 156l311 237q62 47 85.5 74.5t23.5 52.5q0 21 -11.5 34t-31.5 13q-61 0 -78 -78h-226
q25 133 114.5 208t223.5 75q111 0 177.5 -55t66.5 -150q0 -27 -6 -57z" />
    <glyph glyph-name="threequarters" unicode="&#xbe;" horiz-adv-x="1986" 
d="M700 928q0 -118 -94 -192t-241 -74q-125 0 -197 53.5t-72 144.5q0 28 6 55h228q-2 -6 -2 -16q0 -25 14 -39t39 -14q34 0 57 22t23 56q0 27 -15.5 42t-44.5 15h-63l35 168h63q65 0 80 65q5 29 -8 46.5t-41 17.5q-31 0 -51 -18.5t-25 -49.5h-217q22 113 103.5 175.5
t209.5 62.5q115 0 185.5 -52t70.5 -134q0 -56 -31.5 -105t-84.5 -80q73 -54 73 -149zM432 0l903 1434h264l-905 -1434h-262zM1671 758h250l-88 -436h80l-39 -195h-80l-25 -127h-221l27 127h-346l39 188zM1657 492l-164 -179h123l14 72z" />
    <glyph glyph-name="questiondown" unicode="&#xbf;" horiz-adv-x="1161" 
d="M705 1112q76 0 119.5 -41t43.5 -110q0 -98 -65 -163t-162 -65q-75 0 -119.5 41t-44.5 107q0 100 65 165.5t163 65.5zM444 635h344l-10 -55q-19 -101 -73.5 -167.5t-174.5 -133.5q-92 -52 -129.5 -89.5t-46.5 -85.5q-4 -20 -4 -30q0 -48 32.5 -76.5t90.5 -28.5
q78 0 132 48t69 130h334q-43 -239 -198 -376.5t-382 -137.5q-204 0 -324 103t-120 276q0 41 10 99q22 113 90.5 193t210.5 159q69 39 101.5 72.5t41.5 72.5z" />
    <glyph glyph-name="Agrave" unicode="&#xc0;" horiz-adv-x="1398" 
d="M1057 1571l-2 -17h-289l-178 285l2 19h350zM705 1434h348l233 -1391l-8 -43h-373l-24 229h-449l-119 -229h-407l10 43zM858 520l-57 430l-223 -430h280z" />
    <glyph glyph-name="Aacute" unicode="&#xc1;" horiz-adv-x="1398" 
d="M717 1571l221 287h358l-4 -17l-280 -287h-297zM-84 43l789 1391h348l233 -1391l-8 -43h-373l-24 229h-449l-119 -229h-407zM858 520l-57 430l-223 -430h280z" />
    <glyph glyph-name="Acircumflex" unicode="&#xc2;" horiz-adv-x="1398" 
d="M811 1860h303l207 -277l-2 -31h-275l-106 138l-160 -138h-291l5 31zM-84 43l789 1391h348l233 -1391l-8 -43h-373l-24 229h-449l-119 -229h-407zM858 520l-57 430l-223 -430h280z" />
    <glyph glyph-name="Atilde" unicode="&#xc3;" horiz-adv-x="1398" 
d="M838 1661q-61 0 -78 -78h-219q21 146 95 224.5t177 78.5q34 0 65 -10t41 -16t39 -25q49 -35 78 -35t49.5 22t26.5 62h217q-26 -152 -95.5 -230.5t-174.5 -78.5q-74 0 -144 53l-12 8t-12.5 8t-11.5 6.5t-13 6t-13 3t-15 1.5zM-84 43l789 1391h348l233 -1391l-8 -43h-373
l-24 229h-449l-119 -229h-407zM858 520l-57 430l-223 -430h280z" />
    <glyph glyph-name="Adieresis" unicode="&#xc4;" horiz-adv-x="1398" 
d="M666 1530q-73 0 -115.5 38.5t-42.5 100.5q0 90 63.5 150.5t153.5 60.5q73 0 115.5 -38.5t42.5 -100.5q0 -90 -63.5 -150.5t-153.5 -60.5zM1200 1880q73 0 115.5 -38.5t42.5 -100.5q0 -90 -63.5 -150.5t-153.5 -60.5q-73 0 -115.5 38.5t-42.5 100.5q0 90 63.5 150.5
t153.5 60.5zM-84 43l789 1391h348l233 -1391l-8 -43h-373l-24 229h-449l-119 -229h-407zM858 520l-57 430l-223 -430h280z" />
    <glyph glyph-name="Aring" unicode="&#xc5;" horiz-adv-x="1398" 
d="M897 1493q-102 0 -163.5 54.5t-61.5 144.5q0 26 6 53q23 114 107 184t200 70q103 0 164 -54.5t61 -144.5q0 -28 -6 -55q-22 -111 -106.5 -181.5t-200.5 -70.5zM852 1722q0 -31 20 -49t52 -18q45 0 76.5 31.5t31.5 78.5q0 31 -19.5 50.5t-51.5 19.5q-44 0 -76.5 -32.5
t-32.5 -80.5zM705 1434h348l233 -1391l-8 -43h-373l-24 229h-449l-119 -229h-407l10 43zM858 520l-57 430l-223 -430h280z" />
    <glyph glyph-name="AE" unicode="&#xc6;" horiz-adv-x="1935" 
d="M2009 1434l-63 -320h-551l-47 -237h507l-63 -316h-508l-47 -235h567l-67 -326h-930l45 223h-373l-153 -223h-432l10 43l1011 1391h1094zM1010 1018l-332 -506h231z" />
    <glyph glyph-name="Ccedilla" unicode="&#xc7;" horiz-adv-x="1556" 
d="M748 324q124 0 224 65t165 195h385q-77 -259 -268.5 -419t-448.5 -188l-41 -65q77 -9 118.5 -43.5t41.5 -91.5q0 -13 -4 -37q-19 -101 -103.5 -149t-216.5 -48q-103 0 -203 25l39 180q95 -20 148 -20q52 0 78 12t26 41q0 35 -63 35q-23 0 -68 -9l-25 41l80 132
q-239 31 -381.5 197.5t-142.5 412.5q0 92 16 168q63 314 295.5 508t542.5 194q272 0 441.5 -164.5t172.5 -431.5h-366q-10 117 -86 181.5t-193 64.5q-159 0 -278.5 -108.5t-153.5 -282.5q-10 -55 -10 -94q0 -133 76.5 -217t202.5 -84z" />
    <glyph glyph-name="Egrave" unicode="&#xc8;" horiz-adv-x="1159" 
d="M954 1571l-2 -17h-288l-179 285l2 19h351zM1237 1434l-63 -320h-551l-48 -231h510l-65 -314h-506l-49 -243h563l-63 -326h-934l286 1434h920z" />
    <glyph glyph-name="Eacute" unicode="&#xc9;" horiz-adv-x="1159" 
d="M1192 1858l-4 -17l-281 -287h-297l2 17l222 287h358zM1237 1434l-63 -320h-551l-48 -231h510l-65 -314h-506l-49 -243h563l-63 -326h-934l286 1434h920z" />
    <glyph glyph-name="Ecircumflex" unicode="&#xca;" horiz-adv-x="1159" 
d="M942 1552l-106 138l-160 -138h-291l4 31l320 277h303l207 -277l-2 -31h-275zM1237 1434l-63 -320h-551l-48 -231h510l-65 -314h-506l-49 -243h563l-63 -326h-934l286 1434h920z" />
    <glyph glyph-name="Edieresis" unicode="&#xcb;" horiz-adv-x="1159" 
d="M563 1530q-73 0 -115 38.5t-42 100.5q0 90 63.5 150.5t153.5 60.5q73 0 115 -38.5t42 -100.5q0 -90 -63.5 -150.5t-153.5 -60.5zM1098 1880q73 0 115 -38.5t42 -100.5q0 -90 -63.5 -150.5t-153.5 -60.5q-73 0 -115 38.5t-42 100.5q0 90 63.5 150.5t153.5 60.5zM965 0
h-934l286 1434h920l-63 -320h-551l-48 -231h510l-65 -314h-506l-49 -243h563z" />
    <glyph glyph-name="Igrave" unicode="&#xcc;" horiz-adv-x="942" 
d="M829 1571l-2 -17h-288l-179 285l2 19h351zM1038 1434l-63 -316h-201l-160 -805h205l-63 -313h-787l64 313h205l161 805h-200l63 316h776z" />
    <glyph glyph-name="Iacute" unicode="&#xcd;" horiz-adv-x="942" 
d="M487 1571l222 287h358l-4 -17l-281 -287h-297zM399 1118h-200l63 316h776l-63 -316h-201l-160 -805h205l-63 -313h-787l64 313h205z" />
    <glyph glyph-name="Icircumflex" unicode="&#xce;" horiz-adv-x="942" 
d="M584 1860h303l207 -277l-2 -31h-275l-106 138l-160 -138h-291l4 31zM399 1118h-200l63 316h776l-63 -316h-201l-160 -805h205l-63 -313h-787l64 313h205z" />
    <glyph glyph-name="Idieresis" unicode="&#xcf;" horiz-adv-x="942" 
d="M438 1530q-73 0 -115 38.5t-42 100.5q0 90 63.5 150.5t153.5 60.5q73 0 115 -38.5t42 -100.5q0 -90 -63.5 -150.5t-153.5 -60.5zM973 1880q73 0 115 -38.5t42 -100.5q0 -90 -63.5 -150.5t-153.5 -60.5q-73 0 -115 38.5t-42 100.5q0 90 63.5 150.5t153.5 60.5zM399 1118
h-200l63 316h776l-63 -316h-201l-160 -805h205l-63 -313h-787l64 313h205z" />
    <glyph glyph-name="Eth" unicode="&#xd0;" horiz-adv-x="1503" 
d="M334 1434h534q184 0 326.5 -77t219.5 -213t77 -308q0 -87 -16 -160q-42 -202 -163.5 -355.5t-303 -237t-396.5 -83.5h-565l117 584h-146l56 268h143zM1102 719q10 52 10 88q0 129 -79.5 208t-213.5 79h-182l-49 -246h280l-51 -260h-278l-50 -246h173q158 0 281.5 106
t158.5 271z" />
    <glyph glyph-name="Ntilde" unicode="&#xd1;" horiz-adv-x="1445" 
d="M817 1661q-61 0 -78 -78h-219q21 146 95.5 224.5t177.5 78.5q34 0 65 -10t41 -16t39 -25q49 -35 78 -35t49.5 22t26.5 62h217q-26 -152 -96 -230.5t-175 -78.5q-73 0 -143 53q-2 2 -10 7t-11 7t-10 6t-11.5 5.5l-10.5 3.5t-12.5 3t-12.5 1zM1032 1036l80 398h373
l-287 -1434h-258l-397 743l-60 -346l-80 -397h-372l286 1434h254l400 -752z" />
    <glyph glyph-name="Ograve" unicode="&#xd2;" horiz-adv-x="1601" 
d="M1157 1554h-289l-178 285l2 19h350l117 -287zM707 -27q-184 0 -325.5 79t-218.5 218.5t-77 317.5q0 82 18 170q42 208 164.5 367.5t304.5 247t396 87.5q279 0 449.5 -172t170.5 -444q0 -92 -16 -168q-63 -315 -302 -509t-564 -194zM756 324q159 0 283 111.5t159 283.5
q10 55 10 94q0 133 -77.5 215t-208.5 82q-160 0 -284.5 -111.5t-158.5 -283.5q-10 -55 -10 -97q0 -132 78.5 -213t208.5 -81z" />
    <glyph glyph-name="Oacute" unicode="&#xd3;" horiz-adv-x="1601" 
d="M1112 1554h-297l2 17l221 287h359l-4 -17zM707 -27q-184 0 -325.5 79t-218.5 218.5t-77 317.5q0 82 18 170q42 208 164.5 367.5t304.5 247t396 87.5q279 0 449.5 -172t170.5 -444q0 -92 -16 -168q-63 -315 -302 -509t-564 -194zM756 324q159 0 283 111.5t159 283.5
q10 55 10 94q0 133 -77.5 215t-208.5 82q-160 0 -284.5 -111.5t-158.5 -283.5q-10 -55 -10 -97q0 -132 78.5 -213t208.5 -81z" />
    <glyph glyph-name="Ocircumflex" unicode="&#xd4;" horiz-adv-x="1601" 
d="M1145 1552l-107 138l-159 -138h-291l4 31l319 277h303l207 -277l-2 -31h-274zM969 1460q279 0 449.5 -172t170.5 -444q0 -92 -16 -168q-63 -315 -302 -509t-564 -194q-184 0 -325.5 79t-218.5 218.5t-77 317.5q0 82 18 170q42 208 164.5 367.5t304.5 247t396 87.5z
M1198 719q10 55 10 94q0 133 -77.5 215t-208.5 82q-160 0 -284.5 -111.5t-158.5 -283.5q-10 -55 -10 -97q0 -132 78.5 -213t208.5 -81q159 0 283 111.5t159 283.5z" />
    <glyph glyph-name="Otilde" unicode="&#xd5;" horiz-adv-x="1601" 
d="M1159 1575q-73 0 -143 53q-2 2 -10 7t-11 7t-10 6t-11.5 5.5l-10.5 3.5t-12.5 3t-12.5 1q-61 0 -78 -78h-219q21 146 95 224.5t177 78.5q32 0 59.5 -7.5t43.5 -16.5t36 -22q5 -3 7 -5q49 -35 78 -35t49 22t26 62h218q-26 -152 -96 -230.5t-175 -78.5zM707 -27
q-184 0 -325.5 79t-218.5 218.5t-77 317.5q0 82 18 170q42 208 164.5 367.5t304.5 247t396 87.5q279 0 449.5 -172t170.5 -444q0 -92 -16 -168q-63 -315 -302 -509t-564 -194zM756 324q159 0 283 111.5t159 283.5q10 55 10 94q0 133 -77.5 215t-208.5 82
q-160 0 -284.5 -111.5t-158.5 -283.5q-10 -55 -10 -97q0 -132 78.5 -213t208.5 -81z" />
    <glyph glyph-name="Odieresis" unicode="&#xd6;" horiz-adv-x="1601" 
d="M768 1530q-73 0 -115.5 38.5t-42.5 100.5q0 90 63.5 150.5t153.5 60.5q73 0 115.5 -38.5t42.5 -100.5q0 -90 -63.5 -150.5t-153.5 -60.5zM1243 1530q-73 0 -115.5 38.5t-42.5 100.5q0 90 64 150.5t154 60.5q73 0 115 -38.5t42 -100.5q0 -90 -63.5 -150.5t-153.5 -60.5z
M707 -27q-184 0 -325.5 79t-218.5 218.5t-77 317.5q0 82 18 170q42 208 164.5 367.5t304.5 247t396 87.5q279 0 449.5 -172t170.5 -444q0 -92 -16 -168q-63 -315 -302 -509t-564 -194zM756 324q159 0 283 111.5t159 283.5q10 55 10 94q0 133 -77.5 215t-208.5 82
q-160 0 -284.5 -111.5t-158.5 -283.5q-10 -55 -10 -97q0 -132 78.5 -213t208.5 -81z" />
    <glyph glyph-name="multiply" unicode="&#xd7;" horiz-adv-x="950" 
d="M782 1135l183 -234l-248 -209l166 -209l-234 -198l-166 209l-247 -209l-183 231l248 211l-166 209l234 197l166 -209z" />
    <glyph glyph-name="Oslash" unicode="&#xd8;" horiz-adv-x="1601" 
d="M1309 1579h329l-8 -45l-196 -260q157 -171 157 -428q0 -82 -18 -170q-63 -315 -302 -509t-564 -194q-121 0 -224 35l-114 -153h-330l8 43l195 262q-156 174 -156 426q0 84 18 172q63 315 301.5 508.5t565.5 193.5q120 0 223 -35zM1198 719q10 55 10 94q0 133 -77.5 215
t-208.5 82q-160 0 -284.5 -111.5t-158.5 -283.5q-10 -55 -10 -97q0 -132 78.5 -213t208.5 -81q159 0 283 111.5t159 283.5z" />
    <glyph glyph-name="Ugrave" unicode="&#xd9;" horiz-adv-x="1411" 
d="M1061 1554h-289l-178 285l2 19h350l117 -287zM616 -23q-230 0 -367.5 120.5t-137.5 322.5q0 56 12 121l180 893h375l-176 -885q-8 -46 -8 -66q0 -74 42.5 -114.5t120.5 -40.5q98 0 164.5 58t89.5 165l176 883h375l-184 -932q-50 -249 -223 -387t-439 -138z" />
    <glyph glyph-name="Uacute" unicode="&#xda;" horiz-adv-x="1411" 
d="M1018 1554h-297l2 17l221 287h359l-5 -17zM616 -23q-230 0 -367.5 120.5t-137.5 322.5q0 56 12 121l180 893h375l-176 -885q-8 -46 -8 -66q0 -74 42.5 -114.5t120.5 -40.5q98 0 164.5 58t89.5 165l176 883h375l-184 -932q-50 -249 -223 -387t-439 -138z" />
    <glyph glyph-name="Ucircumflex" unicode="&#xdb;" horiz-adv-x="1411" 
d="M1051 1552l-107 138l-160 -138h-290l4 31l319 277h303l207 -277l-2 -31h-274zM911 551l176 883h375l-184 -932q-50 -249 -223 -387t-439 -138q-230 0 -367.5 120.5t-137.5 322.5q0 56 12 121l180 893h375l-176 -885q-8 -46 -8 -66q0 -74 42.5 -114.5t120.5 -40.5
q98 0 164.5 58t89.5 165z" />
    <glyph glyph-name="Udieresis" unicode="&#xdc;" horiz-adv-x="1411" 
d="M672 1530q-73 0 -115.5 38.5t-42.5 100.5q0 90 63.5 150.5t153.5 60.5q73 0 115.5 -38.5t42.5 -100.5q0 -90 -63.5 -150.5t-153.5 -60.5zM1147 1530q-73 0 -115.5 38.5t-42.5 100.5q0 90 63.5 150.5t153.5 60.5q73 0 115.5 -38.5t42.5 -100.5q0 -90 -63.5 -150.5
t-153.5 -60.5zM616 -23q-230 0 -367.5 120.5t-137.5 322.5q0 56 12 121l180 893h375l-176 -885q-8 -46 -8 -66q0 -74 42.5 -114.5t120.5 -40.5q98 0 164.5 58t89.5 165l176 883h375l-184 -932q-50 -249 -223 -387t-439 -138z" />
    <glyph glyph-name="Yacute" unicode="&#xdd;" horiz-adv-x="1345" 
d="M1227 1858l-4 -17l-281 -287h-297l2 17l221 287h359zM1073 1434h436l-10 -48l-643 -817l-113 -569h-374l118 600l-303 791l9 43h376l80 -232l78 -250l176 250z" />
    <glyph glyph-name="Thorn" unicode="&#xde;" horiz-adv-x="1253" 
d="M653 1237h164q201 0 320.5 -114.5t119.5 -303.5q0 -48 -14 -127q-47 -240 -197.5 -364.5t-394.5 -124.5h-205l-40 -203h-375l286 1434h375zM879 715q6 24 6 49q0 63 -36 101t-99 38h-170l-74 -375h160q84 0 140 49t73 138z" />
    <glyph glyph-name="germandbls" unicode="&#xdf;" horiz-adv-x="1304" 
d="M1292 1092q-41 -226 -241 -318q78 -46 122 -126.5t44 -178.5q0 -41 -9 -84q-79 -408 -528 -408q-115 0 -236 23l60 295q90 -19 139 -19q97 0 152.5 41t74.5 129q7 31 7 52q0 70 -44 109.5t-126 39.5h-101l53 264h99q74 0 130 47t73 123q4 24 4 35q0 58 -41 93.5
t-109 35.5q-92 0 -156.5 -57.5t-87.5 -165.5l-202 -1022h-346l206 1042q46 235 209.5 364.5t415.5 129.5q198 0 322 -103.5t124 -265.5q0 -21 -8 -75z" />
    <glyph glyph-name="agrave" unicode="&#xe0;" horiz-adv-x="1376" 
d="M913 1206l-4 -14h-258l-125 295l4 16h320zM1010 983l34 102h310l-217 -1085h-285v90q-154 -113 -348 -113q-203 0 -327 126.5t-124 328.5q0 62 15 133q49 248 217.5 395.5t400.5 147.5q205 0 324 -125zM598 289q102 0 183 72t104 184q6 34 6 63q0 87 -50 138t-136 51
q-102 0 -181 -69t-102 -181q-8 -33 -8 -72q0 -88 49 -137t135 -49z" />
    <glyph glyph-name="aacute" unicode="&#xe1;" horiz-adv-x="1376" 
d="M1137 1501l-4 -16l-236 -293h-266l4 14l178 295h324zM1010 983l34 102h310l-217 -1085h-285v90q-154 -113 -348 -113q-203 0 -327 126.5t-124 328.5q0 62 15 133q49 248 217.5 395.5t400.5 147.5q205 0 324 -125zM598 289q102 0 183 72t104 184q6 34 6 63q0 87 -50 138
t-136 51q-102 0 -181 -69t-102 -181q-8 -33 -8 -72q0 -88 49 -137t135 -49z" />
    <glyph glyph-name="acircumflex" unicode="&#xe2;" horiz-adv-x="1376" 
d="M922 1190l-109 141l-168 -141h-307l6 33l336 284h317l217 -284l-4 -33h-288zM1010 983l34 102h310l-217 -1085h-285v90q-154 -113 -348 -113q-203 0 -327 126.5t-124 328.5q0 62 15 133q49 248 217.5 395.5t400.5 147.5q205 0 324 -125zM598 289q102 0 183 72t104 184
q6 34 6 63q0 87 -50 138t-136 51q-102 0 -181 -69t-102 -181q-8 -33 -8 -72q0 -88 49 -137t135 -49z" />
    <glyph glyph-name="atilde" unicode="&#xe3;" horiz-adv-x="1376" 
d="M694 1274q-60 0 -76 -90h-217q22 163 98 249.5t179 86.5q41 0 72 -15t67 -43q23 -19 35 -27.5t31 -17t37 -8.5q58 0 71 100h217q-56 -333 -288 -333q-35 0 -65.5 10.5t-46 21t-36.5 29.5q-3 2 -12 8.5t-12.5 9t-11 7.5t-13 7t-13.5 3.5t-16 1.5zM1010 983l34 102h310
l-217 -1085h-285v90q-154 -113 -348 -113q-203 0 -327 126.5t-124 328.5q0 62 15 133q49 248 217.5 395.5t400.5 147.5q205 0 324 -125zM598 289q102 0 183 72t104 184q6 34 6 63q0 87 -50 138t-136 51q-102 0 -181 -69t-102 -181q-8 -33 -8 -72q0 -88 49 -137t135 -49z" />
    <glyph glyph-name="adieresis" unicode="&#xe4;" horiz-adv-x="1376" 
d="M524 1178q-76 0 -121 41t-45 108q0 96 67 158.5t167 62.5q76 0 121 -40.5t45 -108.5q0 -94 -68 -157.5t-166 -63.5zM1024 1178q-77 0 -122.5 41.5t-45.5 109.5q0 95 68 157t168 62q76 0 119.5 -40t43.5 -107q0 -95 -67 -159t-164 -64zM1010 983l34 102h310l-217 -1085
h-285v90q-154 -113 -348 -113q-203 0 -327 126.5t-124 328.5q0 62 15 133q49 248 217.5 395.5t400.5 147.5q205 0 324 -125zM598 289q102 0 183 72t104 184q6 34 6 63q0 87 -50 138t-136 51q-102 0 -181 -69t-102 -181q-8 -33 -8 -72q0 -88 49 -137t135 -49z" />
    <glyph glyph-name="aring" unicode="&#xe5;" horiz-adv-x="1376" 
d="M772 1171q-100 0 -159.5 56t-59.5 147q0 29 6 56q22 113 108.5 185.5t204.5 72.5q100 0 160 -56t60 -145q0 -134 -93.5 -225t-226.5 -91zM729 1405q0 -33 20.5 -53.5t53.5 -20.5q42 0 72.5 27.5t39.5 71.5q3 12 3 22q0 33 -20.5 53.5t-53.5 20.5q-48 0 -81.5 -35
t-33.5 -86zM1010 983l34 102h310l-217 -1085h-285v90q-154 -113 -348 -113q-203 0 -327 126.5t-124 328.5q0 62 15 133q49 248 217.5 395.5t400.5 147.5q205 0 324 -125zM598 289q102 0 183 72t104 184q6 34 6 63q0 87 -50 138t-136 51q-102 0 -181 -69t-102 -181
q-8 -33 -8 -72q0 -88 49 -137t135 -49z" />
    <glyph glyph-name="ae" unicode="&#xe6;" horiz-adv-x="2088" 
d="M2017 438h-778q6 -81 54.5 -124.5t127.5 -43.5q111 0 187 76h370q-79 -172 -228 -271.5t-333 -99.5q-203 0 -325 119l-31 -94h-244l4 72q-146 -97 -323 -97q-205 0 -325 127.5t-120 329.5q0 58 13 131q48 244 215.5 395.5t398.5 151.5q201 0 321 -123l31 98h244l-6 -77
q159 102 329 102q209 0 331 -126.5t122 -326.5q0 -113 -35 -219zM1280 647h432q-8 77 -53.5 123.5t-126.5 46.5q-82 0 -147 -43.5t-105 -126.5zM594 287q103 0 184 70t105 188q6 34 6 61q0 88 -51.5 140.5t-137.5 52.5q-101 0 -182 -73t-104 -185q-6 -35 -6 -64
q0 -87 50 -138.5t136 -51.5z" />
    <glyph glyph-name="ccedilla" unicode="&#xe7;" horiz-adv-x="1241" 
d="M690 799q-100 0 -177 -71.5t-99 -184.5q-6 -35 -6 -64q0 -88 48 -140t132 -52q76 0 140.5 43t102.5 121h347q-62 -199 -209.5 -324t-347.5 -147l-37 -54q78 -10 119.5 -47t41.5 -96q0 -13 -4 -37q-41 -203 -331 -203q-106 0 -211 25l41 188q93 -22 153 -22q55 0 82 12
t27 43q0 37 -68 37q-19 0 -69 -8l-25 43l84 125q-174 32 -274.5 152.5t-100.5 297.5q0 58 12 123q33 164 126 289.5t232 193.5t302 68q227 0 360 -129.5t125 -343.5h-340q-6 79 -51 120.5t-125 41.5z" />
    <glyph glyph-name="egrave" unicode="&#xe8;" horiz-adv-x="1243" 
d="M885 1206l-4 -14h-258l-125 295l4 16h319zM1171 438h-776q4 -81 52 -124.5t128 -43.5q111 0 187 76h368q-83 -172 -239 -271.5t-352 -99.5q-224 0 -357 125t-133 330q0 62 12 129q33 164 126 289.5t232 193.5t302 68q225 0 357 -126.5t132 -326.5q0 -109 -39 -219z
M438 647h428q-8 77 -53.5 123.5t-126.5 46.5t-145 -44.5t-103 -125.5z" />
    <glyph glyph-name="eacute" unicode="&#xe9;" horiz-adv-x="1243" 
d="M1108 1501l-4 -16l-236 -293h-266l4 14l178 295h324zM1171 438h-776q4 -81 52 -124.5t128 -43.5q111 0 187 76h368q-83 -172 -239 -271.5t-352 -99.5q-224 0 -357 125t-133 330q0 62 12 129q33 164 126 289.5t232 193.5t302 68q225 0 357 -126.5t132 -326.5
q0 -109 -39 -219zM438 647h428q-8 77 -53.5 123.5t-126.5 46.5t-145 -44.5t-103 -125.5z" />
    <glyph glyph-name="ecircumflex" unicode="&#xea;" horiz-adv-x="1243" 
d="M893 1190l-109 141l-168 -141h-307l6 33l336 284h318l217 -284l-4 -33h-289zM1171 438h-776q4 -81 52 -124.5t128 -43.5q111 0 187 76h368q-83 -172 -239 -271.5t-352 -99.5q-224 0 -357 125t-133 330q0 62 12 129q33 164 126 289.5t232 193.5t302 68q225 0 357 -126.5
t132 -326.5q0 -109 -39 -219zM438 647h428q-8 77 -53.5 123.5t-126.5 46.5t-145 -44.5t-103 -125.5z" />
    <glyph glyph-name="edieresis" unicode="&#xeb;" horiz-adv-x="1243" 
d="M496 1178q-76 0 -121 41t-45 108q0 96 66.5 158.5t166.5 62.5q76 0 121 -40.5t45 -108.5q0 -94 -67.5 -157.5t-165.5 -63.5zM1063 1548q76 0 120 -40t44 -107q0 -95 -67.5 -159t-164.5 -64q-77 0 -122.5 41.5t-45.5 109.5q0 95 68 157t168 62zM721 1110q225 0 357 -126.5
t132 -326.5q0 -109 -39 -219h-776q4 -81 52 -124.5t128 -43.5q111 0 187 76h368q-83 -172 -239 -271.5t-352 -99.5q-224 0 -357 125t-133 330q0 62 12 129q33 164 126 289.5t232 193.5t302 68zM438 647h428q-8 77 -53.5 123.5t-126.5 46.5t-145 -44.5t-103 -125.5z" />
    <glyph glyph-name="igrave" unicode="&#xec;" horiz-adv-x="612" 
d="M565 1188h-262l-94 285l4 18h324l32 -287zM373 0h-350l217 1085h350z" />
    <glyph glyph-name="iacute" unicode="&#xed;" horiz-adv-x="612" 
d="M549 1188h-264l4 16l151 287h322l-4 -18zM373 0h-350l217 1085h350z" />
    <glyph glyph-name="icircumflex" unicode="&#xee;" horiz-adv-x="612" 
d="M322 1501h309l174 -280l-6 -33h-273l-75 133l-125 -133h-297l4 33zM373 0h-350l217 1085h350z" />
    <glyph glyph-name="idieresis" unicode="&#xef;" horiz-adv-x="612" 
d="M203 1178q-73 0 -116.5 41t-43.5 108q0 96 63.5 158.5t159.5 62.5q72 0 114 -40.5t42 -106.5q0 -95 -64 -159t-155 -64zM676 1178q-73 0 -116.5 41t-43.5 108q0 96 63.5 158.5t159.5 62.5q72 0 114 -40.5t42 -106.5q0 -95 -64 -159t-155 -64zM373 0h-350l217 1085h350z
" />
    <glyph glyph-name="eth" unicode="&#xf0;" horiz-adv-x="1275" 
d="M981 1260l158 -291q92 -169 92 -316q0 -61 -12 -125q-51 -248 -235 -401.5t-437 -153.5q-226 0 -362 127t-136 332q0 58 12 123q47 237 213 383.5t426 159.5l-43 76l-258 -70l31 153l158 43l-74 134l8 34h346l45 -82l273 72l-31 -151zM872 545q7 35 7 59
q0 88 -50.5 141.5t-136.5 53.5q-101 0 -181 -72.5t-103 -183.5q-7 -35 -7 -60q0 -87 50.5 -139.5t136.5 -52.5q101 0 181 72t103 182z" />
    <glyph glyph-name="ntilde" unicode="&#xf1;" horiz-adv-x="1312" 
d="M702 1274q-32 0 -49.5 -22.5t-25.5 -67.5h-217q22 163 97.5 249.5t178.5 86.5q41 0 72 -15t67 -43q23 -19 35 -27.5t31 -17t37 -8.5q58 0 71 100h218q-28 -165 -101 -249t-188 -84q-35 0 -65.5 10.5t-46 21t-36.5 29.5q-3 2 -12 8.5t-12.5 9t-11 7.5t-13 7t-13.5 3.5
t-16 1.5zM887 1106q162 0 252 -93t90 -255q0 -58 -12 -125l-127 -633h-353l121 610q6 30 6 56q0 65 -37 100t-104 35q-88 0 -149 -53t-80 -144l-121 -604h-350l217 1085h321l-10 -106q136 127 336 127z" />
    <glyph glyph-name="ograve" unicode="&#xf2;" horiz-adv-x="1277" 
d="M893 1192h-258l-125 295l4 16h320l63 -297zM549 -25q-227 0 -361.5 125.5t-134.5 337.5q0 71 15 144q29 153 122 273t234 187.5t307 67.5q229 0 364.5 -126.5t135.5 -334.5q0 -69 -14 -135q-50 -240 -233 -389.5t-435 -149.5zM592 299q102 0 176.5 67t97.5 181q6 30 6 59
q0 85 -48.5 132.5t-133.5 47.5q-102 0 -176.5 -66.5t-97.5 -178.5q-6 -35 -6 -64q0 -83 49 -130.5t133 -47.5z" />
    <glyph glyph-name="oacute" unicode="&#xf3;" horiz-adv-x="1277" 
d="M881 1192h-267l4 14l179 295h323l-4 -16zM549 -25q-227 0 -361.5 125.5t-134.5 337.5q0 71 15 144q29 153 122 273t234 187.5t307 67.5q229 0 364.5 -126.5t135.5 -334.5q0 -69 -14 -135q-50 -240 -233 -389.5t-435 -149.5zM592 299q102 0 176.5 67t97.5 181q6 30 6 59
q0 85 -48.5 132.5t-133.5 47.5q-102 0 -176.5 -66.5t-97.5 -178.5q-6 -35 -6 -64q0 -83 49 -130.5t133 -47.5z" />
    <glyph glyph-name="ocircumflex" unicode="&#xf4;" horiz-adv-x="1277" 
d="M905 1190l-108 141l-168 -141h-307l6 33l336 284h317l217 -284l-4 -33h-289zM731 1110q229 0 364.5 -126.5t135.5 -334.5q0 -69 -14 -135q-50 -240 -233 -389.5t-435 -149.5q-227 0 -361.5 125.5t-134.5 337.5q0 71 15 144q29 153 122 273t234 187.5t307 67.5zM866 547
q6 30 6 59q0 85 -48.5 132.5t-133.5 47.5q-102 0 -176.5 -66.5t-97.5 -178.5q-6 -35 -6 -64q0 -83 49 -130.5t133 -47.5q102 0 176.5 67t97.5 181z" />
    <glyph glyph-name="otilde" unicode="&#xf5;" horiz-adv-x="1277" 
d="M903 1176q-35 0 -65 10.5t-45 21t-37 29.5q-3 2 -12 8.5t-12.5 9t-11 7.5t-13 7t-13.5 3.5t-16 1.5q-60 0 -76 -90h-217q22 163 98 249.5t179 86.5q41 0 72 -15t67 -43q23 -19 34.5 -27.5t30.5 -17t37 -8.5q59 0 72 100h217q-28 -165 -101 -249t-188 -84zM549 -25
q-227 0 -361.5 125.5t-134.5 337.5q0 71 15 144q29 153 122 273t234 187.5t307 67.5q229 0 364.5 -126.5t135.5 -334.5q0 -69 -14 -135q-50 -240 -233 -389.5t-435 -149.5zM592 299q102 0 176.5 67t97.5 181q6 30 6 59q0 85 -48.5 132.5t-133.5 47.5q-102 0 -176.5 -66.5
t-97.5 -178.5q-6 -35 -6 -64q0 -83 49 -130.5t133 -47.5z" />
    <glyph glyph-name="odieresis" unicode="&#xf6;" horiz-adv-x="1277" 
d="M508 1178q-76 0 -121 41t-45 108q0 96 66.5 158.5t166.5 62.5q76 0 121 -40.5t45 -108.5q0 -94 -67.5 -157.5t-165.5 -63.5zM1008 1178q-77 0 -122.5 41.5t-45.5 109.5q0 95 67.5 157t167.5 62q76 0 120 -40t44 -107q0 -95 -67 -159t-164 -64zM549 -25
q-227 0 -361.5 125.5t-134.5 337.5q0 71 15 144q29 153 122 273t234 187.5t307 67.5q229 0 364.5 -126.5t135.5 -334.5q0 -69 -14 -135q-50 -240 -233 -389.5t-435 -149.5zM592 299q102 0 176.5 67t97.5 181q6 30 6 59q0 85 -48.5 132.5t-133.5 47.5q-102 0 -176.5 -66.5
t-97.5 -178.5q-6 -35 -6 -64q0 -83 49 -130.5t133 -47.5z" />
    <glyph glyph-name="divide" unicode="&#xf7;" horiz-adv-x="958" 
d="M563 961q-72 0 -112.5 38t-40.5 103q0 100 65 163.5t162 63.5q72 0 113 -38t41 -103q0 -25 -5 -45q-17 -83 -77.5 -132.5t-145.5 -49.5zM883 569h-799l57 285h799zM389 92q-72 0 -112.5 39t-40.5 105q0 100 65 162.5t162 62.5q72 0 112.5 -37t40.5 -102q0 -30 -4 -46
q-17 -84 -78 -134t-145 -50z" />
    <glyph glyph-name="oslash" unicode="&#xf8;" horiz-adv-x="1277" 
d="M1044 1255h291l-6 -34l-207 -263q111 -124 111 -303q0 -66 -14 -129q-51 -248 -234 -399.5t-436 -151.5q-89 0 -176 23l-133 -168h-291l8 37l203 258q-111 120 -111 307q0 60 12 127q49 249 233.5 400t436.5 151q97 0 180 -25zM872 545q7 40 7 63q0 87 -50.5 139
t-134.5 52q-102 0 -181.5 -72.5t-102.5 -185.5q-7 -40 -7 -64q0 -86 50 -138t135 -52q102 0 181.5 72.5t102.5 185.5z" />
    <glyph glyph-name="ugrave" unicode="&#xf9;" horiz-adv-x="1300" 
d="M911 1206l-4 -14h-258l-125 295l4 16h320zM805 481l121 604h352l-217 -1085h-322l11 111q-128 -131 -328 -131q-164 0 -252 88t-88 249q0 67 14 136l127 632h352l-122 -610q-7 -35 -7 -55q0 -65 36 -100t102 -35q84 0 143 52.5t78 143.5z" />
    <glyph glyph-name="uacute" unicode="&#xfa;" horiz-adv-x="1300" 
d="M1133 1501l-5 -16l-235 -293h-266l4 14l178 295h324zM805 481l121 604h352l-217 -1085h-322l11 111q-128 -131 -328 -131q-164 0 -252 88t-88 249q0 67 14 136l127 632h352l-122 -610q-7 -35 -7 -55q0 -65 36 -100t102 -35q84 0 143 52.5t78 143.5z" />
    <glyph glyph-name="ucircumflex" unicode="&#xfb;" horiz-adv-x="1300" 
d="M918 1190l-109 141l-168 -141h-307l6 33l336 284h317l217 -284l-4 -33h-288zM805 481l121 604h352l-217 -1085h-322l11 111q-128 -131 -328 -131q-164 0 -252 88t-88 249q0 67 14 136l127 632h352l-122 -610q-7 -35 -7 -55q0 -65 36 -100t102 -35q84 0 143 52.5t78 143.5
z" />
    <glyph glyph-name="udieresis" unicode="&#xfc;" horiz-adv-x="1300" 
d="M522 1178q-76 0 -121 41t-45 108q0 96 67 158.5t167 62.5q76 0 121 -40.5t45 -108.5q0 -94 -68 -157.5t-166 -63.5zM1022 1178q-77 0 -122.5 41.5t-45.5 109.5q0 95 68 157t168 62q76 0 119.5 -40t43.5 -107q0 -95 -67 -159t-164 -64zM805 481l121 604h352l-217 -1085
h-322l11 111q-128 -131 -328 -131q-164 0 -252 88t-88 249q0 67 14 136l127 632h352l-122 -610q-7 -35 -7 -55q0 -65 36 -100t102 -35q84 0 143 52.5t78 143.5z" />
    <glyph glyph-name="yacute" unicode="&#xfd;" horiz-adv-x="1179" 
d="M1040 1501l-4 -16l-235 -293h-266l4 14l178 295h323zM670 705l207 380h389l-9 -36l-821 -1391h-387l6 33l262 426l-196 932l8 36h350l66 -378l24 -203z" />
    <glyph glyph-name="thorn" unicode="&#xfe;" horiz-adv-x="1355" 
d="M860 1108q203 0 324 -124t121 -325q0 -57 -13 -133q-51 -251 -217 -400t-397 -149q-172 0 -289 93l-84 -412h-352l356 1776h353l-78 -394q124 68 276 68zM942 543q6 34 6 65q0 88 -49 140.5t-135 52.5q-101 0 -181.5 -72.5t-103.5 -185.5q-6 -35 -6 -64q0 -88 50 -141
t136 -53q101 0 181 73t102 185z" />
    <glyph glyph-name="ydieresis" unicode="&#xff;" horiz-adv-x="1179" 
d="M428 1178q-76 0 -121 41t-45 108q0 96 67 158.5t167 62.5q76 0 121 -40.5t45 -108.5q0 -94 -68 -157.5t-166 -63.5zM928 1178q-77 0 -122.5 41.5t-45.5 109.5q0 95 67.5 157t167.5 62q76 0 120 -40t44 -107q0 -95 -67 -159t-164 -64zM670 705l207 380h389l-9 -36
l-821 -1391h-387l6 33l262 426l-196 932l8 36h350l66 -378l24 -203z" />
    <glyph glyph-name="Amacron" unicode="&#x100;" horiz-adv-x="1398" 
d="M610 1825h693l-48 -246h-694zM-84 43l789 1391h348l233 -1391l-8 -43h-373l-24 229h-449l-119 -229h-407zM858 520l-57 430l-223 -430h280z" />
    <glyph glyph-name="amacron" unicode="&#x101;" horiz-adv-x="1376" 
d="M483 1456h686l-49 -229h-684zM1010 983l34 102h310l-217 -1085h-285v90q-154 -113 -348 -113q-203 0 -327 126.5t-124 328.5q0 62 15 133q49 248 217.5 395.5t400.5 147.5q205 0 324 -125zM598 289q102 0 183 72t104 184q6 34 6 63q0 87 -50 138t-136 51q-102 0 -181 -69
t-102 -181q-8 -33 -8 -72q0 -88 49 -137t135 -49z" />
    <glyph glyph-name="Abreve" unicode="&#x102;" horiz-adv-x="1398" 
d="M905 1534q-148 0 -233.5 70.5t-85.5 191.5q0 30 6 68h246q-2 -12 -2 -35q0 -88 104 -88q58 0 99 32.5t53 90.5h243q-30 -155 -140 -242.5t-290 -87.5zM-84 43l789 1391h348l233 -1391l-8 -43h-373l-24 229h-449l-119 -229h-407zM858 520l-57 430l-223 -430h280z" />
    <glyph glyph-name="abreve" unicode="&#x103;" horiz-adv-x="1376" 
d="M778 1176q-156 0 -247 70t-91 192q0 32 6 69h259q-3 -15 -3 -28q0 -86 109 -86q62 0 105 30t55 84h258q-33 -157 -148 -244t-303 -87zM1010 983l34 102h310l-217 -1085h-285v90q-154 -113 -348 -113q-203 0 -327 126.5t-124 328.5q0 62 15 133q49 248 217.5 395.5
t400.5 147.5q205 0 324 -125zM598 289q102 0 183 72t104 184q6 34 6 63q0 87 -50 138t-136 51q-102 0 -181 -69t-102 -181q-8 -33 -8 -72q0 -88 49 -137t135 -49z" />
    <glyph glyph-name="Aogonek" unicode="&#x104;" horiz-adv-x="1398" 
d="M1286 43l-8 -41h2q-2 0 -2 -2q-147 -103 -164 -168q-6 -47 47 -47q37 0 86 12l-49 -227q-127 -31 -203 -31q-107 0 -168 44t-51 128q19 144 211 289h-82l-24 229h-449l-119 -229h-407l10 43l789 1391h348zM858 520l-57 430l-223 -430h280z" />
    <glyph glyph-name="aogonek" unicode="&#x105;" horiz-adv-x="1376" 
d="M1354 1085l-217 -1085q-89 -56 -128.5 -95t-39.5 -71q0 -41 49 -41q38 0 88 12l-49 -235q-134 -31 -211 -31q-105 0 -168.5 40t-63.5 116q0 87 61 162.5t177 156.5v76q-154 -113 -348 -113q-203 0 -327 126.5t-124 328.5q0 62 15 133q49 248 217.5 395.5t400.5 147.5
q205 0 324 -125l34 102h310zM598 289q102 0 183 72t104 184q6 34 6 63q0 87 -50 138t-136 51q-102 0 -181 -69t-102 -181q-8 -33 -8 -72q0 -88 49 -137t135 -49z" />
    <glyph glyph-name="Cacute" unicode="&#x106;" horiz-adv-x="1556" 
d="M1094 1554h-297l2 17l221 287h358l-4 -17zM709 -27q-279 0 -450 172.5t-171 444.5q0 92 16 168q63 314 295.5 508t542.5 194q272 0 441.5 -164.5t172.5 -431.5h-366q-10 117 -86 181.5t-193 64.5q-159 0 -278.5 -108.5t-153.5 -282.5q-10 -55 -10 -94q0 -133 76.5 -217
t202.5 -84q124 0 224 65t165 195h385q-86 -285 -305.5 -448t-507.5 -163z" />
    <glyph glyph-name="cacute" unicode="&#x107;" horiz-adv-x="1241" 
d="M866 1192h-266l4 14l178 295h324l-4 -16zM541 -25q-223 0 -357.5 128t-134.5 333q0 58 12 123q33 164 126 289.5t232 193.5t302 68q227 0 360 -129.5t125 -343.5h-340q-6 79 -51 120.5t-125 41.5q-100 0 -177 -71.5t-99 -184.5q-6 -35 -6 -64q0 -88 48 -140t132 -52
q76 0 140.5 43t102.5 121h347q-68 -220 -238 -348t-399 -128z" />
    <glyph glyph-name="Ccircumflex" unicode="&#x108;" horiz-adv-x="1556" 
d="M1128 1552l-106 138l-160 -138h-291l4 31l320 277h303l207 -277l-2 -31h-275zM748 324q124 0 224 65t165 195h385q-86 -285 -305.5 -448t-507.5 -163q-279 0 -450 172.5t-171 444.5q0 92 16 168q63 314 295.5 508t542.5 194q272 0 441.5 -164.5t172.5 -431.5h-366
q-10 117 -86 181.5t-193 64.5q-159 0 -278.5 -108.5t-153.5 -282.5q-10 -55 -10 -94q0 -133 76.5 -217t202.5 -84z" />
    <glyph glyph-name="ccircumflex" unicode="&#x109;" horiz-adv-x="1241" 
d="M891 1190l-109 141l-168 -141h-307l6 33l336 284h318l217 -284l-4 -33h-289zM690 799q-100 0 -177 -71.5t-99 -184.5q-6 -35 -6 -64q0 -88 48 -140t132 -52q76 0 140.5 43t102.5 121h347q-68 -220 -238 -348t-399 -128q-223 0 -357.5 128t-134.5 333q0 58 12 123
q33 164 126 289.5t232 193.5t302 68q227 0 360 -129.5t125 -343.5h-340q-6 79 -51 120.5t-125 41.5z" />
    <glyph glyph-name="Cdotaccent" unicode="&#x10a;" horiz-adv-x="1556" 
d="M985 1534q-81 0 -128.5 43.5t-47.5 114.5q0 100 71.5 166.5t176.5 66.5q79 0 126.5 -43.5t47.5 -114.5q0 -99 -72 -166t-174 -67zM709 -27q-279 0 -450 172.5t-171 444.5q0 92 16 168q63 314 295.5 508t542.5 194q272 0 441.5 -164.5t172.5 -431.5h-366
q-10 117 -86 181.5t-193 64.5q-159 0 -278.5 -108.5t-153.5 -282.5q-10 -55 -10 -94q0 -133 76.5 -217t202.5 -84q124 0 224 65t165 195h385q-86 -285 -305.5 -448t-507.5 -163z" />
    <glyph glyph-name="cdotaccent" unicode="&#x10b;" horiz-adv-x="1241" 
d="M743 1171q-79 0 -125.5 43t-46.5 113q0 11 4 39q17 82 81.5 133t154.5 51q77 0 122.5 -41.5t45.5 -109.5q0 -97 -68.5 -162.5t-167.5 -65.5zM541 -25q-223 0 -357.5 128t-134.5 333q0 58 12 123q33 164 126 289.5t232 193.5t302 68q227 0 360 -129.5t125 -343.5h-340
q-6 79 -51 120.5t-125 41.5q-100 0 -177 -71.5t-99 -184.5q-6 -35 -6 -64q0 -88 48 -140t132 -52q76 0 140.5 43t102.5 121h347q-68 -220 -238 -348t-399 -128z" />
    <glyph glyph-name="Ccaron" unicode="&#x10c;" horiz-adv-x="1556" 
d="M1458 1829l-319 -277h-303l-209 277l4 31h274l105 -138l161 138h291zM748 324q124 0 224 65t165 195h385q-86 -285 -305.5 -448t-507.5 -163q-279 0 -450 172.5t-171 444.5q0 92 16 168q63 314 295.5 508t542.5 194q272 0 441.5 -164.5t172.5 -431.5h-366
q-10 117 -86 181.5t-193 64.5q-159 0 -278.5 -108.5t-153.5 -282.5q-10 -55 -10 -94q0 -133 76.5 -217t202.5 -84z" />
    <glyph glyph-name="ccaron" unicode="&#x10d;" horiz-adv-x="1241" 
d="M766 1368l168 139h307l-6 -30l-336 -287h-317l-220 287l7 30h288zM721 1110q227 0 360 -129.5t125 -343.5h-340q-6 79 -51 120.5t-125 41.5q-100 0 -177 -71.5t-99 -184.5q-6 -35 -6 -64q0 -88 48 -140t132 -52q76 0 140.5 43t102.5 121h347q-68 -220 -238 -348
t-399 -128q-223 0 -357.5 128t-134.5 333q0 58 12 123q33 164 126 289.5t232 193.5t302 68z" />
    <glyph glyph-name="Dcaron" unicode="&#x10e;" horiz-adv-x="1484" 
d="M1327 1829l-319 -277h-303l-209 277l4 31h274l105 -138l161 138h291zM317 1434h535q184 0 326.5 -77t219.5 -213t77 -308q0 -82 -17 -160q-65 -309 -294.5 -492.5t-563.5 -183.5h-569zM1083 711q11 57 11 88q0 129 -79.5 212t-211.5 83h-178l-150 -752h172
q161 0 281 101.5t155 267.5z" />
    <glyph glyph-name="dcaron" unicode="&#x10f;" horiz-adv-x="1413" 
d="M977 1014l84 420h352l-285 -1434h-276v90q-154 -113 -350 -113q-203 0 -327 124.5t-124 324.5q0 62 15 133q49 250 217.5 399.5t400.5 149.5q172 0 293 -94zM1436 1087l106 347h275l-15 -66l-119 -303h-251zM598 289q101 0 181.5 72t103.5 182q8 46 8 65
q0 86 -51.5 137.5t-139.5 51.5q-101 0 -177.5 -68t-102.5 -182q-8 -36 -8 -76q0 -86 49 -134t137 -48z" />
    <glyph glyph-name="Dcroat" unicode="&#x110;" horiz-adv-x="1488" 
d="M334 1434h534q184 0 326.5 -77t219.5 -213t77 -308q0 -87 -16 -160q-42 -202 -163.5 -355.5t-303 -237t-396.5 -83.5h-565l117 584h-146l56 268h143zM1102 719q10 52 10 88q0 129 -79.5 208t-213.5 79h-182l-49 -246h280l-51 -260h-278l-50 -246h173q158 0 281.5 106
t158.5 271z" />
    <glyph glyph-name="dcroat" unicode="&#x111;" horiz-adv-x="1357" 
d="M1393 1348h159l-34 -179h-162l-232 -1169h-276v90q-154 -113 -350 -113q-207 0 -327 121t-120 316q0 64 15 131q51 256 216 400.5t398 144.5q177 0 291 -91l35 172h-263l35 177h262l17 86h352zM596 287q100 0 179.5 70.5t103.5 174.5q8 50 8 68q0 85 -51.5 132.5
t-139.5 47.5q-103 0 -181.5 -67t-102.5 -185q-6 -27 -6 -53q0 -84 51.5 -136t138.5 -52z" />
    <glyph glyph-name="Emacron" unicode="&#x112;" horiz-adv-x="1159" 
d="M508 1825h692l-47 -246h-694zM1237 1434l-63 -320h-551l-48 -231h510l-65 -314h-506l-49 -243h563l-63 -326h-934l286 1434h920z" />
    <glyph glyph-name="emacron" unicode="&#x113;" horiz-adv-x="1243" 
d="M455 1456h686l-49 -229h-684zM1171 438h-776q4 -81 52 -124.5t128 -43.5q111 0 187 76h368q-83 -172 -239 -271.5t-352 -99.5q-224 0 -357 125t-133 330q0 62 12 129q33 164 126 289.5t232 193.5t302 68q225 0 357 -126.5t132 -326.5q0 -109 -39 -219zM438 647h428
q-8 77 -53.5 123.5t-126.5 46.5t-145 -44.5t-103 -125.5z" />
    <glyph glyph-name="Ebreve" unicode="&#x114;" horiz-adv-x="1159" 
d="M801 1534q-148 0 -234 70.5t-86 191.5q0 30 6 68h246q-2 -12 -2 -35q0 -88 105 -88q58 0 98.5 32.5t52.5 90.5h244q-30 -155 -140 -242.5t-290 -87.5zM1237 1434l-63 -320h-551l-48 -231h510l-65 -314h-506l-49 -243h563l-63 -326h-934l286 1434h920z" />
    <glyph glyph-name="ebreve" unicode="&#x115;" horiz-adv-x="1243" 
d="M750 1176q-156 0 -247 70t-91 192q0 32 6 69h258q-2 -10 -2 -28q0 -86 108 -86q62 0 105 30t55 84h258q-33 -157 -147.5 -244t-302.5 -87zM1171 438h-776q4 -81 52 -124.5t128 -43.5q111 0 187 76h368q-83 -172 -239 -271.5t-352 -99.5q-224 0 -357 125t-133 330
q0 62 12 129q33 164 126 289.5t232 193.5t302 68q225 0 357 -126.5t132 -326.5q0 -109 -39 -219zM438 647h428q-8 77 -53.5 123.5t-126.5 46.5t-145 -44.5t-103 -125.5z" />
    <glyph glyph-name="Edotaccent" unicode="&#x116;" horiz-adv-x="1159" 
d="M799 1534q-81 0 -128.5 43.5t-47.5 114.5q0 101 71 167t176 66q79 0 126.5 -43.5t47.5 -114.5q0 -99 -71.5 -166t-173.5 -67zM1237 1434l-63 -320h-551l-48 -231h510l-65 -314h-506l-49 -243h563l-63 -326h-934l286 1434h920z" />
    <glyph glyph-name="edotaccent" unicode="&#x117;" horiz-adv-x="1243" 
d="M745 1171q-79 0 -125.5 43t-46.5 113q0 4 5 39q17 83 81 133.5t154 50.5q77 0 122.5 -41.5t45.5 -109.5q0 -97 -68.5 -162.5t-167.5 -65.5zM1171 438h-776q4 -81 52 -124.5t128 -43.5q111 0 187 76h368q-83 -172 -239 -271.5t-352 -99.5q-224 0 -357 125t-133 330
q0 62 12 129q33 164 126 289.5t232 193.5t302 68q225 0 357 -126.5t132 -326.5q0 -109 -39 -219zM438 647h428q-8 77 -53.5 123.5t-126.5 46.5t-145 -44.5t-103 -125.5z" />
    <glyph glyph-name="Eogonek" unicode="&#x118;" horiz-adv-x="1159" 
d="M1237 1434l-63 -320h-551l-48 -231h510l-65 -314h-506l-49 -243h563l-63 -324h2q-2 0 -2 -2q-147 -103 -164 -168q-6 -47 47 -47q36 0 86 12l-49 -227q-127 -31 -203 -31q-107 0 -168 44t-51 128q19 144 211 289h-643l286 1434h920z" />
    <glyph glyph-name="eogonek" unicode="&#x119;" horiz-adv-x="1243" 
d="M1171 438h-776q4 -81 52 -124.5t128 -43.5q111 0 187 76h368q-65 -136 -178 -229q-239 -202 -239 -283q0 -41 57 -41q42 0 88 12l-49 -235q-139 -31 -213 -31q-101 0 -164 41.5t-63 120.5q0 23 2 33q16 113 139 241q-212 7 -336.5 132t-124.5 323q0 62 12 129
q33 164 126 289.5t232 193.5t302 68q225 0 357 -126.5t132 -326.5q0 -109 -39 -219zM438 647h428q-8 77 -53.5 123.5t-126.5 46.5t-145 -44.5t-103 -125.5z" />
    <glyph glyph-name="Ecaron" unicode="&#x11a;" horiz-adv-x="1159" 
d="M823 1722l162 138h291l-4 -31l-320 -277h-303l-209 277l4 31h275zM965 0h-934l286 1434h920l-63 -320h-551l-48 -231h510l-65 -314h-506l-49 -243h563z" />
    <glyph glyph-name="ecaron" unicode="&#x11b;" horiz-adv-x="1243" 
d="M768 1368l168 139h307l-6 -30l-336 -287h-317l-219 287l6 30h288zM721 1110q225 0 357 -126.5t132 -326.5q0 -109 -39 -219h-776q4 -81 52 -124.5t128 -43.5q111 0 187 76h368q-83 -172 -239 -271.5t-352 -99.5q-224 0 -357 125t-133 330q0 62 12 129q33 164 126 289.5
t232 193.5t302 68zM438 647h428q-8 77 -53.5 123.5t-126.5 46.5t-145 -44.5t-103 -125.5z" />
    <glyph glyph-name="Gcircumflex" unicode="&#x11c;" horiz-adv-x="1560" 
d="M1128 1552l-106 138l-160 -138h-291l4 31l320 277h303l207 -277l-2 -31h-275zM1114 528h-387l53 267h785q-57 -387 -282.5 -604.5t-575.5 -217.5q-275 0 -448 172.5t-173 442.5q0 88 16 164q42 207 164 368t302.5 250.5t389.5 89.5q264 0 431.5 -151t177.5 -398h-381
q-19 98 -90.5 149.5t-184.5 51.5q-160 0 -281.5 -110t-156.5 -287q-10 -55 -10 -92q0 -136 79.5 -221t211.5 -85q242 0 360 211z" />
    <glyph glyph-name="gcircumflex" unicode="&#x11d;" horiz-adv-x="1339" 
d="M948 1190l-108 141l-168 -141h-307l6 33l336 284h317l217 -284l-4 -33h-289zM985 985l35 100h297l-191 -952q-52 -254 -216.5 -378t-430.5 -124q-212 0 -340.5 99t-128.5 264q0 27 2 41h340q-2 -51 39 -77t127 -26q213 0 256 209v2q-121 -65 -272 -65q-196 0 -316 115.5
t-120 302.5q0 54 12 116q44 227 206 361.5t386 134.5q198 0 315 -123zM424 541q0 -75 47 -121.5t127 -46.5q100 0 172.5 60t91.5 155q4 32 4 45q0 76 -47.5 122t-128.5 46q-115 0 -190.5 -72t-75.5 -188z" />
    <glyph glyph-name="Gbreve" unicode="&#x11e;" horiz-adv-x="1560" 
d="M989 1534q-148 0 -233.5 70.5t-85.5 191.5q0 30 6 68h246q-2 -12 -2 -35q0 -88 104 -88q58 0 99 32.5t53 90.5h243q-30 -155 -140 -242.5t-290 -87.5zM1114 528h-387l53 267h785q-57 -387 -282.5 -604.5t-575.5 -217.5q-275 0 -448 172.5t-173 442.5q0 88 16 164
q42 207 164 368t302.5 250.5t389.5 89.5q264 0 431.5 -151t177.5 -398h-381q-19 98 -90.5 149.5t-184.5 51.5q-160 0 -281.5 -110t-156.5 -287q-10 -55 -10 -92q0 -136 79.5 -221t211.5 -85q242 0 360 211z" />
    <glyph glyph-name="gbreve" unicode="&#x11f;" horiz-adv-x="1339" 
d="M805 1176q-156 0 -247 70t-91 192q0 32 6 69h258q-2 -10 -2 -28q0 -86 109 -86q62 0 104.5 30t54.5 84h258q-33 -157 -147.5 -244t-302.5 -87zM985 985l35 100h297l-191 -952q-52 -254 -216.5 -378t-430.5 -124q-212 0 -340.5 99t-128.5 264q0 27 2 41h340q-2 -51 39 -77
t127 -26q213 0 256 209v2q-121 -65 -272 -65q-196 0 -316 115.5t-120 302.5q0 54 12 116q44 227 206 361.5t386 134.5q198 0 315 -123zM424 541q0 -75 47 -121.5t127 -46.5q100 0 172.5 60t91.5 155q4 32 4 45q0 76 -47.5 122t-128.5 46q-115 0 -190.5 -72t-75.5 -188z" />
    <glyph glyph-name="Gdotaccent" unicode="&#x120;" horiz-adv-x="1560" 
d="M987 1534q-81 0 -128.5 43.5t-47.5 114.5q0 100 71.5 166.5t176.5 66.5q79 0 126.5 -43.5t47.5 -114.5q0 -99 -72 -166t-174 -67zM1114 528h-387l53 267h785q-57 -387 -282.5 -604.5t-575.5 -217.5q-275 0 -448 172.5t-173 442.5q0 88 16 164q42 207 164 368t302.5 250.5
t389.5 89.5q264 0 431.5 -151t177.5 -398h-381q-19 98 -90.5 149.5t-184.5 51.5q-160 0 -281.5 -110t-156.5 -287q-10 -55 -10 -92q0 -136 79.5 -221t211.5 -85q242 0 360 211z" />
    <glyph glyph-name="gdotaccent" unicode="&#x121;" horiz-adv-x="1339" 
d="M801 1171q-79 0 -125.5 43t-46.5 113q0 11 4 39q17 83 81 133.5t154 50.5q77 0 122.5 -41.5t45.5 -109.5q0 -98 -68 -163t-167 -65zM985 985l35 100h297l-191 -952q-52 -254 -216.5 -378t-430.5 -124q-212 0 -340.5 99t-128.5 264q0 27 2 41h340q-2 -51 39 -77t127 -26
q213 0 256 209v2q-121 -65 -272 -65q-196 0 -316 115.5t-120 302.5q0 54 12 116q44 227 206 361.5t386 134.5q198 0 315 -123zM424 541q0 -75 47 -121.5t127 -46.5q100 0 172.5 60t91.5 155q4 32 4 45q0 76 -47.5 122t-128.5 46q-115 0 -190.5 -72t-75.5 -188z" />
    <glyph glyph-name="uni0122" unicode="&#x122;" horiz-adv-x="1560" 
d="M1114 528h-387l53 267h785q-57 -387 -282.5 -604.5t-575.5 -217.5q-275 0 -448 172.5t-173 442.5q0 88 16 164q42 207 164 368t302.5 250.5t389.5 89.5q264 0 431.5 -151t177.5 -398h-381q-19 98 -90.5 149.5t-184.5 51.5q-160 0 -281.5 -110t-156.5 -287
q-10 -55 -10 -92q0 -136 79.5 -221t211.5 -85q242 0 360 211zM655 -494h-288l159 402h312l-15 -68z" />
    <glyph glyph-name="uni0123" unicode="&#x123;" horiz-adv-x="1339" 
d="M1071 1587l-10 -45l-148 -354h-303l13 69l172 330h276zM985 985l35 100h297l-191 -952q-52 -254 -216.5 -378t-430.5 -124q-212 0 -340.5 99t-128.5 264q0 27 2 41h340q-2 -51 39 -77t127 -26q213 0 256 209v2q-121 -65 -272 -65q-196 0 -316 115.5t-120 302.5
q0 54 12 116q44 227 206 361.5t386 134.5q198 0 315 -123zM424 541q0 -75 47 -121.5t127 -46.5q100 0 172.5 60t91.5 155q4 32 4 45q0 76 -47.5 122t-128.5 46q-115 0 -190.5 -72t-75.5 -188z" />
    <glyph glyph-name="Hcircumflex" unicode="&#x124;" horiz-adv-x="1449" 
d="M1063 1552l-107 138l-159 -138h-291l4 31l319 277h304l206 -277l-2 -31h-274zM1008 899l106 535h377l-287 -1434h-377l109 547h-422l-108 -547h-375l286 1434h375l-106 -535h422z" />
    <glyph glyph-name="hcircumflex" unicode="&#x125;" horiz-adv-x="1312" 
d="M643 1538l-108 141l-168 -141h-308l7 33l335 284h318l217 -284l-4 -33h-289zM897 1106q160 0 247 -88.5t87 -247.5q0 -68 -14 -137l-125 -633h-353l121 610q6 30 6 60q0 131 -141 131q-89 0 -150.5 -53t-78.5 -144l-121 -604h-352l286 1434h350l-86 -435q141 107 324 107
z" />
    <glyph glyph-name="Hbar" unicode="&#x126;" horiz-adv-x="1497" 
d="M1481 1270h151l-41 -211h-153l-211 -1059h-379l108 539h-417l-109 -539h-377l211 1059h-151l41 211h153l33 164h377l-33 -164h418l33 164h378zM610 899h418l31 160h-418z" />
    <glyph glyph-name="hbar" unicode="&#x127;" horiz-adv-x="1286" 
d="M868 1096q163 0 250.5 -87.5t87.5 -248.5q0 -68 -14 -137l-123 -623h-350l117 598q6 34 6 59q0 131 -144 131q-88 0 -149 -52.5t-78 -143.5l-117 -592h-352l234 1171h-146l37 177h143l17 86h352l-16 -86h315l-37 -174h-315l-37 -187q137 109 319 109z" />
    <glyph glyph-name="Itilde" unicode="&#x128;" horiz-adv-x="942" 
d="M608 1661q-61 0 -78 -78h-219q21 146 95.5 224.5t177.5 78.5q34 0 65 -10t41 -16t39 -25q49 -35 78 -35t49.5 22t26.5 62h217q-26 -152 -96 -230.5t-175 -78.5q-73 0 -143 53q-2 2 -10 7t-11 7t-10 6t-11.5 5.5l-10.5 3.5t-12.5 3t-12.5 1zM399 1118h-200l63 316h776
l-63 -316h-201l-160 -805h205l-63 -313h-787l64 313h205z" />
    <glyph glyph-name="itilde" unicode="&#x129;" horiz-adv-x="612" 
d="M590 1182q-47 0 -81.5 14t-74.5 41q-51 35 -86 35q-57 0 -74 -82h-211q24 152 92 229.5t164 77.5q73 0 150 -53q51 -39 100 -39q56 0 72 84h209q-21 -149 -92 -228t-168 -79zM373 0h-350l217 1085h350z" />
    <glyph glyph-name="Imacron" unicode="&#x12a;" horiz-adv-x="942" 
d="M383 1825h692l-47 -246h-694zM399 1118h-200l63 316h776l-63 -316h-201l-160 -805h205l-63 -313h-787l64 313h205z" />
    <glyph glyph-name="imacron" unicode="&#x12b;" horiz-adv-x="612" 
d="M733 1212h-590l47 228h590zM373 0h-350l217 1085h350z" />
    <glyph glyph-name="Ibreve" unicode="&#x12c;" horiz-adv-x="942" 
d="M676 1534q-148 0 -234 70.5t-86 191.5q0 30 6 68h246q-2 -12 -2 -35q0 -88 105 -88q58 0 98.5 32.5t52.5 90.5h244q-30 -155 -140 -242.5t-290 -87.5zM399 1118h-200l63 316h776l-63 -316h-201l-160 -805h205l-63 -313h-787l64 313h205z" />
    <glyph glyph-name="ibreve" unicode="&#x12d;" horiz-adv-x="612" 
d="M426 1176q-147 0 -231 66t-84 185q0 38 8 74h258q-4 -24 -4 -35q0 -75 86 -75q113 0 135 110h258q-66 -325 -426 -325zM373 0h-350l217 1085h350z" />
    <glyph glyph-name="Iogonek" unicode="&#x12e;" horiz-adv-x="942" 
d="M1038 1434l-63 -316h-201l-160 -805h205l-63 -313h-224q-146 -102 -163 -168q-6 -47 47 -47q36 0 86 12l-49 -227q-127 -31 -203 -31q-107 0 -168 44t-51 128q19 144 211 289h-273l64 313h205l161 805h-200l63 316h776z" />
    <glyph glyph-name="iogonek" unicode="&#x12f;" horiz-adv-x="612" 
d="M512 1567q82 0 130 -43.5t48 -114.5q0 -100 -73.5 -167.5t-178.5 -67.5q-82 0 -131 44t-49 115q0 100 73.5 167t180.5 67zM590 1085l-217 -1085q-65 -66 -88.5 -97t-30.5 -61q-3 -25 10.5 -37t40.5 -12q37 0 86 12l-47 -237q-129 -29 -209 -29q-116 0 -179 43.5
t-52 134.5q9 75 51.5 140t130.5 143h-63l217 1085h350z" />
    <glyph glyph-name="Idotaccent" unicode="&#x130;" horiz-adv-x="942" 
d="M674 1534q-81 0 -128.5 43.5t-47.5 114.5q0 101 71 167t176 66q79 0 127 -43.5t48 -114.5q0 -99 -72 -166t-174 -67zM1038 1434l-63 -316h-201l-160 -805h205l-63 -313h-787l64 313h205l161 805h-200l63 316h776z" />
    <glyph glyph-name="dotlessi" unicode="&#x131;" horiz-adv-x="612" 
d="M373 0h-350l217 1085h350z" />
    <glyph glyph-name="IJ" unicode="&#x132;" horiz-adv-x="1953" 
d="M975 1118h-201l-160 -805h205l-63 -313h-787l64 313h205l161 805h-200l63 316h776zM1243 1102l68 332h696l-180 -906q-108 -548 -682 -548q-112 0 -256 24l72 342q105 -18 178 -18q143 0 221 67t106 209l99 498h-322z" />
    <glyph glyph-name="ij" unicode="&#x133;" horiz-adv-x="1226" 
d="M440 1176q-84 0 -132 42t-48 113q0 100 72.5 168t179.5 68q82 0 130 -43.5t48 -114.5q0 -100 -73 -166.5t-177 -66.5zM1051 1174q-84 0 -132.5 43t-48.5 114q0 101 72.5 168.5t179.5 67.5q82 0 130 -43.5t48 -114.5q0 -100 -72.5 -167.5t-176.5 -67.5zM373 0h-350
l217 1085h350zM520 -369q-68 0 -172 17l55 280q35 -6 82 -6q67 0 107 33.5t55 110.5l205 1019h352l-209 -1054q-40 -204 -162.5 -302t-312.5 -98z" />
    <glyph glyph-name="Jcircumflex" unicode="&#x134;" horiz-adv-x="1011" 
d="M647 1860h303l207 -277l-2 -31h-274l-107 138l-160 -138h-290l4 31zM623 1102h-322l68 332h696l-180 -906q-108 -548 -682 -548q-112 0 -256 24l71 342q105 -18 179 -18q143 0 221 67t106 209z" />
    <glyph glyph-name="jcircumflex" unicode="&#x135;" horiz-adv-x="614" 
d="M322 1501h309l174 -280l-6 -33h-273l-75 133l-125 -133h-297l4 33zM35 66l205 1019h352l-209 -1054q-40 -204 -162.5 -302t-312.5 -98q-68 0 -172 17l55 280q35 -6 82 -6q67 0 107 33.5t55 110.5z" />
    <glyph glyph-name="uni0136" unicode="&#x136;" horiz-adv-x="1318" 
d="M1055 1434h415l-8 -43l-588 -666l316 -682l-8 -43h-377l-273 635l-126 -635h-375l286 1434h375l-112 -564zM569 -494h-288l159 402h312l-15 -68z" />
    <glyph glyph-name="uni0137" unicode="&#x137;" horiz-adv-x="1165" 
d="M815 1085h412l-8 -34l-426 -506l239 -510l-8 -35h-360l-197 457l-92 -457h-352l286 1434h353l-148 -734zM430 -494h-289l160 402h311l-14 -68z" />
    <glyph glyph-name="kgreenlandic" unicode="&#x138;" horiz-adv-x="1165" 
d="M811 1085h414l-6 -34l-428 -492l239 -524l-6 -35h-356l-199 467l-94 -467h-352l217 1085h352l-74 -366z" />
    <glyph glyph-name="Lacute" unicode="&#x139;" horiz-adv-x="1128" 
d="M649 1554h-297l2 17l221 287h359l-4 -17zM983 0h-952l286 1434h375l-219 -1094h580z" />
    <glyph glyph-name="lacute" unicode="&#x13a;" horiz-adv-x="612" 
d="M631 1540h-266l4 14l178 295h323l-4 -16zM375 0h-352l286 1434h353z" />
    <glyph glyph-name="uni013B" unicode="&#x13b;" horiz-adv-x="1128" 
d="M983 0h-952l286 1434h375l-219 -1094h580zM481 -494h-288l159 402h312l-15 -68z" />
    <glyph glyph-name="uni013C" unicode="&#x13c;" horiz-adv-x="612" 
d="M375 0h-352l286 1434h353zM154 -494h-289l160 402h311l-14 -68z" />
    <glyph glyph-name="Lcaron" unicode="&#x13d;" horiz-adv-x="1128" 
d="M983 0h-952l286 1434h375l-219 -1094h580zM1085 1065h-254l7 22l106 347h275l-15 -66z" />
    <glyph glyph-name="lcaron" unicode="&#x13e;" horiz-adv-x="663" 
d="M375 0h-352l286 1434h353zM934 1065h-252l4 22l107 347h274l-12 -66z" />
    <glyph glyph-name="Ldot" unicode="&#x13f;" horiz-adv-x="1128" 
d="M983 0h-952l286 1434h375l-219 -1094h580zM821 598q-69 0 -108 35.5t-39 97.5q0 13 4 37q15 74 68 118t128 44q68 0 108 -36t40 -99q0 -11 -4 -35q-15 -73 -69 -117.5t-128 -44.5z" />
    <glyph glyph-name="ldot" unicode="&#x140;" horiz-adv-x="966" 
d="M379 0h-356l286 1434h357zM782 530q-74 0 -117.5 41t-43.5 109q0 99 63.5 163t159.5 64q76 0 120 -41.5t44 -111.5q0 -13 -4 -41q-17 -82 -77.5 -132.5t-144.5 -50.5z" />
    <glyph glyph-name="Lslash" unicode="&#x141;" horiz-adv-x="1138" 
d="M543 633l-58 -287h578l-70 -346h-954l96 479l-166 -63l62 315l168 64l127 639h376l-96 -486l387 148l-61 -316z" />
    <glyph glyph-name="lslash" unicode="&#x142;" horiz-adv-x="729" 
d="M627 967l184 88l-57 -285l-183 -88l-137 -682h-358l98 494l-180 -86l55 282l182 88l131 656h359z" />
    <glyph glyph-name="Nacute" unicode="&#x143;" horiz-adv-x="1445" 
d="M1276 1858l-4 -17l-281 -287h-297l2 17l222 287h358zM1032 1036l80 398h373l-287 -1434h-258l-397 743l-60 -346l-80 -397h-372l286 1434h254l400 -752z" />
    <glyph glyph-name="nacute" unicode="&#x144;" horiz-adv-x="1312" 
d="M1147 1501l-4 -16l-236 -293h-266l4 14l178 295h324zM887 1106q162 0 252 -93t90 -255q0 -58 -12 -125l-127 -633h-353l121 610q6 30 6 56q0 65 -37 100t-104 35q-88 0 -149 -53t-80 -144l-121 -604h-350l217 1085h321l-10 -106q136 127 336 127z" />
    <glyph glyph-name="uni0145" unicode="&#x145;" horiz-adv-x="1445" 
d="M1032 1036l80 398h373l-287 -1434h-258l-397 743l-60 -346l-80 -397h-372l286 1434h254l400 -752zM627 -494h-289l160 402h311l-14 -68z" />
    <glyph glyph-name="uni0146" unicode="&#x146;" horiz-adv-x="1312" 
d="M887 1106q162 0 252 -93t90 -255q0 -58 -12 -125l-127 -633h-353l121 610q6 30 6 56q0 65 -37 100t-104 35q-88 0 -149 -53t-80 -144l-121 -604h-350l217 1085h321l-10 -106q136 127 336 127zM512 -494h-289l160 402h311l-14 -68z" />
    <glyph glyph-name="Ncaron" unicode="&#x147;" horiz-adv-x="1445" 
d="M1356 1829l-320 -277h-303l-209 277l4 31h275l104 -138l162 138h291zM1032 1036l80 398h373l-287 -1434h-258l-397 743l-60 -346l-80 -397h-372l286 1434h254l400 -752z" />
    <glyph glyph-name="ncaron" unicode="&#x148;" horiz-adv-x="1312" 
d="M807 1368l168 139h307l-6 -30l-336 -287h-317l-220 287l7 30h288zM887 1106q162 0 252 -93t90 -255q0 -58 -12 -125l-127 -633h-353l121 610q6 30 6 56q0 65 -37 100t-104 35q-88 0 -149 -53t-80 -144l-121 -604h-350l217 1085h321l-10 -106q136 127 336 127z" />
    <glyph glyph-name="napostrophe" unicode="&#x149;" horiz-adv-x="1564" 
d="M580 1434l-25 -109l-213 -432h-324l9 41l194 500h359zM1139 1106q162 0 252 -93t90 -255q0 -52 -13 -125l-127 -633h-350l121 610q6 27 6 54q0 66 -37 101.5t-106 35.5q-88 0 -149 -53t-78 -144l-121 -604h-353l218 1085h321l-10 -106q136 127 336 127z" />
    <glyph glyph-name="Eng" unicode="&#x14a;" horiz-adv-x="1445" 
d="M1112 1434h373l-240 -1203l-47 -231q-46 -234 -185 -338t-384 -104q-102 0 -199 20l62 318q73 -13 131 -13q104 0 156.5 35.5t70.5 128.5l18 88l-325 608l-60 -346l-80 -397h-372l286 1434h254l400 -752l61 354z" />
    <glyph glyph-name="eng" unicode="&#x14b;" horiz-adv-x="1312" 
d="M887 1106q166 0 255 -88t89 -250q0 -66 -14 -135l-130 -639q-43 -209 -166 -319.5t-323 -110.5q-100 0 -217 20l59 291q64 -10 113 -10q80 0 125.5 36t62.5 119l117 590q6 34 6 60q0 131 -141 131q-88 0 -149 -53t-80 -144l-121 -604h-350l217 1085h321l-12 -108
q135 129 338 129z" />
    <glyph glyph-name="Omacron" unicode="&#x14c;" horiz-adv-x="1601" 
d="M1356 1579h-694l49 246h692zM707 -27q-184 0 -325.5 79t-218.5 218.5t-77 317.5q0 82 18 170q42 208 164.5 367.5t304.5 247t396 87.5q279 0 449.5 -172t170.5 -444q0 -92 -16 -168q-63 -315 -302 -509t-564 -194zM756 324q159 0 283 111.5t159 283.5q10 55 10 94
q0 133 -77.5 215t-208.5 82q-160 0 -284.5 -111.5t-158.5 -283.5q-10 -55 -10 -97q0 -132 78.5 -213t208.5 -81z" />
    <glyph glyph-name="omacron" unicode="&#x14d;" horiz-adv-x="1277" 
d="M1104 1227h-684l47 229h686zM549 -25q-227 0 -361.5 125.5t-134.5 337.5q0 71 15 144q29 153 122 273t234 187.5t307 67.5q229 0 364.5 -126.5t135.5 -334.5q0 -69 -14 -135q-50 -240 -233 -389.5t-435 -149.5zM592 299q102 0 176.5 67t97.5 181q6 30 6 59
q0 85 -48.5 132.5t-133.5 47.5q-102 0 -176.5 -66.5t-97.5 -178.5q-6 -35 -6 -64q0 -83 49 -130.5t133 -47.5z" />
    <glyph glyph-name="Obreve" unicode="&#x14e;" horiz-adv-x="1601" 
d="M1006 1534q-148 0 -234 70.5t-86 191.5q0 30 6 68h246q-2 -12 -2 -35q0 -88 104 -88q58 0 99 32.5t53 90.5h244q-30 -155 -140 -242.5t-290 -87.5zM707 -27q-184 0 -325.5 79t-218.5 218.5t-77 317.5q0 82 18 170q42 208 164.5 367.5t304.5 247t396 87.5
q279 0 449.5 -172t170.5 -444q0 -92 -16 -168q-63 -315 -302 -509t-564 -194zM756 324q159 0 283 111.5t159 283.5q10 55 10 94q0 133 -77.5 215t-208.5 82q-160 0 -284.5 -111.5t-158.5 -283.5q-10 -55 -10 -97q0 -132 78.5 -213t208.5 -81z" />
    <glyph glyph-name="obreve" unicode="&#x14f;" horiz-adv-x="1277" 
d="M762 1176q-156 0 -247 70t-91 192q0 32 6 69h258q-2 -10 -2 -28q0 -86 109 -86q62 0 104.5 30t54.5 84h258q-33 -157 -147.5 -244t-302.5 -87zM549 -25q-227 0 -361.5 125.5t-134.5 337.5q0 71 15 144q29 153 122 273t234 187.5t307 67.5q229 0 364.5 -126.5
t135.5 -334.5q0 -69 -14 -135q-50 -240 -233 -389.5t-435 -149.5zM592 299q102 0 176.5 67t97.5 181q6 30 6 59q0 85 -48.5 132.5t-133.5 47.5q-102 0 -176.5 -66.5t-97.5 -178.5q-6 -35 -6 -64q0 -83 49 -130.5t133 -47.5z" />
    <glyph glyph-name="Ohungarumlaut" unicode="&#x150;" horiz-adv-x="1601" 
d="M920 1552h-285l4 17l170 291h330l-2 -19zM1284 1552h-272l4 17l219 291h326l-2 -19zM707 -27q-184 0 -325.5 79t-218.5 218.5t-77 317.5q0 82 18 170q42 208 164.5 367.5t304.5 247t396 87.5q279 0 449.5 -172t170.5 -444q0 -92 -16 -168q-63 -315 -302 -509t-564 -194z
M756 324q159 0 283 111.5t159 283.5q10 55 10 94q0 133 -77.5 215t-208.5 82q-160 0 -284.5 -111.5t-158.5 -283.5q-10 -55 -10 -97q0 -132 78.5 -213t208.5 -81z" />
    <glyph glyph-name="ohungarumlaut" unicode="&#x151;" horiz-adv-x="1277" 
d="M678 1192h-268l2 16l145 295h313l-4 -16zM1057 1192h-271l2 16l170 295h314l-4 -16zM549 -25q-227 0 -361.5 125.5t-134.5 337.5q0 71 15 144q29 153 122 273t234 187.5t307 67.5q229 0 364.5 -126.5t135.5 -334.5q0 -69 -14 -135q-50 -240 -233 -389.5t-435 -149.5z
M592 299q102 0 176.5 67t97.5 181q6 30 6 59q0 85 -48.5 132.5t-133.5 47.5q-102 0 -176.5 -66.5t-97.5 -178.5q-6 -35 -6 -64q0 -83 49 -130.5t133 -47.5z" />
    <glyph glyph-name="OE" unicode="&#x152;" horiz-adv-x="1974" 
d="M2050 1434l-63 -320h-553l-48 -237h510l-61 -314h-512l-47 -237h567l-63 -326h-869q-102 -27 -200 -27q-278 0 -452.5 171.5t-174.5 439.5q0 69 16 157q65 325 301 522t566 197q105 0 204 -26h879zM479 707q-10 -44 -10 -101q0 -130 76 -206t207 -76q79 0 168 26l147 740
q-54 20 -135 20q-166 0 -292 -111.5t-161 -291.5z" />
    <glyph glyph-name="oe" unicode="&#x153;" horiz-adv-x="2050" 
d="M1978 438h-774q8 -79 54 -123.5t124 -44.5q111 0 187 76h368q-79 -171 -231 -271t-340 -100q-130 0 -228 52t-155 145q-87 -93 -202.5 -145t-250.5 -52q-220 0 -350.5 126t-130.5 331q0 60 12 127q50 249 228 400t424 151q135 0 234.5 -52t156.5 -145q184 197 444 197
q215 0 341 -126.5t126 -328.5q0 -105 -37 -217zM1243 647h430q-8 77 -53.5 123.5t-126.5 46.5t-146 -45t-104 -125zM872 545q7 40 7 63q0 87 -50.5 139t-134.5 52q-102 0 -181.5 -72.5t-102.5 -185.5q-7 -40 -7 -64q0 -86 50 -138t135 -52q102 0 181.5 72.5t102.5 185.5z
" />
    <glyph glyph-name="Racute" unicode="&#x154;" horiz-adv-x="1290" 
d="M1182 1858l-4 -17l-281 -287h-297l2 17l221 287h359zM1282 930q-34 -162 -132 -268t-251 -146l264 -473l-8 -43h-383l-266 512l-103 -512h-372l286 1434h506q215 0 342 -107t127 -291q0 -44 -10 -106zM907 932q4 28 4 39q0 59 -36 93t-105 34h-149l-66 -330h145
q176 0 207 164z" />
    <glyph glyph-name="racute" unicode="&#x155;" horiz-adv-x="923" 
d="M481 1206l178 295h324l-4 -16l-236 -293h-266zM557 1085l-8 -104q130 121 307 121q55 0 121 -17l-66 -333q-63 14 -127 14q-124 0 -203.5 -65.5t-105.5 -192.5l-100 -508h-352l217 1085h317z" />
    <glyph glyph-name="uni0156" unicode="&#x156;" horiz-adv-x="1290" 
d="M1282 930q-34 -162 -132 -268t-251 -146l264 -473l-8 -43h-383l-266 512l-103 -512h-372l286 1434h506q215 0 342 -107t127 -291q0 -44 -10 -106zM907 932q4 28 4 39q0 59 -36 93t-105 34h-149l-66 -330h145q176 0 207 164zM545 -494h-289l160 402h311l-14 -68z" />
    <glyph glyph-name="uni0157" unicode="&#x157;" horiz-adv-x="923" 
d="M856 1102q55 0 121 -17l-66 -333q-63 14 -127 14q-124 0 -203.5 -65.5t-105.5 -192.5l-100 -508h-352l217 1085h317l-8 -104q130 121 307 121zM162 -494h-289l160 402h311l-14 -68z" />
    <glyph glyph-name="Rcaron" unicode="&#x158;" horiz-adv-x="1290" 
d="M1262 1829l-320 -277h-303l-209 277l4 31h275l104 -138l162 138h291zM1282 930q-34 -162 -132 -268t-251 -146l264 -473l-8 -43h-383l-266 512l-103 -512h-372l286 1434h506q215 0 342 -107t127 -291q0 -44 -10 -106zM907 932q4 28 4 39q0 59 -36 93t-105 34h-149
l-66 -330h145q176 0 207 164z" />
    <glyph glyph-name="rcaron" unicode="&#x159;" horiz-adv-x="923" 
d="M643 1368l168 139h307l-6 -30l-336 -287h-317l-219 287l6 30h289zM557 1085l-8 -104q130 121 307 121q55 0 121 -17l-66 -333q-63 14 -127 14q-124 0 -203.5 -65.5t-105.5 -192.5l-100 -508h-352l217 1085h317z" />
    <glyph glyph-name="Sacute" unicode="&#x15a;" horiz-adv-x="1226" 
d="M899 1554h-297l2 17l221 287h359l-4 -17zM526 -20q-227 0 -359 109t-132 294q0 39 6 82h358q-8 -82 34.5 -124t133.5 -42q180 0 201 109q4 20 4 26q0 49 -51.5 84t-167.5 64q-385 101 -385 387q0 42 10 100q37 188 186.5 287.5t395.5 99.5q218 0 347.5 -108.5
t129.5 -290.5q0 -20 -4 -66h-348q3 74 -41.5 113t-134.5 39q-149 0 -170 -103q-4 -20 -4 -28q0 -49 52 -83.5t185 -72.5q190 -53 285.5 -152t95.5 -237q0 -38 -10 -90q-79 -397 -617 -397z" />
    <glyph glyph-name="sacute" unicode="&#x15b;" horiz-adv-x="1075" 
d="M756 1192h-267l5 14l178 295h323l-4 -16zM463 -25q-201 0 -324 83t-123 231q0 26 7 61l350 -2q-6 -50 25.5 -78t95.5 -28q63 0 99 22t36 64q0 31 -37 51t-137 43q-176 40 -258 112.5t-82 188.5q0 41 8 80q20 101 91.5 171t171.5 102t222 32q188 0 309 -80.5t121 -222.5
q0 -37 -4 -55h-334q4 49 -25 72.5t-89 23.5q-59 0 -90 -20t-31 -56q0 -33 38.5 -53.5t137.5 -42.5q177 -39 259.5 -113.5t82.5 -191.5q0 -41 -8 -80q-31 -159 -169 -236.5t-343 -77.5z" />
    <glyph glyph-name="Scircumflex" unicode="&#x15c;" horiz-adv-x="1226" 
d="M932 1552l-107 138l-159 -138h-291l4 31l319 277h303l207 -277l-2 -31h-274zM1233 991h-348q3 74 -41.5 113t-134.5 39q-149 0 -170 -103q-4 -20 -4 -28q0 -49 52 -83.5t185 -72.5q190 -53 285.5 -152t95.5 -237q0 -38 -10 -90q-79 -397 -617 -397q-227 0 -359 109
t-132 294q0 39 6 82h358q-8 -82 34.5 -124t133.5 -42q180 0 201 109q4 20 4 26q0 49 -51.5 84t-167.5 64q-385 101 -385 387q0 42 10 100q37 188 186.5 287.5t395.5 99.5q218 0 347.5 -108.5t129.5 -290.5q0 -20 -4 -66z" />
    <glyph glyph-name="scircumflex" unicode="&#x15d;" horiz-adv-x="1075" 
d="M539 1507h317l217 -284l-4 -33h-289l-108 141l-168 -141h-307l6 33zM608 1108q188 0 309 -80.5t121 -222.5q0 -37 -4 -55h-334q4 49 -25 72.5t-89 23.5q-59 0 -90 -20t-31 -56q0 -33 38.5 -53.5t137.5 -42.5q177 -39 259.5 -113.5t82.5 -191.5q0 -41 -8 -80
q-31 -159 -169 -236.5t-343 -77.5q-201 0 -324 83t-123 231q0 26 7 61l350 -2q-6 -50 25.5 -78t95.5 -28q63 0 99 22t36 64q0 31 -37 51t-137 43q-176 40 -258 112.5t-82 188.5q0 41 8 80q20 101 91.5 171t171.5 102t222 32z" />
    <glyph glyph-name="Scedilla" unicode="&#x15e;" horiz-adv-x="1226" 
d="M1233 991h-348q3 74 -41.5 113t-134.5 39q-149 0 -170 -103q-4 -20 -4 -28q0 -49 52 -83.5t185 -72.5q190 -53 285.5 -152t95.5 -237q0 -38 -10 -90q-73 -358 -520 -393l-45 -72q77 -9 118 -43.5t41 -91.5q0 -13 -4 -37q-19 -101 -103.5 -149t-215.5 -48q-103 0 -203 25
l39 180q95 -20 147 -20q53 0 79 12t26 41q0 35 -64 35q-22 0 -67 -9l-25 41l84 138q-186 22 -290.5 127.5t-104.5 269.5q0 39 6 82h358q-8 -82 34.5 -124t133.5 -42q180 0 201 109q4 20 4 26q0 49 -51.5 84t-167.5 64q-385 101 -385 387q0 42 10 100q37 188 186.5 287.5
t395.5 99.5q218 0 347.5 -108.5t129.5 -290.5q0 -20 -4 -66z" />
    <glyph glyph-name="scedilla" unicode="&#x15f;" horiz-adv-x="1075" 
d="M1034 750h-334q4 49 -25 72.5t-89 23.5q-59 0 -90 -20t-31 -56q0 -33 38.5 -53.5t137.5 -42.5q177 -39 259.5 -113.5t82.5 -191.5q0 -41 -8 -80q-27 -137 -134.5 -213t-271.5 -94l-37 -56q78 -11 120 -48t42 -95q0 -13 -4 -37q-41 -203 -332 -203q-106 0 -211 25l41 188
q93 -22 154 -22q55 0 82 12t27 43q0 37 -68 37q-20 0 -70 -8l-24 43l80 121q-162 19 -257.5 98t-95.5 207q0 23 7 63l350 -2q-6 -50 25.5 -78t95.5 -28q63 0 99 22t36 64q0 31 -37 51t-137 43q-176 40 -258 112.5t-82 188.5q0 41 8 80q20 101 91.5 171t171.5 102t222 32
q188 0 309 -80.5t121 -222.5q0 -37 -4 -55z" />
    <glyph glyph-name="Scaron" unicode="&#x160;" horiz-adv-x="1226" 
d="M813 1722l162 138h291l-4 -31l-320 -277h-303l-209 277l4 31h275zM760 1456q218 0 347.5 -108.5t129.5 -290.5q0 -20 -4 -66h-348q3 74 -41.5 113t-134.5 39q-149 0 -170 -103q-4 -20 -4 -28q0 -49 52 -83.5t185 -72.5q190 -53 285.5 -152t95.5 -237q0 -38 -10 -90
q-79 -397 -617 -397q-227 0 -359 109t-132 294q0 39 6 82h358q-8 -82 34.5 -124t133.5 -42q180 0 201 109q4 20 4 26q0 49 -51.5 84t-167.5 64q-385 101 -385 387q0 42 10 100q37 188 186.5 287.5t395.5 99.5z" />
    <glyph glyph-name="scaron" unicode="&#x161;" horiz-adv-x="1075" 
d="M655 1368l168 139h307l-6 -30l-336 -287h-317l-219 287l6 30h289zM608 1108q188 0 309 -80.5t121 -222.5q0 -37 -4 -55h-334q4 49 -25 72.5t-89 23.5q-59 0 -90 -20t-31 -56q0 -33 38.5 -53.5t137.5 -42.5q177 -39 259.5 -113.5t82.5 -191.5q0 -41 -8 -80
q-31 -159 -169 -236.5t-343 -77.5q-201 0 -324 83t-123 231q0 26 7 61l350 -2q-6 -50 25.5 -78t95.5 -28q63 0 99 22t36 64q0 31 -37 51t-137 43q-176 40 -258 112.5t-82 188.5q0 41 8 80q20 101 91.5 171t171.5 102t222 32z" />
    <glyph glyph-name="uni0162" unicode="&#x162;" horiz-adv-x="1206" 
d="M903 1100l-221 -1100h-96l-56 -88q77 -9 118.5 -43.5t41.5 -91.5q0 -13 -4 -37q-19 -101 -103.5 -149t-215.5 -48q-103 0 -203 25l39 180q95 -20 147 -20q53 0 79 12t26 41q0 35 -64 35q-22 0 -67 -9l-25 41l94 152h-86l219 1100h-354l68 334h1083l-66 -334h-354z" />
    <glyph glyph-name="uni0163" unicode="&#x163;" horiz-adv-x="849" 
d="M842 801h-242l-76 -383q-6 -27 -6 -47q0 -51 31.5 -73t97.5 -22q35 0 107 11l-58 -289q-88 -15 -166 -21l-34 -51q78 -10 119.5 -47t41.5 -96q0 -13 -4 -37q-41 -203 -331 -203q-106 0 -211 25l41 188q93 -22 153 -22q55 0 82 12t27 43q0 37 -68 37q-20 0 -70 -8l-24 43
l90 135q-188 57 -188 270q0 54 12 115l84 420h-174l55 284h176l45 230l359 37l-54 -267h242z" />
    <glyph glyph-name="Tcaron" unicode="&#x164;" horiz-adv-x="1206" 
d="M1278 1829l-320 -277h-303l-209 277l5 31h274l104 -138l162 138h291zM240 1434h1083l-66 -334h-354l-221 -1100h-375l219 1100h-354z" />
    <glyph glyph-name="tcaron" unicode="&#x165;" horiz-adv-x="849" 
d="M821 1223l107 346h274l-12 -66l-121 -303h-252zM352 1315l359 37l-54 -267h242l-57 -284h-242l-76 -383q-6 -27 -6 -47q0 -51 31.5 -73t97.5 -22q35 0 107 11l-58 -289q-114 -21 -207 -21q-161 0 -248 72t-87 215q0 56 12 117l84 420h-174l55 284h176z" />
    <glyph glyph-name="Tbar" unicode="&#x166;" horiz-adv-x="1206" 
d="M1323 1434l-66 -334h-354l-63 -320h229l-57 -276h-228l-102 -504h-375l101 504h-228l56 276h227l63 320h-354l68 334h1083z" />
    <glyph glyph-name="tbar" unicode="&#x167;" horiz-adv-x="849" 
d="M899 1085l-55 -276h-242l-29 -147h230l-39 -201h-232l-8 -43q-6 -27 -6 -47q0 -51 31.5 -73t97.5 -22q35 0 107 11l-58 -287q-125 -23 -204 -23q-163 0 -251.5 73t-88.5 218q0 50 12 111l14 76h-160l41 207h162l29 147h-172l53 276h174l47 234l359 35l-54 -269h242z" />
    <glyph glyph-name="Utilde" unicode="&#x168;" horiz-adv-x="1411" 
d="M1065 1575q-73 0 -143 53q-2 2 -10 7t-11 7t-10 6t-11.5 5.5l-10.5 3.5t-12.5 3t-12.5 1q-61 0 -78 -78h-219q21 146 95 224.5t177 78.5q32 0 59.5 -7.5t43.5 -16.5t36 -22q2 -2 3.5 -3t3.5 -2q42 -30 63 -34q7 -1 14 -1q29 0 49.5 22t26.5 62h217q-26 -152 -95.5 -230.5
t-174.5 -78.5zM616 -23q-230 0 -367.5 120.5t-137.5 322.5q0 56 12 121l180 893h375l-176 -885q-8 -46 -8 -66q0 -74 42.5 -114.5t120.5 -40.5q98 0 164.5 58t89.5 165l176 883h375l-184 -932q-50 -249 -223 -387t-439 -138z" />
    <glyph glyph-name="utilde" unicode="&#x169;" horiz-adv-x="1300" 
d="M690 1274q-60 0 -76 -90h-217q22 163 98 249.5t179 86.5q41 0 72 -15t67 -43q23 -19 34.5 -27.5t30.5 -17t37 -8.5q59 0 72 100h217q-28 -165 -101 -249t-188 -84q-35 0 -65 10.5t-45 21t-37 29.5q-3 2 -12 8.5t-12.5 9t-11 7.5t-13 7t-13.5 3.5t-16 1.5zM805 481
l121 604h352l-217 -1085h-322l11 111q-128 -131 -328 -131q-164 0 -252 88t-88 249q0 67 14 136l127 632h352l-122 -610q-7 -35 -7 -55q0 -65 36 -100t102 -35q84 0 143 52.5t78 143.5z" />
    <glyph glyph-name="Umacron" unicode="&#x16a;" horiz-adv-x="1411" 
d="M1262 1579h-695l49 246h693zM616 -23q-230 0 -367.5 120.5t-137.5 322.5q0 56 12 121l180 893h375l-176 -885q-8 -46 -8 -66q0 -74 42.5 -114.5t120.5 -40.5q98 0 164.5 58t89.5 165l176 883h375l-184 -932q-50 -249 -223 -387t-439 -138z" />
    <glyph glyph-name="umacron" unicode="&#x16b;" horiz-adv-x="1300" 
d="M481 1456h686l-49 -229h-684zM805 481l121 604h352l-217 -1085h-322l11 111q-128 -131 -328 -131q-164 0 -252 88t-88 249q0 67 14 136l127 632h352l-122 -610q-7 -35 -7 -55q0 -65 36 -100t102 -35q84 0 143 52.5t78 143.5z" />
    <glyph glyph-name="Ubreve" unicode="&#x16c;" horiz-adv-x="1411" 
d="M911 1534q-148 0 -233.5 70.5t-85.5 191.5q0 30 6 68h246q-2 -12 -2 -35q0 -88 104 -88q58 0 99 32.5t53 90.5h243q-30 -155 -140 -242.5t-290 -87.5zM616 -23q-230 0 -367.5 120.5t-137.5 322.5q0 56 12 121l180 893h375l-176 -885q-8 -46 -8 -66q0 -74 42.5 -114.5
t120.5 -40.5q98 0 164.5 58t89.5 165l176 883h375l-184 -932q-50 -249 -223 -387t-439 -138z" />
    <glyph glyph-name="ubreve" unicode="&#x16d;" horiz-adv-x="1300" 
d="M774 1176q-156 0 -247 70t-91 192q0 32 6 69h258q-2 -10 -2 -28q0 -86 109 -86q62 0 105 30t55 84h258q-33 -157 -148 -244t-303 -87zM805 481l121 604h352l-217 -1085h-322l11 111q-128 -131 -328 -131q-164 0 -252 88t-88 249q0 67 14 136l127 632h352l-122 -610
q-7 -35 -7 -55q0 -65 36 -100t102 -35q84 0 143 52.5t78 143.5z" />
    <glyph glyph-name="Uring" unicode="&#x16e;" horiz-adv-x="1411" 
d="M901 1493q-102 0 -163.5 54.5t-61.5 144.5q0 26 6 53q23 114 107 184t200 70q103 0 164 -54.5t61 -144.5q0 -28 -6 -55q-22 -111 -106.5 -181.5t-200.5 -70.5zM928 1655q45 0 76.5 31.5t31.5 78.5q0 31 -19.5 50.5t-51.5 19.5q-44 0 -76.5 -32.5t-32.5 -80.5
q0 -31 20 -49t52 -18zM616 -23q-230 0 -367.5 120.5t-137.5 322.5q0 56 12 121l180 893h375l-176 -885q-8 -46 -8 -66q0 -74 42.5 -114.5t120.5 -40.5q98 0 164.5 58t89.5 165l176 883h375l-184 -932q-50 -249 -223 -387t-439 -138z" />
    <glyph glyph-name="uring" unicode="&#x16f;" horiz-adv-x="1300" 
d="M768 1171q-100 0 -159.5 56t-59.5 147q0 29 6 56q22 113 108.5 185.5t204.5 72.5q100 0 159.5 -56t59.5 -145q0 -134 -93 -225t-226 -91zM725 1405q0 -33 20.5 -53.5t53.5 -20.5q42 0 72.5 27.5t39.5 71.5q2 8 2 22q0 33 -20 53.5t-53 20.5q-48 0 -81.5 -35t-33.5 -86z
M805 481l121 604h352l-217 -1085h-322l11 111q-128 -131 -328 -131q-164 0 -252 88t-88 249q0 67 14 136l127 632h352l-122 -610q-7 -35 -7 -55q0 -65 36 -100t102 -35q84 0 143 52.5t78 143.5z" />
    <glyph glyph-name="Uhungarumlaut" unicode="&#x170;" horiz-adv-x="1411" 
d="M823 1552h-284l4 17l170 291h329l-2 -19zM1188 1552h-273l5 17l219 291h325l-2 -19zM616 -23q-230 0 -367.5 120.5t-137.5 322.5q0 56 12 121l180 893h375l-176 -885q-8 -46 -8 -66q0 -74 42.5 -114.5t120.5 -40.5q98 0 164.5 58t89.5 165l176 883h375l-184 -932
q-50 -249 -223 -387t-439 -138z" />
    <glyph glyph-name="uhungarumlaut" unicode="&#x171;" horiz-adv-x="1300" 
d="M883 1503l-4 -16l-189 -295h-268l2 16l145 295h314zM801 1208l170 295h313l-4 -16l-211 -295h-270zM805 481l121 604h352l-217 -1085h-322l11 111q-128 -131 -328 -131q-164 0 -252 88t-88 249q0 67 14 136l127 632h352l-122 -610q-7 -35 -7 -55q0 -65 36 -100t102 -35
q84 0 143 52.5t78 143.5z" />
    <glyph glyph-name="Uogonek" unicode="&#x172;" horiz-adv-x="1411" 
d="M911 551l176 883h375l-184 -932q-32 -160 -116.5 -276t-213.5 -179q-110 -66 -169.5 -124.5t-59.5 -92.5q0 -37 53 -37q40 0 86 12l-49 -235q-131 -31 -211 -31q-103 0 -166 39.5t-63 114.5q0 134 184 287q-204 17 -323 134.5t-119 305.5q0 56 12 121l180 893h375
l-176 -885q-8 -46 -8 -66q0 -74 42.5 -114.5t120.5 -40.5q98 0 164.5 58t89.5 165z" />
    <glyph glyph-name="uogonek" unicode="&#x173;" horiz-adv-x="1300" 
d="M1278 1085l-217 -1085q-89 -56 -128.5 -95t-39.5 -71q0 -41 49 -41q38 0 88 12l-49 -235q-134 -31 -211 -31q-112 0 -175.5 45.5t-53.5 132.5q10 76 65 144.5t152 138.5h-19l11 111q-128 -131 -328 -131q-164 0 -252 88t-88 249q0 67 14 136l127 632h352l-122 -610
q-7 -35 -7 -55q0 -65 36 -100t102 -35q84 0 143 52.5t78 143.5l121 604h352z" />
    <glyph glyph-name="Wcircumflex" unicode="&#x174;" horiz-adv-x="2052" 
d="M1343 1552l-106 138l-160 -138h-291l5 31l319 277h303l207 -277l-2 -31h-275zM1630 1085l172 349h404l-11 -43l-702 -1391h-301l-92 408l-53 258l-150 -258l-254 -408h-305l-148 1391l9 43h366l33 -349l31 -499l377 604h258l133 -602z" />
    <glyph glyph-name="wcircumflex" unicode="&#x175;" horiz-adv-x="1798" 
d="M1149 1190l-109 141l-168 -141h-307l6 33l336 284h318l217 -284l-4 -33h-289zM1362 782l145 303h377l-8 -34l-541 -1051h-346l-35 213l-49 334l-180 -334l-121 -213h-358l-123 1051l6 34h358l25 -303l16 -311l320 563h276l97 -561z" />
    <glyph glyph-name="Ycircumflex" unicode="&#x176;" horiz-adv-x="1345" 
d="M975 1552l-107 138l-159 -138h-291l4 31l319 277h303l207 -277l-2 -31h-274zM1073 1434h436l-10 -48l-643 -817l-113 -569h-374l118 600l-303 791l9 43h376l80 -232l78 -250l176 250z" />
    <glyph glyph-name="ycircumflex" unicode="&#x177;" horiz-adv-x="1179" 
d="M825 1190l-108 141l-168 -141h-307l6 33l336 284h317l217 -284l-4 -33h-289zM670 705l207 380h389l-9 -36l-821 -1391h-387l6 33l262 426l-196 932l8 36h350l66 -378l24 -203z" />
    <glyph glyph-name="Ydieresis" unicode="&#x178;" horiz-adv-x="1345" 
d="M596 1530q-73 0 -115.5 38.5t-42.5 100.5q0 90 63.5 150.5t153.5 60.5q73 0 115.5 -38.5t42.5 -100.5q0 -90 -63.5 -150.5t-153.5 -60.5zM1071 1530q-73 0 -115.5 38.5t-42.5 100.5q0 90 63.5 150.5t153.5 60.5q73 0 115.5 -38.5t42.5 -100.5q0 -90 -63.5 -150.5
t-153.5 -60.5zM1073 1434h436l-10 -48l-643 -817l-113 -569h-374l118 600l-303 791l9 43h376l80 -232l78 -250l176 250z" />
    <glyph glyph-name="Zacute" unicode="&#x179;" horiz-adv-x="1214" 
d="M1208 1858l-4 -17l-280 -287h-297l2 17l221 287h358zM268 1434h1057l-41 -207l-745 -891l589 2l-67 -338h-1108l45 219l739 885l-534 -2z" />
    <glyph glyph-name="zacute" unicode="&#x17a;" horiz-adv-x="997" 
d="M981 1501l-4 -16l-236 -293h-266l4 14l178 295h324zM174 1085h870l-32 -155l-514 -608l147 2h266l-63 -324h-918l35 172l510 596h-364z" />
    <glyph glyph-name="Zdotaccent" unicode="&#x17b;" horiz-adv-x="1214" 
d="M815 1534q-81 0 -128.5 43.5t-47.5 114.5q0 100 71.5 166.5t176.5 66.5q79 0 126.5 -43.5t47.5 -114.5q0 -99 -72 -166t-174 -67zM268 1434h1057l-41 -207l-745 -891l589 2l-67 -338h-1108l45 219l739 885l-534 -2z" />
    <glyph glyph-name="zdotaccent" unicode="&#x17c;" horiz-adv-x="997" 
d="M621 1171q-79 0 -125.5 43t-46.5 113q0 11 4 39q17 83 81 133.5t154 50.5q77 0 122.5 -41.5t45.5 -109.5q0 -98 -68 -163t-167 -65zM174 1085h870l-32 -155l-514 -608l147 2h266l-63 -324h-918l35 172l510 596h-364z" />
    <glyph glyph-name="Zcaron" unicode="&#x17d;" horiz-adv-x="1214" 
d="M1288 1829l-319 -277h-303l-209 277l4 31h274l105 -138l161 138h291zM268 1434h1057l-41 -207l-745 -891l589 2l-67 -338h-1108l45 219l739 885l-534 -2z" />
    <glyph glyph-name="zcaron" unicode="&#x17e;" horiz-adv-x="997" 
d="M643 1368l168 139h307l-6 -30l-336 -287h-317l-219 287l6 30h289zM111 768l63 317h870l-32 -155l-514 -608l147 2h266l-63 -324h-918l35 172l510 596h-364z" />
    <glyph glyph-name="longs" unicode="&#x17f;" horiz-adv-x="729" 
d="M375 0h-350l219 1110q34 170 159 259t326 89q87 0 178 -16l-61 -303q-50 6 -92 6q-83 0 -124 -32t-55 -101z" />
    <glyph glyph-name="uni018F" unicode="&#x18f;" horiz-adv-x="1542" 
d="M928 1458q271 0 439.5 -166.5t168.5 -431.5q0 -88 -16 -164q-31 -157 -111 -291t-191.5 -228t-253 -147t-292.5 -53q-281 0 -445 161t-164 421q0 138 48 283h1040q-2 129 -72 205.5t-190 76.5q-84 0 -165 -39.5t-140 -107.5h-416q114 232 314 356.5t446 124.5zM705 311
q130 0 233 74t160 205h-660q-5 -132 64.5 -205.5t202.5 -73.5z" />
    <glyph glyph-name="florin" unicode="&#x192;" horiz-adv-x="1032" 
d="M1014 1233q-83 0 -127 -30t-64 -101l-6 -19h240l-80 -276h-238l-243 -864q-55 -196 -172.5 -286.5t-317.5 -90.5q-75 0 -188 20l82 289q40 -6 84 -6q72 0 112 33t62 108l225 797h-182l82 278h178l16 58q51 177 175 263.5t327 86.5q96 0 201 -18l-70 -248q-50 6 -96 6z
" />
    <glyph glyph-name="Gcaron" unicode="&#x1e6;" horiz-adv-x="1560" 
d="M1458 1829l-319 -277h-303l-209 277l4 31h274l105 -138l161 138h291zM1114 528h-387l53 267h785q-57 -387 -282.5 -604.5t-575.5 -217.5q-275 0 -448 172.5t-173 442.5q0 88 16 164q42 207 164 368t302.5 250.5t389.5 89.5q264 0 431.5 -151t177.5 -398h-381
q-19 98 -90.5 149.5t-184.5 51.5q-160 0 -281.5 -110t-156.5 -287q-10 -55 -10 -92q0 -136 79.5 -221t211.5 -85q242 0 360 211z" />
    <glyph glyph-name="gcaron" unicode="&#x1e7;" horiz-adv-x="1339" 
d="M1292 1477l-336 -287h-317l-219 287l6 30h289l108 -139l168 139h307zM985 985l35 100h297l-191 -952q-52 -254 -216.5 -378t-430.5 -124q-212 0 -340.5 99t-128.5 264q0 27 2 41h340q-2 -51 39 -77t127 -26q213 0 256 209v2q-121 -65 -272 -65q-196 0 -316 115.5
t-120 302.5q0 54 12 116q44 227 206 361.5t386 134.5q198 0 315 -123zM424 541q0 -75 47 -121.5t127 -46.5q100 0 172.5 60t91.5 155q4 32 4 45q0 76 -47.5 122t-128.5 46q-115 0 -190.5 -72t-75.5 -188z" />
    <glyph glyph-name="AEacute" unicode="&#x1fc;" horiz-adv-x="1935" 
d="M1669 1858l-4 -17l-281 -287h-297l3 17l221 287h358zM2009 1434l-63 -320h-551l-47 -237h507l-63 -316h-508l-47 -235h567l-67 -326h-930l45 223h-373l-153 -223h-432l10 43l1011 1391h1094zM1010 1018l-332 -506h231z" />
    <glyph glyph-name="aeacute" unicode="&#x1fd;" horiz-adv-x="2088" 
d="M1534 1501l-4 -16l-236 -293h-266l4 14l178 295h324zM2017 438h-778q6 -81 54.5 -124.5t127.5 -43.5q111 0 187 76h370q-79 -172 -228 -271.5t-333 -99.5q-203 0 -325 119l-31 -94h-244l4 72q-146 -97 -323 -97q-205 0 -325 127.5t-120 329.5q0 58 13 131
q48 244 215.5 395.5t398.5 151.5q201 0 321 -123l31 98h244l-6 -77q159 102 329 102q209 0 331 -126.5t122 -326.5q0 -113 -35 -219zM1280 647h432q-8 77 -53.5 123.5t-126.5 46.5q-82 0 -147 -43.5t-105 -126.5zM594 287q103 0 184 70t105 188q6 34 6 61q0 88 -51.5 140.5
t-137.5 52.5q-101 0 -182 -73t-104 -185q-6 -35 -6 -64q0 -87 50 -138.5t136 -51.5z" />
    <glyph glyph-name="Oslashacute" unicode="&#x1fe;" horiz-adv-x="1601" 
d="M1401 1858l-4 -17l-281 -287h-297l2 17l221 287h359zM1309 1579h329l-8 -45l-196 -260q157 -171 157 -428q0 -82 -18 -170q-63 -315 -302 -509t-564 -194q-121 0 -224 35l-114 -153h-330l8 43l195 262q-156 174 -156 426q0 84 18 172q63 315 301.5 508.5t565.5 193.5
q120 0 223 -35zM1198 719q10 55 10 94q0 133 -77.5 215t-208.5 82q-160 0 -284.5 -111.5t-158.5 -283.5q-10 -55 -10 -97q0 -132 78.5 -213t208.5 -81q159 0 283 111.5t159 283.5z" />
    <glyph glyph-name="oslashacute" unicode="&#x1ff;" horiz-adv-x="1277" 
d="M1106 1501l-4 -16l-236 -293h-266l4 14l178 295h324zM1044 1255h291l-6 -34l-207 -263q111 -124 111 -303q0 -66 -14 -129q-51 -248 -234 -399.5t-436 -151.5q-89 0 -176 23l-133 -168h-291l8 37l203 258q-111 120 -111 307q0 60 12 127q49 249 233.5 400t436.5 151
q97 0 180 -25zM872 545q7 40 7 63q0 87 -50.5 139t-134.5 52q-102 0 -181.5 -72.5t-102.5 -185.5q-7 -40 -7 -64q0 -86 50 -138t135 -52q102 0 181.5 72.5t102.5 185.5z" />
    <glyph glyph-name="uni0218" unicode="&#x218;" horiz-adv-x="1226" 
d="M526 -20q-227 0 -359 109t-132 294q0 39 6 82h358q-8 -82 34.5 -124t133.5 -42q180 0 201 109q4 20 4 26q0 49 -51.5 84t-167.5 64q-385 101 -385 387q0 42 10 100q37 188 186.5 287.5t395.5 99.5q218 0 347.5 -108.5t129.5 -290.5q0 -20 -4 -66h-348q3 74 -41.5 113
t-134.5 39q-149 0 -170 -103q-4 -20 -4 -28q0 -49 52 -83.5t185 -72.5q190 -53 285.5 -152t95.5 -237q0 -38 -10 -90q-79 -397 -617 -397zM500 -494h-289l160 402h311l-14 -68z" />
    <glyph glyph-name="uni0219" unicode="&#x219;" horiz-adv-x="1075" 
d="M463 -25q-201 0 -324 83t-123 231q0 26 7 61l350 -2q-6 -50 25.5 -78t95.5 -28q63 0 99 22t36 64q0 31 -37 51t-137 43q-176 40 -258 112.5t-82 188.5q0 41 8 80q20 101 91.5 171t171.5 102t222 32q188 0 309 -80.5t121 -222.5q0 -37 -4 -55h-334q4 49 -25 72.5t-89 23.5
q-59 0 -90 -20t-31 -56q0 -33 38.5 -53.5t137.5 -42.5q177 -39 259.5 -113.5t82.5 -191.5q0 -41 -8 -80q-31 -159 -169 -236.5t-343 -77.5zM438 -494h-288l159 402h312l-15 -68z" />
    <glyph glyph-name="uni021A" unicode="&#x21a;" horiz-adv-x="1206" 
d="M240 1434h1083l-66 -334h-354l-221 -1100h-375l219 1100h-354zM453 -494h-289l160 402h311l-14 -68z" />
    <glyph glyph-name="uni021B" unicode="&#x21b;" horiz-adv-x="849" 
d="M842 801h-242l-76 -383q-6 -27 -6 -47q0 -51 31.5 -73t97.5 -22q35 0 107 11l-58 -289q-114 -21 -207 -21q-161 0 -248 72t-87 215q0 56 12 117l84 420h-174l55 284h176l45 230l359 37l-54 -267h242zM401 -494h-288l159 402h312l-15 -68z" />
    <glyph glyph-name="uni0232" unicode="&#x232;" horiz-adv-x="1345" 
d="M541 1825h692l-47 -246h-694zM1073 1434h436l-10 -48l-643 -817l-113 -569h-374l118 600l-303 791l9 43h376l80 -232l78 -250l176 250z" />
    <glyph glyph-name="uni0233" unicode="&#x233;" horiz-adv-x="1179" 
d="M389 1456h686l-49 -229h-684zM670 705l207 380h389l-9 -36l-821 -1391h-387l6 33l262 426l-196 932l8 36h350l66 -378l24 -203z" />
    <glyph glyph-name="uni0237" unicode="&#x237;" horiz-adv-x="614" 
d="M-92 -369q-68 0 -172 17l55 280q35 -6 82 -6q67 0 107 33.5t55 110.5l205 1019h352l-209 -1054q-40 -204 -162.5 -302t-312.5 -98z" />
    <glyph glyph-name="uni0259" unicode="&#x259;" horiz-adv-x="1243" 
d="M705 1110q224 0 356.5 -125t132.5 -330q0 -61 -12 -129q-50 -248 -231.5 -399.5t-428.5 -151.5q-225 0 -357 126.5t-132 326.5q0 109 39 219h776q-4 81 -52 124.5t-128 43.5q-111 0 -187 -76h-368q83 172 239.5 271.5t352.5 99.5zM557 268q81 0 145 44.5t103 125.5h-428
q8 -77 53.5 -123.5t126.5 -46.5z" />
    <glyph glyph-name="uni02BC" unicode="&#x2bc;" horiz-adv-x="602" 
d="M494 893h-326l10 41l195 500h356l-22 -109z" />
    <glyph glyph-name="circumflex" unicode="&#x2c6;" horiz-adv-x="1232" 
d="M506 1507h317l217 -284l-4 -33h-288l-109 141l-168 -141h-307l6 33z" />
    <glyph glyph-name="caron" unicode="&#x2c7;" horiz-adv-x="1144" 
d="M594 1368l168 139h307l-6 -30l-336 -287h-317l-220 287l7 30h288z" />
    <glyph glyph-name="breve" unicode="&#x2d8;" horiz-adv-x="917" 
d="M494 1176q-156 0 -247 70t-91 192q0 32 6 69h258q-2 -10 -2 -28q0 -86 108 -86q62 0 105 30t55 84h258q-33 -157 -147.5 -244t-302.5 -87z" />
    <glyph glyph-name="dotaccent" unicode="&#x2d9;" horiz-adv-x="800" 
d="M453 1171q-79 0 -125.5 43t-46.5 113q0 11 4 39q17 83 81 133.5t154 50.5q77 0 122.5 -41.5t45.5 -109.5q0 -98 -68 -163t-167 -65z" />
    <glyph glyph-name="ring" unicode="&#x2da;" horiz-adv-x="733" 
d="M403 1171q-100 0 -159.5 56t-59.5 147q0 29 6 56q22 113 109 185.5t205 72.5q100 0 159.5 -56t59.5 -145q0 -134 -93.5 -225t-226.5 -91zM434 1331q42 0 73 27.5t40 71.5q2 8 2 22q0 33 -20.5 53.5t-53.5 20.5q-48 0 -81.5 -35t-33.5 -86q0 -33 20.5 -53.5t53.5 -20.5z
" />
    <glyph glyph-name="ogonek" unicode="&#x2db;" horiz-adv-x="657" 
d="M45 -461q-112 0 -175.5 45.5t-53.5 132.5q11 91 85 170t210 166l225 -53q-89 -56 -128.5 -95t-39.5 -71q0 -41 49 -41q39 0 88 12l-49 -235q-134 -31 -211 -31z" />
    <glyph glyph-name="tilde" unicode="&#x2dc;" horiz-adv-x="1208" 
d="M758 1176q-35 0 -65.5 10.5t-46 21t-36.5 29.5q-3 2 -12 8.5t-12.5 9t-11 7.5t-13 7t-13.5 3.5t-16 1.5q-32 0 -49.5 -22.5t-25.5 -67.5h-217q22 163 97.5 249.5t178.5 86.5q41 0 72 -15t67 -43q23 -19 35 -27.5t31 -17t37 -8.5q58 0 71 100h218q-28 -165 -101 -249
t-188 -84z" />
    <glyph glyph-name="hungarumlaut" unicode="&#x2dd;" horiz-adv-x="1290" 
d="M690 1192h-268l2 16l145 295h314l-4 -16zM1069 1192h-270l2 16l170 295h313l-4 -16z" />
    <glyph glyph-name="gravecomb" unicode="&#x300;" horiz-adv-x="0" 
d="M-328 1192h-258l-125 295l4 16h320l63 -297z" />
    <glyph glyph-name="acutecomb" unicode="&#x301;" horiz-adv-x="0" 
d="M-246 1192h-266l4 14l178 295h324l-4 -16z" />
    <glyph glyph-name="uni0302" unicode="&#x302;" horiz-adv-x="0" 
d="M-727 1507h317l217 -284l-4 -33h-288l-109 141l-168 -141h-307l6 33z" />
    <glyph glyph-name="tildecomb" unicode="&#x303;" horiz-adv-x="0" 
d="M-451 1176q-35 0 -65 10.5t-45 21t-37 29.5q-3 2 -12 8.5t-12.5 9t-11 7.5t-13 7t-13.5 3.5t-16 1.5q-60 0 -76 -90h-217q22 163 98 249.5t179 86.5q41 0 72 -15t67 -43q23 -19 34.5 -27.5t30.5 -17t37 -8.5q59 0 72 100h217q-28 -165 -101 -249t-188 -84z" />
    <glyph glyph-name="uni0304" unicode="&#x304;" horiz-adv-x="0" 
d="M-147 1227h-684l47 229h686z" />
    <glyph glyph-name="uni0306" unicode="&#x306;" horiz-adv-x="0" 
d="M-424 1176q-155 0 -246.5 70t-91.5 192q0 32 6 69h258q-2 -10 -2 -28q0 -41 28.5 -63.5t80.5 -22.5q62 0 105 30t55 84h258q-33 -157 -148 -244t-303 -87z" />
    <glyph glyph-name="uni0307" unicode="&#x307;" horiz-adv-x="0" 
d="M-348 1171q-79 0 -125.5 43t-46.5 113q0 11 4 39q17 83 81 133.5t154 50.5q77 0 122.5 -41.5t45.5 -109.5q0 -98 -68 -163t-167 -65z" />
    <glyph glyph-name="uni0308" unicode="&#x308;" horiz-adv-x="0" 
d="M-815 1178q-76 0 -121 41t-45 108q0 96 66.5 158.5t166.5 62.5q76 0 120 -40.5t44 -108.5q0 -94 -67.5 -157.5t-163.5 -63.5zM-315 1178q-77 0 -122.5 41.5t-45.5 109.5q0 95 67.5 157t167.5 62q75 0 119.5 -40.5t44.5 -106.5q0 -95 -67 -159t-164 -64z" />
    <glyph glyph-name="uni030A" unicode="&#x30a;" horiz-adv-x="0" 
d="M-330 1171q-99 0 -158 56t-59 147q0 20 4 56q22 113 109 185.5t205 72.5q100 0 159.5 -56t59.5 -145q0 -134 -93 -225t-227 -91zM-299 1331q42 0 73 27.5t40 71.5q4 16 4 22q0 33 -20.5 53.5t-55.5 20.5q-46 0 -80.5 -35.5t-34.5 -85.5q0 -33 20.5 -53.5t53.5 -20.5z" />
    <glyph glyph-name="uni030B" unicode="&#x30b;" horiz-adv-x="0" 
d="M-600 1192h-268l2 16l145 295h313l-4 -16zM-221 1192h-271l3 16l170 295h313l-4 -16z" />
    <glyph glyph-name="uni030C" unicode="&#x30c;" horiz-adv-x="0" 
d="M-551 1368l168 139h307l-6 -30l-336 -287h-317l-219 287l6 30h289z" />
    <glyph glyph-name="uni0312" unicode="&#x312;" horiz-adv-x="0" 
d="M-449 1188h-303l13 69l172 330h276l-10 -45z" />
    <glyph glyph-name="uni0326" unicode="&#x326;" horiz-adv-x="0" 
d="M-571 -494h-289l160 402h311l-14 -68z" />
    <glyph glyph-name="uni0327" unicode="&#x327;" horiz-adv-x="0" 
d="M-401 51l-86 -125q79 -10 120 -47t41 -96q0 -25 -4 -37q-41 -203 -332 -203q-105 0 -210 25l41 188q93 -22 153 -22q55 0 82 12t27 43q0 37 -68 37q-20 0 -70 -8l-24 43l127 190h203z" />
    <glyph glyph-name="uni0328" unicode="&#x328;" horiz-adv-x="0" 
d="M-612 -461q-112 0 -176 45.5t-54 132.5q11 91 85 170t210 166l225 -53q-88 -56 -127.5 -95t-39.5 -71q0 -41 49 -41q38 0 88 12l-49 -235q-134 -31 -211 -31z" />
    <glyph glyph-name="uni037E" unicode="&#x37e;" horiz-adv-x="610" 
d="M369 670q-79 0 -123.5 40t-44.5 111q0 15 4 43q19 84 80 134.5t145 50.5q78 0 123 -41.5t45 -112.5q0 -13 -4 -41q-17 -84 -78 -134t-147 -50zM262 -227h-325l10 41l194 499h357l-23 -108z" />
    <glyph glyph-name="tonos" unicode="&#x384;" horiz-adv-x="931" 
d="M686 1192h-266l4 14l178 295h324l-4 -16z" />
    <glyph glyph-name="dieresistonos" unicode="&#x385;" horiz-adv-x="1368" 
d="M307 1192q-60 0 -95.5 36t-35.5 95q0 13 4 37q15 71 66 115.5t121 44.5q60 0 95.5 -36t35.5 -95q0 -13 -4 -37q-15 -72 -66.5 -116t-120.5 -44zM989 1192q-60 0 -95.5 36t-35.5 95q0 84 55.5 140.5t135.5 56.5q60 0 95.5 -36t35.5 -95q0 -13 -4 -37q-15 -72 -66.5 -116
t-120.5 -44zM729 1196h-250l4 14l105 287h295l-4 -16z" />
    <glyph glyph-name="Alphatonos" unicode="&#x386;" horiz-adv-x="1398" 
d="M705 1434h348l233 -1391l-8 -43h-373l-24 229h-449l-119 -229h-407l10 43zM500 1434l-2 -19l-197 -299h-262l2 14l135 304h324zM858 520l-57 430l-223 -430h280z" />
    <glyph glyph-name="anoteleia" unicode="&#x387;" horiz-adv-x="532" 
d="M270 498q-79 0 -123.5 40t-44.5 111q0 15 4 43q17 85 78.5 135t147.5 50q78 0 123 -41.5t45 -112.5q0 -13 -4 -41q-17 -84 -78.5 -134t-147.5 -50z" />
    <glyph glyph-name="Epsilontonos" unicode="&#x388;" horiz-adv-x="1159" 
d="M236 1434l-3 -19l-196 -299h-264l4 14l135 304h324zM1237 1434l-63 -320h-551l-48 -231h510l-65 -314h-506l-49 -243h563l-63 -326h-934l286 1434h920z" />
    <glyph glyph-name="Etatonos" unicode="&#x389;" horiz-adv-x="1449" 
d="M236 1434l-5 -19l-194 -299h-264l2 14l135 304h326zM1008 899l106 535h377l-287 -1434h-377l109 547h-422l-108 -547h-375l286 1434h375l-106 -535h422z" />
    <glyph glyph-name="Iotatonos" unicode="&#x38a;" horiz-adv-x="942" 
d="M176 1434l-2 -19l-197 -299h-264l4 14l136 304h323zM1038 1434l-63 -316h-201l-160 -805h205l-63 -313h-787l64 313h205l161 805h-200l63 316h776z" />
    <glyph glyph-name="Omicrontonos" unicode="&#x38c;" horiz-adv-x="1601" 
d="M707 -27q-184 0 -325.5 79t-218.5 218.5t-77 317.5q0 82 18 170q42 208 164.5 367.5t304.5 247t396 87.5q279 0 449.5 -172t170.5 -444q0 -92 -16 -168q-63 -315 -302 -509t-564 -194zM102 1116h-264l4 14l135 304h324l-2 -19zM756 324q159 0 283 111.5t159 283.5
q10 55 10 94q0 133 -77.5 215t-208.5 82q-160 0 -284.5 -111.5t-158.5 -283.5q-10 -55 -10 -97q0 -132 78.5 -213t208.5 -81z" />
    <glyph glyph-name="Upsilontonos" unicode="&#x38e;" horiz-adv-x="1345" 
d="M-287 1116l4 14l136 304h323l-2 -19l-197 -299h-264zM1073 1434h436l-10 -48l-643 -817l-113 -569h-374l118 600l-303 791l9 43h376l80 -232l78 -250l176 250z" />
    <glyph glyph-name="Omegatonos" unicode="&#x38f;" horiz-adv-x="1665" 
d="M1616 754q-47 -245 -254 -422l88 4h96l-67 -336h-674l65 324q145 49 238.5 153t122.5 246q10 55 10 92q0 133 -80.5 213t-214.5 80q-160 0 -281 -106t-153 -275q-10 -55 -10 -94q0 -204 203 -309l-64 -324h-674l68 336h96l127 -6q-121 142 -121 352q0 62 17 149
q37 179 154 322.5t294 225t381 81.5q284 0 465.5 -162.5t181.5 -412.5q0 -52 -14 -131zM328 1434l-2 -19l-197 -299h-264l4 14l135 304h324z" />
    <glyph glyph-name="iotadieresistonos" unicode="&#x390;" horiz-adv-x="737" 
d="M84 1192q-60 0 -95.5 36t-35.5 95q0 84 55 140.5t135 56.5q60 0 95.5 -36t35.5 -95q0 -13 -4 -37q-15 -72 -66 -116t-120 -44zM766 1192q-60 0 -95.5 36t-35.5 95q0 84 55 140.5t135 56.5q60 0 95.5 -36t35.5 -95q0 -13 -4 -37q-15 -72 -66 -116t-120 -44zM506 1196h-250
l4 14l105 287h294l-4 -16zM414 -23q-160 0 -249 85t-89 235q0 53 12 115l135 673h352l-131 -647q-6 -35 -6 -59q0 -54 30.5 -77t98.5 -23q41 0 99 6l-58 -285q-115 -23 -194 -23z" />
    <glyph glyph-name="Alpha" unicode="&#x391;" horiz-adv-x="1398" 
d="M705 1434h348l233 -1391l-8 -43h-373l-24 229h-449l-119 -229h-407l10 43zM858 520l-57 430l-223 -430h280z" />
    <glyph glyph-name="Beta" unicode="&#x392;" horiz-adv-x="1286" 
d="M1266 1028q-34 -168 -193 -274q65 -46 101 -120t36 -161q0 -42 -8 -78q-34 -181 -179 -288t-355 -107h-637l286 1434h586q168 0 269.5 -88.5t101.5 -233.5q0 -45 -8 -84zM907 1030q0 47 -27.5 75t-76.5 28h-191l-49 -250h185q76 0 117.5 39.5t41.5 107.5zM838 455
q4 24 4 37q0 48 -28 76t-81 28h-229l-55 -281h223q67 0 110.5 36.5t55.5 103.5z" />
    <glyph glyph-name="Gamma" unicode="&#x393;" horiz-adv-x="1032" 
d="M406 0h-375l286 1434h879l-72 -355h-503z" />
    <glyph glyph-name="uni0394" unicode="&#x394;" horiz-adv-x="1437" 
d="M733 1434h334l258 -1389l-10 -45h-1409l10 45zM584 489l-97 -174h420l-24 174l-66 445z" />
    <glyph glyph-name="Epsilon" unicode="&#x395;" horiz-adv-x="1159" 
d="M1237 1434l-63 -320h-551l-48 -231h510l-65 -314h-506l-49 -243h563l-63 -326h-934l286 1434h920z" />
    <glyph glyph-name="Zeta" unicode="&#x396;" horiz-adv-x="1214" 
d="M268 1434h1057l-41 -207l-745 -891l589 2l-67 -338h-1108l45 219l739 885l-534 -2z" />
    <glyph glyph-name="Eta" unicode="&#x397;" horiz-adv-x="1449" 
d="M1008 899l106 535h377l-287 -1434h-377l109 547h-422l-108 -547h-375l286 1434h375l-106 -535h422z" />
    <glyph glyph-name="Theta" unicode="&#x398;" horiz-adv-x="1601" 
d="M707 -27q-184 0 -325.5 79t-218.5 218.5t-77 317.5q0 82 18 170q42 208 164.5 367.5t305 247t397.5 87.5q279 0 448.5 -172t169.5 -444q0 -92 -16 -168q-63 -315 -302 -509t-564 -194zM754 317q166 0 293.5 112.5t162.5 289.5q11 61 11 94q0 137 -81.5 220t-217.5 83
q-164 0 -292 -112t-165 -289q-10 -55 -10 -94q0 -137 81.5 -220.5t217.5 -83.5zM1040 590h-454l51 254h455z" />
    <glyph glyph-name="Iota" unicode="&#x399;" horiz-adv-x="942" 
d="M1038 1434l-63 -316h-201l-160 -805h205l-63 -313h-787l64 313h205l161 805h-200l63 316h776z" />
    <glyph glyph-name="Kappa" unicode="&#x39a;" horiz-adv-x="1318" 
d="M1055 1434h415l-8 -43l-588 -666l316 -682l-8 -43h-377l-273 635l-126 -635h-375l286 1434h375l-112 -564z" />
    <glyph glyph-name="Lambda" unicode="&#x39b;" horiz-adv-x="1380" 
d="M705 1434h331l232 -1389l-11 -45h-378l-48 346l-53 535l-272 -535l-189 -346h-411l10 45z" />
    <glyph glyph-name="Mu" unicode="&#x39c;" horiz-adv-x="1720" 
d="M887 805l543 629h329l-284 -1434h-375l82 416l73 340l-340 -389h-178l-186 391l-64 -342l-81 -416h-375l286 1434h275z" />
    <glyph glyph-name="Nu" unicode="&#x39d;" horiz-adv-x="1445" 
d="M1032 1036l80 398h373l-287 -1434h-258l-397 743l-60 -346l-80 -397h-372l286 1434h254l400 -752z" />
    <glyph glyph-name="Xi" unicode="&#x39e;" horiz-adv-x="1269" 
d="M1276 1102h-1059l68 332h1056zM1057 565h-834l64 316h833zM1073 0h-1093l67 340h1096z" />
    <glyph glyph-name="Omicron" unicode="&#x39f;" horiz-adv-x="1601" 
d="M707 -27q-184 0 -325.5 79t-218.5 218.5t-77 317.5q0 82 18 170q42 208 164.5 367.5t304.5 247t396 87.5q279 0 449.5 -172t170.5 -444q0 -92 -16 -168q-63 -315 -302 -509t-564 -194zM756 324q159 0 283 111.5t159 283.5q10 55 10 94q0 133 -77.5 215t-208.5 82
q-160 0 -284.5 -111.5t-158.5 -283.5q-10 -55 -10 -97q0 -132 78.5 -213t208.5 -81z" />
    <glyph glyph-name="Pi" unicode="&#x3a0;" horiz-adv-x="1423" 
d="M31 0l286 1434h1145l-286 -1434h-375l219 1096h-395l-219 -1096h-375z" />
    <glyph glyph-name="Rho" unicode="&#x3a1;" horiz-adv-x="1259" 
d="M317 1434h537q206 0 327.5 -116t121.5 -308q0 -52 -13 -119q-47 -237 -202.5 -362.5t-393.5 -125.5h-209l-79 -403h-375zM920 911q6 24 6 50q0 64 -39 102.5t-113 38.5h-153l-76 -375h162q84 0 140 47.5t73 136.5z" />
    <glyph glyph-name="Sigma" unicode="&#x3a3;" horiz-adv-x="1185" 
d="M1311 1434l-68 -334h-323l-236 4l184 -336l-20 -109l-291 -327l211 4h340l-68 -336h-1083l37 193l498 561l-269 487l37 193h1051z" />
    <glyph glyph-name="Tau" unicode="&#x3a4;" horiz-adv-x="1206" 
d="M240 1434h1083l-66 -334h-354l-221 -1100h-375l219 1100h-354z" />
    <glyph glyph-name="Upsilon" unicode="&#x3a5;" horiz-adv-x="1345" 
d="M1073 1434h436l-10 -48l-643 -817l-113 -569h-374l118 600l-303 791l9 43h376l80 -232l78 -250l176 250z" />
    <glyph glyph-name="Phi" unicode="&#x3a6;" horiz-adv-x="1613" 
d="M1178 1477l-33 -164q209 -17 341 -161t132 -345q0 -56 -12 -115q-50 -249 -233 -400.5t-468 -170.5l-31 -158h-362l33 162q-218 20 -346.5 161.5t-128.5 342.5q0 58 12 119q51 250 231 401t469 166l33 162h363zM434 721q-8 -36 -8 -78q0 -88 48 -144.5t144 -68.5l117 580
q-124 -13 -200.5 -90.5t-100.5 -198.5zM1255 717q7 40 7 67q0 90 -50 151t-143 73l-115 -580q124 14 200.5 92.5t100.5 196.5z" />
    <glyph glyph-name="Chi" unicode="&#x3a7;" horiz-adv-x="1400" 
d="M1096 1434h432l-8 -43l-541 -676l297 -672l-8 -43h-379l-117 289l-63 160l-349 -449h-440l8 43l572 696l-273 652l9 43h368l115 -291l53 -139z" />
    <glyph glyph-name="Psi" unicode="&#x3a8;" horiz-adv-x="1785" 
d="M1399 848l119 586h366l-127 -633q-56 -272 -225 -391t-510 -125l-57 -285h-359l58 287q-244 10 -387.5 132.5t-143.5 319.5q0 53 12 115l117 580h365l-113 -572q-6 -30 -6 -59q0 -85 57.5 -135.5t165.5 -57.5l164 824h354l-164 -826q269 12 314 240z" />
    <glyph glyph-name="uni03A9" unicode="&#x3a9;" horiz-adv-x="1665" 
d="M1616 754q-47 -245 -254 -422l88 4h96l-67 -336h-674l65 324q145 49 238.5 153t122.5 246q10 55 10 92q0 133 -80.5 213t-214.5 80q-160 0 -281 -106t-153 -275q-10 -55 -10 -94q0 -204 203 -309l-64 -324h-674l68 336h96l127 -6q-121 142 -121 352q0 62 17 149
q37 179 154 322.5t294 225t381 81.5q284 0 465.5 -162.5t181.5 -412.5q0 -52 -14 -131z" />
    <glyph glyph-name="Iotadieresis" unicode="&#x3aa;" horiz-adv-x="942" 
d="M438 1530q-73 0 -115 38.5t-42 100.5q0 90 63.5 150.5t153.5 60.5q73 0 115 -38.5t42 -100.5q0 -90 -63.5 -150.5t-153.5 -60.5zM973 1880q73 0 115 -38.5t42 -100.5q0 -90 -63.5 -150.5t-153.5 -60.5q-73 0 -115 38.5t-42 100.5q0 90 63.5 150.5t153.5 60.5zM399 1118
h-200l63 316h776l-63 -316h-201l-160 -805h205l-63 -313h-787l64 313h205z" />
    <glyph glyph-name="Upsilondieresis" unicode="&#x3ab;" horiz-adv-x="1345" 
d="M641 1530q-73 0 -115.5 38.5t-42.5 100.5q0 90 63.5 150.5t153.5 60.5q73 0 115.5 -38.5t42.5 -100.5q0 -90 -63.5 -150.5t-153.5 -60.5zM1116 1530q-73 0 -115.5 38.5t-42.5 100.5q0 90 64 150.5t154 60.5q73 0 115 -38.5t42 -100.5q0 -90 -63.5 -150.5t-153.5 -60.5z
M1073 1434h436l-10 -48l-643 -817l-113 -569h-374l118 600l-303 791l9 43h376l80 -232l78 -250l176 250z" />
    <glyph glyph-name="alphatonos" unicode="&#x3ac;" horiz-adv-x="1419" 
d="M1202 1501l-4 -16l-235 -293h-267l4 14l179 295h323zM1337 1085l-137 -688q-4 -32 -4 -41q0 -33 17.5 -48t56.5 -15t57 2l-61 -295q-70 -12 -125 -12q-94 0 -162 33t-102 92q-164 -136 -379 -136q-203 0 -325 123t-122 324q0 64 15 135q49 251 216 400t396 149
q204 0 326 -125l34 102h299zM592 287q101 0 182.5 73t104.5 185q6 34 6 63q0 87 -50.5 139t-136.5 52q-101 0 -182 -73t-104 -185q-6 -35 -6 -64q0 -87 50 -138.5t136 -51.5z" />
    <glyph glyph-name="epsilontonos" unicode="&#x3ad;" horiz-adv-x="1021" 
d="M991 1501l-4 -16l-235 -293h-267l4 14l179 295h323zM1008 758h-308q12 98 -108 98q-62 0 -99.5 -29t-37.5 -79q0 -36 27.5 -56t78.5 -20h135l-45 -234h-147q-136 0 -154 -92q-2 -6 -2 -20q0 -37 32 -57.5t89 -20.5q64 0 106 26.5t54 75.5h325q-41 -188 -176.5 -282.5
t-355.5 -94.5q-188 0 -305 83.5t-117 219.5q0 32 6 62q19 86 73 149t136 97q-84 68 -84 180q0 157 132.5 252.5t344.5 95.5q188 0 295 -80.5t107 -226.5q0 -31 -2 -47z" />
    <glyph glyph-name="etatonos" unicode="&#x3ae;" horiz-adv-x="1374" 
d="M1180 1501l-4 -16l-236 -293h-266l4 14l178 295h324zM948 1106q165 0 254.5 -89t89.5 -251q0 -67 -14 -133l-195 -975h-352l191 952q6 34 6 60q0 131 -144 131q-88 0 -149 -53t-80 -144l-121 -604h-350l137 688q4 24 4 35q0 70 -84 70q-22 0 -47 -2l60 294q80 13 139 13
q93 0 158 -37.5t92 -104.5q166 150 405 150z" />
    <glyph glyph-name="iotatonos" unicode="&#x3af;" horiz-adv-x="737" 
d="M545 1192h-266l4 14l178 295h323l-4 -16zM414 -23q-160 0 -249 85t-89 235q0 53 12 115l135 673h352l-131 -647q-6 -35 -6 -59q0 -54 30.5 -77t98.5 -23q41 0 99 6l-58 -285q-115 -23 -194 -23z" />
    <glyph glyph-name="upsilondieresistonos" unicode="&#x3b0;" horiz-adv-x="1280" 
d="M432 1192q-60 0 -95.5 36t-35.5 95q0 13 4 37q15 71 66 115.5t121 44.5q60 0 95.5 -36t35.5 -95q0 -7 -5 -37q-15 -72 -66 -116t-120 -44zM1114 1192q-60 0 -95.5 36t-35.5 95q0 84 55.5 140.5t135.5 56.5q60 0 95.5 -36t35.5 -95q0 -7 -5 -37q-15 -72 -66 -116t-120 -44
zM854 1196h-250l4 14l105 287h295l-4 -16zM543 -25q-204 0 -330.5 109.5t-126.5 280.5q0 37 10 92l127 628h350l-118 -596q-6 -35 -6 -61q0 -68 36 -104.5t105 -36.5q81 0 140.5 52.5t76.5 139.5l123 606h350l-127 -636q-44 -223 -205.5 -348.5t-404.5 -125.5z" />
    <glyph glyph-name="alpha" unicode="&#x3b1;" horiz-adv-x="1419" 
d="M1337 1085l-137 -688q-4 -32 -4 -41q0 -33 17.5 -48t56.5 -15t57 2l-61 -295q-70 -12 -125 -12q-94 0 -162 33t-102 92q-164 -136 -379 -136q-203 0 -325 123t-122 324q0 64 15 135q49 251 216 400t396 149q204 0 326 -125l34 102h299zM592 287q101 0 182.5 73t104.5 185
q6 34 6 63q0 87 -50.5 139t-136.5 52q-101 0 -182 -73t-104 -185q-6 -35 -6 -64q0 -87 50 -138.5t136 -51.5z" />
    <glyph glyph-name="beta" unicode="&#x3b2;" horiz-adv-x="1335" 
d="M1317 1030q-19 -99 -71 -161.5t-146 -112.5q74 -42 112.5 -113t38.5 -160q0 -37 -10 -92q-37 -195 -200.5 -306.5t-422.5 -111.5q-109 0 -227 31l-69 -346h-369l256 1278q50 251 219 387.5t442 136.5q199 0 327 -96.5t128 -255.5q0 -42 -8 -78zM977 1024q4 24 4 33
q0 55 -42.5 84.5t-119.5 29.5q-95 0 -162 -57.5t-88 -152.5l-129 -650q85 -30 193 -30q123 0 194.5 53t71.5 149q0 59 -46 92t-130 33h-111l54 269h98q88 0 143 36.5t70 110.5z" />
    <glyph glyph-name="gamma" unicode="&#x3b3;" horiz-adv-x="1155" 
d="M852 1085h389l-6 -36l-580 -979l-82 -412h-352l84 424l-184 967l6 36h348l45 -358l27 -238l117 238z" />
    <glyph glyph-name="delta" unicode="&#x3b4;" horiz-adv-x="1214" 
d="M1243 1434l-59 -295h-244l-195 4l203 -164q203 -155 203 -410q0 -63 -12 -125q-41 -213 -214 -342t-421 -129q-202 0 -331.5 125t-129.5 314q0 42 10 100q38 190 181.5 311t330.5 129l-299 242l47 240h930zM805 532q0 70 -44.5 114t-119.5 44q-99 0 -170.5 -71.5
t-71.5 -172.5q0 -70 44 -112.5t120 -42.5q99 0 170.5 70.5t71.5 170.5z" />
    <glyph glyph-name="epsilon" unicode="&#x3b5;" horiz-adv-x="1021" 
d="M1008 758h-308q12 98 -108 98q-62 0 -99.5 -29t-37.5 -79q0 -36 27.5 -56t78.5 -20h135l-45 -234h-147q-136 0 -154 -92q-2 -6 -2 -20q0 -37 32 -57.5t89 -20.5q64 0 106 26.5t54 75.5h325q-41 -188 -176.5 -282.5t-355.5 -94.5q-188 0 -305 83.5t-117 219.5q0 32 6 62
q19 86 73 149t136 97q-84 68 -84 180q0 157 132.5 252.5t344.5 95.5q188 0 295 -80.5t107 -226.5q0 -31 -2 -47z" />
    <glyph glyph-name="zeta" unicode="&#x3b6;" horiz-adv-x="991" 
d="M1171 1434l-49 -242q-274 -179 -425 -296.5t-225 -210t-93 -187.5q-6 -30 -6 -58q0 -74 52 -117t169 -65q148 -28 215.5 -88.5t67.5 -167.5q0 -36 -15 -113q-27 -120 -78 -231h-301q28 66 39 121q6 35 6 59q0 68 -47 105.5t-151 58.5q-324 62 -324 336q0 52 12 113
q38 188 177.5 354.5t412.5 347.5l-186 -6h-238l58 287h929z" />
    <glyph glyph-name="eta" unicode="&#x3b7;" horiz-adv-x="1374" 
d="M948 1106q165 0 254.5 -89t89.5 -251q0 -67 -14 -133l-195 -975h-352l191 952q6 34 6 60q0 131 -144 131q-88 0 -149 -53t-80 -144l-121 -604h-350l137 688q4 24 4 35q0 70 -84 70q-22 0 -47 -2l60 294q80 13 139 13q93 0 158 -37.5t92 -104.5q166 150 405 150z" />
    <glyph glyph-name="theta" unicode="&#x3b8;" horiz-adv-x="1312" 
d="M821 1460q235 0 362.5 -137.5t127.5 -384.5q0 -102 -25 -233q-70 -356 -254.5 -544t-462.5 -188q-235 0 -363 138.5t-128 388.5q0 106 24 229q72 356 256.5 543.5t462.5 187.5zM782 1161q-214 0 -313 -313h506q2 23 2 63q0 250 -195 250zM608 272q215 0 314 314h-506
q-4 -50 -4 -68q0 -246 196 -246z" />
    <glyph glyph-name="iota" unicode="&#x3b9;" horiz-adv-x="737" 
d="M414 -23q-160 0 -249 85t-89 235q0 53 12 115l135 673h352l-131 -647q-6 -35 -6 -59q0 -54 30.5 -77t98.5 -23q41 0 99 6l-58 -285q-115 -23 -194 -23z" />
    <glyph glyph-name="kappa" unicode="&#x3ba;" horiz-adv-x="1165" 
d="M811 1085h414l-6 -34l-428 -492l239 -524l-6 -35h-356l-199 467l-94 -467h-352l217 1085h352l-74 -366z" />
    <glyph glyph-name="lambda" unicode="&#x3bb;" horiz-adv-x="1167" 
d="M852 1092l199 -1057l-7 -35h-354l-43 350l-26 283l-144 -283l-188 -350h-379l6 35l592 1003l-2 6q-16 76 -47 113t-90 37q-34 0 -86 -10l51 250q85 26 172 26q143 0 226 -87.5t120 -280.5z" />
    <glyph glyph-name="uni03BC" unicode="&#x3bc;" horiz-adv-x="1376" 
d="M1294 1085l-137 -688q-4 -28 -4 -37q0 -67 78 -67q37 0 53 2l-59 -295q-77 -12 -133 -12q-96 0 -162 37t-94 104q-141 -141 -369 -141q-51 0 -94 16l-29 -166l-35 -180h-356l287 1427h350l-123 -610q-6 -27 -6 -53q0 -65 36 -101t103 -36q84 0 143 52.5t78 143.5l121 604
h352z" />
    <glyph glyph-name="nu" unicode="&#x3bd;" horiz-adv-x="1175" 
d="M688 733l186 352h388l-7 -36l-618 -1049h-315l-201 1049l6 36h348l45 -352l29 -284z" />
    <glyph glyph-name="xi" unicode="&#x3be;" horiz-adv-x="1083" 
d="M1186 1018h-309q7 67 -31.5 106t-110.5 39q-80 0 -133.5 -39t-66.5 -108q-5 -30 -5 -37q0 -54 39.5 -84.5t108.5 -30.5h168l-55 -284h-207q-201 0 -201 -152q0 -61 57 -95t178 -48q176 -20 255 -85t79 -192q0 -50 -12 -112q-27 -138 -80 -238h-299q35 76 51 149
q6 30 6 56q0 66 -48.5 99.5t-163.5 51.5q-186 26 -283.5 113t-97.5 227q0 45 8 86q22 108 88 190t170 132q-96 81 -96 221q0 43 8 82q37 183 189.5 289t381.5 106q191 0 305.5 -98t114.5 -256q0 -47 -8 -88z" />
    <glyph glyph-name="omicron" unicode="&#x3bf;" horiz-adv-x="1277" 
d="M549 -25q-227 0 -361.5 125.5t-134.5 337.5q0 71 15 144q29 153 122 273t234 187.5t307 67.5q229 0 364.5 -126.5t135.5 -334.5q0 -69 -14 -135q-50 -240 -233 -389.5t-435 -149.5zM592 299q102 0 176.5 67t97.5 181q6 30 6 59q0 85 -48.5 132.5t-133.5 47.5
q-102 0 -176.5 -66.5t-97.5 -178.5q-6 -35 -6 -64q0 -83 49 -130.5t133 -47.5z" />
    <glyph glyph-name="pi" unicode="&#x3c0;" horiz-adv-x="1449" 
d="M1442 776h-193l-75 -383q-5 -35 -5 -37q0 -69 82 -69q33 0 56 4l-58 -291q-79 -12 -141 -12q-144 0 -221.5 68.5t-77.5 201.5q0 54 12 115l82 407h-287l-157 -780h-350l155 776h-186l61 309h1364z" />
    <glyph glyph-name="rho" unicode="&#x3c1;" horiz-adv-x="1329" 
d="M782 1110q229 0 365.5 -125.5t136.5 -329.5q0 -50 -14 -129q-51 -248 -231.5 -399.5t-424.5 -151.5q-148 0 -252 64l-75 -381h-353l177 893q52 253 232.5 406t438.5 153zM924 545q6 34 6 63q0 87 -49.5 139t-135.5 52q-102 0 -182 -72.5t-102 -185.5q-6 -35 -6 -64
q0 -87 49 -138.5t135 -51.5q102 0 182 72t103 186z" />
    <glyph glyph-name="uni03C2" unicode="&#x3c2;" horiz-adv-x="1226" 
d="M920 -342h-306q41 95 50 139q6 30 6 58q0 68 -52.5 106t-181.5 68q-185 43 -284 151.5t-99 272.5q0 52 13 122q49 247 223 391t422 144q235 0 369 -134t126 -360h-338q-4 91 -55.5 138t-132.5 47q-99 0 -171.5 -65t-94.5 -173q-6 -35 -6 -61q0 -87 64 -140t216 -83
q162 -35 240 -108t78 -191q0 -33 -11 -93q-19 -109 -75 -229z" />
    <glyph glyph-name="sigma" unicode="&#x3c3;" horiz-adv-x="1318" 
d="M737 1085h662l-64 -307h-100l-86 6q55 -82 55 -192q0 -57 -10 -103q-45 -226 -225.5 -370t-427.5 -144q-227 0 -360.5 124t-133.5 327q0 58 12 123q49 240 225.5 388t452.5 148zM854 535q6 30 6 59q0 82 -47.5 132t-128.5 50q-115 0 -199 -89.5t-84 -217.5q0 -82 48 -132
t129 -50q99 0 176.5 70t99.5 178z" />
    <glyph glyph-name="tau" unicode="&#x3c4;" horiz-adv-x="1093" 
d="M1096 776h-342l-68 -340q-6 -27 -6 -51q0 -58 34 -83.5t107 -25.5q45 0 99 7l-58 -283q-125 -23 -207 -23q-169 0 -256.5 77t-87.5 225q0 38 15 122l73 375h-336l62 309h1032z" />
    <glyph glyph-name="upsilon" unicode="&#x3c5;" horiz-adv-x="1280" 
d="M543 -25q-204 0 -330.5 109.5t-126.5 280.5q0 37 10 92l127 628h350l-118 -596q-6 -35 -6 -61q0 -68 36 -104.5t105 -36.5q81 0 140.5 52.5t76.5 139.5l123 606h350l-127 -636q-44 -223 -205.5 -348.5t-404.5 -125.5z" />
    <glyph glyph-name="phi" unicode="&#x3c6;" horiz-adv-x="1546" 
d="M1128 1434l-65 -326q193 -15 314.5 -148t121.5 -327q0 -57 -12 -115q-49 -241 -223 -386t-428 -157l-64 -317h-348l65 319q-194 13 -316 147t-122 329q0 55 12 114q49 242 223.5 386.5t430.5 156.5l63 324h348zM401 532q-8 -46 -8 -67q0 -79 44 -131.5t118 -63.5l107 545
q-96 -12 -166 -88t-95 -195zM1149 553q6 35 6 63q0 80 -42.5 133.5t-117.5 65.5l-108 -545q98 13 167.5 89t94.5 194z" />
    <glyph glyph-name="chi" unicode="&#x3c7;" horiz-adv-x="1232" 
d="M926 1085h383l-9 -36l-497 -682l100 -332q18 -56 44 -79.5t75 -23.5q43 0 86 11l-57 -279q-127 -26 -199 -26q-106 0 -161.5 48.5t-86.5 168.5l-67 251l-166 -249l-138 -199h-393l6 37l527 721l-94 299q-17 56 -44.5 79t-76.5 23q-23 0 -84 -10l55 276q111 27 199 27
q109 0 161 -45t86 -168l64 -227l145 217z" />
    <glyph glyph-name="psi" unicode="&#x3c8;" horiz-adv-x="1808" 
d="M1358 586l100 499h346l-108 -536q-55 -280 -236 -422.5t-479 -142.5h-16l-66 -326h-344l66 326q-240 0 -378.5 122t-138.5 326q0 55 13 125l106 528h346l-98 -495q-10 -44 -10 -94q0 -190 223 -205l201 999h338l-201 -1001q276 15 336 297z" />
    <glyph glyph-name="omega" unicode="&#x3c9;" horiz-adv-x="1814" 
d="M1364 1085h352q27 -162 27 -286q0 -122 -25 -250q-56 -276 -201 -424t-360 -148q-125 0 -204 50t-105 147q-63 -92 -172.5 -144.5t-241.5 -52.5q-174 0 -265 97t-91 282q0 93 20 193q57 275 215 536h353q-77 -127 -135.5 -267.5t-81.5 -260.5q-15 -71 -15 -121
q0 -143 115 -143q67 0 113 44.5t61 125.5l78 391h338l-80 -391q-6 -30 -6 -55q0 -115 108 -115q159 0 209 264q23 122 23 244q0 145 -29 284z" />
    <glyph glyph-name="iotadieresis" unicode="&#x3ca;" horiz-adv-x="737" 
d="M188 1178q-74 0 -116.5 41.5t-42.5 111.5q0 13 4 37q15 80 75 130t144 50q73 0 115.5 -41.5t42.5 -109.5q0 -13 -4 -37q-15 -80 -76 -131t-142 -51zM662 1178q-73 0 -116.5 41t-43.5 108q0 96 63.5 158.5t159.5 62.5q72 0 114 -40.5t42 -106.5q0 -95 -64 -159t-155 -64z
M414 -23q-160 0 -249 85t-89 235q0 53 12 115l135 673h352l-131 -647q-6 -35 -6 -59q0 -54 30.5 -77t98.5 -23q41 0 99 6l-58 -285q-115 -23 -194 -23z" />
    <glyph glyph-name="upsilondieresis" unicode="&#x3cb;" horiz-adv-x="1280" 
d="M522 1178q-76 0 -121 41t-45 108q0 96 67 158.5t167 62.5q76 0 121 -40.5t45 -108.5q0 -94 -68 -157.5t-166 -63.5zM1022 1178q-77 0 -122.5 41.5t-45.5 109.5q0 95 68 157t168 62q76 0 119.5 -40t43.5 -107q0 -95 -67 -159t-164 -64zM543 -25q-204 0 -330.5 109.5
t-126.5 280.5q0 37 10 92l127 628h350l-118 -596q-6 -35 -6 -61q0 -68 36 -104.5t105 -36.5q81 0 140.5 52.5t76.5 139.5l123 606h350l-127 -636q-44 -223 -205.5 -348.5t-404.5 -125.5z" />
    <glyph glyph-name="omicrontonos" unicode="&#x3cc;" horiz-adv-x="1277" 
d="M881 1192h-267l4 14l179 295h323l-4 -16zM549 -25q-227 0 -361.5 125.5t-134.5 337.5q0 71 15 144q29 153 122 273t234 187.5t307 67.5q229 0 364.5 -126.5t135.5 -334.5q0 -69 -14 -135q-50 -240 -233 -389.5t-435 -149.5zM592 299q102 0 176.5 67t97.5 181q6 30 6 59
q0 85 -48.5 132.5t-133.5 47.5q-102 0 -176.5 -66.5t-97.5 -178.5q-6 -35 -6 -64q0 -83 49 -130.5t133 -47.5z" />
    <glyph glyph-name="upsilontonos" unicode="&#x3cd;" horiz-adv-x="1280" 
d="M893 1192h-266l4 14l178 295h324l-5 -16zM543 -25q-204 0 -330.5 109.5t-126.5 280.5q0 37 10 92l127 628h350l-118 -596q-6 -35 -6 -61q0 -68 36 -104.5t105 -36.5q81 0 140.5 52.5t76.5 139.5l123 606h350l-127 -636q-44 -223 -205.5 -348.5t-404.5 -125.5z" />
    <glyph glyph-name="omegatonos" unicode="&#x3ce;" horiz-adv-x="1814" 
d="M1401 1501l-4 -16l-236 -293h-266l4 14l178 295h324zM1364 1085h352q27 -162 27 -286q0 -122 -25 -250q-56 -276 -201 -424t-360 -148q-125 0 -204 50t-105 147q-63 -92 -172.5 -144.5t-241.5 -52.5q-174 0 -265 97t-91 282q0 93 20 193q57 275 215 536h353
q-77 -127 -135.5 -267.5t-81.5 -260.5q-15 -71 -15 -121q0 -143 115 -143q67 0 113 44.5t61 125.5l78 391h338l-80 -391q-6 -30 -6 -55q0 -115 108 -115q159 0 209 264q23 122 23 244q0 145 -29 284z" />
    <glyph glyph-name="uni03CF" unicode="&#x3cf;" horiz-adv-x="1384" 
d="M1044 1434h418l-8 -43l-614 -709q66 -170 165 -313.5t261 -300.5l-56 -267q-410 -301 -938 -301q-233 0 -405 35l65 320q155 -31 344 -31q353 0 566 164q-217 251 -324 565l-110 -553h-377l286 1434h377l-112 -564z" />
    <glyph glyph-name="uni03D7" unicode="&#x3d7;" horiz-adv-x="1243" 
d="M821 1085h410l-8 -34l-467 -535q54 -132 147.5 -246.5t237.5 -224.5l-47 -238q-182 -145 -399 -223t-445 -78q-226 0 -381 41l65 308q163 -29 322 -29q279 0 496 131q-209 191 -295 436l-78 -393h-352l217 1085h352l-78 -393z" />
    <glyph glyph-name="uni0400" unicode="&#x400;" horiz-adv-x="1159" 
d="M954 1571l-2 -17h-288l-179 285l2 19h351zM1237 1434l-63 -320h-551l-48 -231h510l-65 -314h-506l-49 -243h563l-63 -326h-934l286 1434h920z" />
    <glyph glyph-name="uni0401" unicode="&#x401;" horiz-adv-x="1159" 
d="M563 1530q-73 0 -115 38.5t-42 100.5q0 90 63.5 150.5t153.5 60.5q73 0 115 -38.5t42 -100.5q0 -90 -63.5 -150.5t-153.5 -60.5zM1098 1880q73 0 115 -38.5t42 -100.5q0 -90 -63.5 -150.5t-153.5 -60.5q-73 0 -115 38.5t-42 100.5q0 90 63.5 150.5t153.5 60.5zM965 0
h-934l286 1434h920l-63 -320h-551l-48 -231h510l-65 -314h-506l-49 -243h563z" />
    <glyph glyph-name="uni0402" unicode="&#x402;" horiz-adv-x="1519" 
d="M1073 909q176 0 277.5 -90t101.5 -258q0 -57 -12 -125q-44 -216 -177 -331t-329 -115q-79 0 -135 10l61 313q38 -6 64 -6q67 0 108 51.5t41 116.5q0 47 -29 75t-86 28q-82 0 -165 -35l-109 -543h-381l217 1081h-352l72 353h1087l-72 -351h-358l-41 -202q109 28 217 28z
" />
    <glyph glyph-name="uni0403" unicode="&#x403;" horiz-adv-x="1032" 
d="M905 1554h-297l2 17l221 287h359l-4 -17zM406 0h-375l286 1434h879l-72 -355h-503z" />
    <glyph glyph-name="uni0404" unicode="&#x404;" horiz-adv-x="1556" 
d="M745 322q120 0 226.5 69t167.5 189h381q-80 -272 -303.5 -439.5t-507.5 -167.5q-183 0 -325.5 79.5t-220 219t-77.5 316.5q0 84 18 170q41 208 159.5 367.5t295 247t383.5 87.5q269 0 438 -164.5t172 -431.5h-360q-15 115 -91 181.5t-192 66.5q-125 0 -226 -66.5
t-159 -181.5h457l-59 -293h-457q14 -116 88 -182.5t192 -66.5z" />
    <glyph glyph-name="uni0405" unicode="&#x405;" horiz-adv-x="1226" 
d="M526 -20q-227 0 -359 109t-132 294q0 39 6 82h358q-8 -82 34.5 -124t133.5 -42q180 0 201 109q4 20 4 26q0 49 -51.5 84t-167.5 64q-385 101 -385 387q0 42 10 100q37 188 186.5 287.5t395.5 99.5q218 0 347.5 -108.5t129.5 -290.5q0 -20 -4 -66h-348q3 74 -41.5 113
t-134.5 39q-149 0 -170 -103q-4 -20 -4 -28q0 -49 52 -83.5t185 -72.5q190 -53 285.5 -152t95.5 -237q0 -38 -10 -90q-79 -397 -617 -397z" />
    <glyph glyph-name="uni0406" unicode="&#x406;" horiz-adv-x="942" 
d="M1038 1434l-63 -316h-201l-160 -805h205l-63 -313h-787l64 313h205l161 805h-200l63 316h776z" />
    <glyph glyph-name="uni0407" unicode="&#x407;" horiz-adv-x="942" 
d="M438 1530q-73 0 -115 38.5t-42 100.5q0 90 63.5 150.5t153.5 60.5q73 0 115 -38.5t42 -100.5q0 -90 -63.5 -150.5t-153.5 -60.5zM973 1880q73 0 115 -38.5t42 -100.5q0 -90 -63.5 -150.5t-153.5 -60.5q-73 0 -115 38.5t-42 100.5q0 90 63.5 150.5t153.5 60.5zM399 1118
h-200l63 316h776l-63 -316h-201l-160 -805h205l-63 -313h-787l64 313h205z" />
    <glyph glyph-name="uni0408" unicode="&#x408;" horiz-adv-x="1011" 
d="M203 -20q-112 0 -256 24l71 342q105 -18 179 -18q143 0 221 67t106 209l99 498h-322l68 332h696l-180 -906q-108 -548 -682 -548z" />
    <glyph glyph-name="uni0409" unicode="&#x409;" horiz-adv-x="2091" 
d="M1438 1001h190q191 0 304.5 -108.5t113.5 -292.5q0 -60 -12 -127q-42 -212 -203 -342.5t-404 -130.5h-567l217 1087h-282l-160 -583q-49 -181 -118.5 -289t-186 -163.5t-293.5 -55.5q-36 0 -105 6l70 346q40 -4 57 -4q85 0 133.5 45t79.5 154l242 891h1010zM1665 504
q4 28 4 41q0 58 -37 90.5t-108 32.5h-158l-63 -328h157q81 0 135.5 44t69.5 120z" />
    <glyph glyph-name="uni040A" unicode="&#x40a;" horiz-adv-x="2048" 
d="M1401 983h180q197 0 309.5 -102.5t112.5 -278.5q0 -58 -12 -119q-43 -217 -210 -350t-397 -133h-555l117 582h-420l-116 -582h-377l284 1434h379l-100 -500h420l100 500h375zM1618 496q4 24 4 34q0 56 -38.5 88.5t-106.5 32.5h-144l-63 -311h147q79 0 133 42.5t68 113.5z
" />
    <glyph glyph-name="uni040B" unicode="&#x40b;" horiz-adv-x="1628" 
d="M1075 918q194 0 303 -105.5t109 -286.5q0 -62 -12 -129l-80 -397h-375l70 352q8 36 8 74q0 137 -137 137q-88 0 -173 -35l-106 -528h-373l219 1092h-358l70 342h1101l-67 -334h-375l-43 -217q116 35 219 35z" />
    <glyph glyph-name="uni040C" unicode="&#x40c;" horiz-adv-x="1318" 
d="M1286 1858l-4 -17l-281 -287h-296l2 17l221 287h358zM1055 1434h415l-8 -43l-588 -666l316 -682l-8 -43h-377l-273 635l-126 -635h-375l286 1434h375l-112 -564z" />
    <glyph glyph-name="uni040D" unicode="&#x40d;" horiz-adv-x="1452" 
d="M1083 1571l-2 -17h-288l-179 285l2 19h351zM539 717l651 717h301l-287 -1434h-375l70 350l86 367l-649 -717h-305l286 1434h375l-80 -400z" />
    <glyph glyph-name="uni040E" unicode="&#x40e;" horiz-adv-x="1312" 
d="M530 1815h699l-49 -250h-699zM850 1079l207 355h411l-8 -43l-878 -1391h-387l8 43l235 356l-254 992l11 43h358l82 -355l51 -293z" />
    <glyph glyph-name="uni040F" unicode="&#x40f;" horiz-adv-x="1419" 
d="M1083 1434h375l-287 -1434h-389l-53 -260h-362l53 260h-389l286 1434h375l-219 -1092h391z" />
    <glyph glyph-name="uni0410" unicode="&#x410;" horiz-adv-x="1398" 
d="M705 1434h348l233 -1391l-8 -43h-373l-24 229h-449l-119 -229h-407l10 43zM858 520l-57 430l-223 -430h280z" />
    <glyph glyph-name="uni0411" unicode="&#x411;" horiz-adv-x="1257" 
d="M575 926h203q196 0 308 -98t112 -267q0 -53 -12 -115q-43 -213 -188 -329.5t-365 -116.5h-602l286 1434h945l-66 -334h-586zM827 473q2 10 2 31q0 51 -30.5 78.5t-87.5 27.5h-201l-55 -284h204q68 0 113 39t55 108z" />
    <glyph glyph-name="uni0412" unicode="&#x412;" horiz-adv-x="1286" 
d="M1266 1028q-34 -168 -193 -274q65 -46 101 -120t36 -161q0 -42 -8 -78q-34 -181 -179 -288t-355 -107h-637l286 1434h586q168 0 269.5 -88.5t101.5 -233.5q0 -45 -8 -84zM907 1030q0 47 -27.5 75t-76.5 28h-191l-49 -250h185q76 0 117.5 39.5t41.5 107.5zM838 455
q4 24 4 37q0 48 -28 76t-81 28h-229l-55 -281h223q67 0 110.5 36.5t55.5 103.5z" />
    <glyph glyph-name="uni0413" unicode="&#x413;" horiz-adv-x="1032" 
d="M406 0h-375l286 1434h879l-72 -355h-503z" />
    <glyph glyph-name="uni0414" unicode="&#x414;" horiz-adv-x="1574" 
d="M522 1434h1008l-217 -1088h174l-121 -606h-350l51 260h-788l-52 -260h-350l121 606h121q80 54 127.5 150t107.5 315zM1094 1096h-293l-86 -318q-46 -169 -86.5 -269.5t-93.5 -166.5h409z" />
    <glyph glyph-name="uni0415" unicode="&#x415;" horiz-adv-x="1159" 
d="M1237 1434l-63 -320h-551l-48 -231h510l-65 -314h-506l-49 -243h563l-63 -326h-934l286 1434h920z" />
    <glyph glyph-name="uni0416" unicode="&#x416;" horiz-adv-x="1959" 
d="M1706 1434h405l-10 -43l-571 -691l297 -657l-8 -43h-371l-254 610l-123 -610h-364l124 627l-487 -627h-438l10 43l627 760l-285 588l8 43h355l258 -578l114 578h365l-117 -586z" />
    <glyph glyph-name="uni0417" unicode="&#x417;" horiz-adv-x="1183" 
d="M1186 1040q-38 -196 -213 -292q135 -94 135 -271q0 -47 -8 -88q-41 -200 -199.5 -308t-408.5 -108q-224 0 -353 102.5t-129 276.5q0 57 10 101h357q-2 -8 -2 -25q0 -62 41 -96.5t114 -34.5q81 0 134 41t67 111q2 8 2 24q0 52 -42.5 81.5t-119.5 29.5h-149l67 305h148
q83 0 134.5 41.5t51.5 109.5q0 51 -36 81t-99 30q-69 0 -117 -36.5t-65 -102.5h-350q41 212 194.5 330t388.5 118q203 0 328 -98.5t125 -253.5q0 -34 -6 -68z" />
    <glyph glyph-name="uni0418" unicode="&#x418;" horiz-adv-x="1452" 
d="M539 717l651 717h301l-287 -1434h-375l70 350l86 367l-649 -717h-305l286 1434h375l-80 -400z" />
    <glyph glyph-name="uni0419" unicode="&#x419;" horiz-adv-x="1452" 
d="M631 1815h698l-49 -250h-698zM539 717l651 717h301l-287 -1434h-375l70 350l86 367l-649 -717h-305l286 1434h375l-80 -400z" />
    <glyph glyph-name="uni041A" unicode="&#x41a;" horiz-adv-x="1318" 
d="M1055 1434h415l-8 -43l-588 -666l316 -682l-8 -43h-377l-273 635l-126 -635h-375l286 1434h375l-112 -564z" />
    <glyph glyph-name="uni041B" unicode="&#x41b;" horiz-adv-x="1482" 
d="M264 524l250 910h1010l-287 -1434h-377l217 1087h-284l-168 -616q-69 -250 -206 -362.5t-372 -112.5q-66 0 -115 4l70 348q23 -4 59 -4q80 0 129.5 42.5t73.5 137.5z" />
    <glyph glyph-name="uni041C" unicode="&#x41c;" horiz-adv-x="1720" 
d="M887 805l543 629h329l-284 -1434h-375l82 416l73 340l-340 -389h-178l-186 391l-64 -342l-81 -416h-375l286 1434h275z" />
    <glyph glyph-name="uni041D" unicode="&#x41d;" horiz-adv-x="1449" 
d="M1008 899l106 535h377l-287 -1434h-377l109 547h-422l-108 -547h-375l286 1434h375l-106 -535h422z" />
    <glyph glyph-name="uni041E" unicode="&#x41e;" horiz-adv-x="1601" 
d="M707 -27q-184 0 -325.5 79t-218.5 218.5t-77 317.5q0 82 18 170q42 208 164.5 367.5t304.5 247t396 87.5q279 0 449.5 -172t170.5 -444q0 -92 -16 -168q-63 -315 -302 -509t-564 -194zM756 324q159 0 283 111.5t159 283.5q10 55 10 94q0 133 -77.5 215t-208.5 82
q-160 0 -284.5 -111.5t-158.5 -283.5q-10 -55 -10 -97q0 -132 78.5 -213t208.5 -81z" />
    <glyph glyph-name="uni041F" unicode="&#x41f;" horiz-adv-x="1423" 
d="M31 0l286 1434h1145l-286 -1434h-375l219 1096h-395l-219 -1096h-375z" />
    <glyph glyph-name="uni0420" unicode="&#x420;" horiz-adv-x="1259" 
d="M317 1434h537q206 0 327.5 -116t121.5 -308q0 -52 -13 -119q-47 -237 -202.5 -362.5t-393.5 -125.5h-209l-79 -403h-375zM920 911q6 24 6 50q0 64 -39 102.5t-113 38.5h-153l-76 -375h162q84 0 140 47.5t73 136.5z" />
    <glyph glyph-name="uni0421" unicode="&#x421;" horiz-adv-x="1556" 
d="M709 -27q-279 0 -450 172.5t-171 444.5q0 92 16 168q63 314 295.5 508t542.5 194q272 0 441.5 -164.5t172.5 -431.5h-366q-10 117 -86 181.5t-193 64.5q-159 0 -278.5 -108.5t-153.5 -282.5q-10 -55 -10 -94q0 -133 76.5 -217t202.5 -84q124 0 224 65t165 195h385
q-86 -285 -305.5 -448t-507.5 -163z" />
    <glyph glyph-name="uni0422" unicode="&#x422;" horiz-adv-x="1206" 
d="M240 1434h1083l-66 -334h-354l-221 -1100h-375l219 1100h-354z" />
    <glyph glyph-name="uni0423" unicode="&#x423;" horiz-adv-x="1312" 
d="M850 1079l207 355h411l-8 -43l-878 -1391h-387l8 43l235 356l-254 992l11 43h358l82 -355l51 -293z" />
    <glyph glyph-name="uni0424" unicode="&#x424;" horiz-adv-x="1613" 
d="M1178 1477l-33 -164q209 -17 341 -161t132 -345q0 -56 -12 -115q-50 -249 -233 -400.5t-468 -170.5l-31 -158h-362l33 162q-218 20 -346.5 161.5t-128.5 342.5q0 58 12 119q51 250 231 401t469 166l33 162h363zM434 721q-8 -36 -8 -78q0 -88 48 -144.5t144 -68.5l117 580
q-124 -13 -200.5 -90.5t-100.5 -198.5zM1255 717q7 40 7 67q0 90 -50 151t-143 73l-115 -580q124 14 200.5 92.5t100.5 196.5z" />
    <glyph glyph-name="uni0425" unicode="&#x425;" horiz-adv-x="1400" 
d="M1096 1434h432l-8 -43l-541 -676l297 -672l-8 -43h-379l-117 289l-63 160l-349 -449h-440l8 43l572 696l-273 652l9 43h368l115 -291l53 -139z" />
    <glyph glyph-name="uni0426" unicode="&#x426;" horiz-adv-x="1505" 
d="M1081 1434h375l-215 -1086h176l-123 -608h-348l51 260h-966l286 1434h375l-219 -1092h389z" />
    <glyph glyph-name="uni0427" unicode="&#x427;" horiz-adv-x="1347" 
d="M889 819l123 615h374l-286 -1434h-375l92 465q-91 -27 -188 -27q-229 0 -353 114.5t-124 315.5q0 65 16 150l84 416h377l-86 -424q-11 -53 -11 -80q0 -146 168 -146q79 0 189 35z" />
    <glyph glyph-name="uni0428" unicode="&#x428;" horiz-adv-x="2084" 
d="M1534 342l219 1092h371l-287 -1434h-1806l286 1434h369l-217 -1092h352l219 1092h361l-219 -1092h352z" />
    <glyph glyph-name="uni0429" unicode="&#x429;" horiz-adv-x="2166" 
d="M1751 1434h371l-219 -1086h176l-121 -608h-348l53 260h-1632l286 1434h369l-217 -1092h352l217 1092h361l-219 -1092h352z" />
    <glyph glyph-name="uni042A" unicode="&#x42a;" horiz-adv-x="1476" 
d="M823 1001h187q194 0 307 -110t113 -293q0 -53 -13 -123q-44 -222 -205 -348.5t-395 -126.5h-571l217 1090h-305l69 344h680zM1049 504q4 16 4 45q0 59 -37 92t-103 33h-159l-70 -342h160q81 0 135.5 46t69.5 126z" />
    <glyph glyph-name="uni042B" unicode="&#x42b;" horiz-adv-x="1884" 
d="M606 1001h187q195 0 308 -110t113 -293q0 -58 -12 -123q-46 -222 -206.5 -348.5t-395.5 -126.5h-569l286 1434h375zM1255 0l287 1434h381l-287 -1434h-381zM836 502q4 32 4 43q0 62 -36.5 95.5t-103.5 33.5h-163l-70 -342h162q82 0 136 45t71 125z" />
    <glyph glyph-name="uni042C" unicode="&#x42c;" horiz-adv-x="1259" 
d="M606 1001h187q195 0 308 -110t113 -293q0 -58 -12 -123q-46 -222 -206.5 -348.5t-395.5 -126.5h-569l286 1434h375zM834 504q4 28 4 43q0 58 -36 88.5t-104 30.5h-163l-66 -326h158q83 0 137.5 42.5t69.5 121.5z" />
    <glyph glyph-name="uni042D" unicode="&#x42d;" horiz-adv-x="1536" 
d="M915 1460q180 0 320 -80t215.5 -220.5t75.5 -317.5q0 -70 -17 -164q-41 -207 -160.5 -367.5t-297 -249t-383.5 -88.5q-184 0 -327.5 78t-220 216t-69.5 311h373q9 -117 85 -186.5t193 -69.5q120 0 222 65.5t161 177.5h-450l61 305h449q-14 110 -87.5 175t-189.5 65
q-121 0 -223 -64.5t-158 -175.5h-374q94 279 305.5 434.5t496.5 155.5z" />
    <glyph glyph-name="uni042E" unicode="&#x42e;" horiz-adv-x="2154" 
d="M1536 1460q181 0 319.5 -79t213.5 -219t75 -318q0 -77 -16 -168q-63 -315 -299 -509t-557 -194q-262 0 -429 160t-181 416h-146l-110 -549h-375l286 1434h375l-106 -535h131q96 257 316 409t503 152zM1751 719q10 58 10 96q0 133 -77.5 214t-208.5 81
q-159 0 -283.5 -111.5t-159.5 -283.5q-10 -55 -10 -94q0 -133 78 -215t209 -82q159 0 283.5 111.5t158.5 283.5z" />
    <glyph glyph-name="uni042F" unicode="&#x42f;" horiz-adv-x="1265" 
d="M752 1434h555l-287 -1434h-369l101 494l-396 -494h-436l10 43l408 487q-96 45 -149.5 133t-53.5 205q0 52 12 111q43 219 201 337t404 118zM643 743h162l69 355h-169q-78 0 -129 -42.5t-68 -123.5q-4 -16 -4 -49q0 -65 37.5 -102.5t101.5 -37.5z" />
    <glyph glyph-name="uni0430" unicode="&#x430;" horiz-adv-x="1376" 
d="M1010 983l34 102h310l-217 -1085h-285v90q-154 -113 -348 -113q-203 0 -327 126.5t-124 328.5q0 62 15 133q49 248 217.5 395.5t400.5 147.5q205 0 324 -125zM598 289q102 0 183 72t104 184q6 34 6 63q0 87 -50 138t-136 51q-102 0 -181 -69t-102 -181q-8 -33 -8 -72
q0 -88 49 -137t135 -49z" />
    <glyph glyph-name="uni0431" unicode="&#x431;" horiz-adv-x="1316" 
d="M1317 1122l-465 -30q-152 -10 -236.5 -63t-115.5 -150q149 98 346 98q190 0 299.5 -111.5t109.5 -290.5q0 -59 -12 -120q-46 -229 -226.5 -355.5t-426.5 -126.5q-242 0 -375 137.5t-133 372.5q0 86 18 185q71 355 262.5 539t526.5 212l495 41zM893 483q4 28 4 41
q0 77 -54.5 126.5t-144.5 49.5q-105 0 -175 -50t-89 -140q-4 -28 -4 -39q0 -76 53 -126t142 -50q104 0 177 49.5t91 138.5z" />
    <glyph glyph-name="uni0432" unicode="&#x432;" horiz-adv-x="1175" 
d="M1139 836q0 -164 -160 -265q52 -32 80 -85.5t28 -118.5q0 -28 -6 -58q-29 -145 -146.5 -227t-299.5 -82h-612l217 1085h596q137 0 220 -71t83 -178zM788 776q0 62 -75 62h-178l-33 -168h178q50 0 79 27t29 79zM737 344q0 3 1 9t1 9q0 34 -21 53t-59 19h-204l-37 -180h209
q42 0 71.5 24t38.5 66z" />
    <glyph glyph-name="uni0433" unicode="&#x433;" horiz-adv-x="915" 
d="M240 1085h757l-63 -313h-404l-155 -772h-352z" />
    <glyph glyph-name="uni0434" unicode="&#x434;" horiz-adv-x="1335" 
d="M1243 1085l-156 -770h158l-115 -575h-321l53 260h-626l-52 -260h-321l114 575h111q56 50 83.5 104t59.5 177l131 489h881zM838 786h-213l-60 -223q-31 -109 -54.5 -163t-64.5 -97h295z" />
    <glyph glyph-name="uni0435" unicode="&#x435;" horiz-adv-x="1243" 
d="M1171 438h-776q4 -81 52 -124.5t128 -43.5q111 0 187 76h368q-83 -172 -239 -271.5t-352 -99.5q-224 0 -357 125t-133 330q0 62 12 129q33 164 126 289.5t232 193.5t302 68q225 0 357 -126.5t132 -326.5q0 -109 -39 -219zM438 647h428q-8 77 -53.5 123.5t-126.5 46.5
t-145 -44.5t-103 -125.5z" />
    <glyph glyph-name="uni0436" unicode="&#x436;" horiz-adv-x="1652" 
d="M1325 1085h406l-11 -34l-428 -533l209 -483l-8 -35h-363l-165 438l-86 -438h-344l86 440l-338 -440h-420l10 35l465 575l-180 441l8 34h350l150 -419l82 419h344l-84 -423z" />
    <glyph glyph-name="uni0437" unicode="&#x437;" horiz-adv-x="1017" 
d="M991 850q0 -83 -48 -158.5t-126 -122.5q113 -60 113 -198q0 -33 -6 -68q-31 -156 -169.5 -243t-355.5 -87q-191 0 -300 84.5t-109 229.5q0 31 6 65h319q-2 -6 -2 -20q0 -39 31.5 -61.5t89.5 -22.5q71 0 115.5 31t44.5 83q0 35 -32 55.5t-89 20.5h-147l47 234h137
q68 0 106.5 29t38.5 77q0 37 -29.5 57.5t-80.5 20.5q-118 0 -139 -98h-308q35 172 163 263t333 91q182 0 289.5 -71.5t107.5 -190.5z" />
    <glyph glyph-name="uni0438" unicode="&#x438;" horiz-adv-x="1273" 
d="M479 590l492 495h280l-217 -1085h-348l53 262l62 244l-500 -506h-278l217 1085h348l-60 -299z" />
    <glyph glyph-name="uni0439" unicode="&#x439;" horiz-adv-x="1273" 
d="M510 1444h616l-51 -246h-614zM479 590l492 495h280l-217 -1085h-348l53 262l62 244l-500 -506h-278l217 1085h348l-60 -299z" />
    <glyph glyph-name="uni043A" unicode="&#x43a;" horiz-adv-x="1165" 
d="M811 1085h414l-6 -34l-428 -492l239 -524l-6 -35h-356l-199 467l-94 -467h-352l217 1085h352l-74 -366z" />
    <glyph glyph-name="uni043B" unicode="&#x43b;" horiz-adv-x="1269" 
d="M190 438l172 647h885l-217 -1085h-350l156 774h-207l-113 -426q-46 -174 -164 -264t-303 -90q-54 0 -115 6l58 301q16 -2 41 -2q64 0 100 33t57 106z" />
    <glyph glyph-name="uni043C" unicode="&#x43c;" horiz-adv-x="1488" 
d="M741 643l416 442h311l-217 -1085h-348l64 319l49 207l-262 -278h-127l-158 287l-37 -216l-63 -319h-346l217 1085h260z" />
    <glyph glyph-name="uni043D" unicode="&#x43d;" horiz-adv-x="1282" 
d="M836 715l73 370h353l-218 -1085h-352l78 389h-319l-78 -389h-350l217 1085h350l-74 -370h320z" />
    <glyph glyph-name="uni043E" unicode="&#x43e;" horiz-adv-x="1277" 
d="M549 -25q-227 0 -361.5 125.5t-134.5 337.5q0 71 15 144q29 153 122 273t234 187.5t307 67.5q229 0 364.5 -126.5t135.5 -334.5q0 -69 -14 -135q-50 -240 -233 -389.5t-435 -149.5zM592 299q102 0 176.5 67t97.5 181q6 30 6 59q0 85 -48.5 132.5t-133.5 47.5
q-102 0 -176.5 -66.5t-97.5 -178.5q-6 -35 -6 -64q0 -83 49 -130.5t133 -47.5z" />
    <glyph glyph-name="uni043F" unicode="&#x43f;" horiz-adv-x="1280" 
d="M23 0l217 1085h1017l-217 -1085h-350l154 768h-316l-155 -768h-350z" />
    <glyph glyph-name="uni0440" unicode="&#x440;" horiz-adv-x="1359" 
d="M860 1108q203 0 326 -123.5t123 -325.5q0 -63 -15 -133q-50 -251 -217 -400t-399 -149q-169 0 -289 99l-84 -418h-352l287 1427h282l-2 -88q155 111 340 111zM942 543q6 34 6 65q0 88 -49 140.5t-135 52.5q-103 0 -181 -67.5t-102 -182.5q-8 -33 -8 -72q0 -89 50 -141.5
t136 -52.5q106 0 183.5 72t99.5 186z" />
    <glyph glyph-name="uni0441" unicode="&#x441;" horiz-adv-x="1241" 
d="M541 -25q-223 0 -357.5 128t-134.5 333q0 58 12 123q33 164 126 289.5t232 193.5t302 68q227 0 360 -129.5t125 -343.5h-340q-6 79 -51 120.5t-125 41.5q-100 0 -177 -71.5t-99 -184.5q-6 -35 -6 -64q0 -88 48 -140t132 -52q76 0 140.5 43t102.5 121h347
q-68 -220 -238 -348t-399 -128z" />
    <glyph glyph-name="uni0442" unicode="&#x442;" horiz-adv-x="1091" 
d="M137 1085h1034l-63 -313h-340l-156 -772h-352l156 772h-342z" />
    <glyph glyph-name="uni0443" unicode="&#x443;" horiz-adv-x="1179" 
d="M670 705l207 380h389l-9 -36l-821 -1391h-387l6 33l262 426l-196 932l8 36h350l66 -378l24 -203z" />
    <glyph glyph-name="uni0444" unicode="&#x444;" horiz-adv-x="1546" 
d="M1128 1434l-65 -326q193 -15 314.5 -148t121.5 -327q0 -57 -12 -115q-49 -241 -223 -386t-428 -157l-64 -317h-348l65 319q-194 13 -316 147t-122 329q0 55 12 114q49 242 223.5 386.5t430.5 156.5l63 324h348zM401 532q-8 -46 -8 -67q0 -79 44 -131.5t118 -63.5l107 545
q-96 -12 -166 -88t-95 -195zM1149 553q6 35 6 63q0 80 -42.5 133.5t-117.5 65.5l-108 -545q98 13 167.5 89t94.5 194z" />
    <glyph glyph-name="uni0445" unicode="&#x445;" horiz-adv-x="1175" 
d="M850 1085h397l-10 -36l-412 -510l217 -502l-6 -37h-358l-64 170l-51 141l-98 -141l-133 -170h-410l8 37l430 526l-210 492l8 30h358l66 -163l47 -131l96 131z" />
    <glyph glyph-name="uni0446" unicode="&#x446;" horiz-adv-x="1347" 
d="M1251 1085l-153 -766h162l-117 -579h-318l52 260h-854l217 1085h350l-154 -772h312l153 772h350z" />
    <glyph glyph-name="uni0447" unicode="&#x447;" horiz-adv-x="1198" 
d="M739 657l86 428h353l-217 -1085h-353l66 328q-90 -23 -166 -23q-183 0 -292.5 101.5t-109.5 265.5q0 36 11 100l61 313h350l-53 -278q-6 -35 -6 -62q0 -118 129 -118q62 0 141 30z" />
    <glyph glyph-name="uni0448" unicode="&#x448;" horiz-adv-x="1894" 
d="M1370 313l156 772h348l-217 -1085h-1634l217 1085h348l-156 -772h297l154 772h346l-152 -772h293z" />
    <glyph glyph-name="uni0449" unicode="&#x449;" horiz-adv-x="1970" 
d="M1874 1085l-154 -766h160l-117 -579h-317l53 260h-1476l217 1085h348l-156 -772h297l154 772h346l-154 -772h295l156 772h348z" />
    <glyph glyph-name="uni044A" unicode="&#x44a;" horiz-adv-x="1292" 
d="M711 813h145q172 0 273.5 -93.5t101.5 -246.5q0 -37 -10 -92q-37 -183 -164 -282t-328 -99h-532l157 788h-256l58 297h608zM877 408q2 10 2 28q0 45 -27.5 70.5t-77.5 25.5h-127l-49 -249h127q62 0 102 32.5t50 92.5z" />
    <glyph glyph-name="uni044B" unicode="&#x44b;" horiz-adv-x="1732" 
d="M537 813h147q175 0 274 -91.5t99 -244.5q0 -41 -10 -96q-35 -184 -161.5 -282.5t-330.5 -98.5h-532l217 1085h350zM1143 0l217 1085h350l-217 -1085h-350zM705 410q2 10 2 28q0 45 -28.5 69.5t-80.5 24.5h-125l-51 -251h129q129 0 154 129z" />
    <glyph glyph-name="uni044C" unicode="&#x44c;" horiz-adv-x="1120" 
d="M537 813h147q175 0 274 -91.5t99 -244.5q0 -41 -10 -96q-35 -184 -161.5 -282.5t-330.5 -98.5h-532l217 1085h350zM705 410q2 10 2 28q0 45 -28.5 69.5t-80.5 24.5h-125l-51 -251h129q129 0 154 129z" />
    <glyph glyph-name="uni044D" unicode="&#x44d;" horiz-adv-x="1230" 
d="M702 1110q221 0 352.5 -125.5t131.5 -331.5q0 -59 -12 -127q-50 -248 -229 -399.5t-425 -151.5q-228 0 -361.5 129t-125.5 342h327q9 -80 60.5 -126t130.5 -46q77 0 144.5 43.5t107.5 116.5h-309l43 221h309q-12 73 -61.5 114.5t-125.5 41.5q-81 0 -151.5 -46
t-110.5 -124h-331q66 216 237.5 342.5t398.5 126.5z" />
    <glyph glyph-name="uni044E" unicode="&#x44e;" horiz-adv-x="1792" 
d="M1249 1110q227 0 362.5 -125.5t135.5 -329.5q0 -66 -14 -129q-51 -248 -233.5 -399.5t-432.5 -151.5q-216 0 -349 114t-147 304h-120l-78 -393h-350l217 1085h350l-74 -372h117q80 184 244 290.5t372 106.5zM1386 545q7 40 7 65q0 87 -50.5 139t-134.5 52
q-102 0 -181.5 -73t-102.5 -187q-6 -35 -6 -66q0 -87 50 -138.5t134 -51.5q102 0 181.5 73t102.5 187z" />
    <glyph glyph-name="uni044F" unicode="&#x44f;" horiz-adv-x="1124" 
d="M565 1085h537l-217 -1085h-353l74 367l-268 -367h-412l6 33l285 356q-135 71 -135 242q0 39 10 94q34 167 160.5 263.5t312.5 96.5zM438 696q-4 -24 -4 -32q0 -44 29.5 -68.5t83.5 -24.5h104l51 250h-108q-62 0 -103 -32t-53 -93z" />
    <glyph glyph-name="uni0450" unicode="&#x450;" horiz-adv-x="1243" 
d="M885 1206l-4 -14h-258l-125 295l4 16h319zM1171 438h-776q4 -81 52 -124.5t128 -43.5q111 0 187 76h368q-83 -172 -239 -271.5t-352 -99.5q-224 0 -357 125t-133 330q0 62 12 129q33 164 126 289.5t232 193.5t302 68q225 0 357 -126.5t132 -326.5q0 -109 -39 -219z
M438 647h428q-8 77 -53.5 123.5t-126.5 46.5t-145 -44.5t-103 -125.5z" />
    <glyph glyph-name="uni0451" unicode="&#x451;" horiz-adv-x="1243" 
d="M496 1178q-76 0 -121 41t-45 108q0 96 66.5 158.5t166.5 62.5q76 0 121 -40.5t45 -108.5q0 -94 -67.5 -157.5t-165.5 -63.5zM1063 1548q76 0 120 -40t44 -107q0 -95 -67.5 -159t-164.5 -64q-77 0 -122.5 41.5t-45.5 109.5q0 95 68 157t168 62zM721 1110q225 0 357 -126.5
t132 -326.5q0 -109 -39 -219h-776q4 -81 52 -124.5t128 -43.5q111 0 187 76h368q-83 -172 -239 -271.5t-352 -99.5q-224 0 -357 125t-133 330q0 62 12 129q33 164 126 289.5t232 193.5t302 68zM438 647h428q-8 77 -53.5 123.5t-126.5 46.5t-145 -44.5t-103 -125.5z" />
    <glyph glyph-name="uni0452" unicode="&#x452;" horiz-adv-x="1312" 
d="M893 1096q162 0 249 -87.5t87 -246.5q0 -66 -15 -139l-137 -684q-38 -192 -153 -295t-293 -103q-77 0 -185 23l60 291q44 -9 84 -9q64 0 97 30t46 101l125 621q6 34 6 61q0 63 -36 96t-105 33q-89 0 -150.5 -52.5t-78.5 -143.5l-119 -592h-352l235 1174h-141l35 169h139
l18 91h350l-18 -91h236l-33 -169h-236l-39 -191q134 113 324 113z" />
    <glyph glyph-name="uni0453" unicode="&#x453;" horiz-adv-x="915" 
d="M963 1501l-5 -16l-235 -293h-266l4 14l178 295h324zM240 1085h757l-63 -313h-404l-155 -772h-352z" />
    <glyph glyph-name="uni0454" unicode="&#x454;" horiz-adv-x="1234" 
d="M688 817q-82 0 -153.5 -43.5t-114.5 -118.5h328l-46 -219h-329q12 -78 64.5 -123t135.5 -45q81 0 152.5 48t112.5 130h331q-66 -217 -237 -344t-397 -127q-223 0 -354.5 125.5t-131.5 331.5q0 60 12 127q49 249 228.5 400t425.5 151q227 0 360 -129t125 -340h-326
q-9 83 -58.5 129.5t-127.5 46.5z" />
    <glyph glyph-name="uni0455" unicode="&#x455;" horiz-adv-x="1075" 
d="M463 -25q-201 0 -324 83t-123 231q0 26 7 61l350 -2q-6 -50 25.5 -78t95.5 -28q63 0 99 22t36 64q0 31 -37 51t-137 43q-176 40 -258 112.5t-82 188.5q0 41 8 80q20 101 91.5 171t171.5 102t222 32q188 0 309 -80.5t121 -222.5q0 -37 -4 -55h-334q4 49 -25 72.5t-89 23.5
q-59 0 -90 -20t-31 -56q0 -33 38.5 -53.5t137.5 -42.5q177 -39 259.5 -113.5t82.5 -191.5q0 -41 -8 -80q-31 -159 -169 -236.5t-343 -77.5z" />
    <glyph glyph-name="uni0456" unicode="&#x456;" horiz-adv-x="612" 
d="M440 1176q-84 0 -132 42t-48 113q0 100 72.5 168t179.5 68q82 0 130 -43.5t48 -114.5q0 -100 -73 -166.5t-177 -66.5zM373 0h-350l217 1085h350z" />
    <glyph glyph-name="uni0457" unicode="&#x457;" horiz-adv-x="612" 
d="M205 1178q-74 0 -117 41.5t-43 111.5q0 13 4 37q15 80 75 130t144 50q73 0 115.5 -41.5t42.5 -109.5q0 -13 -4 -37q-15 -80 -75.5 -131t-141.5 -51zM678 1178q-73 0 -116.5 41t-43.5 108q0 96 63.5 158.5t159.5 62.5q72 0 114 -40.5t42 -106.5q0 -95 -64 -159t-155 -64z
M373 0h-350l217 1085h350z" />
    <glyph glyph-name="uni0458" unicode="&#x458;" horiz-adv-x="614" 
d="M440 1176q-84 0 -132 43t-48 114q0 100 72.5 167t179.5 67q82 0 130 -43.5t48 -114.5q0 -100 -73 -166.5t-177 -66.5zM-92 -369q-68 0 -172 17l55 280q35 -6 82 -6q67 0 107 33.5t55 110.5l205 1019h352l-209 -1054q-40 -204 -162.5 -302t-312.5 -98z" />
    <glyph glyph-name="uni0459" unicode="&#x459;" horiz-adv-x="1777" 
d="M1192 813h145q168 0 272.5 -94.5t104.5 -247.5q0 -38 -10 -90q-35 -181 -166.5 -281t-323.5 -100h-534l154 774h-201l-115 -426q-97 -354 -467 -354q-82 0 -117 6l60 305q16 -2 41 -2q65 0 101 31.5t57 103.5l174 647h878zM1362 410q2 10 2 28q0 45 -27.5 69.5
t-79.5 24.5h-122l-52 -251h125q63 0 103.5 33t50.5 96z" />
    <glyph glyph-name="uni045A" unicode="&#x45a;" horiz-adv-x="1789" 
d="M1204 797h148q166 0 269 -93t103 -245q0 -45 -8 -86q-36 -178 -166 -275.5t-323 -97.5h-535l82 406h-319l-82 -406h-350l217 1085h350l-70 -352h320l69 352h353zM1376 401q2 8 2 25q0 43 -29.5 66.5t-82.5 23.5h-125l-47 -235h127q130 0 155 120z" />
    <glyph glyph-name="uni045B" unicode="&#x45b;" horiz-adv-x="1286" 
d="M868 1096q163 0 250.5 -87.5t87.5 -248.5q0 -68 -14 -137l-123 -623h-350l117 598q6 34 6 59q0 131 -144 131q-88 0 -149 -52.5t-78 -143.5l-117 -592h-352l234 1171h-146l37 177h143l17 86h352l-16 -86h315l-37 -174h-315l-37 -187q137 109 319 109z" />
    <glyph glyph-name="uni045C" unicode="&#x45c;" horiz-adv-x="1165" 
d="M1079 1501l-4 -16l-235 -293h-267l5 14l178 295h323zM811 1085h414l-6 -34l-428 -492l239 -524l-6 -35h-356l-199 467l-94 -467h-352l217 1085h352l-74 -366z" />
    <glyph glyph-name="uni045D" unicode="&#x45d;" horiz-adv-x="1273" 
d="M907 1206l-4 -14h-258l-125 295l4 16h320zM479 590l492 495h280l-217 -1085h-348l53 262l62 244l-500 -506h-278l217 1085h348l-60 -299z" />
    <glyph glyph-name="uni045E" unicode="&#x45e;" horiz-adv-x="1179" 
d="M422 1444h616l-51 -246h-614zM670 705l207 380h389l-9 -36l-821 -1391h-387l6 33l262 426l-196 932l8 36h350l66 -378l24 -203z" />
    <glyph glyph-name="uni045F" unicode="&#x45f;" horiz-adv-x="1275" 
d="M903 1085h350l-217 -1085h-342l-53 -260h-330l54 260h-342l217 1085h350l-154 -772h312z" />
    <glyph glyph-name="uni0462" unicode="&#x462;" horiz-adv-x="1271" 
d="M616 997h189q194 0 308 -108t114 -289q0 -44 -15 -125q-44 -222 -204.5 -348.5t-395.5 -126.5h-571l229 1145h-141l41 205h141l17 84h377l-19 -88h240l-39 -195h-240zM846 502q4 28 4 43q0 59 -36 93t-103 34h-162l-70 -340h160q81 0 136.5 46t70.5 124z" />
    <glyph glyph-name="uni0463" unicode="&#x463;" horiz-adv-x="1132" 
d="M569 811h142q165 0 261.5 -92t96.5 -244q0 -39 -10 -94q-35 -183 -158.5 -282t-312.5 -99h-533l185 918h-142l33 169h141l70 347h350l-69 -347h249l-34 -167h-248zM737 410q2 10 2 28q0 45 -28 69.5t-80 24.5h-125l-51 -251h127q130 0 155 129z" />
    <glyph glyph-name="uni046A" unicode="&#x46a;" horiz-adv-x="1632" 
d="M1616 1434l-41 -207l-338 -365q126 -44 194 -144.5t68 -240.5q0 -67 -14 -133l-70 -344h-348l63 307q13 67 13 109q0 76 -36 116.5t-112 47.5l-114 -580h-344l112 580q-98 -11 -157 -77.5t-84 -195.5l-62 -307h-346l68 344q45 231 157 361t291 169l-186 353l41 207h1245z
M1004 1044l94 109h-353l52 -109l69 -155h8z" />
    <glyph glyph-name="uni046B" unicode="&#x46b;" horiz-adv-x="1439" 
d="M1384 1085l-38 -184l-259 -248q99 -29 156 -104t57 -178q0 -44 -8 -80l-57 -291h-317l57 281q4 28 4 38q0 98 -131 101l-84 -420h-303l84 420q-81 0 -124.5 -32t-60.5 -109l-55 -279h-315l57 291q35 172 115 263t227 112l-153 235l38 184h1110zM823 778l84 84h-305
l51 -84l64 -108z" />
    <glyph glyph-name="uni0472" unicode="&#x472;" horiz-adv-x="1597" 
d="M979 1460q175 0 315 -79.5t217.5 -219.5t77.5 -313q0 -71 -16 -156q-65 -324 -299 -521.5t-584 -197.5q-170 0 -308 78t-217 219t-79 318q0 72 16 160q31 156 104.5 285.5t183 225t261 148.5t328.5 53zM915 1116q-129 0 -235 -72.5t-166 -193.5q79 29 150 29
q51 0 94 -9.5t65.5 -19.5t55.5 -29q75 -45 157 -45q85 0 178 49q-5 131 -85.5 211t-213.5 80zM754 317q130 0 239.5 76t169.5 201q-76 -39 -159 -39q-51 0 -93.5 9t-63 18.5t-50.5 25.5q-79 49 -166 49q-76 0 -172 -47q3 -131 83.5 -212t211.5 -81z" />
    <glyph glyph-name="uni0473" unicode="&#x473;" horiz-adv-x="1277" 
d="M731 1110q229 0 365.5 -125.5t136.5 -329.5q0 -50 -14 -129q-51 -248 -234 -399.5t-436 -151.5q-229 0 -364.5 125.5t-135.5 331.5q0 62 12 127q49 249 233.5 400t436.5 151zM698 815q-84 0 -153.5 -43.5t-112.5 -120.5q49 21 98 21q35 0 64 -6.5t43 -13t39 -19.5
q49 -29 88 -29q65 0 131 49q-9 75 -61.5 118.5t-135.5 43.5zM582 270q84 0 154.5 44t113.5 122q-48 -22 -107 -22q-87 0 -143 39q-48 28 -98 28q-57 0 -117 -47q9 -77 61.5 -120.5t135.5 -43.5z" />
    <glyph glyph-name="uni0474" unicode="&#x474;" horiz-adv-x="1466" 
d="M1434 1452q98 0 186 -14l-59 -301q-43 6 -84 6t-67.5 -15t-47.5 -53l-619 -1075h-309l-246 1391l9 43h370l45 -308l68 -565l342 649q119 242 412 242z" />
    <glyph glyph-name="uni0475" unicode="&#x475;" horiz-adv-x="1214" 
d="M1128 1098q77 0 170 -13l-57 -290q-16 2 -45 2q-38 0 -63.5 -16.5t-51.5 -59.5l-432 -721h-321l-207 1049l6 36h356l47 -352l33 -262l189 360q73 149 160 208t216 59z" />
    <glyph glyph-name="uni0490" unicode="&#x490;" horiz-adv-x="1034" 
d="M909 1632h326l-107 -534h-501l-221 -1098h-375l286 1434h553z" />
    <glyph glyph-name="uni0491" unicode="&#x491;" horiz-adv-x="915" 
d="M735 1284h299l-102 -512h-406l-153 -772h-350l217 1085h456z" />
    <glyph glyph-name="uni0492" unicode="&#x492;" horiz-adv-x="1042" 
d="M1206 1434l-69 -353h-504l-62 -303h320l-57 -282h-320l-98 -496h-375l98 496h-139l57 282h138l131 656h880z" />
    <glyph glyph-name="uni0493" unicode="&#x493;" horiz-adv-x="923" 
d="M1004 1085l-64 -313h-405l-37 -192h272l-45 -211h-270l-72 -369h-354l73 365h-120l45 219h118l101 501h758z" />
    <glyph glyph-name="uni0494" unicode="&#x494;" horiz-adv-x="1257" 
d="M754 918q195 0 305 -110.5t110 -320.5q0 -84 -22 -200q-47 -238 -121 -378.5t-181 -202.5t-265 -62q-70 0 -144 12l66 324q40 -7 53 -7q58 0 97.5 26t71.5 96.5t56 195.5q19 93 19 147q0 80 -32.5 113t-98.5 33q-70 0 -154 -43l-108 -541h-375l286 1434h791l-70 -351
h-417l-39 -192q100 27 172 27z" />
    <glyph glyph-name="uni0495" unicode="&#x495;" horiz-adv-x="1228" 
d="M782 709q340 0 340 -363q0 -101 -24 -227q-22 -109 -47.5 -191t-66 -156.5t-93 -122t-127.5 -75t-170 -27.5q-76 0 -178 17l55 280q43 -6 96 -6q84 0 130 67.5t75 215.5q12 65 12 117q0 165 -133 165q-78 0 -137.5 -46t-83.5 -128l-45 -229h-362l217 1085h774l-62 -299
h-409l-31 -155q132 78 270 78z" />
    <glyph glyph-name="uni0496" unicode="&#x496;" horiz-adv-x="2043" 
d="M2120 1434l-11 -43l-571 -691l156 -344h291l-123 -616h-340l51 260h-117l-254 610l-123 -610h-364l125 627l-488 -627h-438l10 43l627 760l-285 588l8 43h355l258 -578l114 578h365l-117 -586l465 586h406z" />
    <glyph glyph-name="uni0497" unicode="&#x497;" horiz-adv-x="1810" 
d="M1790 1085l-8 -34l-430 -533l84 -192h327l-116 -586h-320l51 260h-188l-166 438l-86 -438h-344l86 440l-338 -440h-418l8 35l465 575l-180 441l10 34h348l150 -419l82 419h344l-84 -423l317 423h406z" />
    <glyph glyph-name="uni0498" unicode="&#x498;" horiz-adv-x="1183" 
d="M1186 1040q-38 -196 -213 -292q135 -94 135 -271q0 -47 -8 -88q-37 -175 -164 -280.5t-328 -128.5l-43 -68q77 -9 118.5 -43.5t41.5 -91.5q0 -13 -4 -37q-19 -101 -103.5 -149t-216.5 -48q-102 0 -202 25l39 180q95 -20 147 -20t78 12t26 41q0 35 -63 35q-23 0 -68 -9
l-24 41l80 129q-190 17 -297 116.5t-107 256.5q0 59 10 103h357q-2 -8 -2 -25q0 -62 41 -96.5t114 -34.5q81 0 134 41t67 111q2 8 2 24q0 52 -42.5 81.5t-119.5 29.5h-149l67 305h148q83 0 134.5 41.5t51.5 109.5q0 51 -36 81t-99 30q-69 0 -117 -36.5t-65 -102.5h-350
q41 212 194.5 330t388.5 118q203 0 328 -98.5t125 -253.5q0 -34 -6 -68z" />
    <glyph glyph-name="uni0499" unicode="&#x499;" horiz-adv-x="1017" 
d="M991 850q0 -83 -48 -158.5t-126 -122.5q113 -60 113 -198q0 -33 -6 -68q-26 -131 -128.5 -213.5t-265.5 -107.5l-38 -56q78 -10 119.5 -47t41.5 -96q0 -13 -4 -37q-41 -203 -332 -203q-106 0 -211 25l41 188q93 -22 154 -22q55 0 82 12t27 43q0 37 -68 37q-20 0 -70 -8
l-24 43l78 116q-159 15 -247.5 97.5t-88.5 214.5q0 29 6 63h319q-2 -6 -2 -20q0 -39 31.5 -61.5t89.5 -22.5q71 0 115.5 31t44.5 83q0 35 -32 55.5t-89 20.5h-147l47 234h137q68 0 106.5 29t38.5 77q0 37 -29.5 57.5t-80.5 20.5q-118 0 -139 -98h-308q35 172 163 263t333 91
q182 0 289.5 -71.5t107.5 -190.5z" />
    <glyph glyph-name="uni049A" unicode="&#x49a;" horiz-adv-x="1390" 
d="M1470 1434l-8 -43l-588 -666l170 -369h287l-123 -616h-340l52 260h-115l-273 635l-126 -635h-375l286 1434h375l-112 -564l475 564h415z" />
    <glyph glyph-name="uni049B" unicode="&#x49b;" horiz-adv-x="1261" 
d="M1225 1085l-6 -34l-428 -492l106 -233h317l-116 -586h-320l51 260h-161l-199 467l-94 -467h-352l217 1085h352l-74 -366l293 366h414z" />
    <glyph glyph-name="uni049C" unicode="&#x49c;" horiz-adv-x="1480" 
d="M1231 1434h379l-11 -43l-466 -660l225 -688l-8 -43h-369l-168 563h-43l-65 -332h-185l66 332h-74l-113 -563h-368l286 1434h369l-104 -527h73l64 316h182l-63 -316h36z" />
    <glyph glyph-name="uni049D" unicode="&#x49d;" horiz-adv-x="1353" 
d="M1006 1085h393l-6 -34l-340 -490l168 -526l-7 -35h-397l-102 395h-41l-43 -223h-152l43 223h-63l-80 -395h-356l217 1085h356l-80 -395h66l43 223h151l-43 -223h31z" />
    <glyph glyph-name="uni04A0" unicode="&#x4a0;" horiz-adv-x="1632" 
d="M1372 1434h414l-10 -43l-586 -668l313 -680l-8 -43h-375l-270 631l-127 -631h-375l217 1087h-409l67 347h787l-113 -564z" />
    <glyph glyph-name="uni04A1" unicode="&#x4a1;" horiz-adv-x="1419" 
d="M1067 1085h414l-8 -34l-426 -494l239 -522l-8 -35h-356l-199 467l-94 -467h-353l154 770h-356l63 315h709l-74 -366z" />
    <glyph glyph-name="uni04A2" unicode="&#x4a2;" horiz-adv-x="1538" 
d="M1114 1434h377l-215 -1078h176l-123 -616h-340l51 260h-213l109 547h-422l-108 -547h-375l286 1434h375l-106 -535h422z" />
    <glyph glyph-name="uni04A3" unicode="&#x4a3;" horiz-adv-x="1359" 
d="M1262 1085l-152 -759h162l-117 -586h-319l51 260h-195l78 389h-319l-78 -389h-350l217 1085h350l-74 -370h320l73 370h353z" />
    <glyph glyph-name="uni04A4" unicode="&#x4a4;" horiz-adv-x="1794" 
d="M1008 899l106 535h844l-72 -357h-467l-213 -1077h-379l111 549h-422l-110 -549h-375l286 1434h375l-106 -535h422z" />
    <glyph glyph-name="uni04A5" unicode="&#x4a5;" horiz-adv-x="1585" 
d="M909 1085h756l-63 -313h-404l-154 -772h-352l78 389h-319l-78 -389h-350l217 1085h350l-74 -370h320z" />
    <glyph glyph-name="uni04AA" unicode="&#x4aa;" horiz-adv-x="1556" 
d="M748 324q124 0 224 65t165 195h385q-77 -259 -268.5 -419t-448.5 -188l-41 -65q77 -9 118.5 -43.5t41.5 -91.5q0 -13 -4 -37q-19 -101 -103.5 -149t-216.5 -48q-103 0 -203 25l39 180q95 -20 148 -20q52 0 78 12t26 41q0 35 -63 35q-23 0 -68 -9l-25 41l80 132
q-239 31 -381.5 197.5t-142.5 412.5q0 92 16 168q63 314 295.5 508t542.5 194q272 0 441.5 -164.5t172.5 -431.5h-366q-10 117 -86 181.5t-193 64.5q-159 0 -278.5 -108.5t-153.5 -282.5q-10 -55 -10 -94q0 -133 76.5 -217t202.5 -84z" />
    <glyph glyph-name="uni04AB" unicode="&#x4ab;" horiz-adv-x="1241" 
d="M690 799q-100 0 -177 -71.5t-99 -184.5q-6 -35 -6 -64q0 -88 48 -140t132 -52q76 0 140.5 43t102.5 121h347q-62 -199 -209.5 -324t-347.5 -147l-37 -54q78 -10 119.5 -47t41.5 -96q0 -13 -4 -37q-41 -203 -331 -203q-106 0 -211 25l41 188q93 -22 153 -22q55 0 82 12
t27 43q0 37 -68 37q-19 0 -69 -8l-25 43l84 125q-174 32 -274.5 152.5t-100.5 297.5q0 58 12 123q33 164 126 289.5t232 193.5t302 68q227 0 360 -129.5t125 -343.5h-340q-6 79 -51 120.5t-125 41.5z" />
    <glyph glyph-name="uni04AE" unicode="&#x4ae;" horiz-adv-x="1345" 
d="M1073 1434h436l-10 -48l-643 -817l-113 -569h-374l118 600l-303 791l9 43h376l80 -232l78 -250l176 250z" />
    <glyph glyph-name="uni04AF" unicode="&#x4af;" horiz-adv-x="1155" 
d="M852 1085h389l-6 -36l-580 -979l-82 -412h-352l84 424l-184 967l6 36h348l45 -358l27 -238l117 238z" />
    <glyph glyph-name="uni04B0" unicode="&#x4b0;" horiz-adv-x="1351" 
d="M1077 1434h434l-8 -48l-585 -743h256l-48 -233h-297l-81 -410h-377l82 410h-299l47 233h272l-287 748l11 43h376l80 -232l78 -250l176 250z" />
    <glyph glyph-name="uni04B1" unicode="&#x4b1;" horiz-adv-x="1155" 
d="M852 1085h389l-6 -36l-492 -832h250l-51 -260h-309l-60 -299h-352l60 299h-306l52 260h254l-160 832l6 36h348l45 -358l27 -238l117 238z" />
    <glyph glyph-name="uni04B2" unicode="&#x4b2;" horiz-adv-x="1495" 
d="M1528 1434l-8 -43l-541 -676l158 -359h297l-121 -616h-342l53 260h-135l-117 289l-63 160l-349 -449h-440l8 43l572 696l-273 652l9 43h368l115 -291l53 -139l324 430h432z" />
    <glyph glyph-name="uni04B3" unicode="&#x4b3;" horiz-adv-x="1271" 
d="M1247 1085l-10 -36l-412 -510l93 -213h307l-117 -586h-320l52 260h-162l-64 170l-51 141l-98 -141l-133 -170h-410l8 37l430 526l-210 492l8 30h358l66 -163l47 -131l96 131l125 163h397z" />
    <glyph glyph-name="uni04B6" unicode="&#x4b6;" horiz-adv-x="1435" 
d="M1012 1434h374l-215 -1078h179l-123 -616h-340l51 260h-213l92 465q-91 -27 -188 -27q-229 0 -353 114.5t-124 315.5q0 65 16 150l84 416h377l-86 -424q-11 -53 -11 -80q0 -146 168 -146q79 0 189 35z" />
    <glyph glyph-name="uni04B7" unicode="&#x4b7;" horiz-adv-x="1273" 
d="M1178 1085l-152 -759h160l-117 -586h-319l51 260h-193l66 328q-90 -23 -166 -23q-183 0 -292.5 101.5t-109.5 265.5q0 36 11 100l61 313h350l-53 -278q-6 -35 -6 -62q0 -118 129 -118q62 0 141 30l86 428h353z" />
    <glyph glyph-name="uni04B8" unicode="&#x4b8;" horiz-adv-x="1370" 
d="M907 821l121 613h369l-287 -1434h-373l94 471q-72 -18 -108 -25l-49 -249h-199l49 249q-180 29 -277 143t-97 283q0 52 14 127l88 435h371l-80 -400q-11 -48 -11 -94q0 -103 74 -139l60 301h192l-61 -309q43 7 110 28z" />
    <glyph glyph-name="uni04B9" unicode="&#x4b9;" horiz-adv-x="1222" 
d="M762 659l86 426h348l-217 -1085h-350l67 332q-66 -18 -86 -21l-41 -202h-153l41 200q-161 15 -252.5 111.5t-91.5 245.5q0 40 10 98l63 321h342l-53 -274q-6 -35 -6 -61q0 -81 57 -107l45 231h154l-47 -241q40 9 84 26z" />
    <glyph glyph-name="uni04BA" unicode="&#x4ba;" horiz-adv-x="1347" 
d="M788 995q229 0 353.5 -114.5t124.5 -315.5q0 -59 -17 -149l-84 -416h-374l83 424q11 53 11 80q0 145 -168 145q-79 0 -189 -35l-122 -614h-375l286 1434h375l-92 -465q88 26 188 26z" />
    <glyph glyph-name="uni04BB" unicode="&#x4bb;" horiz-adv-x="1312" 
d="M897 1106q160 0 247 -88.5t87 -247.5q0 -68 -14 -137l-125 -633h-353l121 610q6 30 6 60q0 131 -141 131q-89 0 -150.5 -53t-78.5 -144l-121 -604h-352l286 1434h350l-86 -435q141 107 324 107z" />
    <glyph glyph-name="uni04C0" unicode="&#x4c0;" horiz-adv-x="942" 
d="M1038 1434l-63 -316h-201l-160 -805h205l-63 -313h-787l64 313h205l161 805h-200l63 316h776z" />
    <glyph glyph-name="uni04C1" unicode="&#x4c1;" horiz-adv-x="1959" 
d="M885 1815h698l-49 -250h-698zM1706 1434h405l-10 -43l-571 -691l297 -657l-8 -43h-371l-254 610l-123 -610h-364l124 627l-487 -627h-438l10 43l627 760l-285 588l8 43h355l258 -578l114 578h365l-117 -586z" />
    <glyph glyph-name="uni04C2" unicode="&#x4c2;" horiz-adv-x="1652" 
d="M705 1444h616l-51 -246h-615zM1325 1085h406l-11 -34l-428 -533l209 -483l-8 -35h-363l-165 438l-86 -438h-344l86 440l-338 -440h-420l10 35l465 575l-180 441l8 34h350l150 -419l82 419h344l-84 -423z" />
    <glyph glyph-name="uni04CB" unicode="&#x4cb;" horiz-adv-x="1347" 
d="M889 823l123 611h374l-286 -1434h-193l-53 -260h-340l113 559h157l35 176q-101 -29 -198 -29q-214 0 -340.5 120t-126.5 317q0 61 12 125l86 426h377l-86 -430q-6 -35 -6 -62q0 -72 41.5 -113t128.5 -41q75 0 182 35z" />
    <glyph glyph-name="uni04CC" unicode="&#x4cc;" horiz-adv-x="1198" 
d="M743 676l82 409h353l-217 -1085h-160l-51 -260h-326l98 500h133l25 114q-81 -20 -174 -20q-184 0 -289.5 93.5t-105.5 258.5q0 61 10 107l57 292h350l-49 -254q-6 -37 -6 -67q0 -61 31 -90t96 -29q58 0 143 31z" />
    <glyph glyph-name="uni04CF" unicode="&#x4cf;" horiz-adv-x="612" 
d="M375 0h-352l286 1434h353z" />
    <glyph glyph-name="uni04D0" unicode="&#x4d0;" horiz-adv-x="1419" 
d="M905 1534q-148 0 -233.5 70.5t-85.5 191.5q0 30 6 68h246q-2 -12 -2 -35q0 -88 104 -88q59 0 99.5 32.5t52.5 90.5h243q-30 -155 -140 -242.5t-290 -87.5zM-84 43l789 1391h348l233 -1391l-8 -43h-373l-24 229h-449l-119 -229h-407zM858 520l-57 430l-223 -430h280z" />
    <glyph glyph-name="uni04D1" unicode="&#x4d1;" horiz-adv-x="1376" 
d="M778 1176q-156 0 -247 70t-91 192q0 32 6 69h259q-3 -15 -3 -28q0 -86 109 -86q62 0 105 30t55 84h258q-33 -157 -148 -244t-303 -87zM1010 983l34 102h310l-217 -1085h-285v90q-154 -113 -348 -113q-203 0 -327 126.5t-124 328.5q0 62 15 133q49 248 217.5 395.5
t400.5 147.5q205 0 324 -125zM598 289q102 0 183 72t104 184q6 34 6 63q0 87 -50 138t-136 51q-102 0 -181 -69t-102 -181q-8 -33 -8 -72q0 -88 49 -137t135 -49z" />
    <glyph glyph-name="uni04D2" unicode="&#x4d2;" horiz-adv-x="1419" 
d="M666 1530q-72 0 -115 39t-43 102q0 13 4 37q15 76 74.5 124t140.5 48q73 0 115.5 -39.5t42.5 -103.5q0 -11 -4 -35q-15 -75 -75.5 -123.5t-139.5 -48.5zM1202 1880q73 0 115.5 -39.5t42.5 -103.5q0 -11 -4 -35q-15 -75 -75.5 -123.5t-139.5 -48.5q-72 0 -115 39t-43 102
q0 88 64.5 148.5t154.5 60.5zM-84 43l789 1391h348l233 -1391l-8 -43h-373l-24 229h-449l-119 -229h-407zM858 520l-57 430l-223 -430h280z" />
    <glyph glyph-name="uni04D3" unicode="&#x4d3;" horiz-adv-x="1376" 
d="M524 1178q-76 0 -121 41t-45 108q0 96 67 158.5t167 62.5q76 0 121 -40.5t45 -108.5q0 -94 -68 -157.5t-166 -63.5zM1024 1178q-77 0 -122.5 41.5t-45.5 109.5q0 95 68 157t168 62q76 0 119.5 -40t43.5 -107q0 -95 -67 -159t-164 -64zM1010 983l34 102h310l-217 -1085
h-285v90q-154 -113 -348 -113q-203 0 -327 126.5t-124 328.5q0 62 15 133q49 248 217.5 395.5t400.5 147.5q205 0 324 -125zM598 289q102 0 183 72t104 184q6 34 6 63q0 87 -50 138t-136 51q-102 0 -181 -69t-102 -181q-8 -33 -8 -72q0 -88 49 -137t135 -49z" />
    <glyph glyph-name="uni04D4" unicode="&#x4d4;" horiz-adv-x="1935" 
d="M2009 1434l-63 -320h-551l-47 -237h507l-63 -316h-508l-47 -235h567l-67 -326h-930l45 223h-373l-153 -223h-432l10 43l1011 1391h1094zM1010 1018l-332 -506h231z" />
    <glyph glyph-name="uni04D5" unicode="&#x4d5;" horiz-adv-x="2088" 
d="M2017 438h-778q6 -81 54.5 -124.5t127.5 -43.5q111 0 187 76h370q-79 -172 -228 -271.5t-333 -99.5q-203 0 -325 119l-31 -94h-244l4 72q-146 -97 -323 -97q-205 0 -325 127.5t-120 329.5q0 58 13 131q48 244 215.5 395.5t398.5 151.5q201 0 321 -123l31 98h244l-6 -77
q159 102 329 102q209 0 331 -126.5t122 -326.5q0 -113 -35 -219zM1280 647h432q-8 77 -53.5 123.5t-126.5 46.5q-82 0 -147 -43.5t-105 -126.5zM594 287q103 0 184 70t105 188q6 34 6 61q0 88 -51.5 140.5t-137.5 52.5q-101 0 -182 -73t-104 -185q-6 -35 -6 -64
q0 -87 50 -138.5t136 -51.5z" />
    <glyph glyph-name="uni04D6" unicode="&#x4d6;" horiz-adv-x="1159" 
d="M801 1534q-148 0 -234 70.5t-86 191.5q0 30 6 68h246q-2 -12 -2 -35q0 -88 105 -88q58 0 98.5 32.5t52.5 90.5h244q-30 -155 -140 -242.5t-290 -87.5zM1237 1434l-63 -320h-551l-48 -231h510l-65 -314h-506l-49 -243h563l-63 -326h-934l286 1434h920z" />
    <glyph glyph-name="uni04D7" unicode="&#x4d7;" horiz-adv-x="1243" 
d="M750 1176q-156 0 -247 70t-91 192q0 32 6 69h258q-2 -10 -2 -28q0 -86 108 -86q62 0 105 30t55 84h258q-33 -157 -147.5 -244t-302.5 -87zM1171 438h-776q4 -81 52 -124.5t128 -43.5q111 0 187 76h368q-83 -172 -239 -271.5t-352 -99.5q-224 0 -357 125t-133 330
q0 62 12 129q33 164 126 289.5t232 193.5t302 68q225 0 357 -126.5t132 -326.5q0 -109 -39 -219zM438 647h428q-8 77 -53.5 123.5t-126.5 46.5t-145 -44.5t-103 -125.5z" />
    <glyph glyph-name="uni04D8" unicode="&#x4d8;" horiz-adv-x="1542" 
d="M928 1458q271 0 439.5 -166.5t168.5 -431.5q0 -88 -16 -164q-31 -157 -111 -291t-191.5 -228t-253 -147t-292.5 -53q-281 0 -445 161t-164 421q0 138 48 283h1040q-2 129 -72 205.5t-190 76.5q-84 0 -165 -39.5t-140 -107.5h-416q114 232 314 356.5t446 124.5zM705 311
q130 0 233 74t160 205h-660q-5 -132 64.5 -205.5t202.5 -73.5z" />
    <glyph glyph-name="uni04D9" unicode="&#x4d9;" horiz-adv-x="1243" 
d="M705 1110q224 0 356.5 -125t132.5 -330q0 -61 -12 -129q-50 -248 -231.5 -399.5t-428.5 -151.5q-225 0 -357 126.5t-132 326.5q0 109 39 219h776q-4 81 -52 124.5t-128 43.5q-111 0 -187 -76h-368q83 172 239.5 271.5t352.5 99.5zM557 268q81 0 145 44.5t103 125.5h-428
q8 -77 53.5 -123.5t126.5 -46.5z" />
    <glyph glyph-name="uni04DC" unicode="&#x4dc;" horiz-adv-x="1959" 
d="M946 1530q-73 0 -115.5 38.5t-42.5 100.5q0 90 64 150.5t154 60.5q73 0 115 -38.5t42 -100.5q0 -90 -63.5 -150.5t-153.5 -60.5zM1421 1530q-73 0 -115 38.5t-42 100.5q0 90 63.5 150.5t153.5 60.5q73 0 115 -38.5t42 -100.5q0 -90 -63.5 -150.5t-153.5 -60.5zM1706 1434
h405l-10 -43l-571 -691l297 -657l-8 -43h-371l-254 610l-123 -610h-364l124 627l-487 -627h-438l10 43l627 760l-285 588l8 43h355l258 -578l114 578h365l-117 -586z" />
    <glyph glyph-name="uni04DD" unicode="&#x4dd;" horiz-adv-x="1652" 
d="M713 1178q-76 0 -121 41t-45 108q0 96 66.5 158.5t166.5 62.5q76 0 121 -40.5t45 -108.5q0 -94 -67.5 -157.5t-165.5 -63.5zM1212 1178q-77 0 -122.5 41.5t-45.5 109.5q0 95 68 157t168 62q76 0 120 -40t44 -107q0 -95 -67.5 -159t-164.5 -64zM1325 1085h406l-11 -34
l-428 -533l209 -483l-8 -35h-363l-165 438l-86 -438h-344l86 440l-338 -440h-420l10 35l465 575l-180 441l8 34h350l150 -419l82 419h344l-84 -423z" />
    <glyph glyph-name="uni04DE" unicode="&#x4de;" horiz-adv-x="1183" 
d="M551 1530q-73 0 -115.5 38.5t-42.5 100.5q0 90 63.5 150.5t153.5 60.5q73 0 115.5 -38.5t42.5 -100.5q0 -90 -63.5 -150.5t-153.5 -60.5zM1085 1880q73 0 115.5 -38.5t42.5 -100.5q0 -90 -63.5 -150.5t-153.5 -60.5q-73 0 -115.5 38.5t-42.5 100.5q0 90 63.5 150.5
t153.5 60.5zM739 1460q203 0 328 -98.5t125 -253.5q0 -34 -6 -68q-38 -196 -213 -292q135 -94 135 -271q0 -47 -8 -88q-41 -200 -199.5 -308t-408.5 -108q-224 0 -353 102.5t-129 276.5q0 57 10 101h357q-2 -8 -2 -25q0 -62 41 -96.5t114 -34.5q81 0 134 41t67 111q2 8 2 24
q0 52 -42.5 81.5t-119.5 29.5h-149l67 305h148q83 0 134.5 41.5t51.5 109.5q0 51 -36 81t-99 30q-69 0 -117 -36.5t-65 -102.5h-350q41 212 194.5 330t388.5 118z" />
    <glyph glyph-name="uni04DF" unicode="&#x4df;" horiz-adv-x="1017" 
d="M373 1178q-76 0 -121 41t-45 108q0 96 66.5 158.5t166.5 62.5q76 0 121 -40.5t45 -108.5q0 -94 -67.5 -157.5t-165.5 -63.5zM940 1548q76 0 120 -40t44 -107q0 -95 -67.5 -159t-164.5 -64q-77 0 -122 41.5t-45 109.5q0 95 67.5 157t167.5 62zM594 1112q182 0 289.5 -71.5
t107.5 -190.5q0 -83 -48 -158.5t-126 -122.5q113 -60 113 -198q0 -33 -6 -68q-31 -156 -169.5 -243t-355.5 -87q-191 0 -300 84.5t-109 229.5q0 31 6 65h319q-2 -6 -2 -20q0 -39 31.5 -61.5t89.5 -22.5q71 0 115.5 31t44.5 83q0 35 -32 55.5t-89 20.5h-147l47 234h137
q68 0 106.5 29t38.5 77q0 37 -29.5 57.5t-80.5 20.5q-118 0 -139 -98h-308q35 172 163 263t333 91z" />
    <glyph glyph-name="uni04E2" unicode="&#x4e2;" horiz-adv-x="1452" 
d="M637 1825h692l-47 -246h-694zM539 717l651 717h301l-287 -1434h-375l70 350l86 367l-649 -717h-305l286 1434h375l-80 -400z" />
    <glyph glyph-name="uni04E3" unicode="&#x4e3;" horiz-adv-x="1273" 
d="M477 1456h686l-49 -229h-684zM479 590l492 495h280l-217 -1085h-348l53 262l62 244l-500 -506h-278l217 1085h348l-60 -299z" />
    <glyph glyph-name="uni04E4" unicode="&#x4e4;" horiz-adv-x="1452" 
d="M692 1530q-73 0 -115 38.5t-42 100.5q0 90 63.5 150.5t153.5 60.5q73 0 115 -38.5t42 -100.5q0 -90 -63.5 -150.5t-153.5 -60.5zM1167 1530q-73 0 -115 38.5t-42 100.5q0 90 63.5 150.5t153.5 60.5q73 0 115 -38.5t42 -100.5q0 -90 -63.5 -150.5t-153.5 -60.5zM539 717
l651 717h301l-287 -1434h-375l70 350l86 367l-649 -717h-305l286 1434h375l-80 -400z" />
    <glyph glyph-name="uni04E5" unicode="&#x4e5;" horiz-adv-x="1273" 
d="M518 1178q-76 0 -121 41t-45 108q0 96 67 158.5t167 62.5q76 0 121 -40.5t45 -108.5q0 -94 -68 -157.5t-166 -63.5zM1018 1178q-77 0 -122.5 41.5t-45.5 109.5q0 95 67.5 157t167.5 62q76 0 120 -40t44 -107q0 -95 -67 -159t-164 -64zM479 590l492 495h280l-217 -1085
h-348l53 262l62 244l-500 -506h-278l217 1085h348l-60 -299z" />
    <glyph glyph-name="uni04E6" unicode="&#x4e6;" horiz-adv-x="1601" 
d="M768 1530q-73 0 -115.5 38.5t-42.5 100.5q0 90 63.5 150.5t153.5 60.5q73 0 115.5 -38.5t42.5 -100.5q0 -90 -63.5 -150.5t-153.5 -60.5zM1243 1530q-73 0 -115.5 38.5t-42.5 100.5q0 90 64 150.5t154 60.5q73 0 115 -38.5t42 -100.5q0 -90 -63.5 -150.5t-153.5 -60.5z
M707 -27q-184 0 -325.5 79t-218.5 218.5t-77 317.5q0 82 18 170q42 208 164.5 367.5t304.5 247t396 87.5q279 0 449.5 -172t170.5 -444q0 -92 -16 -168q-63 -315 -302 -509t-564 -194zM756 324q159 0 283 111.5t159 283.5q10 55 10 94q0 133 -77.5 215t-208.5 82
q-160 0 -284.5 -111.5t-158.5 -283.5q-10 -55 -10 -97q0 -132 78.5 -213t208.5 -81z" />
    <glyph glyph-name="uni04E7" unicode="&#x4e7;" horiz-adv-x="1277" 
d="M508 1178q-76 0 -121 41t-45 108q0 96 66.5 158.5t166.5 62.5q76 0 121 -40.5t45 -108.5q0 -94 -67.5 -157.5t-165.5 -63.5zM1008 1178q-77 0 -122.5 41.5t-45.5 109.5q0 95 67.5 157t167.5 62q76 0 120 -40t44 -107q0 -95 -67 -159t-164 -64zM549 -25
q-227 0 -361.5 125.5t-134.5 337.5q0 71 15 144q29 153 122 273t234 187.5t307 67.5q229 0 364.5 -126.5t135.5 -334.5q0 -69 -14 -135q-50 -240 -233 -389.5t-435 -149.5zM592 299q102 0 176.5 67t97.5 181q6 30 6 59q0 85 -48.5 132.5t-133.5 47.5q-102 0 -176.5 -66.5
t-97.5 -178.5q-6 -35 -6 -64q0 -83 49 -130.5t133 -47.5z" />
    <glyph glyph-name="uni04E8" unicode="&#x4e8;" horiz-adv-x="1597" 
d="M981 1460q175 0 314.5 -79.5t216.5 -219t77 -311.5q0 -79 -14 -150q-32 -158 -105 -289.5t-182 -229.5t-260 -153t-330 -55q-175 0 -316 80t-219.5 220t-78.5 313q0 68 16 153q65 330 299.5 525.5t581.5 195.5zM922 1120q-128 0 -237.5 -72.5t-170.5 -193.5h700
q-12 122 -90 194t-202 72zM758 317q127 0 234.5 72t168.5 193h-702q12 -121 91.5 -193t207.5 -72z" />
    <glyph glyph-name="uni04E9" unicode="&#x4e9;" horiz-adv-x="1277" 
d="M731 1110q229 0 365.5 -125.5t136.5 -329.5q0 -50 -14 -129q-51 -248 -234 -399.5t-436 -151.5q-229 0 -364.5 125.5t-135.5 331.5q0 62 12 127q49 249 233.5 400t436.5 151zM694 795q-79 0 -145.5 -41t-104.5 -113h435q-9 72 -58 113t-127 41zM586 291q79 0 144.5 40.5
t105.5 112.5h-433q9 -72 57.5 -112.5t125.5 -40.5z" />
    <glyph glyph-name="uni04EE" unicode="&#x4ee;" horiz-adv-x="1312" 
d="M537 1825h692l-47 -246h-695zM850 1079l207 355h411l-8 -43l-878 -1391h-387l8 43l235 356l-254 992l11 43h358l82 -355l51 -293z" />
    <glyph glyph-name="uni04EF" unicode="&#x4ef;" horiz-adv-x="1179" 
d="M389 1456h686l-49 -229h-684zM670 705l207 380h389l-9 -36l-821 -1391h-387l6 33l262 426l-196 932l8 36h350l66 -378l24 -203z" />
    <glyph glyph-name="uni04F0" unicode="&#x4f0;" horiz-adv-x="1312" 
d="M592 1530q-73 0 -115.5 38.5t-42.5 100.5q0 90 63.5 150.5t153.5 60.5q73 0 115.5 -38.5t42.5 -100.5q0 -90 -63.5 -150.5t-153.5 -60.5zM1067 1530q-73 0 -115.5 38.5t-42.5 100.5q0 90 63.5 150.5t153.5 60.5q73 0 115.5 -38.5t42.5 -100.5q0 -90 -63.5 -150.5
t-153.5 -60.5zM850 1079l207 355h411l-8 -43l-878 -1391h-387l8 43l235 356l-254 992l11 43h358l82 -355l51 -293z" />
    <glyph glyph-name="uni04F1" unicode="&#x4f1;" horiz-adv-x="1179" 
d="M428 1178q-76 0 -121 41t-45 108q0 96 67 158.5t167 62.5q76 0 121 -40.5t45 -108.5q0 -94 -68 -157.5t-166 -63.5zM928 1178q-77 0 -122.5 41.5t-45.5 109.5q0 95 67.5 157t167.5 62q76 0 120 -40t44 -107q0 -95 -67 -159t-164 -64zM670 705l207 380h389l-9 -36
l-821 -1391h-387l6 33l262 426l-196 932l8 36h350l66 -378l24 -203z" />
    <glyph glyph-name="uni04F2" unicode="&#x4f2;" horiz-adv-x="1312" 
d="M963 1860l-2 -19l-218 -289h-284l4 17l170 291h330zM1108 1552h-272l4 17l219 291h325l-2 -19zM850 1079l207 355h411l-8 -43l-878 -1391h-387l8 43l235 356l-254 992l11 43h358l82 -355l51 -293z" />
    <glyph glyph-name="uni04F3" unicode="&#x4f3;" horiz-adv-x="1179" 
d="M791 1503l-5 -16l-188 -295h-268l2 16l145 295h314zM977 1192h-270l2 16l170 295h313l-4 -16zM670 705l207 380h389l-9 -36l-821 -1391h-387l6 33l262 426l-196 932l8 36h350l66 -378l24 -203z" />
    <glyph glyph-name="uni04F4" unicode="&#x4f4;" horiz-adv-x="1347" 
d="M639 1530q-73 0 -115.5 38.5t-42.5 100.5q0 90 63.5 150.5t153.5 60.5q73 0 115.5 -38.5t42.5 -100.5q0 -90 -63.5 -150.5t-153.5 -60.5zM1114 1530q-73 0 -115.5 38.5t-42.5 100.5q0 90 64 150.5t154 60.5q73 0 115 -38.5t42 -100.5q0 -90 -63.5 -150.5t-153.5 -60.5z
M889 819l123 615h374l-286 -1434h-375l92 465q-91 -27 -188 -27q-229 0 -353 114.5t-124 315.5q0 65 16 150l84 416h377l-86 -424q-11 -53 -11 -80q0 -146 168 -146q79 0 189 35z" />
    <glyph glyph-name="uni04F5" unicode="&#x4f5;" horiz-adv-x="1198" 
d="M444 1178q-76 0 -120.5 41t-44.5 108q0 96 66.5 158.5t166.5 62.5q76 0 121 -40.5t45 -108.5q0 -94 -68 -157.5t-166 -63.5zM944 1178q-77 0 -122.5 41.5t-45.5 109.5q0 95 68 157t168 62q76 0 120 -40t44 -107q0 -95 -67.5 -159t-164.5 -64zM739 657l86 428h353
l-217 -1085h-353l66 328q-90 -23 -166 -23q-183 0 -292.5 101.5t-109.5 265.5q0 36 11 100l61 313h350l-53 -278q-6 -35 -6 -62q0 -118 129 -118q62 0 141 30z" />
    <glyph glyph-name="uni04F8" unicode="&#x4f8;" horiz-adv-x="1884" 
d="M909 1530q-73 0 -115 38.5t-42 100.5q0 90 63.5 150.5t153.5 60.5q73 0 115 -38.5t42 -100.5q0 -90 -63.5 -150.5t-153.5 -60.5zM1384 1530q-73 0 -115 38.5t-42 100.5q0 90 63.5 150.5t153.5 60.5q73 0 115.5 -38.5t42.5 -100.5q0 -90 -64 -150.5t-154 -60.5zM606 1001
h187q195 0 308 -110t113 -293q0 -58 -12 -123q-46 -222 -206.5 -348.5t-395.5 -126.5h-569l286 1434h375zM1255 0l287 1434h381l-287 -1434h-381zM836 502q4 32 4 43q0 62 -36.5 95.5t-103.5 33.5h-163l-70 -342h162q82 0 136 45t71 125z" />
    <glyph glyph-name="uni04F9" unicode="&#x4f9;" horiz-adv-x="1732" 
d="M735 1178q-76 0 -121 41t-45 108q0 96 67 158.5t167 62.5q76 0 121 -40.5t45 -108.5q0 -94 -68 -157.5t-166 -63.5zM1466 1401q0 -95 -67 -159t-164 -64q-77 0 -122.5 41.5t-45.5 109.5q0 95 68 157t168 62q76 0 119.5 -40t43.5 -107zM537 813h147q175 0 274 -91.5
t99 -244.5q0 -41 -10 -96q-35 -184 -161.5 -282.5t-330.5 -98.5h-532l217 1085h350zM1143 0l217 1085h350l-217 -1085h-350zM705 410q2 10 2 28q0 45 -28.5 69.5t-80.5 24.5h-125l-51 -251h129q129 0 154 129z" />
    <glyph glyph-name="Wgrave" unicode="&#x1e80;" horiz-adv-x="2052" 
d="M1358 1571l-2 -17h-289l-178 285l2 19h350zM1630 1085l172 349h404l-11 -43l-702 -1391h-301l-92 408l-53 258l-150 -258l-254 -408h-305l-148 1391l9 43h366l33 -349l31 -499l377 604h258l133 -602z" />
    <glyph glyph-name="wgrave" unicode="&#x1e81;" horiz-adv-x="1798" 
d="M1143 1206l-4 -14h-258l-125 295l4 16h319zM1362 782l145 303h377l-8 -34l-541 -1051h-346l-35 213l-49 334l-180 -334l-121 -213h-358l-123 1051l6 34h358l25 -303l16 -311l320 563h276l97 -561z" />
    <glyph glyph-name="Wacute" unicode="&#x1e82;" horiz-adv-x="2052" 
d="M1595 1858l-4 -17l-280 -287h-297l2 17l221 287h358zM1630 1085l172 349h404l-11 -43l-702 -1391h-301l-92 408l-53 258l-150 -258l-254 -408h-305l-148 1391l9 43h366l33 -349l31 -499l377 604h258l133 -602z" />
    <glyph glyph-name="wacute" unicode="&#x1e83;" horiz-adv-x="1798" 
d="M1364 1501l-4 -16l-236 -293h-266l4 14l178 295h324zM1362 782l145 303h377l-8 -34l-541 -1051h-346l-35 213l-49 334l-180 -334l-121 -213h-358l-123 1051l6 34h358l25 -303l16 -311l320 563h276l97 -561z" />
    <glyph glyph-name="Wdieresis" unicode="&#x1e84;" horiz-adv-x="2052" 
d="M967 1530q-73 0 -115.5 38.5t-42.5 100.5q0 90 63.5 150.5t153.5 60.5q73 0 115.5 -38.5t42.5 -100.5q0 -90 -63.5 -150.5t-153.5 -60.5zM1442 1530q-73 0 -115.5 38.5t-42.5 100.5q0 90 63.5 150.5t153.5 60.5q73 0 115.5 -38.5t42.5 -100.5q0 -90 -63.5 -150.5
t-153.5 -60.5zM1630 1085l172 349h404l-11 -43l-702 -1391h-301l-92 408l-53 258l-150 -258l-254 -408h-305l-148 1391l9 43h366l33 -349l31 -499l377 604h258l133 -602z" />
    <glyph glyph-name="wdieresis" unicode="&#x1e85;" horiz-adv-x="1798" 
d="M754 1178q-76 0 -121 41t-45 108q0 96 66.5 158.5t166.5 62.5q76 0 121 -40.5t45 -108.5q0 -94 -67.5 -157.5t-165.5 -63.5zM1253 1178q-77 0 -122.5 41.5t-45.5 109.5q0 95 68 157t168 62q76 0 120 -40t44 -107q0 -95 -67.5 -159t-164.5 -64zM1362 782l145 303h377
l-8 -34l-541 -1051h-346l-35 213l-49 334l-180 -334l-121 -213h-358l-123 1051l6 34h358l25 -303l16 -311l320 563h276l97 -561z" />
    <glyph glyph-name="uni1E9E" unicode="&#x1e9e;" horiz-adv-x="1386" 
d="M752 1434h637l-31 -154l-303 -412q113 -33 182.5 -128t69.5 -226q0 -52 -11 -100q-44 -222 -177 -327t-390 -105q-100 0 -207 16l68 330q76 -15 127 -15q182 0 213 158q4 24 4 37q0 60 -42 93.5t-118 33.5h-65l-39 125l235 342h-182q-56 0 -99 -35t-55 -92l-194 -975
h-359l197 987q41 216 182 331.5t357 115.5z" />
    <glyph glyph-name="uni1EBC" unicode="&#x1ebc;" horiz-adv-x="1159" 
d="M733 1661q-61 0 -78 -78h-219q21 146 95.5 224.5t177.5 78.5q34 0 65 -10t41 -16t39 -25q49 -35 78 -35t49.5 22t26.5 62h217q-26 -152 -96 -230.5t-175 -78.5q-73 0 -143 53q-2 2 -10 7t-11 7t-10 6t-11.5 5.5l-10.5 3.5t-12.5 3t-12.5 1zM1237 1434l-63 -320h-551
l-48 -231h510l-65 -314h-506l-49 -243h563l-63 -326h-934l286 1434h920z" />
    <glyph glyph-name="uni1EBD" unicode="&#x1ebd;" horiz-adv-x="1243" 
d="M664 1274q-60 0 -76 -90h-217q22 163 97.5 249.5t178.5 86.5q41 0 72 -15t67 -43q23 -19 35 -27.5t31 -17t37 -8.5q59 0 72 100h217q-28 -165 -101 -249t-188 -84q-35 0 -65.5 10.5t-46 21t-36.5 29.5q-3 2 -14 10t-15 11t-13 8t-17.5 6.5t-17.5 1.5zM1171 438h-776
q4 -81 52 -124.5t128 -43.5q111 0 187 76h368q-83 -172 -239 -271.5t-352 -99.5q-224 0 -357 125t-133 330q0 62 12 129q33 164 126 289.5t232 193.5t302 68q225 0 357 -126.5t132 -326.5q0 -109 -39 -219zM438 647h428q-8 77 -53.5 123.5t-126.5 46.5t-145 -44.5
t-103 -125.5z" />
    <glyph glyph-name="Ygrave" unicode="&#x1ef2;" horiz-adv-x="1345" 
d="M987 1571l-2 -17h-289l-178 285l2 19h350zM1073 1434h436l-10 -48l-643 -817l-113 -569h-374l118 600l-303 791l9 43h376l80 -232l78 -250l176 250z" />
    <glyph glyph-name="ygrave" unicode="&#x1ef3;" horiz-adv-x="1179" 
d="M819 1206l-4 -14h-258l-125 295l4 16h320zM670 705l207 380h389l-9 -36l-821 -1391h-387l6 33l262 426l-196 932l8 36h350l66 -378l24 -203z" />
    <glyph glyph-name="uni1EF8" unicode="&#x1ef8;" horiz-adv-x="1345" 
d="M768 1661q-61 0 -78 -78h-219q21 146 95 224.5t177 78.5q32 0 59.5 -7.5t43.5 -16.5t36 -22q2 -2 3.5 -3t3.5 -2q49 -35 78 -35t49 22t26 62h218q-26 -152 -96 -230.5t-175 -78.5q-73 0 -143 53q-2 2 -10 7t-11 7t-10 6t-11.5 5.5l-10.5 3.5t-12.5 3t-12.5 1zM1073 1434
h436l-10 -48l-643 -817l-113 -569h-374l118 600l-303 791l9 43h376l80 -232l78 -250l176 250z" />
    <glyph glyph-name="uni1EF9" unicode="&#x1ef9;" horiz-adv-x="1179" 
d="M598 1274q-60 0 -76 -90h-217q22 163 98 249.5t179 86.5q41 0 72 -15t67 -43q23 -19 34.5 -27.5t30.5 -17t37 -8.5q59 0 72 100h217q-28 -165 -101 -249t-188 -84q-35 0 -65 10.5t-45 21t-37 29.5q-3 2 -12 8.5t-12.5 9t-11 7.5t-13 7t-13.5 3.5t-16 1.5zM670 705
l207 380h389l-9 -36l-821 -1391h-387l6 33l262 426l-196 932l8 36h350l66 -378l24 -203z" />
    <glyph glyph-name="uni2009" unicode="&#x2009;" horiz-adv-x="28" 
 />
    <glyph glyph-name="uni200B" unicode="&#x200b;" horiz-adv-x="0" 
 />
    <glyph glyph-name="endash" unicode="&#x2013;" horiz-adv-x="1185" 
d="M1092 471h-1026l59 303h1026z" />
    <glyph glyph-name="emdash" unicode="&#x2014;" horiz-adv-x="1677" 
d="M1585 471h-1519l59 303h1520z" />
    <glyph glyph-name="uni2015" unicode="&#x2015;" horiz-adv-x="1525" 
d="M1432 471h-1366l59 303h1366z" />
    <glyph glyph-name="quoteleft" unicode="&#x2018;" horiz-adv-x="649" 
d="M412 1434h325l-10 -41l-195 -500h-356l23 108z" />
    <glyph glyph-name="quoteright" unicode="&#x2019;" horiz-adv-x="649" 
d="M485 893h-325l10 41l195 500h356l-23 -109z" />
    <glyph glyph-name="quotesinglbase" unicode="&#x201a;" horiz-adv-x="649" 
d="M262 -227h-325l10 41l194 499h357l-23 -108z" />
    <glyph glyph-name="quotedblleft" unicode="&#x201c;" horiz-adv-x="1110" 
d="M412 1434h325l-10 -41l-195 -500h-356l23 108zM874 1434h324l-8 -41l-195 -500h-358l25 108z" />
    <glyph glyph-name="quotedblright" unicode="&#x201d;" horiz-adv-x="1110" 
d="M485 893h-325l10 41l195 500h356l-23 -109zM946 893h-323l8 41l194 500h359l-25 -109z" />
    <glyph glyph-name="quotedblbase" unicode="&#x201e;" horiz-adv-x="1110" 
d="M262 -227h-325l10 41l194 499h357l-23 -108zM723 -227h-326l11 41l194 499h356l-22 -108z" />
    <glyph glyph-name="dagger" unicode="&#x2020;" horiz-adv-x="1001" 
d="M786 1063h291l-63 -315h-291l-174 -869h-363l174 869h-290l63 315h291l74 371h362z" />
    <glyph glyph-name="daggerdbl" unicode="&#x2021;" horiz-adv-x="1064" 
d="M1110 1077l-61 -309h-289l-45 -219h291l-62 -307h-291l-71 -363h-363l72 363h-291l61 307h291l43 219h-289l62 309h289l71 357h365l-72 -357h289z" />
    <glyph glyph-name="bullet" unicode="&#x2022;" horiz-adv-x="610" 
d="M299 455q-94 0 -147.5 47.5t-53.5 130.5q0 26 6 53q20 101 94 162t177 61q93 0 146.5 -50.5t53.5 -135.5q0 -17 -4 -49q-22 -99 -95.5 -159t-176.5 -60z" />
    <glyph glyph-name="ellipsis" unicode="&#x2026;" horiz-adv-x="1576" 
d="M166 -18q-79 0 -123.5 39.5t-44.5 107.5q0 13 4 45q17 85 78 135.5t147 50.5q77 0 122.5 -41.5t45.5 -113.5q0 -13 -4 -41q-19 -82 -80 -132t-145 -50zM686 -18q-78 0 -122 39.5t-44 107.5q0 13 4 45q17 85 78.5 135.5t147.5 50.5q77 0 122.5 -41.5t45.5 -113.5
q0 -6 -5 -41q-19 -82 -80 -132t-147 -50zM1208 -18q-78 0 -122 39.5t-44 107.5q0 5 5 45q17 85 78 135.5t147 50.5q76 0 121 -41t45 -112q0 -15 -4 -43q-17 -82 -78.5 -132t-147.5 -50z" />
    </font>
</defs>
</svg>
