<?xml version="1.0" standalone="no"?>
<!DOCTYPE svg PUBLIC "-//W3C//DTD SVG 1.1//EN" "http://www.w3.org/Graphics/SVG/1.1/DTD/svg11.dtd" >
<svg xmlns="http://www.w3.org/2000/svg" xmlns:xlink="http://www.w3.org/1999/xlink" version="1.1">
<metadata>
Created by FontForge 20170731 at Mon Apr 25 01:46:13 2022
 By Aleksey,,,
Copyright (c) 2020 by Spacetype Ltd. All rights reserved.
</metadata>
<defs>
<font id="Gogh-ExtraBold" horiz-adv-x="0" >
  <font-face 
    font-family="Gogh Extra Bold"
    font-weight="800"
    font-stretch="normal"
    units-per-em="2048"
    panose-1="0 0 0 0 0 0 0 0 0 0"
    ascent="1638"
    descent="-410"
    x-height="1057"
    cap-height="1434"
    bbox="-387 -711 2796 2034"
    underline-thickness="102"
    underline-position="-358"
    unicode-range="U+000D-FB02"
  />
<missing-glyph horiz-adv-x="1546" 
d="M145 -82v1598h1258v-1598h-1258zM322 82h905v1270h-905v-1270zM432 1012q128 194 342 194q143 0 231.5 -72.5t88.5 -197.5q0 -82 -41 -141.5t-117 -124.5q-56 -46 -74 -80t-18 -92v-37h-160v55q0 85 32 138t113 118q99 80 99 152q0 55 -43 93t-121 38q-70 0 -121.5 -35.5
t-97.5 -101.5zM662 276q0 43 30 71t72 28t72 -28t30 -71t-30 -70.5t-72 -27.5t-72 27.5t-30 70.5z" />
    <glyph glyph-name="fi" unicode="fi" horiz-adv-x="1447" 
d="M242 1110q0 217 120.5 333t358.5 116q130 0 258.5 -35.5t228.5 -96.5l-108 -229q-163 92 -312 92q-213 0 -213 -203v-30h742v-1057h-334v791h-408v-791h-333v791h-187v266h187v53z" />
    <glyph glyph-name="fl" unicode="fl" horiz-adv-x="1458" 
d="M242 1110q0 237 135.5 358t402.5 121q139 0 285 -30t262 -84v-1475h-334v1294q-100 23 -190 23q-125 0 -176.5 -48.5t-51.5 -166.5v-45h263v-266h-263v-791h-333v791h-187v266h187v53z" />
    <glyph glyph-name="f_f.liga" unicode="ff" horiz-adv-x="1646" 
d="M989 1184q0 173 99.5 269.5t279.5 96.5q153 0 279 -63l-88 -230q-59 27 -117 27q-119 0 -119 -139v-92h293v-262h-293v-791h-334v791h-414v-791h-333v791h-187v266h187v127q0 173 98.5 269.5t275.5 96.5q152 0 275 -63l-88 -230q-53 27 -113 27q-115 0 -115 -139v-92h414
v131z" />
    <glyph glyph-name="f_f_i.liga" unicode="ffi" horiz-adv-x="2191" 
d="M989 1110q0 217 119.5 333t357.5 116q131 0 259.5 -35.5t228.5 -96.5l-109 -229q-163 92 -311 92q-211 0 -211 -203v-30h739v-1057h-333v791h-406v-791h-334v791h-414v-791h-333v791h-187v266h187v127q0 173 98.5 269.5t275.5 96.5q152 0 275 -63l-88 -230
q-53 27 -113 27q-115 0 -115 -139v-88h414v53z" />
    <glyph glyph-name="f_f_j.liga" unicode="ffj" horiz-adv-x="2191" 
d="M989 1110q0 216 118.5 332.5t358.5 116.5q131 0 259.5 -35.5t228.5 -96.5l-109 -229q-161 92 -311 92q-211 0 -211 -203v-30h739v-1172q0 -379 -391 -379q-115 0 -227 37l61 264q66 -16 111 -16q61 0 87 31.5t26 105.5v863h-406v-791h-334v791h-414v-791h-333v791h-187
v266h187v127q0 173 98.5 269.5t275.5 96.5q152 0 275 -63l-88 -230q-49 27 -113 27q-115 0 -115 -139v-88h414v53z" />
    <glyph glyph-name="f_f_l.liga" unicode="ffl" horiz-adv-x="2207" 
d="M989 1110q0 240 139 359.5t400 119.5q142 0 287 -30t262 -84v-1475h-334v1294q-97 23 -191 23q-127 0 -178 -48.5t-51 -166.5v-45h262v-266h-262v-791h-334v791h-414v-791h-333v791h-187v266h187v125q0 173 98.5 269.5t275.5 96.5q156 0 275 -61l-88 -232q-49 27 -113 27
q-59 0 -87 -33.5t-28 -103.5v-88h414v53z" />
    <glyph glyph-name="uni00660066013C.liga" unicode="ff&#x13c;" horiz-adv-x="2207" 
d="M989 1110q0 240 139 359.5t400 119.5q142 0 287 -30t262 -84v-1475h-334v1294q-97 23 -191 23q-127 0 -178 -48.5t-51 -166.5v-45h262v-266h-262v-791h-334v791h-414v-791h-333v791h-187v266h187v125q0 173 98.5 269.5t275.5 96.5q156 0 275 -61l-88 -232q-49 27 -113 27
q-59 0 -87 -33.5t-28 -103.5v-88h414v53zM1751 -250q0 66 40.5 110t111.5 44q81 0 126.5 -52t45.5 -133q0 -172 -183 -321l-92 78q66 72 88 139q-63 3 -100 42t-37 93z" />
    <glyph glyph-name="f_f_t.liga" unicode="fft" horiz-adv-x="2408" 
d="M989 1184q0 173 99.5 269.5t277.5 96.5q150 0 276 -63l-88 -230q-56 27 -114 27q-117 0 -117 -139v-92h406l6 258h323v-254h260v-266h-260v-371q0 -137 119 -137q55 0 125 28l72 -274q-122 -55 -263 -55q-191 0 -289 103t-98 302v404h-401v-791h-334v791h-414v-791h-333
v791h-187v266h187v127q0 173 99 269.5t277 96.5q154 0 277 -63l-88 -230q-56 27 -115 27q-117 0 -117 -139v-92h414v131z" />
    <glyph glyph-name="f_f_tcaron.liga" unicode="ff&#x165;" horiz-adv-x="2408" 
d="M989 1184q0 173 99.5 269.5t277.5 96.5q150 0 276 -63l-88 -230q-56 27 -114 27q-117 0 -117 -139v-92h406l6 258h323v-254h260v-266h-260v-371q0 -137 119 -137q55 0 125 28l72 -274q-122 -55 -263 -55q-191 0 -289 103t-98 302v404h-401v-791h-334v791h-414v-791h-333
v791h-187v266h187v127q0 173 99 269.5t277 96.5q154 0 277 -63l-88 -230q-56 27 -115 27q-117 0 -117 -139v-92h414v131zM2202 1153l49 363h258l-107 -363h-200z" />
    <glyph glyph-name="uni006600660163.liga" unicode="ff&#x163;" horiz-adv-x="2408" 
d="M989 1184q0 173 99.5 269.5t277.5 96.5q150 0 276 -63l-88 -230q-56 27 -114 27q-117 0 -117 -139v-92h406l6 258h323v-254h260v-266h-260v-371q0 -137 119 -137q55 0 125 28l72 -274q-86 -41 -199 -51l-12 -62q92 -5 148 -60t56 -143q0 -100 -76.5 -159.5t-207.5 -59.5
q-134 0 -254 72l84 156q71 -43 145 -43q86 0 86 55q0 39 -49 48t-102 -5l-47 45l41 164q-263 62 -263 393v404h-401v-791h-334v791h-414v-791h-333v791h-187v266h187v127q0 173 99 269.5t277 96.5q154 0 277 -63l-88 -230q-56 27 -115 27q-117 0 -117 -139v-92h414v131z" />
    <glyph glyph-name="uni00660066021B.liga" unicode="ff&#x21b;" horiz-adv-x="2408" 
d="M989 1184q0 173 99.5 269.5t277.5 96.5q150 0 276 -63l-88 -230q-56 27 -114 27q-117 0 -117 -139v-92h406l6 258h323v-254h260v-266h-260v-371q0 -137 119 -137q55 0 125 28l72 -274q-122 -55 -263 -55q-191 0 -289 103t-98 302v404h-401v-791h-334v791h-414v-791h-333
v791h-187v266h187v127q0 173 99 269.5t277 96.5q154 0 277 -63l-88 -230q-56 27 -115 27q-117 0 -117 -139v-92h414v131zM1923 -250q0 66 41 110t113 44q79 0 124.5 -52t45.5 -133q0 -171 -181 -321l-92 78q68 78 86 139q-63 3 -100 42t-37 93z" />
    <glyph glyph-name="f_j.liga" unicode="fj" horiz-adv-x="1443" 
d="M242 1110q0 217 120.5 333t358.5 116q130 0 257.5 -35.5t227.5 -96.5l-108 -229q-160 92 -312 92q-211 0 -211 -203v-30h742v-1172q0 -186 -98 -282.5t-293 -96.5q-118 0 -230 37l64 264q62 -16 108 -16q63 0 89 32.5t26 104.5v863h-408v-791h-333v791h-187v266h187v53z
" />
    <glyph glyph-name="uni0066013C.liga" unicode="f&#x13c;" horiz-adv-x="1458" 
d="M242 1110q0 237 135.5 358t402.5 121q139 0 285 -30t262 -84v-1475h-334v1294q-100 23 -190 23q-125 0 -176.5 -48.5t-51.5 -166.5v-45h263v-266h-263v-791h-333v791h-187v266h187v53zM1004 -250q0 66 40 110t111 44q81 0 125.5 -52t44.5 -133q0 -174 -180 -321l-92 78
q68 78 86 139q-61 3 -98 42t-37 93z" />
    <glyph glyph-name="f_t.liga" unicode="ft" horiz-adv-x="1660" 
d="M242 1184q0 173 99 269.5t277 96.5q154 0 277 -63l-88 -230q-56 27 -115 27q-117 0 -117 -139v-92h406l6 258h324v-254h260v-266h-260v-371q0 -137 119 -137q54 0 124 28l74 -274q-122 -55 -264 -55q-191 0 -289 103t-98 302v404h-402v-791h-333v791h-187v266h187v127z
" />
    <glyph glyph-name="f_tcaron.liga" unicode="f&#x165;" horiz-adv-x="1660" 
d="M242 1184q0 173 99 269.5t277 96.5q154 0 277 -63l-88 -230q-56 27 -115 27q-117 0 -117 -139v-92h406l6 258h324v-254h260v-266h-260v-371q0 -137 119 -137q54 0 124 28l74 -274q-122 -55 -264 -55q-191 0 -289 103t-98 302v404h-402v-791h-333v791h-187v266h187v127z
M1456 1153l47 363h260l-108 -363h-199z" />
    <glyph glyph-name="uni00660163.liga" unicode="f&#x163;" horiz-adv-x="1660" 
d="M242 1184q0 173 99 269.5t277 96.5q154 0 277 -63l-88 -230q-56 27 -115 27q-117 0 -117 -139v-92h406l6 258h324v-254h260v-266h-260v-371q0 -137 119 -137q54 0 124 28l74 -274q-87 -41 -198 -51l-13 -62q90 -5 147.5 -60.5t57.5 -142.5q0 -100 -77.5 -159.5
t-209.5 -59.5q-134 0 -254 72l84 156q71 -43 146 -43q86 0 86 55q0 39 -49.5 48t-102.5 -5l-47 45l43 164q-130 31 -197 130.5t-67 262.5v404h-402v-791h-333v791h-187v266h187v127z" />
    <glyph glyph-name="uni0066021B.liga" unicode="f&#x21b;" horiz-adv-x="1660" 
d="M242 1184q0 173 99 269.5t277 96.5q154 0 277 -63l-88 -230q-56 27 -115 27q-117 0 -117 -139v-92h406l6 258h324v-254h260v-266h-260v-371q0 -137 119 -137q54 0 124 28l74 -274q-122 -55 -264 -55q-191 0 -289 103t-98 302v404h-402v-791h-333v791h-187v266h187v127z
M1178 -250q0 66 40 110t111 44q79 0 124.5 -52t45.5 -133q0 -172 -180 -321l-92 78q68 78 86 139q-61 3 -98 42t-37 93z" />
    <glyph glyph-name=".notdef" horiz-adv-x="1546" 
d="M145 -82v1598h1258v-1598h-1258zM322 82h905v1270h-905v-1270zM432 1012q128 194 342 194q143 0 231.5 -72.5t88.5 -197.5q0 -82 -41 -141.5t-117 -124.5q-56 -46 -74 -80t-18 -92v-37h-160v55q0 85 32 138t113 118q99 80 99 152q0 55 -43 93t-121 38q-70 0 -121.5 -35.5
t-97.5 -101.5zM662 276q0 43 30 71t72 28t72 -28t30 -71t-30 -70.5t-72 -27.5t-72 27.5t-30 70.5z" />
    <glyph glyph-name=".null" horiz-adv-x="1228" 
 />
    <glyph glyph-name=".null" horiz-adv-x="1228" 
 />
    <glyph glyph-name="nonmarkingreturn" horiz-adv-x="682" 
 />
    <glyph glyph-name="CR" unicode="&#xd;" horiz-adv-x="466" 
 />
    <glyph glyph-name="space" unicode=" " horiz-adv-x="466" 
 />
    <glyph glyph-name="exclam" unicode="!" horiz-adv-x="604" 
d="M166 414l-25 520l-8 500h336l-6 -500l-27 -520h-270zM111 160q0 80 54.5 130t135.5 50q83 0 137 -49.5t54 -130.5t-54 -130.5t-137 -49.5q-81 0 -135.5 50t-54.5 130z" />
    <glyph glyph-name="quotedbl" unicode="&#x22;" horiz-adv-x="792" 
d="M467 1059l-10 491h256l-11 -491h-235zM78 1550h258l-10 -491h-238z" />
    <glyph glyph-name="numbersign" unicode="#" horiz-adv-x="1490" 
d="M680 0l84 311h-252l-84 -311h-295l84 311h-194v248h262l96 356h-184v248h252l73 271h295l-74 -271h252l74 271h295l-74 -271h178v-248h-245l-97 -356h168v-248h-235l-84 -311h-295zM569 551h269l102 373h-268z" />
    <glyph glyph-name="dollar" unicode="$" horiz-adv-x="1286" 
d="M528 -199v189q-267 31 -469 182l150 256q206 -145 438 -145q107 0 166 32.5t59 92.5q0 57 -64.5 97.5t-225.5 84.5q-239 64 -352 170.5t-113 277.5q0 163 108 271.5t303 134.5v182h258v-184q219 -34 402 -164l-152 -248q-74 57 -178 92t-203 35q-88 0 -139 -30.5
t-51 -82.5q0 -54 57.5 -91.5t214.5 -82.5q253 -70 371.5 -178.5t118.5 -277.5q0 -168 -119 -281.5t-322 -142.5v-189h-258z" />
    <glyph glyph-name="percent" unicode="%" horiz-adv-x="1656" 
d="M418 -39l-172 121l989 1391l170 -121zM41 1112q0 149 98.5 243.5t253.5 94.5t252.5 -94.5t97.5 -243.5q0 -151 -97.5 -244.5t-252.5 -93.5q-156 0 -254 94t-98 244zM260 1112q0 -60 37.5 -98.5t95.5 -38.5t94.5 38.5t36.5 98.5q0 59 -36.5 97t-94.5 38t-95.5 -38
t-37.5 -97zM909 322q0 150 98.5 243.5t254.5 93.5t253 -93.5t97 -243.5q0 -149 -97.5 -243.5t-252.5 -94.5t-254 94.5t-99 243.5zM1128 322q0 -59 38 -97.5t96 -38.5t94.5 38.5t36.5 97.5q0 60 -36.5 98.5t-94.5 38.5q-59 0 -96.5 -38.5t-37.5 -98.5z" />
    <glyph glyph-name="ampersand" unicode="&#x26;" horiz-adv-x="1447" 
d="M330 766q-76 74 -112 148.5t-36 164.5q0 171 127.5 274t335.5 103q198 0 323.5 -96.5t125.5 -249.5q0 -116 -72.5 -222t-210.5 -192l213 -204q60 89 109 247l256 -77q-57 -214 -162 -365l139 -133l-205 -207l-139 137q-172 -119 -410 -119q-242 0 -385 106t-143 284
q0 116 70 215.5t196 167.5zM393 401q0 -75 64 -117t170 -42q115 0 194 47l-293 282q-135 -71 -135 -170zM487 1081q0 -40 22.5 -79t76.5 -91l43 -41q159 103 159 203q0 58 -41.5 93.5t-109.5 35.5q-69 0 -109.5 -32.5t-40.5 -88.5z" />
    <glyph glyph-name="quotesingle" unicode="'" horiz-adv-x="430" 
d="M88 1059l-10 491h274l-10 -491h-254z" />
    <glyph glyph-name="parenleft" unicode="(" horiz-adv-x="739" 
d="M510 -381q-438 407 -438 985t438 985l203 -176q-157 -190 -237.5 -384.5t-80.5 -424.5t80.5 -424.5t237.5 -384.5z" />
    <glyph glyph-name="parenright" unicode=")" horiz-adv-x="739" 
d="M27 -205q157 189 237 384t80 425t-80 425t-237 384l202 176q439 -408 439 -985t-439 -985z" />
    <glyph glyph-name="asterisk" unicode="*" horiz-adv-x="792" 
d="M295 856l16 184l-151 -106l-101 174l170 78l-170 76l101 176l151 -107l-16 185h203l-17 -185l152 107l100 -174l-170 -78l170 -78l-100 -174l-152 106l17 -184h-203z" />
    <glyph glyph-name="plus" unicode="+" horiz-adv-x="1083" 
d="M393 164v317h-303v283h303v317h295v-317h305v-283h-305v-317h-295z" />
    <glyph glyph-name="comma" unicode="," horiz-adv-x="561" 
d="M133 -276q59 67 88.5 126t36.5 130q-75 5 -124.5 56t-49.5 124q0 80 52.5 132t133.5 52q94 0 148.5 -69t54.5 -189q0 -125 -62.5 -246t-174.5 -211z" />
    <glyph glyph-name="hyphen" unicode="-" horiz-adv-x="929" 
d="M856 416h-784v276h784v-276z" />
    <glyph glyph-name="period" unicode="." horiz-adv-x="548" 
d="M274 -20q-81 0 -135.5 50t-54.5 132q0 80 54.5 131t135.5 51t136 -51t55 -131q0 -82 -55 -132t-136 -50z" />
    <glyph glyph-name="slash" unicode="/" horiz-adv-x="1015" 
d="M49 -96l641 1612h279l-641 -1612h-279z" />
    <glyph glyph-name="zero" unicode="0" horiz-adv-x="1429" 
d="M715 -25q-293 0 -461 198t-168 544t168 543.5t461 197.5q292 0 459 -197.5t167 -543.5q0 -345 -167.5 -543.5t-458.5 -198.5zM434 717q0 -201 75.5 -318.5t205.5 -117.5t205 116.5t75 319.5t-75 319.5t-205 116.5t-205.5 -117.5t-75.5 -318.5z" />
    <glyph glyph-name="one" unicode="1" horiz-adv-x="888" 
d="M406 0v1001q-139 -38 -343 -38v266q147 0 240 49t166 156h274v-1434h-337z" />
    <glyph glyph-name="two" unicode="2" horiz-adv-x="1234" 
d="M88 0v252l520 473q88 80 128 144.5t40 127.5q0 66 -50.5 109t-129.5 43q-159 0 -293 -182l-219 209q107 147 236 214.5t292 67.5q228 0 366 -119.5t138 -318.5q0 -146 -70.5 -268.5t-232.5 -257.5l-235 -199l235 6h338v-301h-1063z" />
    <glyph glyph-name="three" unicode="3" horiz-adv-x="1196" 
d="M559 -25q-150 0 -285 55.5t-229 155.5l174 236q64 -69 149 -106t175 -37q103 0 166 51.5t63 134.5q0 74 -51.5 119t-133.5 53t-184 -8l-81 178l321 342h-518v285h915v-234l-321 -338q173 -20 282 -137t109 -289q0 -208 -150.5 -334.5t-400.5 -126.5z" />
    <glyph glyph-name="four" unicode="4" horiz-adv-x="1343" 
d="M797 0v246h-748v266l754 922h311v-902h170v-286h-170v-246h-317zM422 524h387v195l6 289l-192 -240z" />
    <glyph glyph-name="five" unicode="5" horiz-adv-x="1198" 
d="M573 -25q-158 0 -296 55.5t-232 155.5l174 234q140 -146 324 -146q110 0 172.5 53.5t62.5 147.5q0 92 -71.5 146.5t-194.5 54.5q-118 0 -244 -47l-137 88l53 717h860v-287h-581l-19 -246q92 25 191 25q213 0 347 -128.5t134 -336.5q0 -223 -147 -354.5t-396 -131.5z" />
    <glyph glyph-name="six" unicode="6" horiz-adv-x="1284" 
d="M664 -25q-268 0 -423 188t-155 521q0 362 167 566t462 204q242 0 430 -131l-123 -248q-58 42 -134 66t-153 24q-148 0 -236 -89.5t-100 -252.5q63 67 151 103.5t185 36.5q202 0 338.5 -140.5t136.5 -347.5q0 -223 -151.5 -361.5t-394.5 -138.5zM440 475q0 -100 62 -161.5
t162 -61.5q101 0 164 61.5t63 161.5q0 101 -63 163t-164 62q-100 0 -162 -62t-62 -163z" />
    <glyph glyph-name="seven" unicode="7" horiz-adv-x="1093" 
d="M172 0l502 1124h-633v310h1020v-248l-522 -1186h-367z" />
    <glyph glyph-name="eight" unicode="8" horiz-adv-x="1288" 
d="M645 -25q-264 0 -420.5 115t-156.5 309q0 112 58 200.5t167 145.5q-180 113 -180 316q0 180 144.5 288.5t387.5 108.5q242 0 387.5 -108.5t145.5 -288.5q0 -200 -183 -318q111 -56 169.5 -144t58.5 -200q0 -193 -157.5 -308.5t-420.5 -115.5zM410 426q0 -87 65 -141
t170 -54t169.5 53.5t64.5 141.5q0 86 -65 139t-169 53q-105 0 -170 -53t-65 -139zM440 1032q0 -75 57 -121.5t148 -46.5q90 0 146.5 46.5t56.5 121.5q0 76 -56.5 123t-146.5 47q-91 0 -148 -47t-57 -123z" />
    <glyph glyph-name="nine" unicode="9" horiz-adv-x="1282" 
d="M561 -25q-232 0 -432 121l115 258q132 -86 301 -86q149 0 236 87t102 247q-64 -66 -152.5 -101.5t-185.5 -35.5q-203 0 -338 139t-135 348q0 224 151 364t391 140q274 0 427 -186t153 -522q0 -367 -167.5 -570t-465.5 -203zM391 952q0 -101 63.5 -163t163.5 -62
q102 0 165 62t63 163t-63.5 163.5t-164.5 62.5q-100 0 -163.5 -62.5t-63.5 -163.5z" />
    <glyph glyph-name="colon" unicode=":" horiz-adv-x="589" 
d="M295 -20q-81 0 -136 50t-55 132q0 80 55 131t136 51t135.5 -51t54.5 -131q0 -82 -54.5 -132t-135.5 -50zM104 756q0 80 55 131t136 51t135.5 -51t54.5 -131q0 -82 -54.5 -132.5t-135.5 -50.5t-136 50.5t-55 132.5z" />
    <glyph glyph-name="semicolon" unicode=";" horiz-adv-x="598" 
d="M158 -276q59 67 88.5 126t36.5 130q-75 5 -124.5 56t-49.5 124q0 80 52.5 132t133.5 52q94 0 148.5 -69t54.5 -189q0 -125 -63 -245.5t-175 -211.5zM109 756q0 80 54.5 131t135.5 51t135.5 -51t54.5 -131q0 -82 -54.5 -132.5t-135.5 -50.5t-135.5 50.5t-54.5 132.5z" />
    <glyph glyph-name="less" unicode="&#x3c;" horiz-adv-x="1091" 
d="M1014 1135v-318l-330 -137l-174 -66l174 -67l330 -139v-316l-946 424v195z" />
    <glyph glyph-name="equal" unicode="=" horiz-adv-x="1056" 
d="M90 698v271h877v-271h-877zM90 272v271h877v-271h-877z" />
    <glyph glyph-name="greater" unicode="&#x3e;" horiz-adv-x="1091" 
d="M78 92v318l330 137l174 67l-174 66l-330 139v316l946 -424v-195z" />
    <glyph glyph-name="question" unicode="?" horiz-adv-x="1118" 
d="M397 506q0 116 43 192.5t142 145.5q69 51 93.5 90.5t24.5 87.5q0 66 -48 105.5t-140 39.5q-171 0 -311 -159l-172 219q112 119 237 176t281 57q222 0 354.5 -109.5t132.5 -291.5q0 -118 -56 -208.5t-167 -170.5q-63 -42 -89 -85.5t-26 -115.5v-65h-299v92zM356 160
q0 80 55 130t136 50q83 0 136.5 -49.5t53.5 -130.5t-53.5 -130.5t-136.5 -49.5q-81 0 -136 50t-55 130z" />
    <glyph glyph-name="at" unicode="@" horiz-adv-x="2107" 
d="M1055 -481q-215 0 -397.5 71t-310 196.5t-199.5 305t-72 391.5q0 208 73.5 388t202.5 307t311 199.5t392 72.5q215 0 397.5 -67.5t309.5 -186.5t198.5 -286.5t71.5 -362.5q0 -124 -34 -222t-91.5 -157t-128.5 -90t-150 -31q-106 0 -186.5 43.5t-122.5 122.5
q-120 -156 -318 -156q-180 0 -295.5 119.5t-115.5 306.5q0 188 115 307t296 119q167 0 279 -112l4 90h232v-400q0 -104 26 -150t80 -46q131 0 131 256q0 285 -191 462t-511 177q-202 0 -361.5 -89.5t-247.5 -249.5t-88 -364t89 -364t248.5 -249t363.5 -89q268 0 452 131
l121 -223q-239 -170 -573 -170zM864 483q0 -84 52 -138t131 -54q80 0 131 53.5t51 138.5q0 83 -51.5 138t-130.5 55q-78 0 -130.5 -55t-52.5 -138z" />
    <glyph glyph-name="A" unicode="A" horiz-adv-x="1536" 
d="M27 0l555 1434h376l549 -1434h-362l-90 250h-570l-90 -250h-368zM561 504h418l-207 571z" />
    <glyph glyph-name="B" unicode="B" horiz-adv-x="1343" 
d="M145 0v1434h654q195 0 313.5 -104.5t118.5 -274.5q0 -197 -168 -312q99 -53 156 -145t57 -205q0 -176 -124.5 -284.5t-324.5 -108.5h-682zM481 260h256q95 0 148 45t53 125q0 78 -53 123t-148 45h-256v-338zM481 850h236q86 0 136 44t50 118t-49.5 118t-136.5 44h-236
v-324z" />
    <glyph glyph-name="C" unicode="C" horiz-adv-x="1476" 
d="M813 -27q-219 0 -387.5 96.5t-259 265.5t-90.5 382q0 156 52.5 292.5t146 236t231.5 157t301 57.5q355 0 606 -284l-215 -226q-72 91 -167 140t-202 49q-176 0 -284.5 -117.5t-108.5 -304.5q0 -188 109.5 -305t290.5 -117q236 0 393 199l215 -226q-116 -149 -280 -222
t-351 -73z" />
    <glyph glyph-name="D" unicode="D" horiz-adv-x="1536" 
d="M145 0v1434h574q336 0 537.5 -195.5t201.5 -521.5t-201.5 -521.5t-537.5 -195.5h-574zM498 319h184q201 0 311.5 104.5t110.5 293.5t-110.5 293t-311.5 104h-184v-795z" />
    <glyph glyph-name="E" unicode="E" horiz-adv-x="1226" 
d="M145 0v1434h975v-281h-631v-291h578v-276h-578v-301h656v-285h-1000z" />
    <glyph glyph-name="F" unicode="F" horiz-adv-x="1150" 
d="M145 0v1434h949v-295h-598v-332h540v-287h-538v-520h-353z" />
    <glyph glyph-name="G" unicode="G" horiz-adv-x="1568" 
d="M848 -27q-228 0 -404 94.5t-272 263.5t-96 386q0 159 55.5 296.5t154 236t239.5 154.5t306 56q334 0 578 -221l-188 -231q-72 69 -170.5 106t-202.5 37q-188 0 -305 -121.5t-117 -312.5q0 -195 118.5 -314.5t319.5 -119.5q172 0 312 82v186h-404v268h701v-614
q-119 -113 -283 -172.5t-342 -59.5z" />
    <glyph glyph-name="H" unicode="H" horiz-adv-x="1525" 
d="M1028 0v567h-530v-567h-353v1434h353v-543h530v543h354v-1434h-354z" />
    <glyph glyph-name="I" unicode="I" horiz-adv-x="643" 
d="M145 0v1434h353v-1434h-353z" />
    <glyph glyph-name="J" unicode="J" horiz-adv-x="1015" 
d="M369 -25q-183 0 -361 91l121 276q98 -49 203 -49q103 0 150.5 66t47.5 204v871h353v-891q0 -568 -514 -568z" />
    <glyph glyph-name="K" unicode="K" horiz-adv-x="1394" 
d="M961 0l-351 567h-112v-567h-353v1434h353v-553h112l338 553h410l-447 -703l463 -731h-413z" />
    <glyph glyph-name="L" unicode="L" horiz-adv-x="1161" 
d="M145 0v1434h353v-1108h606v-326h-959z" />
    <glyph glyph-name="M" unicode="M" horiz-adv-x="1810" 
d="M825 420l-331 463v-883h-349v1434h312l446 -609l449 609h313v-1434h-350v883l-332 -463h-158z" />
    <glyph glyph-name="N" unicode="N" horiz-adv-x="1552" 
d="M145 0v1434h285l639 -848v848h338v-1434h-287l-637 846v-846h-338z" />
    <glyph glyph-name="O" unicode="O" horiz-adv-x="1681" 
d="M840 -27q-163 0 -305 56t-242.5 154t-158.5 236.5t-58 297.5t58 297t158.5 236t242.5 154t305 56q219 0 393.5 -95.5t272.5 -265.5t98 -382t-97.5 -382t-272.5 -266t-394 -96zM436 717q0 -186 113.5 -304t290.5 -118q179 0 292 118t113 304t-113 304t-292 118
q-177 0 -290.5 -118t-113.5 -304z" />
    <glyph glyph-name="P" unicode="P" horiz-adv-x="1312" 
d="M145 0v1434h572q259 0 407 -138t148 -376q0 -235 -148.5 -374.5t-406.5 -139.5h-219v-406h-353zM492 696h188q112 0 175 58t63 161q0 104 -62.5 162t-175.5 58h-188v-439z" />
    <glyph glyph-name="Q" unicode="Q" horiz-adv-x="1681" 
d="M840 -27q-163 0 -305 56t-242.5 154t-158.5 236.5t-58 297.5t58 297t158.5 236t242.5 154t305 56q219 0 393.5 -95.5t272.5 -265.5t98 -382q0 -155 -53.5 -288.5t-151.5 -233.5l198 -281l-292 -203l-205 301q-125 -39 -260 -39zM436 717q0 -186 113.5 -304t290.5 -118
q179 0 292 118t113 304t-113 304t-292 118q-177 0 -290.5 -118t-113.5 -304z" />
    <glyph glyph-name="R" unicode="R" horiz-adv-x="1392" 
d="M145 0v1434h603q248 0 398 -133.5t150 -352.5q0 -153 -70.5 -264t-201.5 -168l317 -516h-383l-270 463h-190v-463h-353zM492 729h221q112 0 171.5 54t59.5 153t-59.5 154t-171.5 55h-221v-416z" />
    <glyph glyph-name="S" unicode="S" horiz-adv-x="1288" 
d="M657 -18q-166 0 -321.5 50t-276.5 142l152 254q209 -145 438 -145q107 0 166 32.5t59 92.5q0 57 -64.5 97.5t-225.5 84.5q-240 64 -352.5 171t-112.5 279q0 185 140.5 298.5t385.5 113.5q309 0 547 -176l-154 -246q-74 57 -178 92t-203 35q-88 0 -139 -30.5t-51 -82.5
q0 -54 57.5 -91.5t214.5 -82.5q253 -70 371.5 -180t118.5 -280q0 -192 -157 -310t-415 -118z" />
    <glyph glyph-name="T" unicode="T" horiz-adv-x="1280" 
d="M463 0v1110h-416v324h1186v-324h-418v-1110h-352z" />
    <glyph glyph-name="U" unicode="U" horiz-adv-x="1495" 
d="M748 -25q-287 0 -451 156.5t-164 433.5v869h352v-840q0 -146 67 -221.5t196 -75.5q128 0 195 75.5t67 221.5v840h352v-869q0 -277 -164 -433.5t-450 -156.5z" />
    <glyph glyph-name="V" unicode="V" horiz-adv-x="1486" 
d="M561 0l-534 1434h376l199 -566l146 -450l143 450l196 566h373l-526 -1434h-373z" />
    <glyph glyph-name="W" unicode="W" horiz-adv-x="2254" 
d="M475 0l-440 1434h364l154 -527l127 -461l283 934h329l287 -936l127 463l152 527h362l-434 -1434h-375l-168 522l-115 373l-112 -373l-168 -522h-373z" />
    <glyph glyph-name="X" unicode="X" horiz-adv-x="1423" 
d="M23 0l477 739l-445 695h400l143 -228l121 -202l119 202l137 228h397l-442 -697l471 -737h-402l-143 231l-143 242l-144 -242l-143 -231h-403z" />
    <glyph glyph-name="Y" unicode="Y" horiz-adv-x="1429" 
d="M539 0v530l-516 904h401l162 -297l131 -256l137 256l164 297h389l-516 -904v-530h-352z" />
    <glyph glyph-name="Z" unicode="Z" horiz-adv-x="1280" 
d="M94 0v252l643 881l-618 -3v304h1057v-250l-646 -881l670 2v-305h-1106z" />
    <glyph glyph-name="bracketleft" unicode="[" horiz-adv-x="792" 
d="M154 -289v1786h569v-262h-268v-1262h268v-262h-569z" />
    <glyph glyph-name="backslash" unicode="\" horiz-adv-x="1015" 
d="M967 -96h-279l-641 1612h279z" />
    <glyph glyph-name="bracketright" unicode="]" horiz-adv-x="792" 
d="M639 -289h-569v262h268v1262h-268v262h569v-1786z" />
    <glyph glyph-name="asciicircum" unicode="^" horiz-adv-x="1034" 
d="M59 897l355 584h207l354 -584h-291l-170 297l-172 -297h-283z" />
    <glyph glyph-name="underscore" unicode="_" horiz-adv-x="1384" 
d="M1315 -375h-1249v203h1249v-203z" />
    <glyph glyph-name="grave" unicode="`" horiz-adv-x="876" 
d="M672 1217h-256l-211 299h336z" />
    <glyph glyph-name="a" unicode="a" horiz-adv-x="1204" 
d="M430 -14q-164 0 -263 90.5t-99 238.5q0 166 123.5 260.5t338.5 94.5q125 0 248 -33v27q0 85 -54 123t-173 38q-143 0 -332 -80l-80 232q122 56 226 79t231 23q234 0 361.5 -110.5t127.5 -311.5v-657h-288l-6 129q-66 -66 -161.5 -104.5t-199.5 -38.5zM389 332
q0 -55 36.5 -85t106.5 -30q103 0 172.5 58t77.5 147q-119 35 -209 35q-184 0 -184 -125z" />
    <glyph glyph-name="b" unicode="b" horiz-adv-x="1374" 
d="M809 -25q-237 0 -369 166l-4 -141h-305v1516h334v-582q136 145 344 145q218 0 357 -153.5t139 -397.5t-139.5 -398.5t-356.5 -154.5zM459 528q0 -119 72.5 -193.5t185.5 -74.5q114 0 186 74t72 194t-72 194.5t-186 74.5t-186 -74.5t-72 -194.5z" />
    <glyph glyph-name="c" unicode="c" horiz-adv-x="1136" 
d="M633 -27q-248 0 -405.5 155.5t-157.5 399.5q0 245 158 400t407 155q136 0 252 -47.5t194 -136.5l-182 -207q-49 49 -114 77t-130 28q-114 0 -185 -75t-71 -194q0 -120 70.5 -194t187.5 -74q75 0 143.5 33t112.5 92l193 -197q-173 -215 -473 -215z" />
    <glyph glyph-name="d" unicode="d" horiz-adv-x="1374" 
d="M565 -25q-217 0 -356 154.5t-139 398.5t139 397.5t356 153.5q208 0 344 -145v582h334v-1516h-305l-4 141q-132 -166 -369 -166zM399 528q0 -120 72 -194t186 -74q113 0 185.5 74.5t72.5 193.5q0 120 -72 194.5t-186 74.5t-186 -74.5t-72 -194.5z" />
    <glyph glyph-name="e" unicode="e" horiz-adv-x="1249" 
d="M666 -27q-270 0 -433 152t-163 401q0 246 156.5 401.5t406.5 155.5q184 0 320.5 -89t196.5 -243.5t30 -342.5h-789q25 -84 104 -132.5t195 -48.5q175 0 318 105l129 -209q-190 -150 -471 -150zM387 621h496q-21 95 -85.5 150.5t-162.5 55.5q-95 0 -162 -55.5t-86 -150.5z
" />
    <glyph glyph-name="f" unicode="f" horiz-adv-x="899" 
d="M242 1184q0 173 100 269.5t279 96.5q152 0 278 -63l-88 -230q-55 27 -117 27q-119 0 -119 -139v-92h291v-262h-291v-791h-333v791h-187v266h187v127z" />
    <glyph glyph-name="g" unicode="g" horiz-adv-x="1316" 
d="M678 -692q-311 0 -473 90t-162 262q0 130 92 219q-67 67 -67 170q0 156 143 254q-94 117 -94 285q0 215 141.5 342t382.5 127h633v-254h-193q84 -96 84 -240q0 -197 -143 -315.5t-381 -118.5q-125 0 -225 35q-47 -27 -47 -72q0 -34 29.5 -52.5t100.5 -28.5t208 -15
q291 -11 428 -89t137 -235q0 -171 -157.5 -267.5t-436.5 -96.5zM326 -309q0 -66 81 -97.5t252 -31.5q306 0 306 94q0 43 -64 63t-217 23q-193 6 -322 33q-36 -39 -36 -84zM428 588q0 -92 59.5 -151.5t151.5 -59.5q94 0 153.5 59.5t59.5 151.5q0 91 -60 150t-153 59
q-92 0 -151.5 -59t-59.5 -150z" />
    <glyph glyph-name="h" unicode="h" horiz-adv-x="1302" 
d="M131 0v1516h334v-588q133 145 330 145q176 0 281.5 -114t105.5 -297v-662h-334v571q0 207 -176 207q-98 0 -152.5 -60t-54.5 -165v-553h-334z" />
    <glyph glyph-name="i" unicode="i" horiz-adv-x="595" 
d="M131 0v1057h334v-1057h-334zM94 1372q0 88 56 141.5t147 53.5q92 0 148.5 -53.5t56.5 -141.5t-56.5 -142t-148.5 -54q-91 0 -147 54t-56 142z" />
    <glyph glyph-name="j" unicode="j" horiz-adv-x="591" 
d="M70 -494q-121 0 -228 37l62 264q62 -16 108 -16q63 0 89 31.5t26 105.5v1129h334v-1172q0 -188 -99 -283.5t-292 -95.5zM90 1372q0 88 56.5 141.5t148.5 53.5q91 0 147 -53.5t56 -141.5t-56 -142t-147 -54q-92 0 -148.5 54t-56.5 142z" />
    <glyph glyph-name="k" unicode="k" horiz-adv-x="1212" 
d="M805 0l-248 403h-92v-403h-334v1516h334v-832h98l228 373h383l-332 -510l352 -547h-389z" />
    <glyph glyph-name="l" unicode="l" horiz-adv-x="595" 
d="M131 0v1516h334v-1516h-334z" />
    <glyph glyph-name="m" unicode="m" horiz-adv-x="1986" 
d="M131 0v1057h305l4 -144q139 160 336 160q106 0 187.5 -46t128.5 -132q149 178 372 178q184 0 294 -112.5t110 -301.5v-659h-334v571q0 100 -45.5 153.5t-130.5 53.5q-88 0 -141.5 -62t-53.5 -163v-553h-327v571q0 100 -46 153.5t-131 53.5q-88 0 -141 -62t-53 -163v-553
h-334z" />
    <glyph glyph-name="n" unicode="n" horiz-adv-x="1302" 
d="M131 0v1057h305l4 -146q140 162 348 162q181 0 287.5 -115t106.5 -299v-659h-334v569q0 209 -176 209q-97 0 -152 -61t-55 -166v-551h-334z" />
    <glyph glyph-name="o" unicode="o" horiz-adv-x="1316" 
d="M659 -27q-264 0 -426.5 153t-162.5 402t162.5 402t426.5 153q263 0 425.5 -153t162.5 -402t-162.5 -402t-425.5 -153zM399 528q0 -121 72 -194.5t188 -73.5q115 0 187 73.5t72 194.5q0 120 -72.5 194.5t-186.5 74.5q-116 0 -188 -74.5t-72 -194.5z" />
    <glyph glyph-name="p" unicode="p" horiz-adv-x="1374" 
d="M809 -25q-212 0 -344 138v-584h-334v1528h305l4 -154q65 84 160 130t209 46q218 0 357 -153.5t139 -397.5t-139.5 -398.5t-356.5 -154.5zM459 528q0 -119 72.5 -193.5t185.5 -74.5q114 0 186 74t72 194t-72 194.5t-186 74.5q-113 0 -185.5 -75.5t-72.5 -193.5z" />
    <glyph glyph-name="q" unicode="q" horiz-adv-x="1374" 
d="M565 -25q-217 0 -356 154.5t-139 398.5t139 397.5t356 153.5q114 0 209 -46t160 -130l4 154h305v-1528h-334v584q-132 -138 -344 -138zM399 528q0 -120 72 -194t186 -74q113 0 185.5 74.5t72.5 193.5q0 118 -72.5 193.5t-185.5 75.5q-114 0 -186 -74.5t-72 -194.5z" />
    <glyph glyph-name="r" unicode="r" horiz-adv-x="923" 
d="M131 0v1057h305l4 -144q123 158 324 158q78 0 149 -24l-73 -310q-71 21 -131 21q-125 0 -184.5 -78t-59.5 -219v-461h-334z" />
    <glyph glyph-name="s" unicode="s" horiz-adv-x="1036" 
d="M528 -20q-256 0 -475 141l119 227q186 -110 352 -110q67 0 103.5 19.5t36.5 55.5q0 33 -40 57.5t-137 47.5q-200 46 -292.5 128.5t-92.5 215.5q0 143 107.5 228t304.5 85q243 0 447 -127l-119 -219q-59 40 -147.5 67t-162.5 27q-120 0 -120 -65q0 -36 38 -58.5t142 -46.5
q200 -45 294.5 -128.5t94.5 -209.5q0 -154 -123 -244.5t-330 -90.5z" />
    <glyph glyph-name="t" unicode="t" horiz-adv-x="899" 
d="M604 -18q-193 0 -291 103t-98 302v406h-168v264h174l6 254h322v-254h262v-264h-262v-373q0 -137 119 -137q57 0 127 28l71 -274q-122 -55 -262 -55z" />
    <glyph glyph-name="u" unicode="u" horiz-adv-x="1294" 
d="M1167 1057v-1057h-305l-4 143q-137 -159 -348 -159q-181 0 -287 114.5t-106 298.5v660h334v-572q0 -206 176 -206q97 0 152 61t55 166v551h333z" />
    <glyph glyph-name="v" unicode="v" horiz-adv-x="1226" 
d="M446 0l-421 1057h360l156 -453l73 -227l76 227l156 453h356l-422 -1057h-334z" />
    <glyph glyph-name="w" unicode="w" horiz-adv-x="1835" 
d="M383 0l-352 1057h350l88 -316l98 -362l215 639h275l219 -647l98 370l86 316h344l-348 -1057h-323l-101 295l-112 334l-113 -334l-100 -295h-324z" />
    <glyph glyph-name="x" unicode="x" horiz-adv-x="1146" 
d="M768 0l-113 176l-82 135l-81 -135l-115 -176h-357l353 535l-334 522h352l113 -178l69 -119l70 119l111 178h354l-332 -522l350 -535h-358z" />
    <glyph glyph-name="y" unicode="y" horiz-adv-x="1228" 
d="M324 -481q-110 0 -213 35l61 276q67 -18 117 -18q72 0 120 32.5t78 106.5l-462 1106h362l172 -471l76 -224l63 224l152 471h354l-444 -1229q-114 -309 -436 -309z" />
    <glyph glyph-name="z" unicode="z" horiz-adv-x="1054" 
d="M84 0v219l469 572l-211 -5h-238v271h859v-209l-461 -574l188 5h293v-279h-899z" />
    <glyph glyph-name="braceleft" unicode="{" horiz-adv-x="860" 
d="M573 -311q-159 0 -248 96t-89 264v254q0 94 -42 134t-135 40v256q95 0 136 40t41 134v275q0 166 88 253t249 87h236v-262h-141q-131 0 -131 -142v-256q0 -173 -131 -256q131 -86 131 -258v-256q0 -141 131 -141h141v-262h-236z" />
    <glyph glyph-name="bar" unicode="|" horiz-adv-x="503" 
d="M119 -289v1805h264v-1805h-264z" />
    <glyph glyph-name="braceright" unicode="}" horiz-adv-x="860" 
d="M287 -311h-236v262h142q131 0 131 141v256q0 172 131 258q-131 83 -131 256v256q0 142 -131 142h-142v262h236q161 0 249.5 -87t88.5 -253v-275q0 -95 41 -134.5t135 -39.5v-256q-93 0 -134.5 -40t-41.5 -134v-254q0 -168 -89.5 -264t-248.5 -96z" />
    <glyph glyph-name="asciitilde" unicode="~" horiz-adv-x="1296" 
d="M90 461q22 197 112 303t236 106q129 0 246 -88q77 -57 141 -57q99 0 111 145l276 -45q-22 -197 -112 -303t-236 -106q-123 0 -246 88q-77 57 -141 57q-97 0 -112 -145z" />
    <glyph glyph-name="uni00A0" unicode="&#xa0;" horiz-adv-x="466" 
 />
    <glyph glyph-name="exclamdown" unicode="&#xa1;" horiz-adv-x="604" 
d="M438 686l25 -520l8 -500h-336l6 500l27 520h270zM113 940q0 81 53.5 130.5t136.5 49.5q81 0 136 -50t55 -130t-55 -130t-136 -50q-83 0 -136.5 49.5t-53.5 130.5z" />
    <glyph glyph-name="cent" unicode="&#xa2;" horiz-adv-x="1136" 
d="M508 -209v195q-198 37 -318 184t-120 358t120 357.5t318 185.5v172h252v-170q201 -39 321 -174l-182 -207q-49 49 -114 77t-130 28q-114 0 -185 -75t-71 -194q0 -120 70.5 -194t187.5 -74q75 0 143.5 33t112.5 92l193 -197q-128 -162 -346 -204v-193h-252z" />
    <glyph glyph-name="sterling" unicode="&#xa3;" horiz-adv-x="1206" 
d="M133 229q102 93 139 171.5t37 164.5v8h-243v246h172q-54 117 -54 225q0 188 129.5 302t356.5 114q280 0 458 -184l-172 -215q-102 108 -247 108q-98 0 -149.5 -44t-51.5 -119q0 -34 9.5 -70t17 -53.5t28.5 -63.5h412v-246h-350v-32q0 -124 -74 -240h590v-301h-1008v229z
" />
    <glyph glyph-name="currency" unicode="&#xa4;" horiz-adv-x="1263" 
d="M633 74q-146 0 -258 65l-150 -149l-164 164l146 145q-72 118 -72 262q0 147 72 260l-139 140l163 163l142 -141q114 66 260 66q144 0 260 -64l145 145l164 -163l-141 -142q69 -113 69 -264q0 -152 -71 -264l137 -137l-164 -164l-141 141q-114 -63 -258 -63zM389 561
q0 -110 68.5 -180t175.5 -70q108 0 176 69t68 181t-68 181t-176 69q-107 0 -175.5 -70t-68.5 -180z" />
    <glyph glyph-name="yen" unicode="&#xa5;" horiz-adv-x="1435" 
d="M227 215v205h316v92h-316v211h222l-426 711h403l190 -328l105 -195l106 195l195 328h391l-426 -711h219v-211h-311v-92h311v-205h-311v-215h-352v215h-316z" />
    <glyph glyph-name="brokenbar" unicode="&#xa6;" horiz-adv-x="495" 
d="M379 438v-727h-264v727h264zM115 793v723h264v-723h-264z" />
    <glyph glyph-name="section" unicode="&#xa7;" horiz-adv-x="1105" 
d="M561 -180q-252 0 -483 135l115 215q183 -104 356 -104q71 0 110 22t39 62q0 42 -44 69t-148 51q-207 44 -312.5 134t-105.5 239q0 77 39 146.5t109 119.5q-115 89 -115 226q0 149 113 236t311 87q122 0 237.5 -34t204.5 -95l-110 -203q-73 41 -155.5 66t-152.5 25
q-145 0 -145 -82q0 -44 42 -70t148 -51q213 -47 313.5 -135.5t100.5 -229.5q0 -74 -37 -142t-106 -120q125 -93 125 -235q0 -150 -123.5 -241t-325.5 -91zM367 664q0 -63 58.5 -103t182.5 -67l47 -11q95 62 95 146q0 59 -54 98.5t-176 65.5q-28 5 -65 16q-88 -59 -88 -145z
" />
    <glyph glyph-name="dieresis" unicode="&#xa8;" horiz-adv-x="1175" 
d="M805 1180q-74 0 -121 46.5t-47 119.5q0 72 47 117.5t121 45.5q72 0 119 -45.5t47 -117.5q0 -73 -47 -119.5t-119 -46.5zM205 1346q0 72 47 117.5t121 45.5q72 0 119 -45.5t47 -117.5q0 -73 -47 -119.5t-119 -46.5q-74 0 -121 46.5t-47 119.5z" />
    <glyph glyph-name="copyright" unicode="&#xa9;" horiz-adv-x="1671" 
d="M836 -39q-163 0 -304 57t-241 157t-157.5 240.5t-57.5 301.5q0 162 57.5 303t157.5 241t241 157t304 57q217 0 390 -97.5t270 -271t97 -389.5q0 -215 -97 -388t-270 -270.5t-390 -97.5zM301 717q0 -237 151 -391t384 -154t382.5 154t149.5 391q0 238 -149.5 391.5
t-382.5 153.5t-384 -153.5t-151 -391.5zM432 717q0 181 115 295t299 114q210 0 342 -172l-150 -116q-76 98 -186 98q-95 0 -154 -62t-59 -159q0 -96 58.5 -156.5t154.5 -60.5q123 0 195 100l141 -113q-132 -180 -342 -180q-185 0 -299.5 115.5t-114.5 296.5z" />
    <glyph glyph-name="ordfeminine" unicode="&#xaa;" horiz-adv-x="733" 
d="M262 745q-105 0 -170 60.5t-65 157.5q0 103 75 165t203 62q87 0 164 -25q0 48 -37.5 76.5t-105.5 28.5q-100 0 -209 -49l-49 161q139 64 284 64q164 0 248 -75.5t84 -223.5v-389h-203l-4 73q-83 -86 -215 -86zM248 971q0 -62 84 -62q53 0 88.5 32.5t44.5 86.5
q-60 14 -113 14q-104 0 -104 -71z" />
    <glyph glyph-name="guillemotleft" unicode="&#xab;" horiz-adv-x="1523" 
d="M588 -14l-490 589l490 586l205 -180l-336 -406l336 -411zM707 575l489 586l205 -180l-336 -406l336 -411l-205 -178z" />
    <glyph glyph-name="logicalnot" unicode="&#xac;" horiz-adv-x="1087" 
d="M672 276v267h-582v284h883v-551h-301z" />
    <glyph glyph-name="uni00AD" unicode="&#xad;" horiz-adv-x="929" 
d="M856 416h-784v276h784v-276z" />
    <glyph glyph-name="registered" unicode="&#xae;" horiz-adv-x="1097" 
d="M549 510q-209 0 -345 131t-136 332q0 200 136 330.5t345 130.5q214 0 347.5 -128.5t133.5 -332.5q0 -206 -133.5 -334.5t-347.5 -128.5zM238 973q0 -133 87 -218t224 -85q136 0 223.5 85.5t87.5 217.5q0 136 -85 218.5t-226 82.5t-226 -81.5t-85 -219.5zM381 762v418h182
q76 0 123 -42t47 -108q0 -85 -74 -121l82 -147h-141l-63 127h-29v-127h-127zM506 989h47q51 0 51 43q0 19 -14 30t-37 11h-47v-84z" />
    <glyph glyph-name="macron" unicode="&#xaf;" horiz-adv-x="1026" 
d="M205 1221v204h616v-204h-616z" />
    <glyph glyph-name="degree" unicode="&#xb0;" horiz-adv-x="778" 
d="M389 866q-140 0 -230.5 87t-90.5 218t90.5 218.5t230.5 87.5t231 -87.5t91 -218.5t-91 -218t-231 -87zM248 1171q0 -62 39 -100.5t102 -38.5t102 38.5t39 100.5t-39 101t-102 39t-102 -39t-39 -101z" />
    <glyph glyph-name="plusminus" unicode="&#xb1;" horiz-adv-x="1083" 
d="M90 756v280h303v273h295v-273h305v-280h-305v-264h-295v264h-303zM90 63v277h903v-277h-903z" />
    <glyph glyph-name="uni00B2" unicode="&#xb2;" horiz-adv-x="618" 
d="M51 967v129l211 227q46 51 60 73t14 44q0 26 -18 41.5t-50 15.5q-70 0 -137 -67l-104 129q64 61 126.5 86.5t141.5 25.5q113 0 181.5 -58t68.5 -155q0 -61 -27 -109.5t-110 -138.5l-62 -69h219v-174h-514z" />
    <glyph glyph-name="uni00B3" unicode="&#xb3;" horiz-adv-x="606" 
d="M285 954q-148 0 -252 82l88 150q71 -53 147 -53q43 0 67.5 17.5t24.5 49.5q0 45 -42 62t-115 0l-43 94l121 131h-43h-162v172h448v-121l-141 -147q82 -17 131 -73t49 -134q0 -103 -77 -166.5t-201 -63.5z" />
    <glyph glyph-name="acute" unicode="&#xb4;" horiz-adv-x="876" 
d="M205 1217l131 299h336l-211 -299h-256z" />
    <glyph glyph-name="uni00B5" unicode="&#xb5;" horiz-adv-x="1310" 
d="M131 -471v1528h334v-563q0 -104 48.5 -159.5t141.5 -55.5q89 0 141 58t52 157v563h334v-1057h-299l-2 113q-82 -107 -230 -107q-117 0 -194 68v-545h-326z" />
    <glyph glyph-name="paragraph" unicode="&#xb6;" horiz-adv-x="1447" 
d="M522 -225v780q-202 2 -335.5 122.5t-133.5 317.5q0 200 132.5 318.5t336.5 120.5h877v-234h-172v-1425h-256v1425h-193v-1425h-256z" />
    <glyph glyph-name="periodcentered" unicode="&#xb7;" horiz-adv-x="548" 
d="M274 393q-81 0 -135.5 50t-54.5 132q0 81 54.5 132t135.5 51t136 -51.5t55 -131.5q0 -82 -55 -132t-136 -50z" />
    <glyph glyph-name="cedilla" unicode="&#xb8;" horiz-adv-x="948" 
d="M459 -498q-134 0 -254 72l84 156q71 -43 145 -43q86 0 86 55q0 39 -49 48t-102 -5l-47 45l55 221h188l-26 -127q92 -5 148 -60t56 -143q0 -100 -76.5 -159.5t-207.5 -59.5z" />
    <glyph glyph-name="uni00B9" unicode="&#xb9;" horiz-adv-x="466" 
d="M207 967v442q-82 -18 -176 -18v161q81 0 127.5 25t79.5 82h165v-692h-196z" />
    <glyph glyph-name="ordmasculine" unicode="&#xba;" horiz-adv-x="811" 
d="M408 745q-168 0 -273.5 99t-105.5 252q0 152 106 251t273 99q168 0 271 -97.5t103 -252.5t-103 -253t-271 -98zM260 1096q0 -65 42 -108.5t106 -43.5t103.5 43.5t39.5 108.5t-39.5 108t-103.5 43t-106 -43t-42 -108z" />
    <glyph glyph-name="guillemotright" unicode="&#xbb;" horiz-adv-x="1523" 
d="M936 -14l-205 178l336 411l-336 406l205 180l489 -586zM123 164l336 411l-336 406l205 180l489 -586l-489 -589z" />
    <glyph glyph-name="onequarter" unicode="&#xbc;" horiz-adv-x="1538" 
d="M207 741v443q-87 -19 -176 -19v162q81 0 127.5 25t79.5 82h165v-693h-196zM80 14l1028 1538l166 -114l-1028 -1538zM909 111v149l332 432h186v-418h72v-163h-72v-111h-182v111h-336zM1112 268h141v187z" />
    <glyph glyph-name="onehalf" unicode="&#xbd;" horiz-adv-x="1505" 
d="M207 741v443q-87 -19 -176 -19v162q81 0 127.5 25t79.5 82h165v-693h-196zM80 14l1028 1538l166 -114l-1028 -1538zM913 592q64 61 127 87t142 26q113 0 181.5 -58t68.5 -155q0 -60 -27.5 -108.5t-110.5 -139.5l-61 -70h219v-174h-514v129l211 227q46 51 60 73t14 44
q0 26 -18 41.5t-50 15.5q-70 0 -137 -67z" />
    <glyph glyph-name="threequarters" unicode="&#xbe;" horiz-adv-x="1675" 
d="M285 729q-148 0 -252 82l88 150q73 -54 147 -54q43 0 67.5 18t24.5 50q0 45 -42 61.5t-115 -0.5l-43 94l121 132h-43h-162v172h448v-121l-141 -148q82 -17 131 -73t49 -134q0 -103 -76.5 -166t-201.5 -63zM219 14l1028 1538l166 -114l-1028 -1538zM1049 111v149l331 432
h187v-418h71v-163h-71v-111h-183v111h-335zM1251 268h142v187z" />
    <glyph glyph-name="questiondown" unicode="&#xbf;" horiz-adv-x="1118" 
d="M721 594q0 -116 -42.5 -192.5t-141.5 -145.5q-70 -51 -94.5 -90.5t-24.5 -87.5q0 -66 48 -106t140 -40q172 0 312 160l172 -219q-112 -119 -237.5 -176t-281.5 -57q-222 0 -354.5 109.5t-132.5 291.5q0 118 56 208.5t167 170.5q63 42 89 85.5t26 115.5v65h299v-92z
M381 940q0 81 53.5 130.5t136.5 49.5q81 0 136 -50t55 -130t-55 -130t-136 -50q-83 0 -136.5 49.5t-53.5 130.5z" />
    <glyph glyph-name="Agrave" unicode="&#xc0;" horiz-adv-x="1536" 
d="M27 0l555 1434h376l549 -1434h-362l-90 250h-570l-90 -250h-368zM436 1860h344l129 -277h-264zM561 504h418l-207 571z" />
    <glyph glyph-name="Aacute" unicode="&#xc1;" horiz-adv-x="1536" 
d="M27 0l555 1434h376l549 -1434h-362l-90 250h-570l-90 -250h-368zM561 504h418l-207 571zM631 1583l129 277h344l-207 -277h-266z" />
    <glyph glyph-name="Acircumflex" unicode="&#xc2;" horiz-adv-x="1536" 
d="M27 0l555 1434h376l549 -1434h-362l-90 250h-570l-90 -250h-368zM395 1583l244 277h264l242 -277h-285l-90 113l-90 -113h-285zM561 504h418l-207 571z" />
    <glyph glyph-name="Atilde" unicode="&#xc3;" horiz-adv-x="1536" 
d="M27 0l555 1434h376l549 -1434h-362l-90 250h-570l-90 -250h-368zM406 1671q83 197 227 197q48 0 93 -23t85 -46t76 -23q57 0 104 82l148 -103q-42 -97 -101 -145.5t-127 -48.5q-49 0 -94.5 23t-85.5 46t-76 23q-57 0 -104 -82zM561 504h418l-207 571z" />
    <glyph glyph-name="Adieresis" unicode="&#xc4;" horiz-adv-x="1536" 
d="M27 0l555 1434h376l549 -1434h-362l-90 250h-570l-90 -250h-368zM381 1724q0 75 47.5 122.5t122.5 47.5t122.5 -47.5t47.5 -122.5q0 -74 -47.5 -121t-122.5 -47t-122.5 47t-47.5 121zM561 504h418l-207 571zM819 1724q0 75 48.5 122.5t123.5 47.5t122.5 -47.5
t47.5 -122.5q0 -74 -47.5 -121t-122.5 -47t-123.5 47.5t-48.5 120.5z" />
    <glyph glyph-name="Aring" unicode="&#xc5;" horiz-adv-x="1536" 
d="M27 0l555 1434h376l549 -1434h-362l-90 250h-570l-90 -250h-368zM492 1776q0 112 79 185t199 73q122 0 201.5 -73t79.5 -185t-79.5 -185t-201.5 -73q-120 0 -199 73t-79 185zM561 504h418l-207 571zM680 1776q0 -40 25.5 -66.5t64.5 -26.5q40 0 66 26.5t26 66.5t-26 66
t-66 26t-65 -26t-25 -66z" />
    <glyph glyph-name="AE" unicode="&#xc6;" horiz-adv-x="2029" 
d="M20 0l857 1434h1046v-277h-565v-293h512v-270h-512v-313h590v-281h-920v260h-455l-147 -260h-406zM702 506h326v584z" />
    <glyph glyph-name="Ccedilla" unicode="&#xc7;" horiz-adv-x="1476" 
d="M823 -498q-135 0 -258 72l86 158q71 -43 148 -43q88 0 88 55q0 38 -51 46.5t-105 -5.5l-47 45l39 147q-294 31 -470.5 235.5t-176.5 504.5q0 156 52.5 292.5t146 236t231.5 157t301 57.5q355 0 606 -284l-215 -226q-72 91 -167 140t-202 49q-176 0 -284.5 -117.5
t-108.5 -304.5q0 -188 109.5 -305t290.5 -117q236 0 393 199l215 -226q-197 -250 -526 -288l-13 -54q93 -6 151 -62t58 -143q0 -100 -78.5 -159.5t-212.5 -59.5z" />
    <glyph glyph-name="Egrave" unicode="&#xc8;" horiz-adv-x="1226" 
d="M145 0v1434h975v-281h-631v-291h578v-276h-578v-301h656v-285h-1000zM309 1860h344l129 -277h-264z" />
    <glyph glyph-name="Eacute" unicode="&#xc9;" horiz-adv-x="1226" 
d="M145 0v1434h975v-281h-631v-291h578v-276h-578v-301h656v-285h-1000zM502 1583l129 277h344l-207 -277h-266z" />
    <glyph glyph-name="Ecircumflex" unicode="&#xca;" horiz-adv-x="1226" 
d="M145 0v1434h975v-281h-631v-291h578v-276h-578v-301h656v-285h-1000zM266 1583l244 277h264l244 -277h-287l-90 113l-88 -113h-287z" />
    <glyph glyph-name="Edieresis" unicode="&#xcb;" horiz-adv-x="1226" 
d="M145 0v1434h975v-281h-631v-291h578v-276h-578v-301h656v-285h-1000zM252 1724q0 75 47.5 122.5t122.5 47.5t122.5 -47.5t47.5 -122.5q0 -74 -47.5 -121t-122.5 -47t-122.5 47t-47.5 121zM692 1724q0 75 47.5 122.5t122.5 47.5t122.5 -47.5t47.5 -122.5q0 -74 -47.5 -121
t-122.5 -47t-122.5 47t-47.5 121z" />
    <glyph glyph-name="Igrave" unicode="&#xcc;" horiz-adv-x="643" 
d="M145 0v1434h353v-1434h-353zM-12 1860h344l129 -277h-264z" />
    <glyph glyph-name="Iacute" unicode="&#xcd;" horiz-adv-x="643" 
d="M145 0v1434h353v-1434h-353zM182 1583l129 277h342l-207 -277h-264z" />
    <glyph glyph-name="Icircumflex" unicode="&#xce;" horiz-adv-x="643" 
d="M145 0v1434h353v-1434h-353zM-53 1583l241 277h265l243 -277h-286l-88 113l-91 -113h-284z" />
    <glyph glyph-name="Idieresis" unicode="&#xcf;" horiz-adv-x="643" 
d="M145 0v1434h353v-1434h-353zM-70 1724q0 75 47.5 122.5t122.5 47.5t123.5 -47.5t48.5 -122.5q0 -73 -48.5 -120.5t-123.5 -47.5t-122.5 47t-47.5 121zM371 1724q0 75 47.5 122.5t122.5 47.5t122.5 -47.5t47.5 -122.5q0 -74 -47.5 -121t-122.5 -47t-122.5 47t-47.5 121z
" />
    <glyph glyph-name="Eth" unicode="&#xd0;" horiz-adv-x="1605" 
d="M35 590v268h178v576h575q335 0 537.5 -196t202.5 -521t-202.5 -521t-537.5 -196h-575v590h-178zM565 317h187q201 0 312.5 105t111.5 295t-111.5 294.5t-312.5 104.5h-187v-270h262v-244h-262v-285z" />
    <glyph glyph-name="Ntilde" unicode="&#xd1;" horiz-adv-x="1552" 
d="M145 0v1434h285l639 -848v848h338v-1434h-287l-637 846v-846h-338zM408 1671q83 197 227 197q48 0 93 -23t85 -46t76 -23q57 0 104 82l148 -103q-42 -97 -101 -145.5t-127 -48.5q-49 0 -94.5 23t-85.5 46t-76 23q-57 0 -104 -82z" />
    <glyph glyph-name="Ograve" unicode="&#xd2;" horiz-adv-x="1681" 
d="M840 -27q-163 0 -305 56t-242.5 154t-158.5 236.5t-58 297.5t58 297t158.5 236t242.5 154t305 56q219 0 393.5 -95.5t272.5 -265.5t98 -382t-97.5 -382t-272.5 -266t-394 -96zM436 717q0 -186 113.5 -304t290.5 -118q179 0 292 118t113 304t-113 304t-292 118
q-177 0 -290.5 -118t-113.5 -304zM508 1860h344l129 -277h-264z" />
    <glyph glyph-name="Oacute" unicode="&#xd3;" horiz-adv-x="1681" 
d="M840 -27q-163 0 -305 56t-242.5 154t-158.5 236.5t-58 297.5t58 297t158.5 236t242.5 154t305 56q219 0 393.5 -95.5t272.5 -265.5t98 -382t-97.5 -382t-272.5 -266t-394 -96zM436 717q0 -186 113.5 -304t290.5 -118q179 0 292 118t113 304t-113 304t-292 118
q-177 0 -290.5 -118t-113.5 -304zM700 1583l129 277h345l-207 -277h-267z" />
    <glyph glyph-name="Ocircumflex" unicode="&#xd4;" horiz-adv-x="1681" 
d="M840 -27q-163 0 -305 56t-242.5 154t-158.5 236.5t-58 297.5t58 297t158.5 236t242.5 154t305 56q219 0 393.5 -95.5t272.5 -265.5t98 -382t-97.5 -382t-272.5 -266t-394 -96zM436 717q0 -186 113.5 -304t290.5 -118q179 0 292 118t113 304t-113 304t-292 118
q-177 0 -290.5 -118t-113.5 -304zM465 1583l244 277h264l244 -277h-287l-90 113l-90 -113h-285z" />
    <glyph glyph-name="Otilde" unicode="&#xd5;" horiz-adv-x="1681" 
d="M840 -27q-163 0 -305 56t-242.5 154t-158.5 236.5t-58 297.5t58 297t158.5 236t242.5 154t305 56q219 0 393.5 -95.5t272.5 -265.5t98 -382t-97.5 -382t-272.5 -266t-394 -96zM436 717q0 -186 113.5 -304t290.5 -118q179 0 292 118t113 304t-113 304t-292 118
q-177 0 -290.5 -118t-113.5 -304zM475 1671q42 99 100.5 148t126.5 49q48 0 93 -23t85 -46t76 -23q60 0 105 82l147 -103q-42 -97 -100.5 -145.5t-126.5 -48.5q-49 0 -94 23t-85 46t-77 23q-57 0 -104 -82z" />
    <glyph glyph-name="Odieresis" unicode="&#xd6;" horiz-adv-x="1681" 
d="M840 -27q-163 0 -305 56t-242.5 154t-158.5 236.5t-58 297.5t58 297t158.5 236t242.5 154t305 56q219 0 393.5 -95.5t272.5 -265.5t98 -382t-97.5 -382t-272.5 -266t-394 -96zM436 717q0 -186 113.5 -304t290.5 -118q179 0 292 118t113 304t-113 304t-292 118
q-177 0 -290.5 -118t-113.5 -304zM451 1724q0 75 47.5 122.5t122.5 47.5t122.5 -47.5t47.5 -122.5q0 -74 -47.5 -121t-122.5 -47t-122.5 47t-47.5 121zM891 1724q0 75 47.5 122.5t122.5 47.5t122.5 -47.5t47.5 -122.5q0 -74 -47.5 -121t-122.5 -47t-122.5 47t-47.5 121z" />
    <glyph glyph-name="multiply" unicode="&#xd7;" horiz-adv-x="1030" 
d="M741 193l-225 227l-227 -227l-201 202l225 226l-225 225l201 203l227 -226l225 226l201 -203l-225 -225l225 -226z" />
    <glyph glyph-name="Oslash" unicode="&#xd8;" horiz-adv-x="1681" 
d="M840 -27q-131 0 -256 39l-131 -229l-228 131l127 219q-131 99 -203.5 251t-72.5 333q0 159 58 297t158.5 236t242.5 154t305 56q134 0 256 -39l133 230l227 -131l-127 -220q131 -101 203 -251.5t72 -331.5q0 -158 -57.5 -296.5t-157.5 -236.5t-242.5 -154.5t-306.5 -56.5
zM426 717q0 -183 109 -305l415 725q-49 14 -110 14q-181 0 -297.5 -121.5t-116.5 -312.5zM727 297q49 -14 113 -14q179 0 297 122t118 312q0 186 -110 305z" />
    <glyph glyph-name="Ugrave" unicode="&#xd9;" horiz-adv-x="1495" 
d="M748 -25q-287 0 -451 156.5t-164 433.5v869h352v-840q0 -146 67 -221.5t196 -75.5q128 0 195 75.5t67 221.5v840h352v-869q0 -277 -164 -433.5t-450 -156.5zM414 1860h344l129 -277h-264z" />
    <glyph glyph-name="Uacute" unicode="&#xda;" horiz-adv-x="1495" 
d="M748 -25q-287 0 -451 156.5t-164 433.5v869h352v-840q0 -146 67 -221.5t196 -75.5q128 0 195 75.5t67 221.5v840h352v-869q0 -277 -164 -433.5t-450 -156.5zM608 1583l129 277h342l-207 -277h-264z" />
    <glyph glyph-name="Ucircumflex" unicode="&#xdb;" horiz-adv-x="1495" 
d="M748 -25q-287 0 -451 156.5t-164 433.5v869h352v-840q0 -146 67 -221.5t196 -75.5q128 0 195 75.5t67 221.5v840h352v-869q0 -277 -164 -433.5t-450 -156.5zM373 1583l241 277h265l243 -277h-286l-88 113l-91 -113h-284z" />
    <glyph glyph-name="Udieresis" unicode="&#xdc;" horiz-adv-x="1495" 
d="M748 -25q-287 0 -451 156.5t-164 433.5v869h352v-840q0 -146 67 -221.5t196 -75.5q128 0 195 75.5t67 221.5v840h352v-869q0 -277 -164 -433.5t-450 -156.5zM356 1724q0 75 47.5 122.5t122.5 47.5t123.5 -47.5t48.5 -122.5q0 -73 -48.5 -120.5t-123.5 -47.5t-122.5 47
t-47.5 121zM797 1724q0 75 47.5 122.5t122.5 47.5t122.5 -47.5t47.5 -122.5q0 -74 -47.5 -121t-122.5 -47t-122.5 47t-47.5 121z" />
    <glyph glyph-name="Yacute" unicode="&#xdd;" horiz-adv-x="1429" 
d="M539 0v530l-516 904h401l162 -297l131 -256l137 256l164 297h389l-516 -904v-530h-352zM582 1583l129 277h344l-207 -277h-266z" />
    <glyph glyph-name="Thorn" unicode="&#xde;" horiz-adv-x="1294" 
d="M145 0v1434h353v-199h229q244 0 385 -141.5t141 -372.5q0 -232 -140.5 -372t-385.5 -140h-229v-209h-353zM492 502h186q116 0 178 58t62 161t-62 161t-178 58h-186v-438z" />
    <glyph glyph-name="germandbls" unicode="&#xdf;" horiz-adv-x="1402" 
d="M909 -25q-175 0 -323 93l108 229q80 -45 170 -45q62 0 101 32t39 83t-30.5 95t-105.5 101q-93 70 -130.5 123t-37.5 121q0 48 15 86.5t53 87.5q57 75 57 141q0 60 -43.5 96.5t-117.5 36.5q-98 0 -150.5 -61t-52.5 -172v-1022h-330v1016q0 254 141 390t400 136
q220 0 354.5 -100t134.5 -264q0 -68 -20 -121.5t-64 -112.5q-51 -63 -51 -110q0 -36 27.5 -70t89.5 -82q192 -144 192 -338q0 -167 -113.5 -268t-312.5 -101z" />
    <glyph glyph-name="agrave" unicode="&#xe0;" horiz-adv-x="1204" 
d="M430 -14q-164 0 -263 90.5t-99 238.5q0 166 123.5 260.5t338.5 94.5q125 0 248 -33v27q0 85 -54 123t-173 38q-143 0 -332 -80l-80 232q122 56 226 79t231 23q234 0 361.5 -110.5t127.5 -311.5v-657h-288l-6 129q-66 -66 -161.5 -104.5t-199.5 -38.5zM276 1516h336
l131 -299h-256zM389 332q0 -55 36.5 -85t106.5 -30q103 0 172.5 58t77.5 147q-119 35 -209 35q-184 0 -184 -125z" />
    <glyph glyph-name="aacute" unicode="&#xe1;" horiz-adv-x="1204" 
d="M430 -14q-164 0 -263 90.5t-99 238.5q0 166 123.5 260.5t338.5 94.5q125 0 248 -33v27q0 85 -54 123t-173 38q-143 0 -332 -80l-80 232q122 56 226 79t231 23q234 0 361.5 -110.5t127.5 -311.5v-657h-288l-6 129q-66 -66 -161.5 -104.5t-199.5 -38.5zM389 332
q0 -55 36.5 -85t106.5 -30q103 0 172.5 58t77.5 147q-119 35 -209 35q-184 0 -184 -125zM446 1217l134 299h333l-211 -299h-256z" />
    <glyph glyph-name="acircumflex" unicode="&#xe2;" horiz-adv-x="1204" 
d="M430 -14q-164 0 -263 90.5t-99 238.5q0 166 123.5 260.5t338.5 94.5q125 0 248 -33v27q0 85 -54 123t-173 38q-143 0 -332 -80l-80 232q122 56 226 79t231 23q234 0 361.5 -110.5t127.5 -311.5v-657h-288l-6 129q-66 -66 -161.5 -104.5t-199.5 -38.5zM219 1217l248 299
h256l248 -299h-287l-90 124l-90 -124h-285zM389 332q0 -55 36.5 -85t106.5 -30q103 0 172.5 58t77.5 147q-119 35 -209 35q-184 0 -184 -125z" />
    <glyph glyph-name="atilde" unicode="&#xe3;" horiz-adv-x="1204" 
d="M430 -14q-164 0 -263 90.5t-99 238.5q0 166 123.5 260.5t338.5 94.5q125 0 248 -33v27q0 85 -54 123t-173 38q-143 0 -332 -80l-80 232q122 56 226 79t231 23q234 0 361.5 -110.5t127.5 -311.5v-657h-288l-6 129q-66 -66 -161.5 -104.5t-199.5 -38.5zM238 1296
q79 197 221 197q31 0 60 -11t81 -40q68 -41 107 -41q56 0 102 82l141 -99q-78 -194 -221 -194q-30 0 -60 11.5t-81 39.5q-68 41 -107 41q-31 0 -54 -19t-48 -63zM389 332q0 -55 36.5 -85t106.5 -30q103 0 172.5 58t77.5 147q-119 35 -209 35q-184 0 -184 -125z" />
    <glyph glyph-name="adieresis" unicode="&#xe4;" horiz-adv-x="1204" 
d="M430 -14q-164 0 -263 90.5t-99 238.5q0 166 123.5 260.5t338.5 94.5q125 0 248 -33v27q0 85 -54 123t-173 38q-143 0 -332 -80l-80 232q122 56 226 79t231 23q234 0 361.5 -110.5t127.5 -311.5v-657h-288l-6 129q-66 -66 -161.5 -104.5t-199.5 -38.5zM211 1346
q0 72 47 117.5t121 45.5t121 -45.5t47 -117.5q0 -73 -47 -119.5t-121 -46.5t-121 46.5t-47 119.5zM389 332q0 -55 36.5 -85t106.5 -30q103 0 172.5 58t77.5 147q-119 35 -209 35q-184 0 -184 -125zM643 1346q0 72 47 117.5t121 45.5q73 0 120.5 -45.5t47.5 -117.5
q0 -73 -47.5 -119.5t-120.5 -46.5q-74 0 -121 46.5t-47 119.5z" />
    <glyph glyph-name="aring" unicode="&#xe5;" horiz-adv-x="1204" 
d="M430 -14q-164 0 -263 90.5t-99 238.5q0 166 123.5 260.5t338.5 94.5q125 0 248 -33v27q0 85 -54 123t-173 38q-143 0 -332 -80l-80 232q122 56 226 79t231 23q234 0 361.5 -110.5t127.5 -311.5v-657h-288l-6 129q-66 -66 -161.5 -104.5t-199.5 -38.5zM315 1432
q0 113 79 186.5t200 73.5q122 0 201 -73t79 -187q0 -112 -79 -185t-201 -73q-120 0 -199.5 73t-79.5 185zM389 332q0 -55 36.5 -85t106.5 -30q103 0 172.5 58t77.5 147q-119 35 -209 35q-184 0 -184 -125zM504 1432q0 -39 25.5 -65t64.5 -26q41 0 66.5 26t25.5 65
q0 40 -25.5 66t-66.5 26q-40 0 -65 -26t-25 -66z" />
    <glyph glyph-name="ae" unicode="&#xe6;" horiz-adv-x="1921" 
d="M1378 -27q-146 0 -260.5 51t-187.5 146q-157 -197 -457 -197q-192 0 -298.5 93.5t-106.5 248.5q0 166 123 260.5t337 94.5q123 0 246 -33v27q0 89 -55.5 127t-169.5 38q-145 0 -330 -84l-82 234q118 56 218.5 80t219.5 24q255 0 379 -161q145 161 385 161
q104 0 194.5 -33.5t155.5 -94t110 -145t57 -186t-3 -216.5h-772q26 -85 101.5 -133t181.5 -48q176 0 319 107l127 -211q-177 -150 -432 -150zM389 330q0 -54 36 -83.5t105 -29.5q104 0 174.5 58.5t75.5 146.5q-122 35 -209 35q-182 0 -182 -127zM1075 621h481
q-21 95 -83 150.5t-154 55.5q-93 0 -158.5 -55t-85.5 -151z" />
    <glyph glyph-name="ccedilla" unicode="&#xe7;" horiz-adv-x="1136" 
d="M627 -498q-134 0 -254 72l84 156q71 -43 145 -43q86 0 86 55q0 39 -49 48t-102 -5l-48 45l39 152q-206 32 -332 181t-126 365q0 245 158 400t407 155q136 0 252 -47.5t194 -136.5l-182 -207q-49 49 -114 77t-130 28q-114 0 -185 -75t-71 -194q0 -120 70.5 -194t187.5 -74
q75 0 143.5 33t112.5 92l193 -197q-149 -183 -387 -211l-12 -53q91 -5 148.5 -60.5t57.5 -142.5q0 -100 -77 -159.5t-209 -59.5z" />
    <glyph glyph-name="egrave" unicode="&#xe8;" horiz-adv-x="1249" 
d="M666 -27q-270 0 -433 152t-163 401q0 246 156.5 401.5t406.5 155.5q184 0 320.5 -89t196.5 -243.5t30 -342.5h-789q25 -84 104 -132.5t195 -48.5q175 0 318 105l129 -209q-190 -150 -471 -150zM315 1516h336l131 -299h-256zM387 621h496q-21 95 -85.5 150.5t-162.5 55.5
q-95 0 -162 -55.5t-86 -150.5z" />
    <glyph glyph-name="eacute" unicode="&#xe9;" horiz-adv-x="1249" 
d="M666 -27q-270 0 -433 152t-163 401q0 246 156.5 401.5t406.5 155.5q184 0 320.5 -89t196.5 -243.5t30 -342.5h-789q25 -84 104 -132.5t195 -48.5q175 0 318 105l129 -209q-190 -150 -471 -150zM387 621h496q-21 95 -85.5 150.5t-162.5 55.5q-95 0 -162 -55.5t-86 -150.5z
M487 1217l131 299h336l-213 -299h-254z" />
    <glyph glyph-name="ecircumflex" unicode="&#xea;" horiz-adv-x="1249" 
d="M666 -27q-270 0 -433 152t-163 401q0 246 156.5 401.5t406.5 155.5q184 0 320.5 -89t196.5 -243.5t30 -342.5h-789q25 -84 104 -132.5t195 -48.5q175 0 318 105l129 -209q-190 -150 -471 -150zM260 1217l246 299h256l248 -299h-287l-88 124l-90 -124h-285zM387 621h496
q-21 95 -85.5 150.5t-162.5 55.5q-95 0 -162 -55.5t-86 -150.5z" />
    <glyph glyph-name="edieresis" unicode="&#xeb;" horiz-adv-x="1249" 
d="M666 -27q-270 0 -433 152t-163 401q0 246 156.5 401.5t406.5 155.5q184 0 320.5 -89t196.5 -243.5t30 -342.5h-789q25 -84 104 -132.5t195 -48.5q175 0 318 105l129 -209q-190 -150 -471 -150zM252 1346q0 72 47 117.5t119 45.5q74 0 121 -45.5t47 -117.5
q0 -73 -47 -119.5t-121 -46.5q-72 0 -119 46.5t-47 119.5zM387 621h496q-21 95 -85.5 150.5t-162.5 55.5q-95 0 -162 -55.5t-86 -150.5zM682 1346q0 72 47.5 117.5t120.5 45.5q74 0 121 -45.5t47 -117.5q0 -73 -47 -119.5t-121 -46.5q-73 0 -120.5 46.5t-47.5 119.5z" />
    <glyph glyph-name="igrave" unicode="&#xec;" horiz-adv-x="595" 
d="M131 0v1057h334v-1057h-334zM8 1516h326l106 -299h-258z" />
    <glyph glyph-name="iacute" unicode="&#xed;" horiz-adv-x="595" 
d="M131 0v1057h334v-1057h-334zM156 1217l106 299h328l-174 -299h-260z" />
    <glyph glyph-name="icircumflex" unicode="&#xee;" horiz-adv-x="595" 
d="M131 0v1057h334v-1057h-334zM-45 1217l213 299h262l211 -299h-270l-72 118l-74 -118h-270z" />
    <glyph glyph-name="idieresis" unicode="&#xef;" horiz-adv-x="595" 
d="M131 0v1057h334v-1057h-334zM-66 1346q0 70 45.5 116.5t114.5 46.5t115.5 -46.5t46.5 -116.5q0 -72 -46.5 -119t-115.5 -47t-114.5 47t-45.5 119zM344 1346q0 70 45.5 116.5t114.5 46.5t115.5 -46.5t46.5 -116.5q0 -72 -46.5 -119t-115.5 -47t-114.5 47t-45.5 119z" />
    <glyph glyph-name="eth" unicode="&#xf0;" horiz-adv-x="1314" 
d="M657 -27q-263 0 -425 149t-162 390q0 239 147 389t381 150q111 0 211 -41q-105 130 -227 219l-226 -160l-116 158l161 116q-44 25 -149 74l139 242q142 -66 256 -141l193 137l116 -160l-143 -100q211 -175 321.5 -385t110.5 -437q0 -277 -158.5 -438.5t-429.5 -161.5z
M399 522q0 -117 72 -189.5t186 -72.5q115 0 186.5 72.5t71.5 189.5t-71.5 189.5t-186.5 72.5q-114 0 -186 -72.5t-72 -189.5z" />
    <glyph glyph-name="ntilde" unicode="&#xf1;" horiz-adv-x="1302" 
d="M131 0v1057h305l4 -146q140 162 348 162q181 0 287.5 -115t106.5 -299v-659h-334v569q0 209 -176 209q-97 0 -152 -61t-55 -166v-551h-334zM319 1296q38 96 95 146.5t127 50.5q31 0 60 -11t81 -40q68 -41 106 -41q57 0 103 82l141 -99q-78 -194 -221 -194q-30 0 -60 11.5
t-81 39.5q-68 41 -107 41q-31 0 -54 -19t-48 -63z" />
    <glyph glyph-name="ograve" unicode="&#xf2;" horiz-adv-x="1316" 
d="M659 -27q-264 0 -426.5 153t-162.5 402t162.5 402t426.5 153q263 0 425.5 -153t162.5 -402t-162.5 -402t-425.5 -153zM340 1516h336l131 -299h-256zM399 528q0 -121 72 -194.5t188 -73.5q115 0 187 73.5t72 194.5q0 120 -72.5 194.5t-186.5 74.5q-116 0 -188 -74.5
t-72 -194.5z" />
    <glyph glyph-name="oacute" unicode="&#xf3;" horiz-adv-x="1316" 
d="M659 -27q-264 0 -426.5 153t-162.5 402t162.5 402t426.5 153q263 0 425.5 -153t162.5 -402t-162.5 -402t-425.5 -153zM399 528q0 -121 72 -194.5t188 -73.5q115 0 187 73.5t72 194.5q0 120 -72.5 194.5t-186.5 74.5q-116 0 -188 -74.5t-72 -194.5zM512 1217l131 299h336
l-213 -299h-254z" />
    <glyph glyph-name="ocircumflex" unicode="&#xf4;" horiz-adv-x="1316" 
d="M659 -27q-264 0 -426.5 153t-162.5 402t162.5 402t426.5 153q263 0 425.5 -153t162.5 -402t-162.5 -402t-425.5 -153zM283 1217l247 299h256l248 -299h-286l-89 126l-90 -126h-286zM399 528q0 -121 72 -194.5t188 -73.5q115 0 187 73.5t72 194.5q0 120 -72.5 194.5
t-186.5 74.5q-116 0 -188 -74.5t-72 -194.5z" />
    <glyph glyph-name="otilde" unicode="&#xf5;" horiz-adv-x="1316" 
d="M659 -27q-264 0 -426.5 153t-162.5 402t162.5 402t426.5 153q263 0 425.5 -153t162.5 -402t-162.5 -402t-425.5 -153zM303 1296q37 96 93 146.5t126 50.5q31 0 60.5 -11t81.5 -40q68 -41 106 -41q31 0 54 19t48 63l142 -99q-78 -194 -219 -194q-52 0 -144 51
q-42 25 -62.5 33t-43.5 8q-57 0 -103 -82zM399 528q0 -121 72 -194.5t188 -73.5q115 0 187 73.5t72 194.5q0 120 -72.5 194.5t-186.5 74.5q-116 0 -188 -74.5t-72 -194.5z" />
    <glyph glyph-name="odieresis" unicode="&#xf6;" horiz-adv-x="1316" 
d="M659 -27q-264 0 -426.5 153t-162.5 402t162.5 402t426.5 153q263 0 425.5 -153t162.5 -402t-162.5 -402t-425.5 -153zM276 1346q0 72 47 117.5t119 45.5q74 0 121 -45.5t47 -117.5q0 -73 -47 -119.5t-121 -46.5q-72 0 -119 46.5t-47 119.5zM399 528q0 -121 72 -194.5
t188 -73.5q115 0 187 73.5t72 194.5q0 120 -72.5 194.5t-186.5 74.5q-116 0 -188 -74.5t-72 -194.5zM707 1346q0 72 47.5 117.5t119.5 45.5q74 0 121 -45.5t47 -117.5q0 -73 -47 -119.5t-121 -46.5q-72 0 -119.5 46.5t-47.5 119.5z" />
    <glyph glyph-name="divide" unicode="&#xf7;" horiz-adv-x="1056" 
d="M90 492v262h877v-262h-877zM346 246q0 76 51.5 123t130.5 47q78 0 129.5 -47.5t51.5 -122.5q0 -74 -51.5 -121t-129.5 -47q-79 0 -130.5 47t-51.5 121zM346 997q0 76 51.5 123t130.5 47q78 0 129.5 -47.5t51.5 -122.5t-51.5 -121.5t-129.5 -46.5q-79 0 -130.5 46.5
t-51.5 121.5z" />
    <glyph glyph-name="oslash" unicode="&#xf8;" horiz-adv-x="1316" 
d="M348 -168l-186 111l100 157q-92 74 -142 184.5t-50 243.5q0 249 162.5 402t426.5 153q107 0 205 -28l107 168l184 -111l-100 -156q92 -74 142 -184.5t50 -243.5q0 -249 -162.5 -402t-425.5 -153q-103 0 -204 29zM391 528q0 -101 49 -172l279 445q-27 6 -60 6
q-120 0 -194 -77t-74 -202zM598 256q30 -6 61 -6q119 0 194 77t75 201q0 105 -54 174z" />
    <glyph glyph-name="ugrave" unicode="&#xf9;" horiz-adv-x="1294" 
d="M1167 1057v-1057h-305l-4 143q-137 -159 -348 -159q-181 0 -287 114.5t-106 298.5v660h334v-572q0 -206 176 -206q97 0 152 61t55 166v551h333zM324 1516h335l132 -299h-256z" />
    <glyph glyph-name="uacute" unicode="&#xfa;" horiz-adv-x="1294" 
d="M1167 1057v-1057h-305l-4 143q-137 -159 -348 -159q-181 0 -287 114.5t-106 298.5v660h334v-572q0 -206 176 -206q97 0 152 61t55 166v551h333zM496 1217l131 299h336l-213 -299h-254z" />
    <glyph glyph-name="ucircumflex" unicode="&#xfb;" horiz-adv-x="1294" 
d="M1167 1057v-1057h-305l-4 143q-137 -159 -348 -159q-181 0 -287 114.5t-106 298.5v660h334v-572q0 -206 176 -206q97 0 152 61t55 166v551h333zM268 1217l246 299h256l248 -299h-287l-88 126l-90 -126h-285z" />
    <glyph glyph-name="udieresis" unicode="&#xfc;" horiz-adv-x="1294" 
d="M1167 1057v-1057h-305l-4 143q-137 -159 -348 -159q-181 0 -287 114.5t-106 298.5v660h334v-572q0 -206 176 -206q97 0 152 61t55 166v551h333zM260 1346q0 72 47 117.5t119 45.5q74 0 121 -45.5t47 -117.5q0 -73 -47 -119.5t-121 -46.5q-72 0 -119 46.5t-47 119.5z
M690 1346q0 72 47.5 117.5t120.5 45.5q74 0 121 -45.5t47 -117.5q0 -73 -47 -119.5t-121 -46.5q-73 0 -120.5 46.5t-47.5 119.5z" />
    <glyph glyph-name="yacute" unicode="&#xfd;" horiz-adv-x="1228" 
d="M324 -481q-110 0 -213 35l61 276q67 -18 117 -18q72 0 120 32.5t78 106.5l-462 1106h362l172 -471l76 -224l63 224l152 471h354l-444 -1229q-114 -309 -436 -309zM477 1217l133 299h334l-211 -299h-256z" />
    <glyph glyph-name="thorn" unicode="&#xfe;" horiz-adv-x="1374" 
d="M809 -25q-209 0 -344 148v-594h-334v1987h334v-584q137 147 344 147q218 0 357 -154t139 -397t-139 -398t-357 -155zM459 528q0 -118 72.5 -193t185.5 -75q116 0 187 74t71 194q0 119 -71.5 194t-186.5 75q-114 0 -186 -75t-72 -194z" />
    <glyph glyph-name="ydieresis" unicode="&#xff;" horiz-adv-x="1228" 
d="M324 -481q-110 0 -213 35l61 276q67 -18 117 -18q72 0 120 32.5t78 106.5l-462 1106h362l172 -471l76 -224l63 224l152 471h354l-444 -1229q-114 -309 -436 -309zM242 1346q0 72 47 117.5t121 45.5q73 0 120.5 -45.5t47.5 -117.5q0 -73 -47.5 -119.5t-120.5 -46.5
q-74 0 -121 46.5t-47 119.5zM674 1346q0 72 47 117.5t121 45.5q72 0 119 -45.5t47 -117.5q0 -73 -47 -119.5t-119 -46.5q-74 0 -121 46.5t-47 119.5z" />
    <glyph glyph-name="Amacron" unicode="&#x100;" horiz-adv-x="1536" 
d="M27 0l555 1434h376l549 -1434h-362l-90 250h-570l-90 -250h-368zM451 1599v209h639v-209h-639zM561 504h418l-207 571z" />
    <glyph glyph-name="amacron" unicode="&#x101;" horiz-adv-x="1204" 
d="M430 -14q-164 0 -263 90.5t-99 238.5q0 166 123.5 260.5t338.5 94.5q125 0 248 -33v27q0 85 -54 123t-173 38q-143 0 -332 -80l-80 232q122 56 226 79t231 23q234 0 361.5 -110.5t127.5 -311.5v-657h-288l-6 129q-66 -66 -161.5 -104.5t-199.5 -38.5zM287 1221v204h616
v-204h-616zM389 332q0 -55 36.5 -85t106.5 -30q103 0 172.5 58t77.5 147q-119 35 -209 35q-184 0 -184 -125z" />
    <glyph glyph-name="Abreve" unicode="&#x102;" horiz-adv-x="1536" 
d="M27 0l555 1434h376l549 -1434h-362l-90 250h-570l-90 -250h-368zM440 1835l213 39q15 -113 117 -113q104 0 119 113l213 -39q-19 -132 -100 -198t-232 -66q-295 0 -330 264zM561 504h418l-207 571z" />
    <glyph glyph-name="abreve" unicode="&#x103;" horiz-adv-x="1204" 
d="M430 -14q-164 0 -263 90.5t-99 238.5q0 166 123.5 260.5t338.5 94.5q125 0 248 -33v27q0 85 -54 123t-173 38q-143 0 -332 -80l-80 232q122 56 226 79t231 23q234 0 361.5 -110.5t127.5 -311.5v-657h-288l-6 129q-66 -66 -161.5 -104.5t-199.5 -38.5zM264 1489l199 39
q18 -144 131 -144q115 0 133 144l199 -39q-34 -287 -332 -287q-296 0 -330 287zM389 332q0 -55 36.5 -85t106.5 -30q103 0 172.5 58t77.5 147q-119 35 -209 35q-184 0 -184 -125z" />
    <glyph glyph-name="Aogonek" unicode="&#x104;" horiz-adv-x="1536" 
d="M27 0l555 1434h376l549 -1434q-161 -93 -161 -195q0 -71 69 -71q41 0 90 33l92 -156q-109 -84 -241 -84q-120 0 -189 60.5t-69 164.5q0 139 137 248h-90l-90 250h-570l-90 -250h-368zM561 504h418l-207 571z" />
    <glyph glyph-name="aogonek" unicode="&#x105;" horiz-adv-x="1204" 
d="M430 -14q-164 0 -263 90.5t-99 238.5q0 166 123.5 260.5t338.5 94.5q125 0 248 -33v27q0 85 -54 123t-173 38q-143 0 -332 -80l-80 232q122 56 226 79t231 23q234 0 361.5 -110.5t127.5 -311.5v-657q-161 -96 -161 -199q0 -71 67 -71q42 0 88 30l90 -151
q-107 -82 -237 -82q-117 0 -184.5 59t-67.5 162q0 144 145 252h-28l-6 129q-66 -66 -161.5 -104.5t-199.5 -38.5zM389 332q0 -55 36.5 -85t106.5 -30q103 0 172.5 58t77.5 147q-119 35 -209 35q-184 0 -184 -125z" />
    <glyph glyph-name="Cacute" unicode="&#x106;" horiz-adv-x="1476" 
d="M813 -27q-219 0 -387.5 96.5t-259 265.5t-90.5 382q0 156 52.5 292.5t146 236t231.5 157t301 57.5q355 0 606 -284l-215 -226q-72 91 -167 140t-202 49q-176 0 -284.5 -117.5t-108.5 -304.5q0 -188 109.5 -305t290.5 -117q236 0 393 199l215 -226q-116 -149 -280 -222
t-351 -73zM666 1583l129 277h344l-209 -277h-264z" />
    <glyph glyph-name="cacute" unicode="&#x107;" horiz-adv-x="1136" 
d="M633 -27q-248 0 -405.5 155.5t-157.5 399.5q0 245 158 400t407 155q136 0 252 -47.5t194 -136.5l-182 -207q-49 49 -114 77t-130 28q-114 0 -185 -75t-71 -194q0 -120 70.5 -194t187.5 -74q75 0 143.5 33t112.5 92l193 -197q-173 -215 -473 -215zM483 1217l131 299h336
l-213 -299h-254z" />
    <glyph glyph-name="Ccircumflex" unicode="&#x108;" horiz-adv-x="1476" 
d="M813 -27q-219 0 -387.5 96.5t-259 265.5t-90.5 382q0 156 52.5 292.5t146 236t231.5 157t301 57.5q355 0 606 -284l-215 -226q-72 91 -167 140t-202 49q-176 0 -284.5 -117.5t-108.5 -304.5q0 -188 109.5 -305t290.5 -117q236 0 393 199l215 -226q-116 -149 -280 -222
t-351 -73zM430 1583l244 277h264l242 -277h-285l-90 113l-90 -113h-285z" />
    <glyph glyph-name="ccircumflex" unicode="&#x109;" horiz-adv-x="1136" 
d="M633 -27q-248 0 -405.5 155.5t-157.5 399.5q0 245 158 400t407 155q136 0 252 -47.5t194 -136.5l-182 -207q-49 49 -114 77t-130 28q-114 0 -185 -75t-71 -194q0 -120 70.5 -194t187.5 -74q75 0 143.5 33t112.5 92l193 -197q-173 -215 -473 -215zM256 1217l246 299h256
l248 -299h-287l-88 124l-90 -124h-285z" />
    <glyph glyph-name="Cdotaccent" unicode="&#x10a;" horiz-adv-x="1476" 
d="M813 -27q-219 0 -387.5 96.5t-259 265.5t-90.5 382q0 156 52.5 292.5t146 236t231.5 157t301 57.5q355 0 606 -284l-215 -226q-72 91 -167 140t-202 49q-176 0 -284.5 -117.5t-108.5 -304.5q0 -188 109.5 -305t290.5 -117q236 0 393 199l215 -226q-116 -149 -280 -222
t-351 -73zM616 1739q0 82 52 131t137 49t135.5 -49t50.5 -131q0 -83 -50.5 -133t-135.5 -50t-137 50t-52 133z" />
    <glyph glyph-name="cdotaccent" unicode="&#x10b;" horiz-adv-x="1136" 
d="M633 -27q-248 0 -405.5 155.5t-157.5 399.5q0 245 158 400t407 155q136 0 252 -47.5t194 -136.5l-182 -207q-49 49 -114 77t-130 28q-114 0 -185 -75t-71 -194q0 -120 70.5 -194t187.5 -74q75 0 143.5 33t112.5 92l193 -197q-173 -215 -473 -215zM438 1354q0 84 52.5 134
t140.5 50q87 0 138.5 -50t51.5 -134q0 -83 -52 -134t-138 -51q-88 0 -140.5 51t-52.5 134z" />
    <glyph glyph-name="Ccaron" unicode="&#x10c;" horiz-adv-x="1476" 
d="M813 -27q-219 0 -387.5 96.5t-259 265.5t-90.5 382q0 156 52.5 292.5t146 236t231.5 157t301 57.5q355 0 606 -284l-215 -226q-72 91 -167 140t-202 49q-176 0 -284.5 -117.5t-108.5 -304.5q0 -188 109.5 -305t290.5 -117q236 0 393 199l215 -226q-116 -149 -280 -222
t-351 -73zM430 1860h285l90 -113l90 113h285l-242 -277h-264z" />
    <glyph glyph-name="ccaron" unicode="&#x10d;" horiz-adv-x="1136" 
d="M633 -27q-248 0 -405.5 155.5t-157.5 399.5q0 245 158 400t407 155q136 0 252 -47.5t194 -136.5l-182 -207q-49 49 -114 77t-130 28q-114 0 -185 -75t-71 -194q0 -120 70.5 -194t187.5 -74q75 0 143.5 33t112.5 92l193 -197q-173 -215 -473 -215zM256 1516h285l90 -125
l90 125h285l-246 -299h-256z" />
    <glyph glyph-name="Dcaron" unicode="&#x10e;" horiz-adv-x="1536" 
d="M145 0v1434h574q336 0 537.5 -195.5t201.5 -521.5t-201.5 -521.5t-537.5 -195.5h-574zM330 1860h284l91 -113l90 113h284l-241 -277h-265zM498 319h184q201 0 311.5 104.5t110.5 293.5t-110.5 293t-311.5 104h-184v-795z" />
    <glyph glyph-name="dcaron" unicode="&#x10f;" horiz-adv-x="1495" 
d="M565 -25q-217 0 -356 154.5t-139 398.5t139 397.5t356 153.5q208 0 344 -145v582h334v-1516h-305l-4 141q-132 -166 -369 -166zM399 528q0 -120 72 -194t186 -74q113 0 185.5 74.5t72.5 193.5q0 120 -72 194.5t-186 74.5t-186 -74.5t-72 -194.5zM1329 1102l70 414h274
l-135 -414h-209z" />
    <glyph glyph-name="Dcroat" unicode="&#x110;" horiz-adv-x="1605" 
d="M35 590v268h178v576h575q335 0 537.5 -196t202.5 -521t-202.5 -521t-537.5 -196h-575v590h-178zM565 317h187q201 0 312.5 105t111.5 295t-111.5 294.5t-312.5 104.5h-187v-270h262v-244h-262v-285z" />
    <glyph glyph-name="dcroat" unicode="&#x111;" horiz-adv-x="1402" 
d="M567 -25q-219 0 -358 152.5t-139 392.5q0 239 139.5 391t357.5 152q205 0 342 -137v231h-288v197h288v162h334v-162h184v-201h-184v-1153h-305l-4 137q-65 -77 -159.5 -119.5t-207.5 -42.5zM401 520q0 -116 71 -189t185 -73t186 73t72 189t-72 189t-186 73t-185 -73
t-71 -189z" />
    <glyph glyph-name="Emacron" unicode="&#x112;" horiz-adv-x="1226" 
d="M145 0v1434h975v-281h-631v-291h578v-276h-578v-301h656v-285h-1000zM322 1599v209h641v-209h-641z" />
    <glyph glyph-name="emacron" unicode="&#x113;" horiz-adv-x="1249" 
d="M666 -27q-270 0 -433 152t-163 401q0 246 156.5 401.5t406.5 155.5q184 0 320.5 -89t196.5 -243.5t30 -342.5h-789q25 -84 104 -132.5t195 -48.5q175 0 318 105l129 -209q-190 -150 -471 -150zM326 1221v204h618v-204h-618zM387 621h496q-21 95 -85.5 150.5t-162.5 55.5
q-95 0 -162 -55.5t-86 -150.5z" />
    <glyph glyph-name="Ebreve" unicode="&#x114;" horiz-adv-x="1226" 
d="M145 0v1434h975v-281h-631v-291h578v-276h-578v-301h656v-285h-1000zM311 1835l213 39q15 -113 119 -113q102 0 117 113l213 -39q-35 -264 -330 -264q-151 0 -232 66t-100 198z" />
    <glyph glyph-name="ebreve" unicode="&#x115;" horiz-adv-x="1249" 
d="M666 -27q-270 0 -433 152t-163 401q0 246 156.5 401.5t406.5 155.5q184 0 320.5 -89t196.5 -243.5t30 -342.5h-789q25 -84 104 -132.5t195 -48.5q175 0 318 105l129 -209q-190 -150 -471 -150zM303 1489l199 39q18 -144 133 -144q58 0 90 35t41 109l199 -39
q-34 -287 -330 -287q-150 0 -231.5 71t-100.5 216zM387 621h496q-21 95 -85.5 150.5t-162.5 55.5q-95 0 -162 -55.5t-86 -150.5z" />
    <glyph glyph-name="Edotaccent" unicode="&#x116;" horiz-adv-x="1226" 
d="M145 0v1434h975v-281h-631v-291h578v-276h-578v-301h656v-285h-1000zM455 1739q0 82 50.5 131t135.5 49t135.5 -49t50.5 -131q0 -83 -50.5 -133t-135.5 -50t-135.5 50t-50.5 133z" />
    <glyph glyph-name="edotaccent" unicode="&#x117;" horiz-adv-x="1249" 
d="M666 -27q-270 0 -433 152t-163 401q0 246 156.5 401.5t406.5 155.5q184 0 320.5 -89t196.5 -243.5t30 -342.5h-789q25 -84 104 -132.5t195 -48.5q175 0 318 105l129 -209q-190 -150 -471 -150zM387 621h496q-21 95 -85.5 150.5t-162.5 55.5q-95 0 -162 -55.5t-86 -150.5z
M442 1354q0 84 52.5 134t140.5 50q87 0 138.5 -50t51.5 -134q0 -83 -52 -134t-138 -51q-88 0 -140.5 51t-52.5 134z" />
    <glyph glyph-name="Eogonek" unicode="&#x118;" horiz-adv-x="1226" 
d="M145 0v1434h975v-281h-631v-291h578v-276h-578v-301h656v-285q-162 -91 -162 -195q0 -34 18 -52.5t52 -18.5q41 0 90 33l90 -156q-109 -84 -240 -84q-121 0 -189.5 60t-68.5 165q0 138 135 248h-725z" />
    <glyph glyph-name="eogonek" unicode="&#x119;" horiz-adv-x="1263" 
d="M856 -463q-117 0 -185.5 60t-68.5 163q0 108 94 213h-24q-272 0 -436 151.5t-164 401.5q0 246 157.5 401.5t403.5 155.5q184 0 320.5 -89t197 -244t31.5 -342h-791q27 -84 105 -132.5t194 -48.5q175 0 320 105l129 -209q-101 -83 -174 -133q-121 -88 -121 -170
q0 -37 18.5 -58.5t50.5 -21.5q45 0 88 31l91 -154q-108 -80 -236 -80zM387 621h498q-20 95 -86.5 150.5t-161.5 55.5q-96 0 -163 -55.5t-87 -150.5z" />
    <glyph glyph-name="Ecaron" unicode="&#x11a;" horiz-adv-x="1226" 
d="M145 0v1434h975v-281h-631v-291h578v-276h-578v-301h656v-285h-1000zM266 1860h285l90 -113l90 113h285l-242 -277h-264z" />
    <glyph glyph-name="ecaron" unicode="&#x11b;" horiz-adv-x="1249" 
d="M666 -27q-270 0 -433 152t-163 401q0 246 156.5 401.5t406.5 155.5q184 0 320.5 -89t196.5 -243.5t30 -342.5h-789q25 -84 104 -132.5t195 -48.5q175 0 318 105l129 -209q-190 -150 -471 -150zM260 1516h285l90 -125l90 125h285l-246 -299h-256zM387 621h496
q-21 95 -85.5 150.5t-162.5 55.5q-95 0 -162 -55.5t-86 -150.5z" />
    <glyph glyph-name="Gcircumflex" unicode="&#x11c;" horiz-adv-x="1568" 
d="M848 -27q-228 0 -404 94.5t-272 263.5t-96 386q0 159 55.5 296.5t154 236t239.5 154.5t306 56q334 0 578 -221l-188 -231q-72 69 -170.5 106t-202.5 37q-188 0 -305 -121.5t-117 -312.5q0 -195 118.5 -314.5t319.5 -119.5q172 0 312 82v186h-404v268h701v-614
q-119 -113 -283 -172.5t-342 -59.5zM457 1583l243 277h265l243 -277h-286l-91 113l-88 -113h-286z" />
    <glyph glyph-name="gcircumflex" unicode="&#x11d;" horiz-adv-x="1316" 
d="M678 -692q-311 0 -473 90t-162 262q0 130 92 219q-67 67 -67 170q0 156 143 254q-94 117 -94 285q0 215 141.5 342t382.5 127h633v-254h-193q84 -96 84 -240q0 -197 -143 -315.5t-381 -118.5q-125 0 -225 35q-47 -27 -47 -72q0 -34 29.5 -52.5t100.5 -28.5t208 -15
q291 -11 428 -89t137 -235q0 -171 -157.5 -267.5t-436.5 -96.5zM281 1217l245 299h258l246 -299h-285l-90 124l-90 -124h-284zM326 -309q0 -66 81 -97.5t252 -31.5q306 0 306 94q0 43 -64 63t-217 23q-193 6 -322 33q-36 -39 -36 -84zM428 588q0 -92 59.5 -151.5
t151.5 -59.5q94 0 153.5 59.5t59.5 151.5q0 91 -60 150t-153 59q-92 0 -151.5 -59t-59.5 -150z" />
    <glyph glyph-name="Gbreve" unicode="&#x11e;" horiz-adv-x="1568" 
d="M848 -27q-228 0 -404 94.5t-272 263.5t-96 386q0 159 55.5 296.5t154 236t239.5 154.5t306 56q334 0 578 -221l-188 -231q-72 69 -170.5 106t-202.5 37q-188 0 -305 -121.5t-117 -312.5q0 -195 118.5 -314.5t319.5 -119.5q172 0 312 82v186h-404v268h701v-614
q-119 -113 -283 -172.5t-342 -59.5zM502 1835l213 39q15 -113 116 -113q104 0 119 113l213 -39q-19 -132 -100 -198t-232 -66q-294 0 -329 264z" />
    <glyph glyph-name="gbreve" unicode="&#x11f;" horiz-adv-x="1316" 
d="M678 -692q-311 0 -473 90t-162 262q0 130 92 219q-67 67 -67 170q0 156 143 254q-94 117 -94 285q0 215 141.5 342t382.5 127h633v-254h-193q84 -96 84 -240q0 -197 -143 -315.5t-381 -118.5q-125 0 -225 35q-47 -27 -47 -72q0 -34 29.5 -52.5t100.5 -28.5t208 -15
q291 -11 428 -89t137 -235q0 -171 -157.5 -267.5t-436.5 -96.5zM324 1489l200 39q9 -74 41 -109t90 -35t90 35t41 109l201 -39q-37 -287 -332 -287q-149 0 -230.5 71t-100.5 216zM326 -309q0 -66 81 -97.5t252 -31.5q306 0 306 94q0 43 -64 63t-217 23q-193 6 -322 33
q-36 -39 -36 -84zM428 588q0 -92 59.5 -151.5t151.5 -59.5q94 0 153.5 59.5t59.5 151.5q0 91 -60 150t-153 59q-92 0 -151.5 -59t-59.5 -150z" />
    <glyph glyph-name="Gdotaccent" unicode="&#x120;" horiz-adv-x="1568" 
d="M848 -27q-228 0 -404 94.5t-272 263.5t-96 386q0 159 55.5 296.5t154 236t239.5 154.5t306 56q334 0 578 -221l-188 -231q-72 69 -170.5 106t-202.5 37q-188 0 -305 -121.5t-117 -312.5q0 -195 118.5 -314.5t319.5 -119.5q172 0 312 82v186h-404v268h701v-614
q-119 -113 -283 -172.5t-342 -59.5zM645 1739q0 82 50.5 131t135.5 49t136 -49t51 -131q0 -83 -51 -133t-136 -50t-135.5 50t-50.5 133z" />
    <glyph glyph-name="gdotaccent" unicode="&#x121;" horiz-adv-x="1316" 
d="M678 -692q-311 0 -473 90t-162 262q0 130 92 219q-67 67 -67 170q0 156 143 254q-94 117 -94 285q0 215 141.5 342t382.5 127h633v-254h-193q84 -96 84 -240q0 -197 -143 -315.5t-381 -118.5q-125 0 -225 35q-47 -27 -47 -72q0 -34 29.5 -52.5t100.5 -28.5t208 -15
q291 -11 428 -89t137 -235q0 -171 -157.5 -267.5t-436.5 -96.5zM326 -309q0 -66 81 -97.5t252 -31.5q306 0 306 94q0 43 -64 63t-217 23q-193 6 -322 33q-36 -39 -36 -84zM428 588q0 -92 59.5 -151.5t151.5 -59.5q94 0 153.5 59.5t59.5 151.5q0 91 -60 150t-153 59
q-92 0 -151.5 -59t-59.5 -150zM463 1354q0 84 52.5 134t139.5 50t140 -50t53 -134q0 -83 -53.5 -134t-139.5 -51t-139 51t-53 134z" />
    <glyph glyph-name="uni0122" unicode="&#x122;" horiz-adv-x="1568" 
d="M848 -27q-228 0 -404 94.5t-272 263.5t-96 386q0 159 55.5 296.5t154 236t239.5 154.5t306 56q334 0 578 -221l-188 -231q-72 69 -170.5 106t-202.5 37q-188 0 -305 -121.5t-117 -312.5q0 -195 118.5 -314.5t319.5 -119.5q172 0 312 82v186h-404v268h701v-614
q-119 -113 -283 -172.5t-342 -59.5zM702 -250q0 66 40 110t112 44q79 0 124.5 -52t45.5 -133q0 -172 -180 -321l-92 78q68 78 86 139q-61 3 -98.5 42t-37.5 93z" />
    <glyph glyph-name="uni0123" unicode="&#x123;" horiz-adv-x="1316" 
d="M678 -692q-311 0 -473 90t-162 262q0 130 92 219q-67 67 -67 170q0 156 143 254q-94 117 -94 285q0 215 141.5 342t382.5 127h633v-254h-193q84 -96 84 -240q0 -197 -143 -315.5t-381 -118.5q-125 0 -225 35q-47 -27 -47 -72q0 -34 29.5 -52.5t100.5 -28.5t208 -15
q291 -11 428 -89t137 -235q0 -171 -157.5 -267.5t-436.5 -96.5zM326 -309q0 -66 81 -97.5t252 -31.5q306 0 306 94q0 43 -64 63t-217 23q-193 6 -322 33q-36 -39 -36 -84zM428 588q0 -92 59.5 -151.5t151.5 -59.5q94 0 153.5 59.5t59.5 151.5q0 91 -60 150t-153 59
q-92 0 -151.5 -59t-59.5 -150zM494 1348q0 172 182 321l92 -78q-66 -72 -88 -139q63 -3 100 -42t37 -93q0 -66 -40 -110t-111 -44q-81 0 -126.5 52t-45.5 133z" />
    <glyph glyph-name="Hcircumflex" unicode="&#x124;" horiz-adv-x="1525" 
d="M1028 0v567h-530v-567h-353v1434h353v-543h530v543h354v-1434h-354zM389 1583l242 277h264l244 -277h-287l-88 113l-90 -113h-285z" />
    <glyph glyph-name="hcircumflex" unicode="&#x125;" horiz-adv-x="1302" 
d="M131 0v1516h334v-588q133 145 330 145q176 0 281.5 -114t105.5 -297v-662h-334v571q0 207 -176 207q-98 0 -152.5 -60t-54.5 -165v-553h-334zM-76 1665l242 277h264l244 -277h-287l-88 113l-90 -113h-285z" />
    <glyph glyph-name="Hbar" unicode="&#x126;" horiz-adv-x="1609" 
d="M1069 0v573h-530v-573h-353v1024h-153v236h153v174h353v-174h530v174h354v-174h152v-236h-152v-1024h-354zM539 852h530v184h-530v-184z" />
    <glyph glyph-name="hbar" unicode="&#x127;" horiz-adv-x="1335" 
d="M164 0v1153h-184v201h184v162h334v-162h288v-197h-288v-239q133 145 327 145q177 0 283 -114.5t106 -297.5v-651h-333v563q0 205 -176 205q-98 0 -152.5 -60t-54.5 -165v-543h-334z" />
    <glyph glyph-name="Itilde" unicode="&#x128;" horiz-adv-x="643" 
d="M145 0v1434h353v-1434h-353zM-45 1671q42 99 100.5 148t126.5 49q49 0 94.5 -23t85.5 -46t76 -23q58 0 105 82l145 -103q-40 -97 -98.5 -145.5t-128.5 -48.5q-48 0 -93 23t-85 46t-76 23q-58 0 -105 -82z" />
    <glyph glyph-name="itilde" unicode="&#x129;" horiz-adv-x="595" 
d="M131 0v1057h334v-1057h-334zM-45 1288q38 97 92.5 146t120.5 49q44 0 86 -23t79 -46t70 -23q56 0 95 82l141 -97q-38 -98 -92.5 -147t-120.5 -49q-44 0 -85.5 23t-79 46t-71.5 23q-55 0 -94 -82z" />
    <glyph glyph-name="Imacron" unicode="&#x12a;" horiz-adv-x="643" 
d="M145 0v1434h353v-1434h-353zM14 1599v209h615v-209h-615z" />
    <glyph glyph-name="imacron" unicode="&#x12b;" horiz-adv-x="595" 
d="M131 0v1057h334v-1057h-334zM14 1221v204h568v-204h-568z" />
    <glyph glyph-name="Ibreve" unicode="&#x12c;" horiz-adv-x="643" 
d="M145 0v1434h353v-1434h-353zM-10 1835l213 39q15 -113 119 -113q101 0 116 113l213 -39q-35 -264 -329 -264q-151 0 -232 66t-100 198z" />
    <glyph glyph-name="ibreve" unicode="&#x12d;" horiz-adv-x="595" 
d="M131 0v1057h334v-1057h-334zM-16 1489l198 39q9 -74 37.5 -109t79.5 -35t79.5 35t37.5 109l198 -39q-17 -145 -95 -216t-220 -71t-220 71t-95 216z" />
    <glyph glyph-name="Iogonek" unicode="&#x12e;" horiz-adv-x="643" 
d="M145 0v1434h353v-1434q-162 -93 -162 -195q0 -34 18 -52.5t52 -18.5q41 0 90 33l90 -156q-109 -84 -240 -84q-120 0 -189 60.5t-69 164.5q0 139 137 248h-80z" />
    <glyph glyph-name="iogonek" unicode="&#x12f;" horiz-adv-x="595" 
d="M131 0v1057h334v-1057q-146 -94 -146 -199q0 -71 66 -71q39 0 82 30l88 -151q-104 -82 -229 -82q-115 0 -180.5 59t-65.5 162q0 142 135 252h-84zM94 1372q0 88 56 141.5t147 53.5q92 0 148.5 -53.5t56.5 -141.5t-56.5 -142t-148.5 -54q-91 0 -147 54t-56 142z" />
    <glyph glyph-name="Idotaccent" unicode="&#x130;" horiz-adv-x="643" 
d="M145 0v1434h353v-1434h-353zM133 1739q0 82 50.5 131t135.5 49t137 -49t52 -131q0 -83 -52 -133t-137 -50t-135.5 50t-50.5 133z" />
    <glyph glyph-name="dotlessi" unicode="&#x131;" horiz-adv-x="595" 
d="M131 0v1057h334v-1057h-334z" />
    <glyph glyph-name="IJ" unicode="&#x132;" horiz-adv-x="1658" 
d="M145 0v1434h353v-1434h-353zM651 66l121 276q98 -49 203 -49q103 0 151 66t48 204v871h352v-891q0 -568 -514 -568q-183 0 -361 91z" />
    <glyph glyph-name="ij" unicode="&#x133;" horiz-adv-x="1187" 
d="M131 0v1057h334v-1057h-334zM94 1372q0 88 56 141.5t147 53.5q92 0 148.5 -53.5t56.5 -141.5t-56.5 -142t-148.5 -54q-91 0 -147 54t-56 142zM438 -457l62 264q62 -16 108 -16q63 0 89 31.5t26 105.5v1129h334v-1172q0 -188 -99 -283.5t-292 -95.5q-121 0 -228 37z
M688 1372q0 88 55.5 141.5t147.5 53.5t147.5 -53.5t55.5 -141.5q0 -89 -55.5 -142.5t-147.5 -53.5t-147.5 53.5t-55.5 142.5z" />
    <glyph glyph-name="Jcircumflex" unicode="&#x134;" horiz-adv-x="1015" 
d="M369 -25q-183 0 -361 91l121 276q98 -49 203 -49q103 0 150.5 66t47.5 204v871h353v-891q0 -568 -514 -568zM332 1583l243 277h265l243 -277h-286l-90 113l-91 -113h-284z" />
    <glyph glyph-name="jcircumflex" unicode="&#x135;" horiz-adv-x="591" 
d="M70 -494q-121 0 -228 37l62 264q62 -16 108 -16q63 0 89 31.5t26 105.5v1129h334v-1172q0 -188 -99 -283.5t-292 -95.5zM-49 1217l213 299h262l211 -299h-270l-72 118l-74 -118h-270z" />
    <glyph glyph-name="uni0136" unicode="&#x136;" horiz-adv-x="1394" 
d="M961 0l-351 567h-112v-567h-353v1434h353v-553h112l338 553h410l-447 -703l463 -731h-413zM561 -250q0 66 40.5 110t111.5 44q81 0 126.5 -52t45.5 -133q0 -172 -183 -321l-92 78q66 72 88 139q-63 3 -100 42t-37 93z" />
    <glyph glyph-name="uni0137" unicode="&#x137;" horiz-adv-x="1212" 
d="M805 0l-248 403h-92v-403h-334v1516h334v-832h98l228 373h383l-332 -510l352 -547h-389zM469 -250q0 66 40.5 110t111.5 44q79 0 124.5 -52t45.5 -133q0 -171 -181 -321l-92 78q68 78 86 139q-61 3 -98 42t-37 93z" />
    <glyph glyph-name="kgreenlandic" unicode="&#x138;" horiz-adv-x="1212" 
d="M805 0l-248 403h-92v-403h-334v1057h334v-373h98l228 373h383l-332 -510l352 -547h-389z" />
    <glyph glyph-name="Lacute" unicode="&#x139;" horiz-adv-x="1161" 
d="M182 1583l129 277h342l-207 -277h-264zM145 0v1434h353v-1108h606v-326h-959z" />
    <glyph glyph-name="lacute" unicode="&#x13a;" horiz-adv-x="595" 
d="M131 0v1516h334v-1516h-334zM160 1665l129 277h342l-207 -277h-264z" />
    <glyph glyph-name="uni013B" unicode="&#x13b;" horiz-adv-x="1161" 
d="M532 -524q68 78 86 139q-63 3 -100 42t-37 93q0 66 41 110t113 44q79 0 124.5 -52t45.5 -133q0 -172 -180 -321zM145 0v1434h353v-1108h606v-326h-959z" />
    <glyph glyph-name="uni013C" unicode="&#x13c;" horiz-adv-x="595" 
d="M131 0v1516h334v-1516h-334zM139 -250q0 66 41 110t113 44q79 0 124.5 -52t45.5 -133q0 -172 -180 -321l-93 78q68 78 86 139q-63 3 -100 42t-37 93z" />
    <glyph glyph-name="Lcaron" unicode="&#x13d;" horiz-adv-x="1161" 
d="M727 1020l66 414h301l-131 -414h-236zM145 0v1434h353v-1108h606v-326h-959z" />
    <glyph glyph-name="lcaron" unicode="&#x13e;" horiz-adv-x="716" 
d="M131 0v1516h334v-1516h-334zM551 1102l70 414h274l-135 -414h-209z" />
    <glyph glyph-name="Ldot" unicode="&#x13f;" horiz-adv-x="1161" 
d="M877 641q-79 0 -132 49t-53 127t53 128t132 50t132.5 -50t53.5 -128t-53.5 -127t-132.5 -49zM145 0v1434h353v-1108h606v-326h-959z" />
    <glyph glyph-name="ldot" unicode="&#x140;" horiz-adv-x="1013" 
d="M131 0v1516h334v-1516h-334zM563 645q0 80 53.5 129t133.5 49q81 0 134.5 -49t53.5 -129q0 -79 -53.5 -128.5t-134.5 -49.5q-79 0 -133 50t-54 128z" />
    <glyph glyph-name="Lslash" unicode="&#x141;" horiz-adv-x="1226" 
d="M16 418v262l193 84v670h352v-516l352 153v-262l-352 -154v-329h608v-326h-960v502z" />
    <glyph glyph-name="lslash" unicode="&#x142;" horiz-adv-x="665" 
d="M170 0v547l-166 -70v285l166 69v685h334v-545l164 67v-282l-164 -70v-686h-334z" />
    <glyph glyph-name="Nacute" unicode="&#x143;" horiz-adv-x="1552" 
d="M145 0v1434h285l639 -848v848h338v-1434h-287l-637 846v-846h-338zM633 1583l129 277h344l-207 -277h-266z" />
    <glyph glyph-name="nacute" unicode="&#x144;" horiz-adv-x="1302" 
d="M131 0v1057h305l4 -146q140 162 348 162q181 0 287.5 -115t106.5 -299v-659h-334v569q0 209 -176 209q-97 0 -152 -61t-55 -166v-551h-334zM528 1217l134 299h333l-211 -299h-256z" />
    <glyph glyph-name="uni0145" unicode="&#x145;" horiz-adv-x="1552" 
d="M145 0v1434h285l639 -848v848h338v-1434h-287l-637 846v-846h-338zM635 -250q0 66 40 110t111 44q81 0 126.5 -52t45.5 -133q0 -172 -182 -321l-92 78q66 72 88 139q-63 3 -100 42t-37 93z" />
    <glyph glyph-name="uni0146" unicode="&#x146;" horiz-adv-x="1302" 
d="M131 0v1057h305l4 -146q140 162 348 162q181 0 287.5 -115t106.5 -299v-659h-334v569q0 209 -176 209q-97 0 -152 -61t-55 -166v-551h-334zM500 -250q0 66 40 110t111 44q81 0 125.5 -52t44.5 -133q0 -174 -180 -321l-92 78q68 78 86 139q-61 3 -98 42t-37 93z" />
    <glyph glyph-name="Ncaron" unicode="&#x147;" horiz-adv-x="1552" 
d="M145 0v1434h285l639 -848v848h338v-1434h-287l-637 846v-846h-338zM397 1860h285l90 -113l90 113h285l-242 -277h-264z" />
    <glyph glyph-name="ncaron" unicode="&#x148;" horiz-adv-x="1302" 
d="M131 0v1057h305l4 -146q140 162 348 162q181 0 287.5 -115t106.5 -299v-659h-334v569q0 209 -176 209q-97 0 -152 -61t-55 -166v-551h-334zM301 1516h285l90 -125l90 125h285l-246 -299h-256z" />
    <glyph glyph-name="napostrophe" unicode="&#x149;" horiz-adv-x="1540" 
d="M369 2v1057h305l4 -146q140 162 348 162q181 0 287 -114.5t106 -298.5v-660h-334v569q0 209 -176 209q-97 0 -152 -61t-55 -166v-551h-333zM-20 1352q0 69 42 115t117 46q84 0 132 -54t48 -140q0 -92 -46.5 -174t-145.5 -164l-96 82q72 81 92 147q-65 3 -104 43.5
t-39 98.5z" />
    <glyph glyph-name="Eng" unicode="&#x14a;" horiz-adv-x="1552" 
d="M145 0v1434h285l639 -854v854h338v-1522q0 -201 -97.5 -303.5t-289.5 -102.5q-107 0 -223 39l61 262q59 -16 107 -16q61 0 86.5 31t25.5 102v133l-594 795v-852h-338z" />
    <glyph glyph-name="eng" unicode="&#x14b;" horiz-adv-x="1294" 
d="M793 -494q-120 0 -224 37l62 258q59 -16 104 -16q60 0 84.5 31.5t24.5 105.5v647q0 209 -176 209q-97 0 -152 -61t-55 -166v-551h-334v1057h305l4 -144q139 160 348 160q181 0 287.5 -115t106.5 -299v-774q0 -379 -385 -379z" />
    <glyph glyph-name="Omacron" unicode="&#x14c;" horiz-adv-x="1681" 
d="M840 -27q-163 0 -305 56t-242.5 154t-158.5 236.5t-58 297.5t58 297t158.5 236t242.5 154t305 56q219 0 393.5 -95.5t272.5 -265.5t98 -382t-97.5 -382t-272.5 -266t-394 -96zM436 717q0 -186 113.5 -304t290.5 -118q179 0 292 118t113 304t-113 304t-292 118
q-177 0 -290.5 -118t-113.5 -304zM520 1599v209h639v-209h-639z" />
    <glyph glyph-name="omacron" unicode="&#x14d;" horiz-adv-x="1316" 
d="M659 -27q-264 0 -426.5 153t-162.5 402t162.5 402t426.5 153q263 0 425.5 -153t162.5 -402t-162.5 -402t-425.5 -153zM350 1221v204h619v-204h-619zM399 528q0 -121 72 -194.5t188 -73.5q115 0 187 73.5t72 194.5q0 120 -72.5 194.5t-186.5 74.5q-116 0 -188 -74.5
t-72 -194.5z" />
    <glyph glyph-name="Obreve" unicode="&#x14e;" horiz-adv-x="1681" 
d="M840 -27q-163 0 -305 56t-242.5 154t-158.5 236.5t-58 297.5t58 297t158.5 236t242.5 154t305 56q219 0 393.5 -95.5t272.5 -265.5t98 -382t-97.5 -382t-272.5 -266t-394 -96zM436 717q0 -186 113.5 -304t290.5 -118q179 0 292 118t113 304t-113 304t-292 118
q-177 0 -290.5 -118t-113.5 -304zM510 1835l213 39q15 -113 117 -113q103 0 118 113l213 -39q-19 -132 -100 -198t-231 -66q-295 0 -330 264z" />
    <glyph glyph-name="obreve" unicode="&#x14f;" horiz-adv-x="1316" 
d="M659 -27q-264 0 -426.5 153t-162.5 402t162.5 402t426.5 153q263 0 425.5 -153t162.5 -402t-162.5 -402t-425.5 -153zM328 1489l198 39q18 -144 133 -144q114 0 132 144l198 -39q-34 -287 -330 -287q-150 0 -231 71t-100 216zM399 528q0 -121 72 -194.5t188 -73.5
q115 0 187 73.5t72 194.5q0 120 -72.5 194.5t-186.5 74.5q-116 0 -188 -74.5t-72 -194.5z" />
    <glyph glyph-name="Ohungarumlaut" unicode="&#x150;" horiz-adv-x="1681" 
d="M840 -27q-163 0 -305 56t-242.5 154t-158.5 236.5t-58 297.5t58 297t158.5 236t242.5 154t305 56q219 0 393.5 -95.5t272.5 -265.5t98 -382t-97.5 -382t-272.5 -266t-394 -96zM436 717q0 -186 113.5 -304t290.5 -118q179 0 292 118t113 304t-113 304t-292 118
q-177 0 -290.5 -118t-113.5 -304zM502 1583l108 277h303l-168 -277h-243zM872 1583l146 277h301l-199 -277h-248z" />
    <glyph glyph-name="ohungarumlaut" unicode="&#x151;" horiz-adv-x="1316" 
d="M659 -27q-264 0 -426.5 153t-162.5 402t162.5 402t426.5 153q263 0 425.5 -153t162.5 -402t-162.5 -402t-425.5 -153zM330 1217l108 299h303l-168 -299h-243zM399 528q0 -121 72 -194.5t188 -73.5q115 0 187 73.5t72 194.5q0 120 -72.5 194.5t-186.5 74.5
q-116 0 -188 -74.5t-72 -194.5zM700 1217l146 299h303l-201 -299h-248z" />
    <glyph glyph-name="OE" unicode="&#x152;" horiz-adv-x="2035" 
d="M834 -25q-169 0 -310.5 53.5t-240 150t-153 235t-54.5 303.5q0 334 206.5 537.5t544.5 203.5q116 0 215 -24h887v-279h-563v-293h510v-270h-510v-309h588v-283h-912q-98 -25 -208 -25zM436 717q0 -200 116.5 -316t319.5 -116q85 0 164 20v821q-79 21 -164 21
q-206 0 -321 -114.5t-115 -315.5z" />
    <glyph glyph-name="oe" unicode="&#x153;" horiz-adv-x="2025" 
d="M621 -27q-246 0 -398.5 153t-152.5 402t152.5 402t398.5 153q133 0 240.5 -46.5t180.5 -133.5q73 86 177.5 133t228.5 47q170 0 297 -89t183.5 -244t27.5 -342h-762q25 -85 99.5 -133t179.5 -48q172 0 315 107l125 -211q-174 -150 -428 -150q-140 0 -253.5 47t-189.5 134
q-73 -87 -181 -134t-240 -47zM399 528q0 -121 69.5 -194.5t180.5 -73.5q110 0 179 73.5t69 194.5q0 120 -69.5 194.5t-178.5 74.5q-111 0 -180.5 -74.5t-69.5 -194.5zM1188 621h471q-21 95 -82.5 150.5t-151.5 55.5q-91 0 -154.5 -55.5t-82.5 -150.5z" />
    <glyph glyph-name="Racute" unicode="&#x154;" horiz-adv-x="1392" 
d="M145 0v1434h603q248 0 398 -133.5t150 -352.5q0 -153 -70.5 -264t-201.5 -168l317 -516h-383l-270 463h-190v-463h-353zM492 729h221q112 0 171.5 54t59.5 153t-59.5 154t-171.5 55h-221v-416zM514 1583l129 277h344l-207 -277h-266z" />
    <glyph glyph-name="racute" unicode="&#x155;" horiz-adv-x="923" 
d="M131 0v1057h305l4 -144q123 158 324 158q78 0 149 -24l-73 -310q-71 21 -131 21q-125 0 -184.5 -78t-59.5 -219v-461h-334zM367 1217l131 299h336l-211 -299h-256z" />
    <glyph glyph-name="uni0156" unicode="&#x156;" horiz-adv-x="1392" 
d="M145 0v1434h603q248 0 398 -133.5t150 -352.5q0 -153 -70.5 -264t-201.5 -168l317 -516h-383l-270 463h-190v-463h-353zM492 729h221q112 0 171.5 54t59.5 153t-59.5 154t-171.5 55h-221v-416zM561 -250q0 66 40.5 110t111.5 44q81 0 125.5 -52t44.5 -133
q0 -173 -181 -321l-92 78q68 78 86 139q-61 3 -98 42t-37 93z" />
    <glyph glyph-name="uni0157" unicode="&#x157;" horiz-adv-x="923" 
d="M131 0v1057h305l4 -144q123 158 324 158q78 0 149 -24l-73 -310q-71 21 -131 21q-125 0 -184.5 -78t-59.5 -219v-461h-334zM139 -250q0 66 41 110t113 44q79 0 124.5 -52t45.5 -133q0 -172 -180 -321l-93 78q68 78 86 139q-63 3 -100 42t-37 93z" />
    <glyph glyph-name="Rcaron" unicode="&#x158;" horiz-adv-x="1392" 
d="M145 0v1434h603q248 0 398 -133.5t150 -352.5q0 -153 -70.5 -264t-201.5 -168l317 -516h-383l-270 463h-190v-463h-353zM279 1860h284l90 -113l90 113h285l-242 -277h-264zM492 729h221q112 0 171.5 54t59.5 153t-59.5 154t-171.5 55h-221v-416z" />
    <glyph glyph-name="rcaron" unicode="&#x159;" horiz-adv-x="923" 
d="M131 0v1057h305l4 -144q123 158 324 158q78 0 149 -24l-73 -310q-71 21 -131 21q-125 0 -184.5 -78t-59.5 -219v-461h-334zM139 1516h285l90 -125l90 125h285l-246 -299h-256z" />
    <glyph glyph-name="Sacute" unicode="&#x15a;" horiz-adv-x="1288" 
d="M657 -18q-166 0 -321.5 50t-276.5 142l152 254q209 -145 438 -145q107 0 166 32.5t59 92.5q0 57 -64.5 97.5t-225.5 84.5q-240 64 -352.5 171t-112.5 279q0 185 140.5 298.5t385.5 113.5q309 0 547 -176l-154 -246q-74 57 -178 92t-203 35q-88 0 -139 -30.5t-51 -82.5
q0 -54 57.5 -91.5t214.5 -82.5q253 -70 371.5 -180t118.5 -280q0 -192 -157 -310t-415 -118zM514 1583l129 277h342l-207 -277h-264z" />
    <glyph glyph-name="sacute" unicode="&#x15b;" horiz-adv-x="1036" 
d="M528 -20q-256 0 -475 141l119 227q186 -110 352 -110q67 0 103.5 19.5t36.5 55.5q0 33 -40 57.5t-137 47.5q-200 46 -292.5 128.5t-92.5 215.5q0 143 107.5 228t304.5 85q243 0 447 -127l-119 -219q-59 40 -147.5 67t-162.5 27q-120 0 -120 -65q0 -36 38 -58.5t142 -46.5
q200 -45 294.5 -128.5t94.5 -209.5q0 -154 -123 -244.5t-330 -90.5zM377 1217l131 299h336l-211 -299h-256z" />
    <glyph glyph-name="Scircumflex" unicode="&#x15c;" horiz-adv-x="1288" 
d="M657 -18q-166 0 -321.5 50t-276.5 142l152 254q209 -145 438 -145q107 0 166 32.5t59 92.5q0 57 -64.5 97.5t-225.5 84.5q-240 64 -352.5 171t-112.5 279q0 185 140.5 298.5t385.5 113.5q309 0 547 -176l-154 -246q-74 57 -178 92t-203 35q-88 0 -139 -30.5t-51 -82.5
q0 -54 57.5 -91.5t214.5 -82.5q253 -70 371.5 -180t118.5 -280q0 -192 -157 -310t-415 -118zM279 1583l241 277h264l244 -277h-287l-88 113l-90 -113h-284z" />
    <glyph glyph-name="scircumflex" unicode="&#x15d;" horiz-adv-x="1036" 
d="M528 -20q-256 0 -475 141l119 227q186 -110 352 -110q67 0 103.5 19.5t36.5 55.5q0 33 -40 57.5t-137 47.5q-200 46 -292.5 128.5t-92.5 215.5q0 143 107.5 228t304.5 85q243 0 447 -127l-119 -219q-59 40 -147.5 67t-162.5 27q-120 0 -120 -65q0 -36 38 -58.5t142 -46.5
q200 -45 294.5 -128.5t94.5 -209.5q0 -154 -123 -244.5t-330 -90.5zM150 1217l247 299h256l246 -299h-285l-90 124l-90 -124h-284z" />
    <glyph glyph-name="Scedilla" unicode="&#x15e;" horiz-adv-x="1288" 
d="M659 -498q-135 0 -258 72l86 158q74 -43 148 -43q88 0 88 55q0 38 -51 46.5t-105 -5.5l-47 45l41 156q-140 14 -270 62t-232 126l152 254q209 -145 438 -145q107 0 166 32.5t59 92.5q0 57 -64.5 97.5t-225.5 84.5q-240 64 -352.5 171t-112.5 279q0 185 140.5 298.5
t385.5 113.5q309 0 547 -176l-154 -246q-74 57 -178 92t-203 35q-88 0 -139 -30.5t-51 -82.5q0 -54 57.5 -91.5t214.5 -82.5q253 -70 371.5 -180t118.5 -280q0 -173 -128 -287t-345 -137l-15 -60q93 -6 151 -62t58 -143q0 -100 -78.5 -159.5t-212.5 -59.5z" />
    <glyph glyph-name="scedilla" unicode="&#x15f;" horiz-adv-x="1036" 
d="M539 -498q-134 0 -254 72l84 156q71 -43 143 -43q88 0 88 55q0 39 -49 48t-102 -5l-48 45l39 154q-205 21 -387 137l119 227q186 -110 352 -110q67 0 103.5 19.5t36.5 55.5q0 33 -40 57.5t-137 47.5q-200 46 -292.5 128.5t-92.5 215.5q0 143 107.5 228t304.5 85
q243 0 447 -127l-119 -219q-59 40 -147.5 67t-162.5 27q-120 0 -120 -65q0 -36 38 -58.5t142 -46.5q200 -45 294.5 -128.5t94.5 -209.5q0 -134 -93.5 -220.5t-256.5 -108.5l-13 -62q92 -5 148.5 -60t56.5 -143q0 -100 -76.5 -159.5t-207.5 -59.5z" />
    <glyph glyph-name="Scaron" unicode="&#x160;" horiz-adv-x="1288" 
d="M657 -18q-166 0 -321.5 50t-276.5 142l152 254q209 -145 438 -145q107 0 166 32.5t59 92.5q0 57 -64.5 97.5t-225.5 84.5q-240 64 -352.5 171t-112.5 279q0 185 140.5 298.5t385.5 113.5q309 0 547 -176l-154 -246q-74 57 -178 92t-203 35q-88 0 -139 -30.5t-51 -82.5
q0 -54 57.5 -91.5t214.5 -82.5q253 -70 371.5 -180t118.5 -280q0 -192 -157 -310t-415 -118zM279 1860h284l90 -113l90 113h285l-242 -277h-264z" />
    <glyph glyph-name="scaron" unicode="&#x161;" horiz-adv-x="1036" 
d="M528 -20q-256 0 -475 141l119 227q186 -110 352 -110q67 0 103.5 19.5t36.5 55.5q0 33 -40 57.5t-137 47.5q-200 46 -292.5 128.5t-92.5 215.5q0 143 107.5 228t304.5 85q243 0 447 -127l-119 -219q-59 40 -147.5 67t-162.5 27q-120 0 -120 -65q0 -36 38 -58.5t142 -46.5
q200 -45 294.5 -128.5t94.5 -209.5q0 -154 -123 -244.5t-330 -90.5zM150 1516h284l90 -125l90 125h285l-246 -299h-256z" />
    <glyph glyph-name="uni0162" unicode="&#x162;" horiz-adv-x="1280" 
d="M463 0v1110h-416v324h1186v-324h-418v-1110h-74l-16 -74q93 -6 151 -62t58 -143q0 -100 -78.5 -159.5t-212.5 -59.5q-135 0 -258 72l86 158q71 -43 147 -43q89 0 89 55q0 38 -51 46.5t-105 -5.5l-47 45l45 170h-86z" />
    <glyph glyph-name="uni0163" unicode="&#x163;" horiz-adv-x="899" 
d="M47 793v264h174l6 254h322v-254h262v-264h-262v-373q0 -137 119 -137q57 0 127 28l71 -274q-87 -41 -198 -51l-13 -62q92 -5 148.5 -60t56.5 -143q0 -100 -77 -159.5t-208 -59.5q-133 0 -253 72l84 156q71 -43 143 -43q88 0 88 55q0 39 -49.5 48t-102.5 -5l-47 45l41 164
q-264 62 -264 393v406h-168z" />
    <glyph glyph-name="Tcaron" unicode="&#x164;" horiz-adv-x="1280" 
d="M463 0v1110h-416v324h1186v-324h-418v-1110h-352zM264 1860h285l90 -113l90 113h285l-242 -277h-264z" />
    <glyph glyph-name="tcaron" unicode="&#x165;" horiz-adv-x="899" 
d="M604 -18q-193 0 -291 103t-98 302v406h-168v264h174l6 254h322v-254h262v-264h-262v-373q0 -137 119 -137q57 0 127 28l71 -274q-122 -55 -262 -55zM694 1153l47 363h260l-106 -363h-201z" />
    <glyph glyph-name="Tbar" unicode="&#x166;" horiz-adv-x="1280" 
d="M213 563v240h250v307h-416v324h1186v-324h-418v-307h254v-240h-254v-563h-352v563h-250z" />
    <glyph glyph-name="tbar" unicode="&#x167;" horiz-adv-x="903" 
d="M600 -18q-190 0 -287.5 103t-97.5 302v78h-149v209h149v153h-168v230h174l6 254h322v-254h262v-230h-262v-153h239v-199h-239v-67q0 -138 125 -138q53 0 129 29l67 -258q-130 -59 -270 -59z" />
    <glyph glyph-name="Utilde" unicode="&#x168;" horiz-adv-x="1495" 
d="M748 -25q-287 0 -451 156.5t-164 433.5v869h352v-840q0 -146 67 -221.5t196 -75.5q128 0 195 75.5t67 221.5v840h352v-869q0 -277 -164 -433.5t-450 -156.5zM381 1671q42 99 100.5 148t126.5 49q49 0 94.5 -23t85.5 -46t76 -23q58 0 105 82l145 -103
q-40 -97 -98.5 -145.5t-128.5 -48.5q-48 0 -93 23t-85 46t-76 23q-58 0 -105 -82z" />
    <glyph glyph-name="utilde" unicode="&#x169;" horiz-adv-x="1294" 
d="M1167 1057v-1057h-305l-4 143q-137 -159 -348 -159q-181 0 -287 114.5t-106 298.5v660h334v-572q0 -206 176 -206q97 0 152 61t55 166v551h333zM287 1296q37 96 93 146.5t126 50.5q31 0 60 -11t81 -40q68 -41 107 -41q31 0 54 19t48 63l141 -99q-78 -194 -219 -194
q-51 0 -143 51q-68 41 -107 41q-56 0 -102 -82z" />
    <glyph glyph-name="Umacron" unicode="&#x16a;" horiz-adv-x="1495" 
d="M748 -25q-287 0 -451 156.5t-164 433.5v869h352v-840q0 -146 67 -221.5t196 -75.5q128 0 195 75.5t67 221.5v840h352v-869q0 -277 -164 -433.5t-450 -156.5zM426 1599v209h641v-209h-641z" />
    <glyph glyph-name="umacron" unicode="&#x16b;" horiz-adv-x="1294" 
d="M1167 1057v-1057h-305l-4 143q-137 -159 -348 -159q-181 0 -287 114.5t-106 298.5v660h334v-572q0 -206 176 -206q97 0 152 61t55 166v551h333zM334 1221v204h618v-204h-618z" />
    <glyph glyph-name="Ubreve" unicode="&#x16c;" horiz-adv-x="1495" 
d="M748 -25q-287 0 -451 156.5t-164 433.5v869h352v-840q0 -146 67 -221.5t196 -75.5q128 0 195 75.5t67 221.5v840h352v-869q0 -277 -164 -433.5t-450 -156.5zM416 1835l213 39q15 -113 119 -113q101 0 116 113l213 -39q-35 -264 -329 -264q-151 0 -232 66t-100 198z" />
    <glyph glyph-name="ubreve" unicode="&#x16d;" horiz-adv-x="1294" 
d="M1167 1057v-1057h-305l-4 143q-137 -159 -348 -159q-181 0 -287 114.5t-106 298.5v660h334v-572q0 -206 176 -206q97 0 152 61t55 166v551h333zM311 1489l199 39q18 -144 133 -144q113 0 131 144l199 -39q-34 -287 -330 -287q-150 0 -231.5 71t-100.5 216z" />
    <glyph glyph-name="Uring" unicode="&#x16e;" horiz-adv-x="1495" 
d="M748 -25q-287 0 -451 156.5t-164 433.5v869h352v-840q0 -146 67 -221.5t196 -75.5q128 0 195 75.5t67 221.5v840h352v-869q0 -277 -164 -433.5t-450 -156.5zM467 1776q0 112 79.5 185t201.5 73q120 0 199 -73t79 -185t-79 -185t-199 -73q-122 0 -201.5 73t-79.5 185z
M655 1776q0 -40 26.5 -66.5t66.5 -26.5q39 0 64.5 26.5t25.5 66.5t-25 66t-65 26t-66.5 -26t-26.5 -66z" />
    <glyph glyph-name="uring" unicode="&#x16f;" horiz-adv-x="1294" 
d="M1167 1057v-1057h-305l-4 143q-137 -159 -348 -159q-181 0 -287 114.5t-106 298.5v660h334v-572q0 -206 176 -206q97 0 152 61t55 166v551h333zM362 1432q0 114 79.5 187t201.5 73q121 0 200 -73.5t79 -186.5q0 -112 -79.5 -185t-199.5 -73q-122 0 -201.5 73t-79.5 185z
M551 1432q0 -39 25.5 -65t66.5 -26q39 0 64.5 26t25.5 65q0 40 -25 66t-65 26q-41 0 -66.5 -26t-25.5 -66z" />
    <glyph glyph-name="Uhungarumlaut" unicode="&#x170;" horiz-adv-x="1495" 
d="M748 -25q-287 0 -451 156.5t-164 433.5v869h352v-840q0 -146 67 -221.5t196 -75.5q128 0 195 75.5t67 221.5v840h352v-869q0 -277 -164 -433.5t-450 -156.5zM408 1583l108 277h303l-166 -277h-245zM780 1583l144 277h303l-201 -277h-246z" />
    <glyph glyph-name="uhungarumlaut" unicode="&#x171;" horiz-adv-x="1294" 
d="M1167 1057v-1057h-305l-4 143q-137 -159 -348 -159q-181 0 -287 114.5t-106 298.5v660h334v-572q0 -206 176 -206q97 0 152 61t55 166v551h333zM313 1217l109 299h303l-166 -299h-246zM684 1217l145 299h304l-201 -299h-248z" />
    <glyph glyph-name="Uogonek" unicode="&#x172;" horiz-adv-x="1495" 
d="M870 -473q-117 0 -184.5 59t-67.5 162q0 121 95 227q-268 6 -424 163.5t-156 426.5v869h352v-840q0 -146 67.5 -221.5t195.5 -75.5q262 0 262 297v840h352v-869q0 -372 -305 -526q-195 -98 -195 -234q0 -75 72 -75q40 0 86 30l88 -151q-107 -82 -238 -82z" />
    <glyph glyph-name="uogonek" unicode="&#x173;" horiz-adv-x="1294" 
d="M1167 1057v-1057q-161 -96 -161 -199q0 -71 67 -71q42 0 90 30l88 -151q-107 -82 -237 -82q-117 0 -184.5 59t-67.5 162q0 142 145 252h-45l-4 143q-137 -159 -348 -159q-181 0 -287 114.5t-106 298.5v660h334v-572q0 -206 176 -206q97 0 152 61t55 166v551h333z" />
    <glyph glyph-name="Wcircumflex" unicode="&#x174;" horiz-adv-x="2254" 
d="M475 0l-440 1434h364l154 -527l127 -461l283 934h329l287 -936l127 463l152 527h362l-434 -1434h-375l-168 522l-115 373l-112 -373l-168 -522h-373zM754 1583l241 277h265l243 -277h-286l-89 113l-90 -113h-284z" />
    <glyph glyph-name="wcircumflex" unicode="&#x175;" horiz-adv-x="1835" 
d="M383 0l-352 1057h350l88 -316l98 -362l215 639h275l219 -647l98 370l86 316h344l-348 -1057h-323l-101 295l-112 334l-113 -334l-100 -295h-324zM543 1217l248 299h256l247 -299h-286l-88 126l-91 -126h-286z" />
    <glyph glyph-name="Ycircumflex" unicode="&#x176;" horiz-adv-x="1429" 
d="M539 0v530l-516 904h401l162 -297l131 -256l137 256l164 297h389l-516 -904v-530h-352zM346 1583l244 277h264l244 -277h-287l-90 113l-88 -113h-287z" />
    <glyph glyph-name="ycircumflex" unicode="&#x177;" horiz-adv-x="1228" 
d="M324 -481q-110 0 -213 35l61 276q67 -18 117 -18q72 0 120 32.5t78 106.5l-462 1106h362l172 -471l76 -224l63 224l152 471h354l-444 -1229q-114 -309 -436 -309zM250 1217l248 299h256l247 -299h-286l-90 124l-90 -124h-285z" />
    <glyph glyph-name="Ydieresis" unicode="&#x178;" horiz-adv-x="1429" 
d="M539 0v530l-516 904h401l162 -297l131 -256l137 256l164 297h389l-516 -904v-530h-352zM332 1724q0 75 47.5 122.5t122.5 47.5t122.5 -47.5t47.5 -122.5q0 -74 -47.5 -121t-122.5 -47t-122.5 47t-47.5 121zM772 1724q0 75 47.5 122.5t122.5 47.5t122.5 -47.5t47.5 -122.5
q0 -74 -47.5 -121t-122.5 -47t-122.5 47t-47.5 121z" />
    <glyph glyph-name="Zacute" unicode="&#x179;" horiz-adv-x="1280" 
d="M508 1583l129 277h344l-207 -277h-266zM94 0v252l643 881l-618 -3v304h1057v-250l-646 -881l670 2v-305h-1106z" />
    <glyph glyph-name="zacute" unicode="&#x17a;" horiz-adv-x="1054" 
d="M377 1217l131 299h336l-211 -299h-256zM84 0v219l469 572l-211 -5h-238v271h859v-209l-461 -574l188 5h293v-279h-899z" />
    <glyph glyph-name="Zdotaccent" unicode="&#x17b;" horiz-adv-x="1280" 
d="M647 1556q-85 0 -135.5 50t-50.5 133q0 82 50.5 131t135.5 49t136 -49t51 -131q0 -83 -51 -133t-136 -50zM94 0v252l643 881l-618 -3v304h1057v-250l-646 -881l670 2v-305h-1106z" />
    <glyph glyph-name="zdotaccent" unicode="&#x17c;" horiz-adv-x="1054" 
d="M524 1169q-86 0 -139 51t-53 134q0 84 52.5 134t139.5 50t140 -50t53 -134q0 -83 -53.5 -134t-139.5 -51zM84 0v219l469 572l-211 -5h-238v271h859v-209l-461 -574l188 5h293v-279h-899z" />
    <glyph glyph-name="Zcaron" unicode="&#x17d;" horiz-adv-x="1280" 
d="M272 1860h285l90 -113l90 113h285l-242 -277h-264zM94 0v252l643 881l-618 -3v304h1057v-250l-646 -881l670 2v-305h-1106z" />
    <glyph glyph-name="zcaron" unicode="&#x17e;" horiz-adv-x="1054" 
d="M150 1516h284l90 -125l90 125h285l-246 -299h-256zM84 0v219l469 572l-211 -5h-238v271h859v-209l-461 -574l188 5h293v-279h-899z" />
    <glyph glyph-name="longs" unicode="&#x17f;" horiz-adv-x="884" 
d="M242 1184q0 175 96 270.5t274 95.5q144 0 273 -55l-88 -233q-55 22 -109 22q-113 0 -113 -139v-1145h-333v791h-187v266h187v127z" />
    <glyph glyph-name="uni018F" unicode="&#x18f;" horiz-adv-x="1538" 
d="M760 -27q-170 0 -311.5 69.5t-231 187.5t-128.5 280.5t-13 343.5h1038q-26 147 -139 234.5t-281 87.5q-232 0 -420 -164l-143 225q117 107 268.5 165t321.5 58q335 0 537 -205t202 -538q0 -215 -88 -384.5t-248 -264.5t-364 -95zM397 604q25 -155 120 -248.5t239 -93.5
q142 0 238.5 93t121.5 249h-719z" />
    <glyph glyph-name="florin" unicode="&#x192;" horiz-adv-x="935" 
d="M76 -494q-151 0 -271 60l103 227q48 -22 102 -22q64 0 101 34t45 95l120 903h-210v254h245l17 127q23 178 127 272t280 94q145 0 271 -57l-103 -231q-56 24 -104 24q-64 0 -101 -34t-45 -95l-14 -104h246v-250h-279l-125 -930q-23 -178 -126 -272.5t-279 -94.5z" />
    <glyph glyph-name="uni01CD" unicode="&#x1cd;" horiz-adv-x="1536" 
d="M27 0l555 1434h376l549 -1434h-362l-90 250h-570l-90 -250h-368zM395 1860h285l90 -113l90 113h285l-242 -277h-264zM561 504h418l-207 571z" />
    <glyph glyph-name="uni01CE" unicode="&#x1ce;" horiz-adv-x="1204" 
d="M430 -14q-164 0 -263 90.5t-99 238.5q0 166 123.5 260.5t338.5 94.5q125 0 248 -33v27q0 85 -54 123t-173 38q-143 0 -332 -80l-80 232q122 56 226 79t231 23q234 0 361.5 -110.5t127.5 -311.5v-657h-288l-6 129q-66 -66 -161.5 -104.5t-199.5 -38.5zM219 1516h285
l90 -127l90 127h285l-246 -299h-256zM389 332q0 -55 36.5 -85t106.5 -30q103 0 172.5 58t77.5 147q-119 35 -209 35q-184 0 -184 -125z" />
    <glyph glyph-name="Gcaron" unicode="&#x1e6;" horiz-adv-x="1568" 
d="M848 -27q-228 0 -404 94.5t-272 263.5t-96 386q0 159 55.5 296.5t154 236t239.5 154.5t306 56q334 0 578 -221l-188 -231q-72 69 -170.5 106t-202.5 37q-188 0 -305 -121.5t-117 -312.5q0 -195 118.5 -314.5t319.5 -119.5q172 0 312 82v186h-404v268h701v-614
q-119 -113 -283 -172.5t-342 -59.5zM457 1860h284l90 -113l91 113h284l-241 -277h-265z" />
    <glyph glyph-name="gcaron" unicode="&#x1e7;" horiz-adv-x="1316" 
d="M678 -692q-311 0 -473 90t-162 262q0 130 92 219q-67 67 -67 170q0 156 143 254q-94 117 -94 285q0 215 141.5 342t382.5 127h633v-254h-193q84 -96 84 -240q0 -197 -143 -315.5t-381 -118.5q-125 0 -225 35q-47 -27 -47 -72q0 -34 29.5 -52.5t100.5 -28.5t208 -15
q291 -11 428 -89t137 -235q0 -171 -157.5 -267.5t-436.5 -96.5zM281 1516h284l90 -127l90 127h285l-246 -299h-256zM326 -309q0 -66 81 -97.5t252 -31.5q306 0 306 94q0 43 -64 63t-217 23q-193 6 -322 33q-36 -39 -36 -84zM428 588q0 -92 59.5 -151.5t151.5 -59.5
q94 0 153.5 59.5t59.5 151.5q0 91 -60 150t-153 59q-92 0 -151.5 -59t-59.5 -150z" />
    <glyph glyph-name="AEacute" unicode="&#x1fc;" horiz-adv-x="2029" 
d="M20 0l857 1434h1046v-277h-565v-293h512v-270h-512v-313h590v-281h-920v260h-455l-147 -260h-406zM702 506h326v584zM1079 1583l129 277h344l-209 -277h-264z" />
    <glyph glyph-name="aeacute" unicode="&#x1fd;" horiz-adv-x="1921" 
d="M1378 -27q-146 0 -260.5 51t-187.5 146q-157 -197 -457 -197q-192 0 -298.5 93.5t-106.5 248.5q0 166 123 260.5t337 94.5q123 0 246 -33v27q0 89 -55.5 127t-169.5 38q-145 0 -330 -84l-82 234q118 56 218.5 80t219.5 24q255 0 379 -161q145 161 385 161
q104 0 194.5 -33.5t155.5 -94t110 -145t57 -186t-3 -216.5h-772q26 -85 101.5 -133t181.5 -48q176 0 319 107l127 -211q-177 -150 -432 -150zM389 330q0 -54 36 -83.5t105 -29.5q104 0 174.5 58.5t75.5 146.5q-122 35 -209 35q-182 0 -182 -127zM819 1217l131 299h336
l-211 -299h-256zM1075 621h481q-21 95 -83 150.5t-154 55.5q-93 0 -158.5 -55t-85.5 -151z" />
    <glyph glyph-name="Oslashacute" unicode="&#x1fe;" horiz-adv-x="1681" 
d="M840 -27q-131 0 -256 39l-131 -229l-228 131l127 219q-131 99 -203.5 251t-72.5 333q0 159 58 297t158.5 236t242.5 154t305 56q134 0 256 -39l133 230l227 -131l-127 -220q131 -101 203 -251.5t72 -331.5q0 -158 -57.5 -296.5t-157.5 -236.5t-242.5 -154.5t-306.5 -56.5
zM426 717q0 -183 109 -305l415 725q-49 14 -110 14q-181 0 -297.5 -121.5t-116.5 -312.5zM700 1583l129 277h345l-207 -277h-267zM727 297q49 -14 113 -14q179 0 297 122t118 312q0 186 -110 305z" />
    <glyph glyph-name="oslashacute" unicode="&#x1ff;" horiz-adv-x="1316" 
d="M348 -168l-186 111l100 157q-92 74 -142 184.5t-50 243.5q0 249 162.5 402t426.5 153q107 0 205 -28l107 168l184 -111l-100 -156q92 -74 142 -184.5t50 -243.5q0 -249 -162.5 -402t-425.5 -153q-103 0 -204 29zM391 528q0 -101 49 -172l279 445q-27 6 -60 6
q-120 0 -194 -77t-74 -202zM512 1217l131 299h336l-213 -299h-254zM598 256q30 -6 61 -6q119 0 194 77t75 201q0 105 -54 174z" />
    <glyph glyph-name="uni0218" unicode="&#x218;" horiz-adv-x="1288" 
d="M657 -18q-166 0 -321.5 50t-276.5 142l152 254q209 -145 438 -145q107 0 166 32.5t59 92.5q0 57 -64.5 97.5t-225.5 84.5q-240 64 -352.5 171t-112.5 279q0 185 140.5 298.5t385.5 113.5q309 0 547 -176l-154 -246q-74 57 -178 92t-203 35q-88 0 -139 -30.5t-51 -82.5
q0 -54 57.5 -91.5t214.5 -82.5q253 -70 371.5 -180t118.5 -280q0 -192 -157 -310t-415 -118zM498 -250q0 66 40 110t111 44q81 0 126.5 -52t45.5 -133q0 -172 -182 -321l-92 78q66 72 88 139q-63 3 -100 42t-37 93z" />
    <glyph glyph-name="uni0219" unicode="&#x219;" horiz-adv-x="1036" 
d="M528 -20q-256 0 -475 141l119 227q186 -110 352 -110q67 0 103.5 19.5t36.5 55.5q0 33 -40 57.5t-137 47.5q-200 46 -292.5 128.5t-92.5 215.5q0 143 107.5 228t304.5 85q243 0 447 -127l-119 -219q-59 40 -147.5 67t-162.5 27q-120 0 -120 -65q0 -36 38 -58.5t142 -46.5
q200 -45 294.5 -128.5t94.5 -209.5q0 -154 -123 -244.5t-330 -90.5zM379 -250q0 66 40 110t111 44q81 0 126.5 -52t45.5 -133q0 -172 -182 -321l-92 78q66 72 88 139q-63 3 -100 42t-37 93z" />
    <glyph glyph-name="uni021A" unicode="&#x21a;" horiz-adv-x="1280" 
d="M463 0v1110h-416v324h1186v-324h-418v-1110h-352zM481 -250q0 66 40.5 110t111.5 44q81 0 126.5 -52t45.5 -133q0 -172 -182 -321l-93 78q66 72 88 139q-63 3 -100 42t-37 93z" />
    <glyph glyph-name="uni021B" unicode="&#x21b;" horiz-adv-x="899" 
d="M604 -18q-193 0 -291 103t-98 302v406h-168v264h174l6 254h322v-254h262v-264h-262v-373q0 -137 119 -137q57 0 127 28l71 -274q-122 -55 -262 -55zM416 -250q0 66 40 110t111 44q81 0 126.5 -52t45.5 -133q0 -172 -182 -321l-92 78q66 72 88 139q-63 3 -100 42t-37 93z
" />
    <glyph glyph-name="uni0237" unicode="&#x237;" horiz-adv-x="591" 
d="M70 -494q-121 0 -228 37l62 264q62 -16 108 -16q63 0 89 31.5t26 105.5v1129h334v-1172q0 -188 -99 -283.5t-292 -95.5z" />
    <glyph glyph-name="uni0259" unicode="&#x259;" horiz-adv-x="1249" 
d="M584 1083q270 0 433 -152t163 -401q0 -246 -157 -401.5t-407 -155.5q-184 0 -320 89t-196 244t-30 343h788q-25 84 -104 132t-195 48q-175 0 -317 -104l-129 209q189 149 471 149zM367 436q21 -95 85.5 -151t161.5 -56q95 0 162 56t86 151h-495z" />
    <glyph glyph-name="uni02BC" unicode="&#x2bc;" horiz-adv-x="534" 
d="M129 1067q56 62 83 116.5t34 121.5q-70 4 -116 52t-46 116q0 75 49.5 123.5t124.5 48.5q87 0 137.5 -64.5t50.5 -175.5q0 -117 -58.5 -229t-162.5 -197z" />
    <glyph glyph-name="circumflex" unicode="&#x2c6;" horiz-adv-x="1159" 
d="M205 1217l248 299h256l245 -299h-284l-90 124l-91 -124h-284z" />
    <glyph glyph-name="caron" unicode="&#x2c7;" horiz-adv-x="1159" 
d="M205 1516h284l91 -127l90 127h284l-245 -299h-256z" />
    <glyph glyph-name="breve" unicode="&#x2d8;" horiz-adv-x="1071" 
d="M537 1202q-150 0 -231.5 71t-100.5 216l198 39q18 -144 134 -144q113 0 131 144l198 -39q-34 -287 -329 -287z" />
    <glyph glyph-name="dotaccent" unicode="&#x2d9;" horiz-adv-x="765" 
d="M387 1155q-83 0 -132.5 48t-49.5 126q0 80 49.5 127t132.5 47q82 0 131 -47.5t49 -126.5q0 -78 -49.5 -126t-130.5 -48z" />
    <glyph glyph-name="ring" unicode="&#x2da;" horiz-adv-x="968" 
d="M483 1174q-120 0 -199 73t-79 185q0 114 79 187t199 73q122 0 201.5 -73t79.5 -187q0 -112 -79.5 -185t-201.5 -73zM393 1432q0 -39 25.5 -65t64.5 -26q41 0 66.5 26t25.5 65q0 40 -25.5 66t-66.5 26q-40 0 -65 -26t-25 -66z" />
    <glyph glyph-name="ogonek" unicode="&#x2db;" horiz-adv-x="897" 
d="M457 -473q-117 0 -184.5 59t-67.5 162t79.5 192t221.5 146l104 -86q-164 -95 -164 -199q0 -34 18 -52.5t52 -18.5q42 0 88 30l88 -151q-104 -82 -235 -82z" />
    <glyph glyph-name="tilde" unicode="&#x2dc;" horiz-adv-x="1120" 
d="M696 1190q-52 0 -141 51q-68 41 -106 41q-31 0 -54.5 -19t-48.5 -63l-141 96q38 96 94 146.5t125 50.5q54 0 141 -51q68 -41 109 -41q56 0 102 82l139 -99q-78 -194 -219 -194z" />
    <glyph glyph-name="hungarumlaut" unicode="&#x2dd;" horiz-adv-x="1228" 
d="M575 1217l146 299h303l-201 -299h-248zM205 1217l108 299h303l-165 -299h-246z" />
    <glyph glyph-name="gravecomb" unicode="&#x300;" 
d="M672 1217h-256l-211 299h336z" />
    <glyph glyph-name="acutecomb" unicode="&#x301;" 
d="M205 1217l131 299h336l-211 -299h-256z" />
    <glyph glyph-name="uni0302" unicode="&#x302;" 
d="M205 1217l248 299h256l245 -299h-284l-90 124l-91 -124h-284z" />
    <glyph glyph-name="tildecomb" unicode="&#x303;" 
d="M696 1190q-52 0 -141 51q-68 41 -106 41q-31 0 -54.5 -19t-48.5 -63l-141 96q38 96 94 146.5t125 50.5q54 0 141 -51q68 -41 109 -41q56 0 102 82l139 -99q-78 -194 -219 -194z" />
    <glyph glyph-name="uni0304" unicode="&#x304;" 
d="M205 1221v204h616v-204h-616z" />
    <glyph glyph-name="uni0306" unicode="&#x306;" 
d="M537 1202q-150 0 -231.5 71t-100.5 216l198 39q18 -144 134 -144q113 0 131 144l198 -39q-34 -287 -329 -287z" />
    <glyph glyph-name="uni0307" unicode="&#x307;" 
d="M397 1169q-87 0 -139.5 50.5t-52.5 134.5q0 85 52 134.5t140 49.5q87 0 139 -50t52 -134q0 -83 -52.5 -134t-138.5 -51z" />
    <glyph glyph-name="uni0308" unicode="&#x308;" 
d="M805 1180q-74 0 -121 46.5t-47 119.5q0 72 47 117.5t121 45.5q72 0 119 -45.5t47 -117.5q0 -73 -47 -119.5t-119 -46.5zM205 1346q0 72 47 117.5t121 45.5q72 0 119 -45.5t47 -117.5q0 -73 -47 -119.5t-119 -46.5q-74 0 -121 46.5t-47 119.5z" />
    <glyph glyph-name="uni030A" unicode="&#x30a;" 
d="M483 1174q-120 0 -199 73t-79 185q0 114 79 187t199 73q122 0 201.5 -73t79.5 -187q0 -112 -79.5 -185t-201.5 -73zM393 1432q0 -39 25.5 -65t64.5 -26q41 0 66.5 26t25.5 65q0 40 -25.5 66t-66.5 26q-40 0 -65 -26t-25 -66z" />
    <glyph glyph-name="uni030B" unicode="&#x30b;" 
d="M575 1217l146 299h303l-201 -299h-248zM205 1217l108 299h303l-165 -299h-246z" />
    <glyph glyph-name="uni030C" unicode="&#x30c;" 
d="M205 1516h284l91 -127l90 127h284l-245 -299h-256z" />
    <glyph glyph-name="uni0312" unicode="&#x312;" 
d="M479 1591q-70 -76 -88 -139q61 -3 99 -42t38 -93q0 -66 -40 -110t-111 -44q-81 0 -126.5 52t-45.5 133q0 172 182 321z" />
    <glyph glyph-name="uni0326" unicode="&#x326;" 
d="M254 -524q66 72 88 139q-63 3 -100 42t-37 93q0 66 40 110t111 44q81 0 126.5 -52t45.5 -133q0 -172 -182 -321z" />
    <glyph glyph-name="uni0327" unicode="&#x327;" 
d="M459 -498q-134 0 -254 72l84 156q71 -43 145 -43q86 0 86 55q0 39 -49 48t-102 -5l-47 45l55 221h188l-26 -127q92 -5 148 -60t56 -143q0 -100 -76.5 -159.5t-207.5 -59.5z" />
    <glyph glyph-name="uni0328" unicode="&#x328;" 
d="M457 -473q-117 0 -184.5 59t-67.5 162t79.5 192t221.5 146l104 -86q-164 -95 -164 -199q0 -34 18 -52.5t52 -18.5q42 0 88 30l88 -151q-104 -82 -235 -82z" />
    <glyph glyph-name="uni0394" unicode="&#x394;" horiz-adv-x="1542" 
d="M27 0l559 1434h377l553 -1434h-1489zM469 260h602l-301 842z" />
    <glyph glyph-name="uni03A9" unicode="&#x3a9;" horiz-adv-x="1740" 
d="M82 0v279h221q-186 180 -186 464q0 204 96 367.5t268 256.5t389 93q164 0 305 -54.5t240 -149.5t155 -227.5t56 -285.5q0 -139 -48.5 -258.5t-137.5 -205.5h219v-279h-692v262q147 60 225 174.5t78 268.5q0 196 -112 316t-288 120t-287.5 -120t-111.5 -316
q0 -154 78.5 -268.5t224.5 -174.5v-262h-692z" />
    <glyph glyph-name="uni03BC" unicode="&#x3bc;" horiz-adv-x="1310" 
d="M131 -471v1528h334v-563q0 -104 48.5 -159.5t141.5 -55.5q89 0 141 58t52 157v563h334v-1057h-299l-2 113q-82 -107 -230 -107q-117 0 -194 68v-545h-326z" />
    <glyph glyph-name="pi" unicode="&#x3c0;" horiz-adv-x="1417" 
d="M1208 -23q-184 0 -278 95.5t-94 285.5v404h-297v-762h-334v762h-162v295h1284v-295h-162v-369q0 -73 28 -105t87 -32q33 0 63 6l39 -262q-87 -23 -174 -23z" />
    <glyph glyph-name="uni0400" unicode="&#x400;" horiz-adv-x="1226" 
d="M145 0v1434h975v-281h-631v-291h578v-276h-578v-301h656v-285h-1000zM309 1860h344l129 -277h-264z" />
    <glyph glyph-name="uni0401" unicode="&#x401;" horiz-adv-x="1226" 
d="M145 0v1434h975v-281h-631v-291h578v-276h-578v-301h656v-285h-1000zM252 1724q0 75 47.5 122.5t122.5 47.5t122.5 -47.5t47.5 -122.5q0 -74 -47.5 -121t-122.5 -47t-122.5 47t-47.5 121zM692 1724q0 75 47.5 122.5t122.5 47.5t122.5 -47.5t47.5 -122.5q0 -74 -47.5 -121
t-122.5 -47t-122.5 47t-47.5 121z" />
    <glyph glyph-name="uni0402" unicode="&#x402;" horiz-adv-x="1724" 
d="M1190 -16q-146 0 -291 65l94 264q93 -41 156 -41q79 0 121.5 48t42.5 126q0 92 -60.5 140.5t-171.5 48.5q-133 0 -272 -68v-567h-350v1122h-412v312h1296v-295h-536v-279q149 60 317 60q252 0 392.5 -123t140.5 -344q0 -217 -124.5 -343t-342.5 -126z" />
    <glyph glyph-name="uni0403" unicode="&#x403;" horiz-adv-x="1107" 
d="M145 0v1434h922v-324h-569v-1110h-353zM465 1583l129 277h344l-207 -277h-266z" />
    <glyph glyph-name="uni0404" unicode="&#x404;" horiz-adv-x="1482" 
d="M819 -27q-163 0 -301.5 54.5t-235.5 152t-151.5 236t-54.5 301.5q0 214 93.5 384t261 264.5t378.5 94.5q356 0 606 -256l-198 -225q-77 87 -176 132.5t-207 45.5q-146 0 -251.5 -81.5t-142.5 -219.5h637v-272h-639q36 -142 143 -225t261 -83q234 0 405 189l201 -225
q-121 -129 -282 -198t-347 -69z" />
    <glyph glyph-name="uni0405" unicode="&#x405;" horiz-adv-x="1288" 
d="M657 -18q-166 0 -321.5 50t-276.5 142l152 254q209 -145 438 -145q107 0 166 32.5t59 92.5q0 57 -64.5 97.5t-225.5 84.5q-240 64 -352.5 171t-112.5 279q0 185 140.5 298.5t385.5 113.5q309 0 547 -176l-154 -246q-74 57 -178 92t-203 35q-88 0 -139 -30.5t-51 -82.5
q0 -54 57.5 -91.5t214.5 -82.5q253 -70 371.5 -180t118.5 -280q0 -192 -157 -310t-415 -118z" />
    <glyph glyph-name="uni0406" unicode="&#x406;" horiz-adv-x="643" 
d="M145 0v1434h353v-1434h-353z" />
    <glyph glyph-name="uni0407" unicode="&#x407;" horiz-adv-x="643" 
d="M145 0v1434h353v-1434h-353zM-70 1724q0 75 47.5 122.5t122.5 47.5t123.5 -47.5t48.5 -122.5q0 -73 -48.5 -120.5t-123.5 -47.5t-122.5 47t-47.5 121zM371 1724q0 75 47.5 122.5t122.5 47.5t122.5 -47.5t47.5 -122.5q0 -74 -47.5 -121t-122.5 -47t-122.5 47t-47.5 121z
" />
    <glyph glyph-name="uni0408" unicode="&#x408;" horiz-adv-x="1015" 
d="M369 -25q-183 0 -361 91l121 276q98 -49 203 -49q103 0 150.5 66t47.5 204v871h353v-891q0 -568 -514 -568z" />
    <glyph glyph-name="uni0409" unicode="&#x409;" horiz-adv-x="2244" 
d="M25 307q158 32 215 100.5t69 239.5l56 787h1054v-447h228q252 0 399 -133t147 -360q0 -230 -145.5 -362t-400.5 -132h-580v1108h-377l-35 -520q-20 -280 -149.5 -423t-399.5 -181zM1413 297h193q118 0 178.5 51t60.5 150q0 98 -60.5 149t-178.5 51h-193v-401z" />
    <glyph glyph-name="uni040A" unicode="&#x40a;" horiz-adv-x="2195" 
d="M1018 0v567h-520v-567h-353v1434h353v-543h520v543h352v-447h227q252 0 399.5 -133t147.5 -360q0 -230 -146 -362t-401 -132h-579zM1364 297h192q120 0 180 52t60 149t-60 148.5t-180 51.5h-192v-401z" />
    <glyph glyph-name="uni040B" unicode="&#x40b;" horiz-adv-x="1724" 
d="M1270 336q0 129 -53.5 189.5t-167.5 60.5q-124 0 -238 -54v-532h-350v1122h-414v312h1260v-306h-498v-286q137 51 293 51q247 0 383.5 -132.5t136.5 -373.5v-387h-352v336z" />
    <glyph glyph-name="uni040C" unicode="&#x40c;" horiz-adv-x="1394" 
d="M961 0l-351 567h-112v-567h-353v1434h353v-553h112l338 553h410l-447 -703l463 -731h-413zM580 1583l129 277h344l-207 -277h-266z" />
    <glyph glyph-name="uni040D" unicode="&#x40d;" horiz-adv-x="1552" 
d="M145 0v1434h344v-863l621 863h297v-1434h-344v860l-621 -860h-297zM457 1860h344l129 -277h-264z" />
    <glyph glyph-name="uni040E" unicode="&#x40e;" horiz-adv-x="1419" 
d="M406 -25q-128 0 -238 37l70 305q74 -24 135 -24q122 0 172 100l-518 1041h389l139 -297l174 -377l158 377l127 297h385l-539 -1160q-75 -160 -181 -229.5t-273 -69.5zM385 1835l213 39q15 -113 119 -113q102 0 117 113l213 -39q-35 -264 -330 -264q-151 0 -232 66
t-100 198z" />
    <glyph glyph-name="uni040F" unicode="&#x40f;" horiz-adv-x="1525" 
d="M924 0v-322h-320v322h-459v1434h353v-1108h530v1108h354v-1434h-458z" />
    <glyph glyph-name="uni0410" unicode="&#x410;" horiz-adv-x="1536" 
d="M27 0l555 1434h376l549 -1434h-362l-90 250h-570l-90 -250h-368zM561 504h418l-207 571z" />
    <glyph glyph-name="uni0411" unicode="&#x411;" horiz-adv-x="1320" 
d="M145 0v1434h1008v-293h-666v-238h265q235 0 373.5 -121.5t138.5 -328.5q0 -210 -138 -331.5t-374 -121.5h-607zM487 272h218q103 0 161 47.5t58 133.5t-58 134t-161 48h-218v-363z" />
    <glyph glyph-name="uni0412" unicode="&#x412;" horiz-adv-x="1343" 
d="M145 0v1434h654q195 0 313.5 -104.5t118.5 -274.5q0 -197 -168 -312q99 -53 156 -145t57 -205q0 -176 -124.5 -284.5t-324.5 -108.5h-682zM481 260h256q95 0 148 45t53 125q0 78 -53 123t-148 45h-256v-338zM481 850h236q86 0 136 44t50 118t-49.5 118t-136.5 44h-236
v-324z" />
    <glyph glyph-name="uni0413" unicode="&#x413;" horiz-adv-x="1107" 
d="M145 0v1434h922v-324h-569v-1110h-353z" />
    <glyph glyph-name="uni0414" unicode="&#x414;" horiz-adv-x="1710" 
d="M43 -322v648h174q58 55 90 152.5t45 283.5l45 672h1037v-1108h225v-648h-322v322h-972v-322h-322zM600 311h483v805h-358l-25 -385q-20 -266 -100 -420z" />
    <glyph glyph-name="uni0415" unicode="&#x415;" horiz-adv-x="1226" 
d="M145 0v1434h975v-281h-631v-291h578v-276h-578v-301h656v-285h-1000z" />
    <glyph glyph-name="uni0416" unicode="&#x416;" horiz-adv-x="2095" 
d="M1669 0l-332 567h-116v-567h-347v567h-116l-332 -567h-406l441 731l-424 703h403l322 -553h112v553h347v-553h112l322 553h403l-424 -703l441 -731h-406z" />
    <glyph glyph-name="uni0417" unicode="&#x417;" horiz-adv-x="1269" 
d="M639 -18q-318 0 -573 192l161 246q174 -133 387 -133q248 0 248 153q0 69 -52 107.5t-146 38.5h-283v284h256q85 0 131.5 38.5t46.5 105.5q0 65 -55.5 102t-159.5 37q-186 0 -356 -125l-158 238q241 186 545 186q249 0 386.5 -105t137.5 -282q0 -202 -168 -328
q103 -57 160 -147.5t57 -198.5q0 -186 -144.5 -297.5t-420.5 -111.5z" />
    <glyph glyph-name="uni0418" unicode="&#x418;" horiz-adv-x="1552" 
d="M145 0v1434h344v-863l621 863h297v-1434h-344v860l-621 -860h-297z" />
    <glyph glyph-name="uni0419" unicode="&#x419;" horiz-adv-x="1552" 
d="M145 0v1434h344v-863l621 863h297v-1434h-344v860l-621 -860h-297zM459 1835l213 39q15 -113 119 -113q101 0 116 113l213 -39q-35 -264 -329 -264q-151 0 -232 66t-100 198z" />
    <glyph glyph-name="uni041A" unicode="&#x41a;" horiz-adv-x="1394" 
d="M961 0l-351 567h-112v-567h-353v1434h353v-553h112l338 553h410l-447 -703l463 -731h-413z" />
    <glyph glyph-name="uni041B" unicode="&#x41b;" horiz-adv-x="1579" 
d="M25 301q165 41 221.5 108.5t66.5 237.5l58 787h1065v-1434h-355v1108h-387l-35 -520q-19 -282 -150 -423.5t-400 -180.5z" />
    <glyph glyph-name="uni041C" unicode="&#x41c;" horiz-adv-x="1810" 
d="M825 420l-331 463v-883h-349v1434h312l446 -609l449 609h313v-1434h-350v883l-332 -463h-158z" />
    <glyph glyph-name="uni041D" unicode="&#x41d;" horiz-adv-x="1525" 
d="M1028 0v567h-530v-567h-353v1434h353v-543h530v543h354v-1434h-354z" />
    <glyph glyph-name="uni041E" unicode="&#x41e;" horiz-adv-x="1681" 
d="M840 -27q-163 0 -305 56t-242.5 154t-158.5 236.5t-58 297.5t58 297t158.5 236t242.5 154t305 56q219 0 393.5 -95.5t272.5 -265.5t98 -382t-97.5 -382t-272.5 -266t-394 -96zM436 717q0 -186 113.5 -304t290.5 -118q179 0 292 118t113 304t-113 304t-292 118
q-177 0 -290.5 -118t-113.5 -304z" />
    <glyph glyph-name="uni041F" unicode="&#x41f;" horiz-adv-x="1525" 
d="M1028 0v1108h-530v-1108h-353v1434h1237v-1434h-354z" />
    <glyph glyph-name="uni0420" unicode="&#x420;" horiz-adv-x="1312" 
d="M145 0v1434h572q259 0 407 -138t148 -376q0 -235 -148.5 -374.5t-406.5 -139.5h-219v-406h-353zM492 696h188q112 0 175 58t63 161q0 104 -62.5 162t-175.5 58h-188v-439z" />
    <glyph glyph-name="uni0421" unicode="&#x421;" horiz-adv-x="1476" 
d="M813 -27q-219 0 -387.5 96.5t-259 265.5t-90.5 382q0 156 52.5 292.5t146 236t231.5 157t301 57.5q355 0 606 -284l-215 -226q-72 91 -167 140t-202 49q-176 0 -284.5 -117.5t-108.5 -304.5q0 -188 109.5 -305t290.5 -117q236 0 393 199l215 -226q-116 -149 -280 -222
t-351 -73z" />
    <glyph glyph-name="uni0422" unicode="&#x422;" horiz-adv-x="1280" 
d="M463 0v1110h-416v324h1186v-324h-418v-1110h-352z" />
    <glyph glyph-name="uni0423" unicode="&#x423;" horiz-adv-x="1419" 
d="M406 -25q-128 0 -238 37l70 305q74 -24 135 -24q122 0 172 100l-518 1041h389l139 -297l174 -377l158 377l127 297h385l-539 -1160q-75 -160 -181 -229.5t-273 -69.5z" />
    <glyph glyph-name="uni0424" unicode="&#x424;" horiz-adv-x="1800" 
d="M731 -135v203q-193 15 -341 99t-231 226.5t-83 323.5t83 323.5t231 226.5t341 99v199h338v-199q293 -23 473 -199.5t180 -449.5t-180 -449.5t-473 -199.5v-203h-338zM416 717q0 -144 87 -234t234 -108v684q-147 -18 -234 -108t-87 -234zM1063 375q147 18 234 108t87 234
t-87 234t-234 108v-684z" />
    <glyph glyph-name="uni0425" unicode="&#x425;" horiz-adv-x="1423" 
d="M23 0l477 739l-445 695h400l143 -228l121 -202l119 202l137 228h397l-442 -697l471 -737h-402l-143 231l-143 242l-144 -242l-143 -231h-403z" />
    <glyph glyph-name="uni0426" unicode="&#x426;" horiz-adv-x="1656" 
d="M1284 -322v322h-1139v1434h353v-1110h530v1110h354v-1108h226v-648h-324z" />
    <glyph glyph-name="uni0427" unicode="&#x427;" horiz-adv-x="1421" 
d="M635 428q-261 0 -406 142t-145 397v467h354v-420q0 -135 58 -198.5t180 -63.5q129 0 248 51v631h352v-1434h-352v477q-143 -49 -289 -49z" />
    <glyph glyph-name="uni0428" unicode="&#x428;" horiz-adv-x="2361" 
d="M145 0v1434h353v-1108h510v1108h346v-1108h510v1108h352v-1434h-2071z" />
    <glyph glyph-name="uni0429" unicode="&#x429;" horiz-adv-x="2492" 
d="M2120 -322v322h-1975v1434h353v-1110h510v1110h346v-1110h510v1110h352v-1108h227v-648h-323z" />
    <glyph glyph-name="uni042A" unicode="&#x42a;" horiz-adv-x="1605" 
d="M416 0v1114h-369v320h721v-447h238q253 0 400.5 -133t147.5 -360q0 -230 -146.5 -362t-401.5 -132h-590zM764 297h203q118 0 177.5 52t59.5 149t-59.5 148.5t-177.5 51.5h-203v-401z" />
    <glyph glyph-name="uni042B" unicode="&#x42b;" horiz-adv-x="1976" 
d="M145 0v1434h353v-447h237q253 0 400 -132.5t147 -360.5q0 -230 -146 -362t-401 -132h-590zM492 297h204q118 0 178 52t60 149t-60 148.5t-178 51.5h-204v-401zM1479 0v1434h352v-1434h-352z" />
    <glyph glyph-name="uni042C" unicode="&#x42c;" horiz-adv-x="1333" 
d="M145 0v1434h353v-447h237q253 0 400 -132.5t147 -360.5q0 -230 -146 -362t-401 -132h-590zM492 297h204q118 0 178 52t60 149t-60 148.5t-178 51.5h-204v-401z" />
    <glyph glyph-name="uni042D" unicode="&#x42d;" horiz-adv-x="1482" 
d="M664 -27q-186 0 -347 69t-282 198l201 225q171 -189 405 -189q154 0 260.5 83t142.5 225h-638v272h636q-37 138 -142 219.5t-251 81.5q-108 0 -207 -45.5t-176 -132.5l-198 225q250 256 606 256q211 0 378.5 -94.5t261 -264.5t93.5 -384q0 -163 -54.5 -301.5t-151.5 -236
t-235.5 -152t-301.5 -54.5z" />
    <glyph glyph-name="uni042E" unicode="&#x42e;" horiz-adv-x="2230" 
d="M1407 -27q-284 0 -483.5 164t-249.5 430h-176v-567h-353v1434h353v-543h182q54 255 253 412t474 157q213 0 383.5 -95.5t266 -265.5t95.5 -382q0 -159 -56 -297.5t-154 -236.5t-236.5 -154t-298.5 -56zM999 717q0 -186 111.5 -304t286.5 -118q173 0 284 118t111 304
t-111 304t-284 118q-175 0 -286.5 -118t-111.5 -304z" />
    <glyph glyph-name="uni042F" unicode="&#x42f;" horiz-adv-x="1392" 
d="M897 0v463h-192l-256 -463h-398l307 520q-125 60 -193.5 171t-68.5 257q0 218 150.5 352t396.5 134h604v-1434h-350zM449 936q0 -99 59.5 -153t171.5 -54h223v416h-223q-112 0 -171.5 -54.5t-59.5 -154.5z" />
    <glyph glyph-name="uni0430" unicode="&#x430;" horiz-adv-x="1204" 
d="M430 -14q-164 0 -263 90.5t-99 238.5q0 166 123.5 260.5t338.5 94.5q125 0 248 -33v27q0 85 -54 123t-173 38q-143 0 -332 -80l-80 232q122 56 226 79t231 23q234 0 361.5 -110.5t127.5 -311.5v-657h-288l-6 129q-66 -66 -161.5 -104.5t-199.5 -38.5zM389 332
q0 -55 36.5 -85t106.5 -30q103 0 172.5 58t77.5 147q-119 35 -209 35q-184 0 -184 -125z" />
    <glyph glyph-name="uni0431" unicode="&#x431;" horiz-adv-x="1318" 
d="M670 -27q-284 0 -440 182.5t-156 526.5q0 211 36.5 359t118 250.5t203.5 162t303 92.5q160 29 240.5 50t146.5 51l103 -269q-82 -44 -172.5 -71.5t-257.5 -55.5q-211 -35 -299 -112.5t-107 -239.5q136 152 361 152q222 0 359.5 -148t137.5 -385q0 -241 -161.5 -393
t-415.5 -152zM403 524q0 -118 72.5 -191t188.5 -73q114 0 186 73t72 191q0 117 -72 190.5t-186 73.5q-116 0 -188.5 -73.5t-72.5 -190.5z" />
    <glyph glyph-name="uni0432" unicode="&#x432;" horiz-adv-x="1159" 
d="M131 0v1057h588q156 0 249 -74t93 -197q0 -73 -33 -134.5t-94 -100.5q75 -29 120.5 -99.5t45.5 -156.5q0 -132 -100 -213.5t-263 -81.5h-606zM444 215h215q127 0 127 109q0 110 -127 110h-215v-219zM444 637h197q123 0 123 104q0 50 -31 77.5t-92 27.5h-197v-209z" />
    <glyph glyph-name="uni0433" unicode="&#x433;" horiz-adv-x="937" 
d="M131 0v1057h770v-301h-436v-756h-334z" />
    <glyph glyph-name="uni0434" unicode="&#x434;" horiz-adv-x="1433" 
d="M39 -297v598h137q39 42 60 103t28 161l39 492h905v-756h183v-598h-304v297h-737v-297h-311zM528 291h359v487h-283l-18 -243q-12 -145 -58 -244z" />
    <glyph glyph-name="uni0435" unicode="&#x435;" horiz-adv-x="1249" 
d="M666 -27q-270 0 -433 152t-163 401q0 246 156.5 401.5t406.5 155.5q184 0 320.5 -89t196.5 -243.5t30 -342.5h-789q25 -84 104 -132.5t195 -48.5q175 0 318 105l129 -209q-190 -150 -471 -150zM387 621h496q-21 95 -85.5 150.5t-162.5 55.5q-95 0 -162 -55.5t-86 -150.5z
" />
    <glyph glyph-name="uni0436" unicode="&#x436;" horiz-adv-x="1783" 
d="M1380 0l-233 403h-94v-403h-322v403h-94l-234 -403h-385l332 547l-311 510h379l213 -373h100v373h322v-373h100l213 373h379l-311 -510l331 -547h-385z" />
    <glyph glyph-name="uni0437" unicode="&#x437;" horiz-adv-x="1046" 
d="M508 -23q-286 0 -471 152l133 209q143 -102 313 -102q181 0 181 94q0 42 -39 64t-109 22h-209v239h189q65 0 99 22.5t34 61.5q0 86 -154 86q-150 0 -289 -94l-129 207q202 141 461 141q206 0 317 -83.5t111 -211.5q0 -143 -129 -231q80 -34 125 -99t45 -147
q0 -154 -128 -242t-351 -88z" />
    <glyph glyph-name="uni0438" unicode="&#x438;" horiz-adv-x="1325" 
d="M131 0v1057h326v-584l456 584h281v-1057h-326v584l-456 -584h-281z" />
    <glyph glyph-name="uni0439" unicode="&#x439;" horiz-adv-x="1325" 
d="M131 0v1057h326v-584l456 584h281v-1057h-326v584l-456 -584h-281zM332 1489l198 39q18 -144 134 -144q113 0 131 144l198 -39q-34 -287 -329 -287q-150 0 -231.5 71t-100.5 216z" />
    <glyph glyph-name="uni043A" unicode="&#x43a;" horiz-adv-x="1212" 
d="M805 0l-248 403h-92v-403h-334v1057h334v-373h98l228 373h383l-332 -510l352 -547h-389z" />
    <glyph glyph-name="uni043B" unicode="&#x43b;" horiz-adv-x="1316" 
d="M23 276q128 28 172.5 74.5t54.5 171.5l45 535h895v-1057h-332v758h-258l-25 -291q-19 -226 -127.5 -334.5t-353.5 -148.5z" />
    <glyph glyph-name="uni043C" unicode="&#x43c;" horiz-adv-x="1527" 
d="M694 268l-235 310v-578h-328v1057h299l334 -445l336 445h297v-1057h-328v578l-235 -310h-140z" />
    <glyph glyph-name="uni043D" unicode="&#x43d;" horiz-adv-x="1308" 
d="M844 0v391h-379v-391h-334v1057h334v-363h379v363h334v-1057h-334z" />
    <glyph glyph-name="uni043E" unicode="&#x43e;" horiz-adv-x="1316" 
d="M659 -27q-264 0 -426.5 153t-162.5 402t162.5 402t426.5 153q263 0 425.5 -153t162.5 -402t-162.5 -402t-425.5 -153zM399 528q0 -121 72 -194.5t188 -73.5q115 0 187 73.5t72 194.5q0 120 -72.5 194.5t-186.5 74.5q-116 0 -188 -74.5t-72 -194.5z" />
    <glyph glyph-name="uni043F" unicode="&#x43f;" horiz-adv-x="1308" 
d="M844 0v758h-379v-758h-334v1057h1047v-1057h-334z" />
    <glyph glyph-name="uni0440" unicode="&#x440;" horiz-adv-x="1374" 
d="M809 -25q-212 0 -344 138v-584h-334v1528h305l4 -154q65 84 160 130t209 46q218 0 357 -153.5t139 -397.5t-139.5 -398.5t-356.5 -154.5zM459 528q0 -119 72.5 -193.5t185.5 -74.5q114 0 186 74t72 194t-72 194.5t-186 74.5q-113 0 -185.5 -75.5t-72.5 -193.5z" />
    <glyph glyph-name="uni0441" unicode="&#x441;" horiz-adv-x="1136" 
d="M633 -27q-248 0 -405.5 155.5t-157.5 399.5q0 245 158 400t407 155q136 0 252 -47.5t194 -136.5l-182 -207q-49 49 -114 77t-130 28q-114 0 -185 -75t-71 -194q0 -120 70.5 -194t187.5 -74q75 0 143.5 33t112.5 92l193 -197q-173 -215 -473 -215z" />
    <glyph glyph-name="uni0442" unicode="&#x442;" horiz-adv-x="1099" 
d="M385 0v756h-342v301h1014v-301h-338v-756h-334z" />
    <glyph glyph-name="uni0443" unicode="&#x443;" horiz-adv-x="1228" 
d="M324 -481q-110 0 -213 35l61 276q67 -18 117 -18q72 0 120 32.5t78 106.5l-462 1106h362l172 -471l76 -224l63 224l152 471h354l-444 -1229q-114 -309 -436 -309z" />
    <glyph glyph-name="uni0444" unicode="&#x444;" horiz-adv-x="1576" 
d="M625 -471v446q-252 20 -403.5 170t-151.5 383q0 235 151.5 385t403.5 170v433h327v-433q252 -20 402.5 -170t150.5 -385q0 -234 -150.5 -383.5t-402.5 -169.5v-446h-327zM393 528q0 -109 66 -181.5t176 -86.5v539q-110 -14 -176 -87.5t-66 -183.5zM940 260q112 13 178 86
t66 182q0 111 -66 184.5t-178 86.5v-539z" />
    <glyph glyph-name="uni0445" unicode="&#x445;" horiz-adv-x="1146" 
d="M768 0l-113 176l-82 135l-81 -135l-115 -176h-357l353 535l-334 522h352l113 -178l69 -119l70 119l111 178h354l-332 -522l350 -535h-358z" />
    <glyph glyph-name="uni0446" unicode="&#x446;" horiz-adv-x="1413" 
d="M1067 -297v297h-936v1057h334v-760h379v760h334v-756h190v-598h-301z" />
    <glyph glyph-name="uni0447" unicode="&#x447;" horiz-adv-x="1216" 
d="M537 287q-224 0 -342.5 115t-118.5 333v322h334v-279q0 -101 43 -147.5t135 -46.5q89 0 168 32v441h334v-1057h-334v319q-115 -32 -219 -32z" />
    <glyph glyph-name="uni0448" unicode="&#x448;" horiz-adv-x="1984" 
d="M131 0v1057h332v-760h366v760h326v-760h367v760h331v-1057h-1722z" />
    <glyph glyph-name="uni0449" unicode="&#x449;" horiz-adv-x="2088" 
d="M1741 -297v297h-1610v1057h332v-760h366v760h326v-760h367v760h331v-756h191v-598h-303z" />
    <glyph glyph-name="uni044A" unicode="&#x44a;" horiz-adv-x="1355" 
d="M330 0v756h-287v301h621v-279h208q210 0 325.5 -102.5t115.5 -286.5q0 -186 -114.5 -287.5t-326.5 -101.5h-542zM659 250h175q75 0 114 36.5t39 104.5t-39 104.5t-114 36.5h-175v-282z" />
    <glyph glyph-name="uni044B" unicode="&#x44b;" horiz-adv-x="1755" 
d="M131 0v1057h334v-279h211q210 0 325 -102.5t115 -286.5q0 -186 -114 -287.5t-326 -101.5h-545zM461 250h166q81 0 122.5 36.5t41.5 104.5t-41.5 104.5t-122.5 36.5h-166v-282zM1290 0v1057h334v-1057h-334z" />
    <glyph glyph-name="uni044C" unicode="&#x44c;" horiz-adv-x="1159" 
d="M131 0v1057h334v-279h211q210 0 325 -102.5t115 -286.5q0 -186 -114 -287.5t-326 -101.5h-545zM461 250h166q81 0 122.5 36.5t41.5 104.5t-41.5 104.5t-122.5 36.5h-166v-282z" />
    <glyph glyph-name="uni044D" unicode="&#x44d;" horiz-adv-x="1138" 
d="M510 -27q-151 0 -267.5 48t-209.5 151l174 184q46 -54 117.5 -85t150.5 -31q102 0 172 47.5t96 132.5h-413v221h411q-28 82 -97.5 129t-166.5 47q-69 0 -136 -26t-118 -72l-160 194q187 170 443 170q251 0 407 -155t156 -400q0 -243 -158 -399t-401 -156z" />
    <glyph glyph-name="uni044E" unicode="&#x44e;" horiz-adv-x="1822" 
d="M1182 -27q-217 0 -365.5 111t-189.5 301h-162v-385h-334v1057h334v-369h164q48 183 194.5 289t358.5 106q255 0 412 -153t157 -402t-157 -402t-412 -153zM909 528q0 -120 72 -194t186 -74q116 0 188 74t72 194t-72 194.5t-188 74.5q-114 0 -186 -74.5t-72 -194.5z" />
    <glyph glyph-name="uni044F" unicode="&#x44f;" horiz-adv-x="1202" 
d="M737 0v313h-149l-174 -313h-369l221 371q-88 47 -135 127.5t-47 185.5q0 172 119.5 272.5t326.5 100.5h541v-1057h-334zM412 674q0 -62 40 -96.5t113 -34.5h178v264h-178q-73 0 -113 -35t-40 -98z" />
    <glyph glyph-name="uni0450" unicode="&#x450;" horiz-adv-x="1249" 
d="M666 -27q-270 0 -433 152t-163 401q0 246 156.5 401.5t406.5 155.5q184 0 320.5 -89t196.5 -243.5t30 -342.5h-789q25 -84 104 -132.5t195 -48.5q175 0 318 105l129 -209q-190 -150 -471 -150zM315 1516h336l131 -299h-256zM387 621h496q-21 95 -85.5 150.5t-162.5 55.5
q-95 0 -162 -55.5t-86 -150.5z" />
    <glyph glyph-name="uni0451" unicode="&#x451;" horiz-adv-x="1249" 
d="M666 -27q-270 0 -433 152t-163 401q0 246 156.5 401.5t406.5 155.5q184 0 320.5 -89t196.5 -243.5t30 -342.5h-789q25 -84 104 -132.5t195 -48.5q175 0 318 105l129 -209q-190 -150 -471 -150zM252 1346q0 72 47 117.5t119 45.5q74 0 121 -45.5t47 -117.5
q0 -73 -47 -119.5t-121 -46.5q-72 0 -119 46.5t-47 119.5zM387 621h496q-21 95 -85.5 150.5t-162.5 55.5q-95 0 -162 -55.5t-86 -150.5zM682 1346q0 72 47.5 117.5t120.5 45.5q74 0 121 -45.5t47 -117.5q0 -73 -47 -119.5t-121 -46.5q-73 0 -120.5 46.5t-47.5 119.5z" />
    <glyph glyph-name="uni0452" unicode="&#x452;" horiz-adv-x="1335" 
d="M827 -494q-117 0 -221 37l62 258q59 -16 104 -16q58 0 83.5 31.5t25.5 105.5v639q0 207 -176 207q-98 0 -152.5 -60t-54.5 -165v-543h-334v1153h-184v201h184v162h334v-162h288v-197h-288v-239q133 145 327 145q177 0 283 -115t106 -299v-764q0 -188 -97.5 -283.5
t-289.5 -95.5z" />
    <glyph glyph-name="uni0453" unicode="&#x453;" horiz-adv-x="937" 
d="M131 0v1057h770v-301h-436v-756h-334zM358 1217l134 299h333l-211 -299h-256z" />
    <glyph glyph-name="uni0454" unicode="&#x454;" horiz-adv-x="1138" 
d="M629 -27q-243 0 -401 156t-158 399q0 245 156 400t407 155q255 0 442 -170l-160 -194q-51 46 -117.5 72t-135.5 26q-98 0 -167.5 -47t-97.5 -129h412v-221h-414q26 -85 96.5 -132.5t172.5 -47.5q79 0 150.5 31t117.5 85l174 -184q-93 -103 -209.5 -151t-267.5 -48z" />
    <glyph glyph-name="uni0455" unicode="&#x455;" horiz-adv-x="1036" 
d="M528 -20q-256 0 -475 141l119 227q186 -110 352 -110q67 0 103.5 19.5t36.5 55.5q0 33 -40 57.5t-137 47.5q-200 46 -292.5 128.5t-92.5 215.5q0 143 107.5 228t304.5 85q243 0 447 -127l-119 -219q-59 40 -147.5 67t-162.5 27q-120 0 -120 -65q0 -36 38 -58.5t142 -46.5
q200 -45 294.5 -128.5t94.5 -209.5q0 -154 -123 -244.5t-330 -90.5z" />
    <glyph glyph-name="uni0456" unicode="&#x456;" horiz-adv-x="595" 
d="M131 0v1057h334v-1057h-334zM94 1372q0 88 56 141.5t147 53.5q92 0 148.5 -53.5t56.5 -141.5t-56.5 -142t-148.5 -54q-91 0 -147 54t-56 142z" />
    <glyph glyph-name="uni0457" unicode="&#x457;" horiz-adv-x="595" 
d="M131 0v1057h334v-1057h-334zM-66 1346q0 70 45.5 116.5t114.5 46.5t115.5 -46.5t46.5 -116.5q0 -72 -46.5 -119t-115.5 -47t-114.5 47t-45.5 119zM344 1346q0 70 45.5 116.5t114.5 46.5t115.5 -46.5t46.5 -116.5q0 -72 -46.5 -119t-115.5 -47t-114.5 47t-45.5 119z" />
    <glyph glyph-name="uni0458" unicode="&#x458;" horiz-adv-x="591" 
d="M70 -494q-121 0 -228 37l62 264q62 -16 108 -16q63 0 89 31.5t26 105.5v1129h334v-1172q0 -188 -99 -283.5t-292 -95.5zM90 1372q0 88 56.5 141.5t148.5 53.5q91 0 147 -53.5t56 -141.5t-56 -142t-147 -54q-92 0 -148.5 54t-56.5 142z" />
    <glyph glyph-name="uni0459" unicode="&#x459;" horiz-adv-x="1867" 
d="M23 276q123 27 169 72.5t56 163.5l47 545h893v-279h209q201 0 315.5 -103t114.5 -286q0 -185 -113.5 -287t-316.5 -102h-541v758h-256l-25 -291q-19 -226 -128 -335.5t-353 -147.5zM1182 250h166q73 0 113 36.5t40 104.5t-40 104.5t-113 36.5h-166v-282z" />
    <glyph glyph-name="uni045A" unicode="&#x45a;" horiz-adv-x="1853" 
d="M842 0v391h-377v-391h-334v1057h334v-363h377v363h332v-279h206q202 0 316 -103t114 -286q0 -186 -113 -287.5t-317 -101.5h-538zM1167 250h170q71 0 110.5 37t39.5 104t-39.5 104t-110.5 37h-170v-282z" />
    <glyph glyph-name="uni045B" unicode="&#x45b;" horiz-adv-x="1335" 
d="M164 0v1153h-184v201h184v162h334v-162h288v-197h-288v-239q133 145 327 145q177 0 283 -114.5t106 -297.5v-651h-333v563q0 205 -176 205q-98 0 -152.5 -60t-54.5 -165v-543h-334z" />
    <glyph glyph-name="uni045C" unicode="&#x45c;" horiz-adv-x="1212" 
d="M805 0l-248 403h-92v-403h-334v1057h334v-373h98l228 373h383l-332 -510l352 -547h-389zM471 1217l131 299h334l-211 -299h-254z" />
    <glyph glyph-name="uni045D" unicode="&#x45d;" horiz-adv-x="1325" 
d="M131 0v1057h326v-584l456 584h281v-1057h-326v584l-456 -584h-281zM344 1516h336l131 -299h-256z" />
    <glyph glyph-name="uni045E" unicode="&#x45e;" horiz-adv-x="1228" 
d="M324 -481q-110 0 -213 35l61 276q67 -18 117 -18q72 0 120 32.5t78 106.5l-462 1106h362l172 -471l76 -224l63 224l152 471h354l-444 -1229q-114 -309 -436 -309zM295 1489l199 39q18 -144 133 -144q113 0 131 144l198 -39q-34 -287 -329 -287q-150 0 -231.5 71
t-100.5 216z" />
    <glyph glyph-name="uni045F" unicode="&#x45f;" horiz-adv-x="1308" 
d="M807 0v-297h-305v297h-371v1057h334v-760h379v760h334v-1057h-371z" />
    <glyph glyph-name="uni0490" unicode="&#x490;" horiz-adv-x="1107" 
d="M145 0v1434h594v307h328v-631h-569v-1110h-353z" />
    <glyph glyph-name="uni0491" unicode="&#x491;" horiz-adv-x="946" 
d="M131 0v1057h465v301h313v-602h-444v-756h-334z" />
    <glyph glyph-name="uni04D4" unicode="&#x4d4;" horiz-adv-x="2029" 
d="M20 0l857 1434h1046v-277h-565v-293h512v-270h-512v-313h590v-281h-920v260h-455l-147 -260h-406zM702 506h326v584z" />
    <glyph glyph-name="uni04D5" unicode="&#x4d5;" horiz-adv-x="1921" 
d="M1378 -27q-146 0 -260.5 51t-187.5 146q-157 -197 -457 -197q-192 0 -298.5 93.5t-106.5 248.5q0 166 123 260.5t337 94.5q123 0 246 -33v27q0 89 -55.5 127t-169.5 38q-145 0 -330 -84l-82 234q118 56 218.5 80t219.5 24q255 0 379 -161q145 161 385 161
q104 0 194.5 -33.5t155.5 -94t110 -145t57 -186t-3 -216.5h-772q26 -85 101.5 -133t181.5 -48q176 0 319 107l127 -211q-177 -150 -432 -150zM389 330q0 -54 36 -83.5t105 -29.5q104 0 174.5 58.5t75.5 146.5q-122 35 -209 35q-182 0 -182 -127zM1075 621h481
q-21 95 -83 150.5t-154 55.5q-93 0 -158.5 -55t-85.5 -151z" />
    <glyph glyph-name="uni04D8" unicode="&#x4d8;" horiz-adv-x="1538" 
d="M760 -27q-170 0 -311.5 69.5t-231 187.5t-128.5 280.5t-13 343.5h1038q-26 147 -139 234.5t-281 87.5q-232 0 -420 -164l-143 225q117 107 268.5 165t321.5 58q335 0 537 -205t202 -538q0 -215 -88 -384.5t-248 -264.5t-364 -95zM397 604q25 -155 120 -248.5t239 -93.5
q142 0 238.5 93t121.5 249h-719z" />
    <glyph glyph-name="uni04D9" unicode="&#x4d9;" horiz-adv-x="1249" 
d="M584 1083q270 0 433 -152t163 -401q0 -246 -157 -401.5t-407 -155.5q-184 0 -320 89t-196 244t-30 343h788q-25 84 -104 132t-195 48q-175 0 -317 -104l-129 209q189 149 471 149zM367 436q21 -95 85.5 -151t161.5 -56q95 0 162 56t86 151h-495z" />
    <glyph glyph-name="Wgrave" unicode="&#x1e80;" horiz-adv-x="2254" 
d="M475 0l-440 1434h364l154 -527l127 -461l283 934h329l287 -936l127 463l152 527h362l-434 -1434h-375l-168 522l-115 373l-112 -373l-168 -522h-373zM795 1860h344l129 -277h-264z" />
    <glyph glyph-name="wgrave" unicode="&#x1e81;" horiz-adv-x="1835" 
d="M383 0l-352 1057h350l88 -316l98 -362l215 639h275l219 -647l98 370l86 316h344l-348 -1057h-323l-101 295l-112 334l-113 -334l-100 -295h-324zM600 1516h336l131 -299h-256z" />
    <glyph glyph-name="Wacute" unicode="&#x1e82;" horiz-adv-x="2254" 
d="M475 0l-440 1434h364l154 -527l127 -461l283 934h329l287 -936l127 463l152 527h362l-434 -1434h-375l-168 522l-115 373l-112 -373l-168 -522h-373zM989 1583l129 277h342l-207 -277h-264z" />
    <glyph glyph-name="wacute" unicode="&#x1e83;" horiz-adv-x="1835" 
d="M383 0l-352 1057h350l88 -316l98 -362l215 639h275l219 -647l98 370l86 316h344l-348 -1057h-323l-101 295l-112 334l-113 -334l-100 -295h-324zM772 1217l131 299h336l-213 -299h-254z" />
    <glyph glyph-name="Wdieresis" unicode="&#x1e84;" horiz-adv-x="2254" 
d="M475 0l-440 1434h364l154 -527l127 -461l283 934h329l287 -936l127 463l152 527h362l-434 -1434h-375l-168 522l-115 373l-112 -373l-168 -522h-373zM737 1724q0 75 47.5 122.5t122.5 47.5t123.5 -47.5t48.5 -122.5q0 -73 -48.5 -120.5t-123.5 -47.5t-122.5 47t-47.5 121
zM1178 1724q0 75 47.5 122.5t122.5 47.5t122.5 -47.5t47.5 -122.5q0 -74 -47.5 -121t-122.5 -47t-122.5 47t-47.5 121z" />
    <glyph glyph-name="wdieresis" unicode="&#x1e85;" horiz-adv-x="1835" 
d="M383 0l-352 1057h350l88 -316l98 -362l215 639h275l219 -647l98 370l86 316h344l-348 -1057h-323l-101 295l-112 334l-113 -334l-100 -295h-324zM537 1346q0 72 46.5 117.5t118.5 45.5q74 0 121 -45.5t47 -117.5q0 -73 -47 -119.5t-121 -46.5q-72 0 -118.5 46.5
t-46.5 119.5zM967 1346q0 72 47.5 117.5t120.5 45.5q74 0 121 -45.5t47 -117.5q0 -73 -47 -119.5t-121 -46.5q-73 0 -120.5 46.5t-47.5 119.5z" />
    <glyph glyph-name="uni1E9E" unicode="&#x1e9e;" horiz-adv-x="1484" 
d="M926 -23q-197 0 -351 80l105 269q99 -54 194 -54q94 0 147.5 49t53.5 132q0 75 -45.5 120.5t-121 55t-173.5 -7.5l-61 178l276 352h-209q-256 0 -256 -293v-858h-352v844q0 284 138 437t415 153h619v-240l-265 -336q167 -29 269 -148t102 -288q0 -205 -129.5 -325
t-355.5 -120z" />
    <glyph glyph-name="Ygrave" unicode="&#x1ef2;" horiz-adv-x="1429" 
d="M539 0v530l-516 904h401l162 -297l131 -256l137 256l164 297h389l-516 -904v-530h-352zM389 1860h344l129 -277h-264z" />
    <glyph glyph-name="ygrave" unicode="&#x1ef3;" horiz-adv-x="1228" 
d="M324 -481q-110 0 -213 35l61 276q67 -18 117 -18q72 0 120 32.5t78 106.5l-462 1106h362l172 -471l76 -224l63 224l152 471h354l-444 -1229q-114 -309 -436 -309zM305 1516h336l131 -299h-256z" />
    <glyph glyph-name="uni2009" unicode="&#x2009;" horiz-adv-x="370" 
 />
    <glyph glyph-name="uni200B" unicode="&#x200b;" 
 />
    <glyph glyph-name="endash" unicode="&#x2013;" horiz-adv-x="1116" 
d="M1044 416h-974v276h974v-276z" />
    <glyph glyph-name="emdash" unicode="&#x2014;" horiz-adv-x="1392" 
d="M1319 416h-1249v276h1249v-276z" />
    <glyph glyph-name="quoteleft" unicode="&#x2018;" horiz-adv-x="534" 
d="M403 1571q-55 -63 -81.5 -117.5t-32.5 -120.5q69 -5 115.5 -53t46.5 -115q0 -75 -50 -123.5t-125 -48.5q-87 0 -137.5 64.5t-50.5 175.5q0 117 58.5 229t162.5 197z" />
    <glyph glyph-name="quoteright" unicode="&#x2019;" horiz-adv-x="534" 
d="M129 1067q56 62 83 116.5t34 121.5q-70 4 -116 52t-46 116q0 75 49.5 123.5t124.5 48.5q87 0 137.5 -64.5t50.5 -175.5q0 -117 -58.5 -229t-162.5 -197z" />
    <glyph glyph-name="quotesinglbase" unicode="&#x201a;" horiz-adv-x="534" 
d="M129 -242q57 64 84 119t33 121q-71 5 -116.5 52t-45.5 116q0 73 49.5 121.5t124.5 48.5q88 0 138 -64t50 -176q0 -115 -58.5 -227t-162.5 -197z" />
    <glyph glyph-name="quotedblleft" unicode="&#x201c;" horiz-adv-x="970" 
d="M842 1571q-56 -62 -83 -116.5t-34 -121.5q69 -3 115.5 -51t46.5 -117q0 -75 -48.5 -123.5t-123.5 -48.5q-88 0 -138.5 64.5t-50.5 175.5q0 117 58 229t161 197zM88 1233q0 117 58.5 229t162.5 197l94 -88q-55 -63 -81.5 -117.5t-32.5 -120.5q69 -5 115.5 -53t46.5 -115
q0 -75 -50 -123.5t-125 -48.5q-87 0 -137.5 64.5t-50.5 175.5z" />
    <glyph glyph-name="quotedblright" unicode="&#x201d;" horiz-adv-x="968" 
d="M129 1067q56 62 83 116.5t34 121.5q-70 4 -116 52t-46 116q0 75 49.5 123.5t124.5 48.5q87 0 137.5 -64.5t50.5 -175.5q0 -117 -58.5 -229t-162.5 -197zM518 1473q0 75 49.5 123.5t124.5 48.5q88 0 138.5 -64.5t50.5 -175.5q0 -117 -58.5 -229t-163.5 -197l-94 88
q55 63 82 117.5t33 120.5q-69 5 -115.5 53t-46.5 115z" />
    <glyph glyph-name="quotedblbase" unicode="&#x201e;" horiz-adv-x="970" 
d="M129 -242q57 64 84 119t33 121q-71 5 -116.5 52t-45.5 116q0 73 49.5 121.5t124.5 48.5q88 0 138 -64t50 -176q0 -115 -58.5 -227t-162.5 -197zM522 166q0 74 48.5 122t123.5 48q88 0 139.5 -64t51.5 -176q0 -115 -58.5 -227t-162.5 -197l-97 86q57 64 84 119t33 121
q-69 3 -115.5 50.5t-46.5 117.5z" />
    <glyph glyph-name="dagger" unicode="&#x2020;" horiz-adv-x="1142" 
d="M440 -471v1030h-346v244h346v469h262v-469h347v-244h-347v-1030h-262z" />
    <glyph glyph-name="daggerdbl" unicode="&#x2021;" horiz-adv-x="1142" 
d="M440 -471v481h-346v240h346v354h-346v240h346v428h262v-428h347v-240h-347v-354h347v-240h-347v-481h-262z" />
    <glyph glyph-name="bullet" unicode="&#x2022;" horiz-adv-x="796" 
d="M401 311q-129 0 -215 79.5t-86 207.5q0 127 86.5 207t214.5 80q127 0 213 -80t86 -207q0 -128 -86 -207.5t-213 -79.5z" />
    <glyph glyph-name="ellipsis" unicode="&#x2026;" horiz-adv-x="1533" 
d="M274 -20q-81 0 -135.5 50t-54.5 132q0 80 54.5 131t135.5 51t136 -51t55 -131q0 -82 -55 -132t-136 -50zM578 162q0 80 54.5 131t135.5 51t135.5 -51t54.5 -131q0 -82 -54.5 -132t-135.5 -50t-135.5 50t-54.5 132zM1069 162q0 80 55 131t136 51t135.5 -51t54.5 -131
q0 -82 -54.5 -132t-135.5 -50t-136 50t-55 132z" />
    <glyph glyph-name="perthousand" unicode="&#x2030;" horiz-adv-x="2439" 
d="M2066 -16q-155 0 -252.5 92.5t-97.5 240.5t97.5 242t252.5 94q154 0 251.5 -94t97.5 -242t-97.5 -240.5t-251.5 -92.5zM47 1112q0 150 98 244t254 94q155 0 253 -94.5t98 -243.5q0 -150 -97.5 -244t-253.5 -94q-157 0 -254.5 93.5t-97.5 244.5zM252 82l989 1391l170 -121
l-987 -1391zM266 1112q0 -60 37.5 -98.5t95.5 -38.5t94.5 38.5t36.5 98.5q0 59 -36.5 97t-94.5 38t-95.5 -38t-37.5 -97zM915 322q0 150 98 243.5t255 93.5q156 0 253 -93.5t97 -243.5q0 -149 -97.5 -243.5t-252.5 -94.5q-157 0 -255 94.5t-98 243.5zM1135 322
q0 -59 37.5 -97.5t95.5 -38.5t94.5 38.5t36.5 97.5q0 60 -36.5 98.5t-94.5 38.5t-95.5 -38.5t-37.5 -98.5zM1931 317q0 -60 37.5 -98.5t97.5 -38.5q59 0 96.5 38.5t37.5 98.5t-38 100t-96 40q-60 0 -97.5 -39.5t-37.5 -100.5z" />
    <glyph glyph-name="minute" unicode="&#x2032;" horiz-adv-x="524" 
d="M68 922l106 634h291l-127 -634h-270z" />
    <glyph glyph-name="second" unicode="&#x2033;" horiz-adv-x="911" 
d="M457 922l121 634h276l-141 -634h-256zM68 922l100 634h274l-120 -634h-254z" />
    <glyph glyph-name="guilsinglleft" unicode="&#x2039;" horiz-adv-x="915" 
d="M588 -14l-490 589l490 586l205 -180l-336 -406l336 -411z" />
    <glyph glyph-name="guilsinglright" unicode="&#x203a;" horiz-adv-x="915" 
d="M328 1163l489 -590l-489 -585l-205 180l336 405l-336 412z" />
    <glyph glyph-name="uni203D" unicode="&#x203d;" horiz-adv-x="1118" 
d="M401 414l-12 444v219h264v-182v-25q80 72 80 164q0 78 -56 120t-161 42q-89 0 -174 -42t-149 -118l-164 193q108 120 234.5 175.5t289.5 55.5q222 0 351.5 -114t129.5 -289q0 -112 -51 -199.5t-176 -177.5q-70 -48 -94.5 -88.5t-24.5 -112.5v-65h-287zM354 160
q0 79 53.5 129.5t137.5 50.5q82 0 136 -50.5t54 -129.5t-54 -129.5t-136 -50.5q-84 0 -137.5 50.5t-53.5 129.5z" />
    <glyph glyph-name="fraction" unicode="&#x2044;" horiz-adv-x="419" 
d="M-221 -100l-166 114l1028 1538l166 -114z" />
    <glyph glyph-name="uni2070" unicode="&#x2070;" horiz-adv-x="737" 
d="M369 954q-146 0 -231 96t-85 263t84.5 262.5t231.5 95.5q148 0 231.5 -95.5t83.5 -262.5q0 -168 -83.5 -263.5t-231.5 -95.5zM252 1313q0 -183 117 -183q116 0 116 183q0 182 -116 182q-117 0 -117 -182z" />
    <glyph glyph-name="uni2074" unicode="&#x2074;" horiz-adv-x="651" 
d="M358 967v110h-335v150l331 432h187v-418h71v-164h-71v-110h-183zM225 1235h142v186z" />
    <glyph glyph-name="uni2075" unicode="&#x2075;" horiz-adv-x="608" 
d="M291 954q-150 0 -256 82l88 152q77 -55 147 -55q38 0 63 17t25 46q0 34 -27.5 52t-70.5 18q-50 0 -113 -17l-69 58l24 352h416v-168h-262l-4 -88q38 6 72 6q105 0 172 -58.5t67 -162.5q0 -107 -75 -170.5t-197 -63.5z" />
    <glyph glyph-name="uni2076" unicode="&#x2076;" horiz-adv-x="653" 
d="M344 954q-135 0 -213 90t-78 254q0 179 81.5 276t227.5 97q112 0 209 -57l-67 -129q-60 31 -123 31q-61 0 -100 -35.5t-50 -100.5q56 50 144 50q104 0 167.5 -64.5t63.5 -165.5q0 -109 -71.5 -177.5t-190.5 -68.5zM248 1196q0 -39 23.5 -62.5t64.5 -23.5q37 0 62.5 24
t25.5 62q0 39 -25.5 63.5t-62.5 24.5q-41 0 -64.5 -24t-23.5 -64z" />
    <glyph glyph-name="uni2077" unicode="&#x2077;" horiz-adv-x="577" 
d="M143 967l166 518h-270v174h493v-131l-180 -561h-209z" />
    <glyph glyph-name="uni2078" unicode="&#x2078;" horiz-adv-x="667" 
d="M334 954q-131 0 -208 56.5t-77 150.5q0 107 96 168q-73 61 -73 148q0 88 71 141t191 53t191 -53t71 -141q0 -89 -74 -148q96 -59 96 -168q0 -94 -76.5 -150.5t-207.5 -56.5zM244 1178q0 -35 25 -57.5t65 -22.5q41 0 65.5 22t24.5 58q0 37 -24.5 59.5t-65.5 22.5
q-40 0 -65 -22.5t-25 -59.5zM260 1462q0 -30 20.5 -48.5t53.5 -18.5q34 0 54 18t20 49q0 29 -20 47.5t-54 18.5q-32 0 -53 -18.5t-21 -47.5z" />
    <glyph glyph-name="uni2079" unicode="&#x2079;" horiz-adv-x="653" 
d="M309 1671q135 0 213 -90t78 -254q0 -179 -81.5 -276t-227.5 -97q-110 0 -209 58l68 129q60 -31 122 -31q61 0 100 35t50 100q-55 -49 -143 -49q-105 0 -168.5 64t-63.5 165q0 109 71.5 177.5t190.5 68.5zM229 1430q0 -39 25.5 -64t62.5 -25q41 0 65 24.5t24 64.5
q0 39 -24 62.5t-65 23.5q-37 0 -62.5 -24t-25.5 -62z" />
    <glyph glyph-name="uni2080" unicode="&#x2080;" horiz-adv-x="737" 
d="M369 -238q-146 0 -231 96t-85 263t84.5 262.5t231.5 95.5q148 0 231.5 -95.5t83.5 -262.5q0 -168 -83.5 -263.5t-231.5 -95.5zM252 121q0 -182 117 -182q116 0 116 182t-116 182q-117 0 -117 -182z" />
    <glyph glyph-name="uni2081" unicode="&#x2081;" horiz-adv-x="466" 
d="M207 -225v442q-83 -18 -176 -18v161q81 0 127.5 25t79.5 82h165v-692h-196z" />
    <glyph glyph-name="uni2082" unicode="&#x2082;" horiz-adv-x="618" 
d="M51 -225v129l211 227q46 51 60 73t14 44q0 26 -18 41.5t-50 15.5q-70 0 -137 -67l-104 129q64 61 126.5 86.5t141.5 25.5q113 0 181.5 -58t68.5 -155q0 -61 -27 -109.5t-110 -138.5l-62 -69h219v-174h-514z" />
    <glyph glyph-name="uni2083" unicode="&#x2083;" horiz-adv-x="606" 
d="M285 -238q-148 0 -252 82l88 150q71 -53 147 -53q43 0 67.5 17.5t24.5 49.5q0 45 -42 62t-115 0l-43 94l121 131h-43h-162v172h448v-121l-141 -147q82 -17 131 -73t49 -134q0 -103 -77 -166.5t-201 -63.5z" />
    <glyph glyph-name="uni2084" unicode="&#x2084;" horiz-adv-x="651" 
d="M358 -225v110h-335v150l331 432h187v-418h71v-164h-71v-110h-183zM225 43h142v186z" />
    <glyph glyph-name="uni2085" unicode="&#x2085;" horiz-adv-x="608" 
d="M291 -238q-150 0 -256 82l88 152q77 -55 147 -55q38 0 63 17t25 46q0 34 -27.5 52t-70.5 18q-50 0 -113 -17l-69 58l24 352h416v-168h-262l-4 -88q38 6 72 6q105 0 172 -58.5t67 -162.5q0 -107 -75 -170.5t-197 -63.5z" />
    <glyph glyph-name="uni2086" unicode="&#x2086;" horiz-adv-x="653" 
d="M344 -238q-135 0 -213 90t-78 254q0 179 81.5 276t227.5 97q112 0 209 -57l-67 -129q-60 31 -123 31q-61 0 -100 -35.5t-50 -100.5q56 50 144 50q104 0 167.5 -64.5t63.5 -165.5q0 -109 -71.5 -177.5t-190.5 -68.5zM248 4q0 -39 23.5 -62.5t64.5 -23.5q37 0 62.5 24
t25.5 62q0 39 -25.5 63.5t-62.5 24.5q-41 0 -64.5 -24t-23.5 -64z" />
    <glyph glyph-name="uni2087" unicode="&#x2087;" horiz-adv-x="577" 
d="M143 -225l166 518h-270v174h493v-131l-180 -561h-209z" />
    <glyph glyph-name="uni2088" unicode="&#x2088;" horiz-adv-x="667" 
d="M334 -238q-131 0 -208 56.5t-77 150.5q0 107 96 168q-73 61 -73 148q0 88 71 141t191 53t191 -53t71 -141q0 -89 -74 -148q96 -59 96 -168q0 -94 -76.5 -150.5t-207.5 -56.5zM244 -14q0 -35 25 -57.5t65 -22.5q41 0 65.5 22t24.5 58q0 37 -24.5 59.5t-65.5 22.5
q-40 0 -65 -22.5t-25 -59.5zM260 270q0 -30 20.5 -48.5t53.5 -18.5q34 0 54 18t20 49q0 29 -20 47.5t-54 18.5q-32 0 -53 -18.5t-21 -47.5z" />
    <glyph glyph-name="uni2089" unicode="&#x2089;" horiz-adv-x="653" 
d="M309 479q135 0 213 -90t78 -254q0 -179 -81.5 -276t-227.5 -97q-110 0 -209 58l68 129q60 -31 122 -31q61 0 100 35t50 100q-55 -49 -143 -49q-105 0 -168.5 64t-63.5 165q0 109 71.5 177.5t190.5 68.5zM229 238q0 -39 25.5 -63.5t62.5 -24.5q41 0 65 24t24 64
q0 39 -24 62.5t-65 23.5q-37 0 -62.5 -24t-25.5 -62z" />
    <glyph glyph-name="Euro" unicode="&#x20ac;" horiz-adv-x="1619" 
d="M971 -27q-269 0 -451.5 130t-249.5 354h-235v211h201q-3 24 -3 47l3 53h-201v211h237q69 221 248.5 351t437.5 130q355 0 615 -278l-203 -209q-175 190 -393 190q-117 0 -208 -54t-144 -151h462v-190h-516q-2 -16 -2 -51q0 -33 2 -49h516v-191h-462q53 -98 146.5 -152.5
t213.5 -54.5q119 0 213.5 48.5t177.5 148.5l211 -203q-244 -291 -616 -291z" />
    <glyph glyph-name="uni20B4" unicode="&#x20b4;" horiz-adv-x="1296" 
d="M666 -23q-226 0 -361 94t-135 259q0 72 29 141h-138v197h1174v-197h-709q-24 -35 -24 -84q0 -69 52 -105t146 -36q161 0 347 119l131 -228q-99 -72 -235.5 -116t-276.5 -44zM61 768v199h738q22 32 22 80q0 70 -46 106.5t-136 36.5q-141 0 -309 -111l-142 219
q202 160 478 160q210 0 342.5 -103t132.5 -263q0 -64 -25 -125h119v-199h-1174z" />
    <glyph glyph-name="uni20BA" unicode="&#x20ba;" horiz-adv-x="1460" 
d="M299 0v446l-184 -69l-68 190l264 101v106l-198 -76l-70 191l256 98v447h352v-314l328 125l68 -192l-408 -154v-108l344 131l68 -193l-400 -149v-275h162q62 0 109 10.5t80 29.5t58.5 52t42.5 71t34 93l268 -108q-56 -230 -187 -341.5t-380 -111.5h-539z" />
    <glyph glyph-name="uni20BD" unicode="&#x20bd;" horiz-adv-x="1376" 
d="M258 0v213h-209v201h209v92h-205v246h205v682h553q234 0 379 -129.5t145 -339.5q0 -209 -147.5 -334t-394.5 -125h-183v-92h285v-201h-285v-213h-352zM604 752h176q102 0 160.5 50.5t58.5 139.5q0 88 -59 140.5t-160 52.5h-176v-383z" />
    <glyph glyph-name="uni2103" unicode="&#x2103;" horiz-adv-x="2222" 
d="M389 866q-140 0 -230.5 87t-90.5 218t90.5 218.5t230.5 87.5t231 -87.5t91 -218.5t-91 -218t-231 -87zM248 1171q0 -62 39 -100.5t102 -38.5t102 38.5t39 100.5t-39 101t-102 39t-102 -39t-39 -101zM819 717q0 156 52.5 292.5t146 236t231.5 157t301 57.5q356 0 607 -284
l-215 -226q-72 91 -167 140t-202 49q-176 0 -284.5 -117.5t-108.5 -304.5q0 -189 109 -305.5t290 -116.5q236 0 393 199l215 -226q-116 -149 -280 -222t-351 -73q-219 0 -387.5 96.5t-259 265.5t-90.5 382z" />
    <glyph glyph-name="uni2109" unicode="&#x2109;" horiz-adv-x="1916" 
d="M389 866q-140 0 -230.5 87t-90.5 218t90.5 218.5t230.5 87.5t231 -87.5t91 -218.5t-91 -218t-231 -87zM248 1171q0 -62 39 -100.5t102 -38.5t102 38.5t39 100.5t-39 101t-102 39t-102 -39t-39 -101zM911 0v1434h949v-295h-598v-332h540v-287h-538v-520h-353z" />
    <glyph glyph-name="uni2113" unicode="&#x2113;" horiz-adv-x="1034" 
d="M641 -25q-190 0 -293 108t-106 323l-111 -44l-86 230l197 78v454q0 191 102 299.5t274 108.5q159 0 260 -105.5t101 -304.5q0 -408 -467 -608v-96q0 -99 43 -147t131 -48q81 0 172 35l70 -219q-137 -64 -287 -64zM512 784q199 111 199 334q0 84 -27 126t-74 42t-72.5 -39
t-25.5 -112v-351z" />
    <glyph glyph-name="uni2116" unicode="&#x2116;" horiz-adv-x="2316" 
d="M1923 768q-156 0 -257 98.5t-101 241.5q0 144 101 242t257 98q161 0 259.5 -96t98.5 -244q0 -147 -99 -243.5t-259 -96.5zM145 0v1434h285l639 -850v850h338v-1434h-287l-637 852v-852h-338zM1608 410v215h630v-215h-630zM1784 1108q0 -63 39.5 -101t99.5 -38t99.5 38
t39.5 101t-39.5 101t-99.5 38t-99.5 -38t-39.5 -101z" />
    <glyph glyph-name="uni2117" unicode="&#x2117;" horiz-adv-x="1671" 
d="M836 -37q-216 0 -390 97t-272 269.5t-98 387.5q0 161 57 302t157 241t241.5 157.5t304.5 57.5q218 0 391 -98t269.5 -271t96.5 -389t-97.5 -388.5t-270.5 -269t-389 -96.5zM301 717q0 -237 151 -391t384 -154q230 0 381 154.5t151 390.5q0 238 -149 391.5t-383 153.5
q-233 0 -384 -153.5t-151 -391.5zM586 313v789h303q141 0 219 -75.5t78 -203.5q0 -127 -78.5 -202.5t-218.5 -75.5h-107v-232h-196zM780 715h88q55 0 86 29t31 79q0 51 -31 81t-86 30h-88v-219z" />
    <glyph glyph-name="trademark" unicode="&#x2122;" horiz-adv-x="1200" 
d="M545 895v539h145l154 -207l153 207h144v-539h-166v264l-96 -135h-74l-96 135v-264h-164zM41 1286v148h453v-148h-144v-391h-164v391h-145z" />
    <glyph glyph-name="uni2126" unicode="&#x2126;" horiz-adv-x="1740" 
d="M82 0v279h221q-186 180 -186 464q0 204 96 367.5t268 256.5t389 93q164 0 305 -54.5t240 -149.5t155 -227.5t56 -285.5q0 -139 -48.5 -258.5t-137.5 -205.5h219v-279h-692v262q147 60 225 174.5t78 268.5q0 196 -112 316t-288 120t-287.5 -120t-111.5 -316
q0 -154 78.5 -268.5t224.5 -174.5v-262h-692z" />
    <glyph glyph-name="estimated" unicode="&#x212e;" horiz-adv-x="1581" 
d="M803 -25q-217 0 -384 99.5t-255 268t-88 376.5q0 153 52.5 288.5t146 235t230.5 157.5t298 58q158 0 291 -57t225.5 -159t141.5 -249.5t42 -322.5h-1151v-414q77 -88 192.5 -137t258.5 -49q164 0 312.5 84t250.5 252l78 -54q-122 -187 -286 -282t-355 -95zM352 756h885
v430q-166 178 -434 178q-278 0 -451 -203v-405z" />
    <glyph glyph-name="uni2150" unicode="&#x2150;" horiz-adv-x="1464" 
d="M207 741v443q-87 -19 -176 -19v162q81 0 127.5 25t79.5 82h165v-693h-196zM80 14l1028 1538l166 -114l-1028 -1538zM926 518v174h493v-131l-180 -561h-209l166 518h-270z" />
    <glyph glyph-name="uni2151" unicode="&#x2151;" horiz-adv-x="1540" 
d="M207 741v443q-87 -19 -176 -19v162q81 0 127.5 25t79.5 82h165v-693h-196zM80 14l1028 1538l166 -114l-1028 -1538zM934 459q0 109 71.5 177.5t190.5 68.5q135 0 213 -90.5t78 -254.5q0 -179 -81.5 -275.5t-227.5 -96.5q-112 0 -209 57l67 129q60 -31 123 -31
q61 0 100 35.5t50 100.5q-56 -50 -144 -50q-104 0 -167.5 64.5t-63.5 165.5zM1116 463q0 -39 25.5 -63.5t62.5 -24.5q41 0 64.5 24t23.5 64q0 39 -23.5 62.5t-64.5 23.5q-37 0 -62.5 -24t-25.5 -62z" />
    <glyph glyph-name="uni2153" unicode="&#x2153;" horiz-adv-x="1492" 
d="M207 741v443q-87 -19 -176 -19v162q81 0 127.5 25t79.5 82h165v-693h-196zM80 14l1028 1538l166 -114l-1028 -1538zM920 70l88 149q71 -53 147 -53q43 0 67.5 17.5t24.5 49.5q0 45 -42 62t-115 0l-43 94l120 131h-43h-161v172h448v-121l-141 -147q82 -17 131 -73t49 -134
q0 -103 -77 -166t-202 -63q-147 0 -251 82z" />
    <glyph glyph-name="uni2154" unicode="&#x2154;" horiz-adv-x="1642" 
d="M51 741v129l211 228q46 52 60 73.5t14 42.5q0 27 -18 42.5t-50 15.5q-69 0 -137 -68l-104 129q64 61 126.5 87t141.5 26q113 0 181.5 -58t68.5 -155q0 -61 -27 -109.5t-110 -138.5l-62 -70h219v-174h-514zM231 14l1029 1538l165 -114l-1028 -1538zM1069 70l88 149
q71 -53 148 -53q43 0 67.5 17.5t24.5 49.5q0 45 -42.5 62t-115.5 0l-43 94l121 131h-43h-162v172h449v-121l-142 -147q82 -17 131 -73t49 -134q0 -103 -76.5 -166t-201.5 -63q-148 0 -252 82z" />
    <glyph glyph-name="uni2155" unicode="&#x2155;" horiz-adv-x="1495" 
d="M207 741v443q-87 -19 -176 -19v162q81 0 127.5 25t79.5 82h165v-693h-196zM80 14l1028 1538l166 -114l-1028 -1538zM922 70l88 151q77 -55 147 -55q38 0 63 17t25 46q0 34 -27.5 52t-70.5 18q-54 0 -113 -16l-69 57l24 352h416v-168h-262l-4 -88q37 6 71 6
q105 0 172.5 -58.5t67.5 -162.5q0 -107 -75 -170t-197 -63q-150 0 -256 82z" />
    <glyph glyph-name="uni2156" unicode="&#x2156;" horiz-adv-x="1644" 
d="M51 741v129l211 228q46 52 60 73.5t14 42.5q0 27 -18 42.5t-50 15.5q-69 0 -137 -68l-104 129q64 61 126.5 87t141.5 26q113 0 181.5 -58t68.5 -155q0 -61 -27 -109.5t-110 -138.5l-62 -70h219v-174h-514zM231 14l1029 1538l165 -114l-1028 -1538zM1071 70l88 151
q77 -55 148 -55q38 0 63 17t25 46q0 34 -28 52t-71 18q-53 0 -112 -16l-70 57l25 352h415v-168h-262l-4 -88q38 6 72 6q105 0 172 -58.5t67 -162.5q0 -107 -75 -170t-197 -63q-150 0 -256 82z" />
    <glyph glyph-name="uni2157" unicode="&#x2157;" horiz-adv-x="1634" 
d="M285 729q-148 0 -252 82l88 150q73 -54 147 -54q43 0 67.5 18t24.5 50q0 45 -42 61.5t-115 -0.5l-43 94l121 132h-43h-162v172h448v-121l-141 -148q82 -17 131 -73t49 -134q0 -103 -76.5 -166t-201.5 -63zM219 14l1028 1538l166 -114l-1028 -1538zM1061 70l88 151
q77 -55 147 -55q38 0 63 17t25 46q0 34 -27.5 52t-70.5 18q-53 0 -112 -16l-70 57l24 352h416v-168h-262l-4 -88q38 6 72 6q105 0 172 -58.5t67 -162.5q0 -107 -75 -170t-197 -63q-150 0 -256 82z" />
    <glyph glyph-name="uni2158" unicode="&#x2158;" horiz-adv-x="1679" 
d="M358 741v111h-335v149l331 433h187v-418h71v-164h-71v-111h-183zM225 1010h142v186zM264 14l1028 1538l166 -114l-1028 -1538zM1106 70l88 151q77 -55 147 -55q38 0 63.5 17t25.5 46q0 34 -28 52t-71 18q-53 0 -112 -16l-70 57l25 352h415v-168h-262l-4 -88q37 6 72 6
q105 0 172 -58.5t67 -162.5q0 -107 -75 -170t-197 -63q-150 0 -256 82z" />
    <glyph glyph-name="uni2159" unicode="&#x2159;" horiz-adv-x="1540" 
d="M207 741v443q-87 -19 -176 -19v162q81 0 127.5 25t79.5 82h165v-693h-196zM80 14l1028 1538l166 -114l-1028 -1538zM940 332q0 179 81.5 276t227.5 97q110 0 209 -58l-67 -129q-60 31 -123 31q-61 0 -100 -35t-50 -100q55 49 144 49q104 0 167.5 -64.5t63.5 -165.5
q0 -108 -71.5 -176.5t-190.5 -68.5q-135 0 -213 90t-78 254zM1135 229q0 -39 23.5 -62.5t64.5 -23.5q37 0 62.5 24t25.5 62q0 39 -25.5 63.5t-62.5 24.5q-41 0 -64.5 -24t-23.5 -64z" />
    <glyph glyph-name="uni215A" unicode="&#x215a;" horiz-adv-x="1681" 
d="M291 729q-150 0 -256 82l88 152q78 -56 147 -56q38 0 63 17.5t25 46.5q0 34 -27.5 51.5t-70.5 17.5q-54 0 -113 -16l-69 57l24 353h416v-168h-262l-4 -88q38 6 72 6q105 0 172 -58.5t67 -162.5q0 -107 -75 -170.5t-197 -63.5zM221 14l1028 1538l166 -114l-1028 -1538z
M1081 332q0 179 82 276t228 97q109 0 208 -58l-67 -129q-60 31 -123 31q-61 0 -99.5 -35t-49.5 -100q55 49 143 49q104 0 167.5 -64.5t63.5 -165.5q0 -108 -71.5 -176.5t-190.5 -68.5q-135 0 -213 90t-78 254zM1276 229q0 -39 23.5 -62.5t64.5 -23.5q37 0 62.5 24t25.5 62
q0 39 -25.5 63.5t-62.5 24.5q-41 0 -64.5 -24t-23.5 -64z" />
    <glyph glyph-name="oneeighth" unicode="&#x215b;" horiz-adv-x="1554" 
d="M207 741v443q-87 -19 -176 -19v162q81 0 127.5 25t79.5 82h165v-693h-196zM80 14l1028 1538l166 -114l-1028 -1538zM936 195q0 106 96 167q-74 62 -74 148q0 88 71.5 141.5t191.5 53.5q119 0 190.5 -53.5t71.5 -141.5q0 -89 -74 -148q96 -59 96 -167q0 -94 -76.5 -150.5
t-207.5 -56.5t-208 56.5t-77 150.5zM1130 211q0 -35 25.5 -57.5t65.5 -22.5q41 0 65.5 22t24.5 58q0 37 -24.5 59.5t-65.5 22.5q-40 0 -65.5 -22.5t-25.5 -59.5zM1147 496q0 -30 20.5 -49t53.5 -19q34 0 53.5 18.5t19.5 49.5q0 29 -19.5 47t-53.5 18q-33 0 -53.5 -18
t-20.5 -47z" />
    <glyph glyph-name="threeeighths" unicode="&#x215c;" horiz-adv-x="1693" 
d="M285 729q-148 0 -252 82l88 150q73 -54 147 -54q43 0 67.5 18t24.5 50q0 45 -42 61.5t-115 -0.5l-43 94l121 132h-43h-162v172h448v-121l-141 -148q82 -17 131 -73t49 -134q0 -103 -76.5 -166t-201.5 -63zM219 14l1028 1538l166 -114l-1028 -1538zM1075 195q0 106 96 167
q-73 61 -73 148q0 88 71 141.5t191 53.5t191 -53.5t71 -141.5q0 -89 -74 -148q97 -60 97 -167q0 -94 -77 -150.5t-208 -56.5t-208 56.5t-77 150.5zM1270 211q0 -35 25 -57.5t65 -22.5q41 0 65.5 22t24.5 58q0 37 -24.5 59.5t-65.5 22.5q-40 0 -65 -22.5t-25 -59.5zM1286 496
q0 -30 20.5 -49t53.5 -19q34 0 54 18.5t20 49.5q0 29 -20 47t-54 18q-32 0 -53 -18t-21 -47z" />
    <glyph glyph-name="fiveeighths" unicode="&#x215d;" horiz-adv-x="1695" 
d="M291 729q-150 0 -256 82l88 152q78 -56 147 -56q38 0 63 17.5t25 46.5q0 34 -27.5 51.5t-70.5 17.5q-54 0 -113 -16l-69 57l24 353h416v-168h-262l-4 -88q38 6 72 6q105 0 172 -58.5t67 -162.5q0 -107 -75 -170.5t-197 -63.5zM221 14l1028 1538l166 -114l-1028 -1538z
M1077 195q0 105 97 167q-74 62 -74 148q0 88 71 141.5t191 53.5t191 -53.5t71 -141.5q0 -89 -74 -148q97 -60 97 -167q0 -94 -77 -150.5t-208 -56.5t-208 56.5t-77 150.5zM1272 211q0 -35 25 -57.5t65 -22.5q41 0 65.5 22t24.5 58q0 37 -24.5 59.5t-65.5 22.5
q-40 0 -65 -22.5t-25 -59.5zM1288 496q0 -30 20.5 -49t53.5 -19q34 0 54 18.5t20 49.5q0 29 -20 47t-54 18q-32 0 -53 -18t-21 -47z" />
    <glyph glyph-name="seveneighths" unicode="&#x215e;" horiz-adv-x="1665" 
d="M143 741l166 519h-270v174h493v-131l-180 -562h-209zM190 14l1029 1538l165 -114l-1028 -1538zM1047 195q0 106 96 167q-74 62 -74 148q0 88 71.5 141.5t190.5 53.5t190.5 -53.5t71.5 -141.5q0 -89 -73 -148q96 -59 96 -167q0 -94 -77 -150.5t-208 -56.5t-207.5 56.5
t-76.5 150.5zM1241 211q0 -35 25 -57.5t65 -22.5q41 0 65.5 22t24.5 58q0 37 -24.5 59.5t-65.5 22.5q-40 0 -65 -22.5t-25 -59.5zM1257 496q0 -30 20.5 -49t53.5 -19q34 0 54 18.5t20 49.5q0 29 -20 47t-54 18q-33 0 -53.5 -18t-20.5 -47z" />
    <glyph glyph-name="arrowleft" unicode="&#x2190;" horiz-adv-x="1630" 
d="M719 1325l205 -205l-299 -299h934v-295h-934l299 -299l-205 -204l-651 651z" />
    <glyph glyph-name="arrowup" unicode="&#x2191;" horiz-adv-x="1454" 
d="M1378 805l-204 -205l-300 299v-934h-294v934l-299 -299l-205 205l651 651z" />
    <glyph glyph-name="arrowright" unicode="&#x2192;" horiz-adv-x="1630" 
d="M911 23l-204 204l299 299h-934v295h934l-299 299l204 205l652 -651z" />
    <glyph glyph-name="arrowdown" unicode="&#x2193;" horiz-adv-x="1454" 
d="M76 528l205 205l299 -299v934h294v-934l300 299l204 -205l-651 -651z" />
    <glyph glyph-name="arrowboth" unicode="&#x2194;" horiz-adv-x="2312" 
d="M1595 23l-204 204l299 299h-1067l299 -299l-205 -204l-651 651l651 651l205 -205l-299 -299h1067l-299 299l204 205l652 -651z" />
    <glyph glyph-name="arrowupdn" unicode="&#x2195;" horiz-adv-x="1454" 
d="M281 809l-205 205l651 651l651 -651l-204 -205l-300 299v-1067l300 297l204 -203l-651 -651l-651 651l205 203l299 -297v1067z" />
    <glyph glyph-name="uni2196" unicode="&#x2196;" horiz-adv-x="1337" 
d="M1014 1221v-289h-424l661 -662l-209 -207l-659 660v-424h-289v922h920z" />
    <glyph glyph-name="uni2197" unicode="&#x2197;" horiz-adv-x="1335" 
d="M1243 299h-291v422l-659 -660l-209 209l661 662h-423v289h921v-922z" />
    <glyph glyph-name="uni2198" unicode="&#x2198;" horiz-adv-x="1337" 
d="M324 152v290h421l-659 660l207 209l661 -662v424h289v-921h-919z" />
    <glyph glyph-name="uni2199" unicode="&#x2199;" horiz-adv-x="1335" 
d="M94 1098h289v-422l659 659l209 -209l-659 -659h422v-291h-920v922z" />
    <glyph glyph-name="uni21A9" unicode="&#x21a9;" horiz-adv-x="2385" 
d="M717 -231l-651 651l651 651l205 -205l-304 -303h938q215 0 345.5 127t130.5 338q0 209 -130.5 336t-345.5 127h-120v295h120q170 0 316.5 -56.5t250.5 -156t163 -241t59 -304.5q0 -219 -101 -392.5t-281 -270.5t-407 -97h-929l295 -295z" />
    <glyph glyph-name="uni21AA" unicode="&#x21aa;" horiz-adv-x="2385" 
d="M829 268q-227 0 -407 97t-280.5 270.5t-100.5 392.5q0 163 59 304.5t162.5 241t250 156t316.5 56.5h121v-295h-121q-215 0 -345 -127t-130 -336q0 -211 130 -338t345 -127h938l-303 303l205 205l651 -651l-651 -651l-205 204l295 295h-930z" />
    <glyph glyph-name="uni21B0" unicode="&#x21b0;" horiz-adv-x="1835" 
d="M717 489l-651 652l651 651l205 -205l-299 -299h1067v-1194h-306v899h-761l299 -299z" />
    <glyph glyph-name="uni21B1" unicode="&#x21b1;" horiz-adv-x="1835" 
d="M1118 489l-205 205l299 299h-761v-899h-306v1194h1067l-299 299l205 205l651 -651z" />
    <glyph glyph-name="uni21B3" unicode="&#x21b3;" horiz-adv-x="1835" 
d="M1118 1194l651 -651l-651 -652l-205 205l299 299h-1067v1194h306v-899h761l-299 299z" />
    <glyph glyph-name="uni21B4" unicode="&#x21b4;" horiz-adv-x="1918" 
d="M541 625l204 204l299 -299v762h-899v305h1194v-1067l299 299l205 -204l-651 -652z" />
    <glyph glyph-name="carriagereturn" unicode="&#x21b5;" horiz-adv-x="1835" 
d="M717 1194l205 -205l-299 -299h761v899h306v-1194h-1067l299 -299l-205 -205l-651 652z" />
    <glyph glyph-name="uni21BA" unicode="&#x21ba;" horiz-adv-x="1894" 
d="M971 -340q-181 0 -338.5 63t-269.5 173.5t-176 266.5t-64 335h289q0 -160 72 -290t200 -204t287 -74t287 74t200 204t72 290q0 243 -159 405t-400 162h-29l238 -238l-179 -174l-540 539l540 539l179 -175l-222 -221h13q241 0 435 -107.5t303.5 -299t109.5 -430.5
q0 -179 -64 -335t-176 -266.5t-269.5 -173.5t-338.5 -63z" />
    <glyph glyph-name="uni21BB" unicode="&#x21bb;" horiz-adv-x="1894" 
d="M924 -340q-181 0 -338.5 63t-269.5 173.5t-176 266.5t-64 335q0 239 109.5 430.5t303.5 299t435 107.5h12l-221 221l178 175l541 -539l-541 -539l-178 174l237 238h-28q-241 0 -400 -162t-159 -405q0 -160 72 -290t200 -204t287 -74t287 74t200 204t72 290h289
q0 -179 -64 -335t-176 -266.5t-269.5 -173.5t-338.5 -63z" />
    <glyph glyph-name="uni21E4" unicode="&#x21e4;" horiz-adv-x="2293" 
d="M1176 8l-650 651l650 652l204 -205l-297 -299h1139v-295h-1139l297 -299zM145 -14v1347h322v-1347h-322z" />
    <glyph glyph-name="uni21E5" unicode="&#x21e5;" horiz-adv-x="2293" 
d="M1118 8l-205 205l297 299h-1138v295h1138l-297 299l205 205l649 -652zM1827 -14v1347h321v-1347h-321z" />
    <glyph glyph-name="uni21E7" unicode="&#x21e7;" horiz-adv-x="1882" 
d="M545 -37v635h-469l864 995l866 -995h-471v-635h-790zM604 817h195v-604h282v604h197l-338 387z" />
    <glyph glyph-name="uni21EA" unicode="&#x21ea;" horiz-adv-x="1882" 
d="M545 322v276h-469l864 995l866 -995h-471v-276h-790zM545 -285v502h790v-502h-790zM604 817h195v-303h282v303h197l-338 387zM795 -92h292v117h-292v-117z" />
    <glyph glyph-name="partialdiff" unicode="&#x2202;" horiz-adv-x="1341" 
d="M600 -25q-236 0 -383 138.5t-147 357.5q0 163 74.5 297t210 212.5t304.5 78.5q156 0 254 -53q-49 132 -165 228t-322 179l115 246q156 -47 279.5 -120.5t206 -161.5t137 -195t78.5 -217t24 -230q0 -350 -183.5 -555t-482.5 -205zM403 485q0 -103 60 -164t164 -61
q128 0 213.5 90.5t85.5 210.5q0 100 -60.5 162.5t-169.5 62.5q-126 0 -209.5 -86.5t-83.5 -214.5z" />
    <glyph glyph-name="emptyset" unicode="&#x2205;" horiz-adv-x="1587" 
d="M293 -121l-166 135l145 172q-86 90 -133 208.5t-47 250.5q0 140 53 264.5t145 214t223.5 141.5t281.5 52q195 0 358 -86l147 176l160 -131l-143 -170q86 -91 133 -209.5t47 -251.5q0 -139 -53 -263t-144.5 -214t-223 -142.5t-281.5 -52.5q-191 0 -353 84zM369 645
q0 -155 86 -268l544 649q-91 49 -204 49q-181 0 -303.5 -121t-122.5 -309zM594 260q89 -47 201 -47q181 0 303.5 121.5t122.5 310.5q0 146 -80 260z" />
    <glyph glyph-name="uni2206" unicode="&#x2206;" horiz-adv-x="1542" 
d="M27 0l559 1434h377l553 -1434h-1489zM469 260h602l-301 842z" />
    <glyph glyph-name="product" unicode="&#x220f;" horiz-adv-x="1560" 
d="M973 -225v1358h-385v-1358h-336v1358h-195v301h1446v-301h-192v-1358h-338z" />
    <glyph glyph-name="summation" unicode="&#x2211;" horiz-adv-x="1134" 
d="M68 -225v231l417 602l-405 594v232h975v-289h-566l363 -531l-381 -551h623v-288h-1026z" />
    <glyph glyph-name="minus" unicode="&#x2212;" horiz-adv-x="1056" 
d="M90 479v287h877v-287h-877z" />
    <glyph glyph-name="uni2215" unicode="&#x2215;" horiz-adv-x="419" 
d="M-221 -100l-166 114l1028 1538l166 -114z" />
    <glyph glyph-name="uni2219" unicode="&#x2219;" horiz-adv-x="677" 
d="M340 360q-111 0 -185.5 68t-74.5 180q0 109 75 178.5t185 69.5t185 -69.5t75 -178.5q0 -112 -74.5 -180t-185.5 -68z" />
    <glyph glyph-name="radical" unicode="&#x221a;" horiz-adv-x="1425" 
d="M606 0l-297 805h-262v252h514l137 -457l82 -268l80 268l377 1243h330l-602 -1843h-359z" />
    <glyph glyph-name="infinity" unicode="&#x221e;" horiz-adv-x="1736" 
d="M1286 227q-227 0 -403 205q-177 -205 -406 -205q-177 0 -288 109.5t-111 281.5q0 169 113 280.5t286 111.5q229 0 406 -205q176 205 403 205q173 0 286.5 -111.5t113.5 -280.5q0 -172 -111.5 -281.5t-288.5 -109.5zM338 618q0 -72 47 -118.5t119 -46.5q124 0 225 143
l16 22l-16 23q-101 143 -225 143q-72 0 -119 -47t-47 -119zM1020 618l16 -22q98 -143 224 -143q73 0 120 46.5t47 118.5t-47 119t-120 47q-126 0 -224 -143z" />
    <glyph glyph-name="integral" unicode="&#x222b;" horiz-adv-x="837" 
d="M197 -494q-138 0 -271 56l88 241q53 -20 107 -20q119 0 119 137v1264q0 171 99 268.5t275 97.5q143 0 271 -55l-88 -242q-53 21 -105 21q-119 0 -119 -137v-1264q0 -172 -99.5 -269.5t-276.5 -97.5z" />
    <glyph glyph-name="approxequal" unicode="&#x2248;" horiz-adv-x="1302" 
d="M92 233q23 173 111.5 266t230.5 93q57 0 109 -15t127 -53q62 -32 94 -42.5t65 -10.5q44 0 74.5 26t50.5 83l256 -64q-76 -319 -331 -319q-61 0 -115.5 14.5t-128.5 50.5q-97 47 -158 47q-98 0 -110 -121zM92 702q23 173 111 265t231 92q57 0 109 -14.5t127 -51.5
q62 -32 94 -42.5t65 -10.5q86 0 125 107l256 -64q-77 -317 -331 -317q-61 0 -115.5 14.5t-128.5 50.5q-98 45 -158 45q-98 0 -110 -119z" />
    <glyph glyph-name="notequal" unicode="&#x2260;" horiz-adv-x="1056" 
d="M455 55l-242 90l49 127h-172v271h281l59 155h-340v271h434l82 217l238 -88l-49 -129h172v-271h-281l-57 -155h338v-271h-432z" />
    <glyph glyph-name="lessequal" unicode="&#x2264;" horiz-adv-x="1083" 
d="M1006 432l-938 338v215l938 326v-310l-301 -86l-150 -41l451 -131v-311zM68 63v269h940v-269h-940z" />
    <glyph glyph-name="greaterequal" unicode="&#x2265;" horiz-adv-x="1083" 
d="M80 432v311l448 131l-149 41l-299 86v310l936 -326v-215zM78 63v269h940v-269h-940z" />
    <glyph glyph-name="uni2303" unicode="&#x2303;" horiz-adv-x="1589" 
d="M287 219l-205 205l713 713l712 -713l-204 -205l-508 508z" />
    <glyph glyph-name="uni2305" unicode="&#x2305;" horiz-adv-x="1589" 
d="M129 1120v262h1331v-262h-649l696 -696l-204 -205l-508 508l-508 -508l-205 205l696 696h-649z" />
    <glyph glyph-name="uni2318" unicode="&#x2318;" horiz-adv-x="1804" 
d="M469 -82q-160 0 -263.5 104t-103.5 265q0 153 104 254.5t263 101.5h96v152h-96q-159 0 -263 101.5t-104 254.5q0 160 103.5 263.5t263.5 103.5q154 0 255 -104t101 -263v-96h154v96q0 159 100.5 263t251.5 104q162 0 266.5 -103.5t104.5 -263.5q0 -153 -104.5 -254.5
t-266.5 -101.5h-92v-152h92q162 0 266.5 -101.5t104.5 -254.5q0 -161 -104 -265t-267 -104q-151 0 -251.5 104.5t-100.5 264.5v96h-154v-96q0 -161 -101 -265t-255 -104zM360 287q0 -43 29 -71t72 -28t70.5 28t27.5 71v98h-98q-43 0 -72 -28t-29 -70zM371 1151
q0 -43 28.5 -70.5t71.5 -27.5h98v98q0 43 -27.5 70.5t-70.5 27.5t-71.5 -27.5t-28.5 -70.5zM817 635h170v168h-170v-168zM1235 287q0 -43 27.5 -71t68.5 -28q44 0 73.5 28t29.5 71t-29.5 70.5t-73.5 27.5h-96v-98zM1235 1051h96q44 0 73.5 28.5t29.5 71.5q0 41 -29.5 69.5
t-73.5 28.5q-41 0 -68.5 -28.5t-27.5 -69.5v-100z" />
    <glyph glyph-name="uni2325" unicode="&#x2325;" horiz-adv-x="1826" 
d="M1114 0l-577 1174h-455v260h631l577 -1174h455v-260h-631zM1165 1174v260h580v-260h-580z" />
    <glyph glyph-name="uni2326" unicode="&#x2326;" horiz-adv-x="2269" 
d="M1511 -14h-1366v1462h1366l693 -731zM403 231h973l461 486l-461 485h-973v-971zM621 494l223 223l-221 221l153 147l217 -217l217 217l154 -147l-221 -221l223 -223l-154 -146l-219 219l-219 -219z" />
    <glyph glyph-name="uni2327" unicode="&#x2327;" horiz-adv-x="1804" 
d="M145 -14v1462h1514v-1462h-1514zM401 231h1000v971h-1000v-971zM520 483l223 224l-221 221l154 147l217 -217l217 217l154 -147l-222 -221l224 -224l-154 -145l-219 219l-219 -219z" />
    <glyph glyph-name="uni232B" unicode="&#x232b;" horiz-adv-x="2269" 
d="M758 -14l-692 731l692 731h1366v-1462h-1366zM432 717l461 -486h973v971h-973zM903 494l223 223l-221 221l154 147l217 -217l217 217l154 -147l-222 -221l224 -223l-154 -146l-219 219l-219 -219z" />
    <glyph glyph-name="uni2387" unicode="&#x2387;" horiz-adv-x="1826" 
d="M82 0v260h455l577 1174h631v-260h-455l-577 -1174h-631zM1155 0v260h582v-260h-582z" />
    <glyph glyph-name="uni238B" unicode="&#x238b;" horiz-adv-x="1927" 
d="M993 -340q-180 0 -338.5 64.5t-271.5 175.5t-178.5 266.5t-65.5 331.5h269q0 -168 79 -298.5t211.5 -200t294.5 -69.5q236 0 393.5 162.5t157.5 405.5q0 250 -164 408.5t-428 158.5v268q186 0 349.5 -64t280 -174.5t184 -265.5t67.5 -331q0 -236 -109.5 -428t-302 -301
t-428.5 -109zM139 637v696h699v-250h-267l527 -526l-176 -176l-531 530v-274h-252z" />
    <glyph glyph-name="uni23CE" unicode="&#x23ce;" horiz-adv-x="2297" 
d="M717 -109l-651 652l651 651l205 -205l-295 -295h1220v553h-461v295h766v-1143h-1534l304 -303z" />
    <glyph glyph-name="uni23CF" unicode="&#x23cf;" horiz-adv-x="1892" 
d="M78 588l864 995l864 -995h-1728zM152 -197v594h1579v-594h-1579zM401 -4h1082v209h-1082v-209zM604 807h674l-336 387z" />
    <glyph glyph-name="uni2423" unicode="&#x2423;" horiz-adv-x="907" 
d="M27 -227v364h217v-157h418v157h217v-364h-852z" />
    <glyph glyph-name="uni2460" unicode="&#x2460;" horiz-adv-x="1892" 
d="M883 369v442q-83 -18 -176 -18v161q81 0 127 25t79 82h166v-692h-196zM92 707q0 175 63 328t174.5 263.5t271 174t345.5 63.5t345.5 -63.5t271 -174t174.5 -263.5t63 -328q0 -176 -63 -329.5t-174.5 -264t-271 -174.5t-345.5 -64t-345.5 64t-271 174.5t-174.5 264
t-63 329.5zM309 707q0 -180 78.5 -324t224.5 -226.5t334 -82.5t334.5 82.5t225.5 226.5t79 324q0 179 -79 322t-225.5 225.5t-334.5 82.5t-334 -82.5t-224.5 -225.5t-78.5 -322z" />
    <glyph glyph-name="uni2461" unicode="&#x2461;" horiz-adv-x="1892" 
d="M946 -125q-186 0 -345.5 64t-271 174.5t-174.5 264t-63 329.5q0 175 63 328t174.5 263.5t271 174t345.5 63.5t345.5 -63.5t271 -174t174.5 -263.5t63 -328q0 -176 -63 -329.5t-174.5 -264t-271 -174.5t-345.5 -64zM309 707q0 -180 78.5 -324t224.5 -226.5t334 -82.5
t334.5 82.5t225.5 226.5t79 324q0 179 -79 322t-225.5 225.5t-334.5 82.5t-334 -82.5t-224.5 -225.5t-78.5 -322zM670 961q64 61 126.5 86.5t141.5 25.5q113 0 181.5 -58t68.5 -155q0 -61 -27 -109.5t-110 -138.5l-62 -69h219v-174h-514v129l211 227q46 51 60 73t14 44
q0 26 -18 41.5t-50 15.5q-69 0 -137 -68z" />
    <glyph glyph-name="uni2462" unicode="&#x2462;" horiz-adv-x="1892" 
d="M934 356q-148 0 -252 82l88 150q71 -53 148 -53q43 0 67.5 17.5t24.5 49.5q0 45 -42.5 62t-115.5 0l-43 94l121 131h-43h-162v172h449v-121l-142 -147q82 -17 131 -73t49 -134q0 -103 -77 -166.5t-201 -63.5zM92 707q0 175 63 328t174.5 263.5t271 174t345.5 63.5
t345.5 -63.5t271 -174t174.5 -263.5t63 -328q0 -176 -63 -329.5t-174.5 -264t-271 -174.5t-345.5 -64t-345.5 64t-271 174.5t-174.5 264t-63 329.5zM309 707q0 -180 78.5 -324t224.5 -226.5t334 -82.5t334.5 82.5t225.5 226.5t79 324q0 179 -79 322t-225.5 225.5
t-334.5 82.5t-334 -82.5t-224.5 -225.5t-78.5 -322z" />
    <glyph glyph-name="uni2463" unicode="&#x2463;" horiz-adv-x="1892" 
d="M936 369v110h-336v150l332 432h186v-418h72v-164h-72v-110h-182zM92 707q0 175 63 328t174.5 263.5t271 174t345.5 63.5t345.5 -63.5t271 -174t174.5 -263.5t63 -328q0 -176 -63 -329.5t-174.5 -264t-271 -174.5t-345.5 -64t-345.5 64t-271 174.5t-174.5 264t-63 329.5z
M309 707q0 -180 78.5 -324t224.5 -226.5t334 -82.5t334.5 82.5t225.5 226.5t79 324q0 179 -79 322t-225.5 225.5t-334.5 82.5t-334 -82.5t-224.5 -225.5t-78.5 -322zM803 637h141v186z" />
    <glyph glyph-name="uni2464" unicode="&#x2464;" horiz-adv-x="1892" 
d="M930 356q-150 0 -256 82l88 152q77 -55 147 -55q38 0 63 17t25 46q0 34 -27.5 52t-70.5 18q-50 0 -113 -17l-69 58l24 352h416v-168h-262l-4 -88q37 6 72 6q105 0 172 -58.5t67 -162.5q0 -107 -75 -170.5t-197 -63.5zM92 709q0 175 63 328t174.5 263.5t271 174
t345.5 63.5t345.5 -63.5t271 -174t174.5 -263.5t63 -328q0 -176 -63 -329.5t-174.5 -264t-271 -174.5t-345.5 -64t-345.5 64t-271 174.5t-174.5 264t-63 329.5zM309 709q0 -180 78.5 -324t224.5 -226.5t334 -82.5t334.5 82.5t225.5 226.5t79 324q0 179 -79 322t-225.5 225.5
t-334.5 82.5t-334 -82.5t-224.5 -225.5t-78.5 -322z" />
    <glyph glyph-name="uni2465" unicode="&#x2465;" horiz-adv-x="1892" 
d="M948 356q-135 0 -213 90t-78 254q0 179 82 276t228 97q112 0 209 -57l-68 -129q-60 31 -123 31q-61 0 -99.5 -35.5t-49.5 -100.5q55 49 143 49q105 0 168 -64t63 -165q0 -109 -71.5 -177.5t-190.5 -68.5zM92 707q0 175 63 328t174.5 263.5t271 174t345.5 63.5
t345.5 -63.5t271 -174t174.5 -263.5t63 -328q0 -176 -63 -329.5t-174.5 -264t-271 -174.5t-345.5 -64t-345.5 64t-271 174.5t-174.5 264t-63 329.5zM309 707q0 -180 78.5 -324t224.5 -226.5t334 -82.5t334.5 82.5t225.5 226.5t79 324q0 179 -79 322t-225.5 225.5
t-334.5 82.5t-334 -82.5t-224.5 -225.5t-78.5 -322zM852 598q0 -39 23.5 -62.5t64.5 -23.5q37 0 62.5 24t25.5 62q0 39 -25.5 63.5t-62.5 24.5q-41 0 -64.5 -24t-23.5 -64z" />
    <glyph glyph-name="uni2466" unicode="&#x2466;" horiz-adv-x="1892" 
d="M799 369l166 518h-271v174h494v-131l-180 -561h-209zM92 707q0 175 63 328t174.5 263.5t271 174t345.5 63.5t345.5 -63.5t271 -174t174.5 -263.5t63 -328q0 -176 -63 -329.5t-174.5 -264t-271 -174.5t-345.5 -64t-345.5 64t-271 174.5t-174.5 264t-63 329.5zM309 707
q0 -180 78.5 -324t224.5 -226.5t334 -82.5t334.5 82.5t225.5 226.5t79 324q0 179 -79 322t-225.5 225.5t-334.5 82.5t-334 -82.5t-224.5 -225.5t-78.5 -322z" />
    <glyph glyph-name="uni2467" unicode="&#x2467;" horiz-adv-x="1892" 
d="M944 354q-131 0 -208 56.5t-77 150.5q0 106 97 168q-74 62 -74 148q0 88 71 141t191 53t191 -53t71 -141q0 -89 -73 -148q96 -59 96 -168q0 -94 -77 -150.5t-208 -56.5zM92 707q0 175 63 328t174.5 263.5t271 174t345.5 63.5t345.5 -63.5t271 -174t174.5 -263.5t63 -328
q0 -176 -63 -329.5t-174.5 -264t-271 -174.5t-345.5 -64t-345.5 64t-271 174.5t-174.5 264t-63 329.5zM309 707q0 -180 78.5 -324t224.5 -226.5t334 -82.5t334.5 82.5t225.5 226.5t79 324q0 179 -79 322t-225.5 225.5t-334.5 82.5t-334 -82.5t-224.5 -225.5t-78.5 -322z
M854 578q0 -35 25 -57.5t65 -22.5q41 0 65.5 22t24.5 58q0 37 -24.5 59t-65.5 22q-40 0 -65 -22t-25 -59zM870 862q0 -30 20.5 -48.5t53.5 -18.5q34 0 54 18t20 49q0 29 -20 47.5t-54 18.5q-32 0 -53 -18.5t-21 -47.5z" />
    <glyph glyph-name="uni2468" unicode="&#x2468;" horiz-adv-x="1892" 
d="M934 1071q135 0 213 -90t78 -254q0 -179 -82 -276t-228 -97q-109 0 -208 58l67 129q60 -31 123 -31q61 0 100 35t50 100q-55 -49 -144 -49q-105 0 -168 64t-63 165q0 109 71.5 177.5t190.5 68.5zM92 707q0 175 63 328t174.5 263.5t271 174t345.5 63.5t345.5 -63.5
t271 -174t174.5 -263.5t63 -328q0 -176 -63 -329.5t-174.5 -264t-271 -174.5t-345.5 -64t-345.5 64t-271 174.5t-174.5 264t-63 329.5zM309 707q0 -180 78.5 -324t224.5 -226.5t334 -82.5t334.5 82.5t225.5 226.5t79 324q0 179 -79 322t-225.5 225.5t-334.5 82.5t-334 -82.5
t-224.5 -225.5t-78.5 -322zM854 829q0 -39 25.5 -63.5t62.5 -24.5q41 0 64.5 24t23.5 64q0 39 -23.5 62.5t-64.5 23.5q-37 0 -62.5 -24t-25.5 -62z" />
    <glyph glyph-name="uni2469" unicode="&#x2469;" horiz-adv-x="1892" 
d="M602 367v442q-82 -18 -176 -18v161q81 0 127.5 25t79.5 82h166v-692h-197zM92 707q0 175 63 328t174.5 263.5t271 174t345.5 63.5t345.5 -63.5t271 -174t174.5 -263.5t63 -328q0 -176 -63 -329.5t-174.5 -264t-271 -174.5t-345.5 -64t-345.5 64t-271 174.5t-174.5 264
t-63 329.5zM309 707q0 -180 78.5 -324t224.5 -226.5t334 -82.5t334.5 82.5t225.5 226.5t79 324q0 179 -79 322t-225.5 225.5t-334.5 82.5t-334 -82.5t-224.5 -225.5t-78.5 -322zM854 713q0 167 84.5 262.5t230.5 95.5q148 0 232 -95.5t84 -262.5t-84 -263t-232 -96
q-146 0 -230.5 96t-84.5 263zM1053 713q0 -183 116 -183q117 0 117 183q0 182 -117 182q-116 0 -116 -182z" />
    <glyph glyph-name="uni24EA" unicode="&#x24ea;" horiz-adv-x="1892" 
d="M946 348q-146 0 -230.5 96t-84.5 263t84.5 262.5t230.5 95.5q148 0 232 -95.5t84 -262.5t-84 -263t-232 -96zM92 707q0 175 63 328t174.5 263.5t271 174t345.5 63.5t345.5 -63.5t271 -174t174.5 -263.5t63 -328q0 -176 -63 -329.5t-174.5 -264t-271 -174.5t-345.5 -64
t-345.5 64t-271 174.5t-174.5 264t-63 329.5zM309 707q0 -180 78.5 -324t224.5 -226.5t334 -82.5t334.5 82.5t225.5 226.5t79 324q0 179 -79 322t-225.5 225.5t-334.5 82.5t-334 -82.5t-224.5 -225.5t-78.5 -322zM829 707q0 -183 117 -183t117 183q0 182 -117 182t-117 -182
z" />
    <glyph glyph-name="uni24FF" unicode="&#x24ff;" horiz-adv-x="1882" 
d="M940 -125q-185 0 -344 64t-269 174.5t-172.5 264t-62.5 329.5q0 175 62.5 328t173 263.5t269.5 174t343 63.5q185 0 344 -63.5t269.5 -174t173.5 -263.5t63 -328q0 -176 -63 -329.5t-173.5 -264t-269.5 -174.5t-344 -64zM625 707q0 -167 84.5 -263t230.5 -96
q148 0 232.5 96t84.5 263q0 166 -84.5 262t-232.5 96q-146 0 -230.5 -96t-84.5 -262zM825 707q0 182 115 182q117 0 117 -182q0 -185 -117 -185q-115 0 -115 185z" />
    <glyph glyph-name="filledbox" unicode="&#x25a0;" horiz-adv-x="1605" 
d="M145 53v1317h1317v-1317h-1317z" />
    <glyph glyph-name="uni25A1" unicode="&#x25a1;" horiz-adv-x="1605" 
d="M145 53v1317h1317v-1317h-1317zM406 303h794v817h-794v-817z" />
    <glyph glyph-name="triagup" unicode="&#x25b2;" horiz-adv-x="1761" 
d="M27 16l854 1538l852 -1538h-1706z" />
    <glyph glyph-name="uni25B3" unicode="&#x25b3;" horiz-adv-x="1761" 
d="M27 16l854 1538l852 -1538h-1706zM487 285h785l-391 706z" />
    <glyph glyph-name="uni25B6" unicode="&#x25b6;" horiz-adv-x="1748" 
d="M145 1632l1538 -854l-1538 -852v1706z" />
    <glyph glyph-name="uni25BB" unicode="&#x25bb;" horiz-adv-x="1748" 
d="M145 1632l1538 -854l-1538 -852v1706zM414 387l706 391l-706 393v-784z" />
    <glyph glyph-name="triagdn" unicode="&#x25bc;" horiz-adv-x="1761" 
d="M1735 1468l-854 -1538l-852 1538h1706z" />
    <glyph glyph-name="uni25BD" unicode="&#x25bd;" horiz-adv-x="1761" 
d="M1733 1468l-854 -1538l-852 1538h1706zM487 1200l392 -706l393 706h-785z" />
    <glyph glyph-name="triaglf" unicode="&#x25c4;" horiz-adv-x="1748" 
d="M1606 1632v-1706l-1538 852z" />
    <glyph glyph-name="uni25C5" unicode="&#x25c5;" horiz-adv-x="1748" 
d="M1606 -74l-1538 854l1538 852v-1706zM631 780l706 -393v784z" />
    <glyph glyph-name="uni25C6" unicode="&#x25c6;" horiz-adv-x="1906" 
d="M952 -195l-886 887l886 885l887 -885z" />
    <glyph glyph-name="uni25C7" unicode="&#x25c7;" horiz-adv-x="1906" 
d="M952 -195l-886 887l886 885l887 -885zM426 692l526 -528l529 528l-529 527z" />
    <glyph glyph-name="lozenge" unicode="&#x25ca;" horiz-adv-x="1226" 
d="M475 0l-412 657l412 658h277l411 -658l-411 -657h-277zM375 657l239 -385l238 385l-238 385z" />
    <glyph glyph-name="circle" unicode="&#x25cb;" horiz-adv-x="1714" 
d="M856 -27q-169 0 -313 59t-242.5 160t-153.5 237.5t-55 289.5q0 151 55.5 286.5t153.5 236t242.5 159.5t312.5 59q169 0 313.5 -59t243 -159.5t154 -236t55.5 -286.5q0 -153 -55 -289.5t-153.5 -237.5t-243 -160t-314.5 -59zM367 719q0 -134 59.5 -245t172 -177t257.5 -66
q219 0 355.5 141t136.5 347q0 132 -59.5 242t-173.5 176.5t-259 66.5q-217 0 -353 -141t-136 -344z" />
    <glyph glyph-name="uni25CF" unicode="&#x25cf;" horiz-adv-x="1714" 
d="M856 -27q-169 0 -313 59t-242.5 160t-153.5 237t-55 288t55.5 288t154 236.5t242.5 159.5t312 59q169 0 313.5 -59t243 -159.5t154 -236.5t55.5 -288t-55 -288t-153.5 -237t-243 -160t-314.5 -59z" />
    <glyph glyph-name="uni261C" unicode="&#x261c;" horiz-adv-x="2213" 
d="M2068 102h-524v78q-81 -78 -223 -78h-637q-81 0 -125.5 46t-44.5 112q0 47 23 80q-44 20 -68.5 54.5t-24.5 72.5q0 54 33 84q-86 41 -86 131q0 26 8 45h-163q-72 0 -119 48t-47 116q0 67 47.5 117.5t118.5 50.5h391q-31 36 -31 104v105h725q135 0 223 -88v88h524v-1166z
M205 891q0 -20 13 -31.5t34 -11.5h620q66 0 115 -44.5t49 -111.5t-47 -108q47 -38 47 -105q0 -68 -47 -106q47 -36 47 -97q0 -29 -16 -55h291q105 0 170 63t65 171v458q0 98 -68 167t-167 69h-580q0 -46 25 -73t78 -27h321q0 -118 34 -171.5t130 -76.5l-33 -115
q-109 25 -169 84t-75 164h-790q-21 0 -34 -11.5t-13 -31.5zM524 686q0 -19 13 -32t30 -13h301q17 0 30 13t13 32q0 17 -13 29t-30 12h-301q-17 0 -30 -12t-13 -29zM578 479q0 -20 10.5 -32.5t27.5 -12.5h252q19 0 31 12.5t12 32.5q0 16 -12.5 28.5t-30.5 12.5h-252
q-17 0 -27.5 -12.5t-10.5 -28.5zM647 270q0 -17 13.5 -30t27.5 -13h180q17 0 30 13t13 30t-13 30t-30 13h-180q-14 0 -27.5 -13t-13.5 -30zM1679 227h256v916h-256v-916z" />
    <glyph glyph-name="uni261D" unicode="&#x261d;" horiz-adv-x="1454" 
d="M1309 -147h-1166v524h88q-88 88 -88 223v725h105q68 0 104 -31v392q0 71 50.5 118t117.5 47q68 0 116 -46.5t48 -118.5v-164q19 8 45 8q90 0 131 -86q30 33 84 33q38 0 72.5 -24.5t54.5 -68.5q33 23 80 23q66 0 112 -44.5t46 -125.5v-637q0 -142 -78 -223h78v-524z
M262 610q0 -99 69 -167t167 -68h458q108 0 171 65t63 170v291q-26 -16 -55 -16q-61 0 -97 47q-38 -47 -106 -47q-67 0 -105 47q-41 -47 -108 -47t-111.5 49t-44.5 115v620q0 21 -11.5 34t-31.5 13t-31.5 -13t-11.5 -34v-790q105 -15 164 -75t84 -169l-115 -33
q-23 96 -76.5 130t-171.5 34v321q0 53 -27 78t-73 25v-580zM268 -14h916v256h-916v-256zM684 1053q0 -17 12 -30t29 -13q19 0 32 13t13 30v301q0 17 -13 30t-32 13q-17 0 -29 -13t-12 -30v-301zM891 1053q0 -18 12.5 -30.5t28.5 -12.5q20 0 32.5 12t12.5 31v252
q0 17 -12.5 27.5t-32.5 10.5q-16 0 -28.5 -10.5t-12.5 -27.5v-252zM1098 1053q0 -17 13 -30t30 -13t30 13t13 30v180q0 14 -13 27.5t-30 13.5t-30 -13.5t-13 -27.5v-180z" />
    <glyph glyph-name="uni261E" unicode="&#x261e;" horiz-adv-x="2213" 
d="M145 102v1166h525v-88q88 88 223 88h725v-105q0 -68 -31 -104h391q71 0 118.5 -50.5t47.5 -117.5q0 -68 -47 -116t-119 -48h-163q8 -19 8 -45q0 -90 -86 -131q32 -29 32 -84q0 -38 -24 -72.5t-68 -54.5q23 -33 23 -80q0 -66 -44.5 -112t-125.5 -46h-637q-142 0 -223 78
v-78h-525zM279 227h256v916h-256v-916zM668 455q0 -108 65 -171t170 -63h291q-16 26 -16 55q0 61 47 97q-47 38 -47 106q0 67 47 105q-47 41 -47 108t48.5 111.5t114.5 44.5h621q21 0 34 11.5t13 31.5t-13 31.5t-34 11.5h-791q-15 -105 -74.5 -164t-168.5 -84l-33 115
q96 23 130 76.5t34 171.5h321q53 0 78 27t25 73h-580q-99 0 -167 -69t-68 -167v-458zM1303 270q0 -17 13 -30t30 -13h180q14 0 27.5 13t13.5 30t-13.5 30t-27.5 13h-180q-17 0 -30 -13t-13 -30zM1303 479q0 -20 12 -32.5t31 -12.5h251q17 0 28 12.5t11 32.5q0 16 -11 28.5
t-28 12.5h-251q-18 0 -30.5 -12.5t-12.5 -28.5zM1303 686q0 -19 13 -32t30 -13h301q17 0 30 13t13 32q0 17 -13 29t-30 12h-301q-17 0 -30 -12t-13 -29z" />
    <glyph glyph-name="uni261F" unicode="&#x261f;" horiz-adv-x="1454" 
d="M1309 1395v-525h-78q78 -81 78 -223v-637q0 -81 -46 -125.5t-112 -44.5q-47 0 -80 23q-20 -44 -54.5 -68t-72.5 -24q-55 0 -84 32q-41 -86 -131 -86q-24 0 -45 9v-164q0 -72 -48 -119t-116 -47q-67 0 -117.5 47.5t-50.5 118.5v391q-36 -31 -104 -31h-105v725
q0 135 88 223h-88v525h1166zM262 57q46 0 73 25t27 78v321q118 0 171.5 34t76.5 130l115 -33q-25 -109 -84 -168.5t-164 -74.5v-791q0 -21 11.5 -34t31.5 -13t31.5 13t11.5 34v621q0 66 44.5 114.5t111.5 48.5t108 -47q38 47 105 47q68 0 106 -47q36 47 97 47q29 0 55 -16
v291q0 105 -63 170t-171 65h-458q-98 0 -167 -68t-69 -167v-580zM268 1006h916v256h-916v-256zM684 -106q0 -18 12 -31t29 -13q19 0 32 13t13 31v301q0 17 -13 30t-32 13q-17 0 -29 -13t-12 -30v-301zM891 -57q0 -17 12.5 -28t28.5 -11q20 0 32.5 11t12.5 28v252
q0 19 -12.5 31t-32.5 12q-16 0 -28.5 -12.5t-12.5 -30.5v-252zM1098 14q0 -14 13 -27.5t30 -13.5t30 13.5t13 27.5v181q0 17 -13 30t-30 13t-30 -13t-13 -30v-181z" />
    <glyph glyph-name="uni2661" unicode="&#x2661;" horiz-adv-x="1869" 
d="M936 -92q-186 177 -312.5 302.5t-223.5 233t-152 181t-89.5 144.5t-45.5 126.5t-11 124.5q0 192 137 313t349 121q203 0 348 -139q142 139 346 139q212 0 348.5 -121t136.5 -313q0 -103 -27.5 -186t-119.5 -210t-249.5 -289.5t-434.5 -426.5zM414 987q0 -70 36 -144
t153.5 -209t332.5 -335q216 201 333.5 336t153 208.5t35.5 143.5q0 84 -57 134t-150 50q-177 0 -315 -182q-141 182 -318 182q-92 0 -148 -50t-56 -134z" />
    <glyph glyph-name="heart" unicode="&#x2665;" horiz-adv-x="1869" 
d="M936 -96q-336 312 -513.5 509t-249 334.5t-71.5 270.5q0 200 125.5 318t333.5 118q220 0 375 -143q152 143 373 143q210 0 334 -117.5t124 -318.5q0 -100 -36 -196t-132 -226.5t-253.5 -293.5t-409.5 -398z" />
    <glyph glyph-name="uni26A0" unicode="&#x26a0;" horiz-adv-x="1859" 
d="M27 12l903 1555l903 -1555h-1806zM778 236q0 -62 43.5 -102t108.5 -40q64 0 106.5 40t42.5 102q0 64 -42.5 103.5t-106.5 39.5q-65 0 -108.5 -39.5t-43.5 -103.5zM799 1063l10 -307l16 -310h209l17 310l8 307h-260z" />
    <glyph glyph-name="uni2713" unicode="&#x2713;" horiz-adv-x="1855" 
d="M690 8l-608 606l182 187l424 -420l954 1038l187 -180z" />
    <glyph glyph-name="uni2717" unicode="&#x2717;" horiz-adv-x="1472" 
d="M1268 2l180 186l-528 527l528 528l-180 187l-533 -531l-532 531l-180 -187l528 -526l-528 -529l180 -186l717 713l-185 184l-184 -182z" />
    <glyph glyph-name="uni2776" unicode="&#x2776;" horiz-adv-x="1882" 
d="M940 -131q-187 0 -347 66.5t-269 179t-170.5 264.5t-61.5 321t60.5 321t169 265t269 179.5t349.5 66.5q190 0 351 -66t269.5 -179t169 -265t60.5 -322q0 -135 -38 -260t-112 -228.5t-176 -180.5t-236.5 -119.5t-287.5 -42.5zM700 788q90 0 177 19v-442h196v692h-166
q-33 -56 -79.5 -80.5t-127.5 -24.5v-164z" />
    <glyph glyph-name="uni2777" unicode="&#x2777;" horiz-adv-x="1882" 
d="M940 -125q-179 0 -336.5 63.5t-270 173.5t-177 264.5t-64.5 330.5q0 177 64 331t176 263.5t269.5 172t338.5 62.5q182 0 340 -62.5t270 -172t176 -263.5t64 -331q0 -178 -64 -332.5t-176 -264t-270 -172.5t-340 -63zM670 963l104 -132q65 68 137 68q32 0 50 -15t18 -40
q0 -22 -14 -44t-60 -75l-211 -225v-131h514v174h-219l62 69q80 89 108.5 142.5t28.5 111.5q0 92 -69 149.5t-181 57.5q-79 0 -141.5 -25.5t-126.5 -84.5z" />
    <glyph glyph-name="uni2778" unicode="&#x2778;" horiz-adv-x="1882" 
d="M940 -125q-179 0 -336.5 63.5t-270 173.5t-177 264.5t-64.5 330.5q0 177 64 331t176 263.5t269.5 172t338.5 62.5q182 0 340 -62.5t270 -172t176 -263.5t64 -331q0 -178 -64 -332.5t-176 -264t-270 -172.5t-340 -63zM682 438q108 -82 252 -82q125 0 202.5 64t77.5 166
q0 76 -48 132.5t-128 76.5l138 145v121h-451v-170h199l-115 -131l43 -94q74 15 116 -1.5t42 -62.5q0 -32 -23.5 -49.5t-66.5 -17.5q-80 0 -150 55z" />
    <glyph glyph-name="uni2779" unicode="&#x2779;" horiz-adv-x="1882" 
d="M940 -125q-187 0 -347 66t-269 179t-170.5 265t-61.5 322q0 169 60.5 320.5t169 264t269 178.5t349.5 66q190 0 351 -66t269.5 -178.5t169 -264t60.5 -320.5q0 -170 -60.5 -322t-169 -265t-269.5 -179t-351 -66zM600 479h336v-110h182v110h70v164h-70v418h-186l-332 -432
v-150zM805 637l137 178v-178h-137z" />
    <glyph glyph-name="uni277A" unicode="&#x277a;" horiz-adv-x="1882" 
d="M940 -123q-182 0 -340.5 64.5t-269.5 176t-174.5 265t-63.5 326.5q0 175 63 328.5t173.5 264t269.5 174.5t342 64q185 0 344 -64t269.5 -174.5t173.5 -264t63 -328.5t-63 -328.5t-173.5 -264.5t-269.5 -175t-344 -64zM674 438q106 -82 256 -82q122 0 197 63.5t75 170.5
q0 102 -66.5 161.5t-172.5 59.5q-39 0 -74 -6l6 88h260v168h-416l-24 -352l69 -56q58 15 113 15q47 0 72.5 -18t25.5 -50q0 -29 -23 -46t-63 -17q-73 0 -147 53z" />
    <glyph glyph-name="uni277B" unicode="&#x277b;" horiz-adv-x="1882" 
d="M940 -125q-187 0 -347 66t-269 179t-170.5 265t-61.5 322q0 169 60.5 320.5t169 264t269 178.5t349.5 66q190 0 351 -66t269.5 -178.5t169 -264t60.5 -320.5q0 -170 -60.5 -322t-169 -265t-269.5 -179t-351 -66zM657 700q0 -164 78 -254t213 -90q117 0 189.5 69t72.5 177
q0 101 -63 165t-168 64q-91 0 -145 -51q11 66 49.5 102t99.5 36q65 0 125 -31l66 129q-95 57 -207 57q-147 0 -228.5 -97t-81.5 -276zM852 598q0 40 23.5 64t64.5 24q37 0 62.5 -24.5t25.5 -63.5q0 -38 -25.5 -62t-62.5 -24q-41 0 -64.5 23.5t-23.5 62.5z" />
    <glyph glyph-name="uni277C" unicode="&#x277c;" horiz-adv-x="1882" 
d="M940 -125q-187 0 -347 66t-269 179t-170.5 265t-61.5 322q0 169 60.5 320.5t169 264t269 178.5t349.5 66q190 0 351 -66t269.5 -178.5t169 -264t60.5 -320.5q0 -170 -60.5 -322t-169 -265t-269.5 -179t-351 -66zM694 887h269l-164 -518h209l180 561v131h-494v-174z" />
    <glyph glyph-name="uni277D" unicode="&#x277d;" horiz-adv-x="1882" 
d="M940 -125q-187 0 -347 66t-269 179t-170.5 265t-61.5 322q0 169 60.5 320.5t169 264t269 178.5t349.5 66q190 0 351 -66t269.5 -178.5t169 -264t60.5 -320.5q0 -170 -60.5 -322t-169 -265t-269.5 -179t-351 -66zM655 561q0 -94 77 -150.5t208 -56.5q133 0 210 56.5
t77 150.5q0 108 -97 168q74 62 74 148q0 88 -71.5 141t-192.5 53q-120 0 -191 -53t-71 -141q0 -86 74 -148q-97 -60 -97 -168zM850 578q0 37 25 59t65 22q41 0 66.5 -22t25.5 -59q0 -35 -25.5 -57.5t-66.5 -22.5q-40 0 -65 22.5t-25 57.5zM866 862q0 29 21 47.5t53 18.5
q34 0 55 -18.5t21 -47.5q0 -31 -21 -49t-55 -18q-33 0 -53.5 18.5t-20.5 48.5z" />
    <glyph glyph-name="uni277E" unicode="&#x277e;" horiz-adv-x="1882" 
d="M940 -125q-187 0 -347 66t-269 179t-170.5 265t-61.5 322q0 169 60.5 320.5t169 264t269 178.5t349.5 66q190 0 351 -66t269.5 -178.5t169 -264t60.5 -320.5q0 -170 -60.5 -322t-169 -265t-269.5 -179t-351 -66zM670 825q0 -101 62.5 -165t168.5 -64q92 0 146 51
q-11 -66 -50 -101.5t-102 -35.5q-66 0 -123 31l-67 -129q99 -58 208 -58q146 0 228 97t82 276q0 164 -78 254t-213 90q-119 0 -190.5 -68.5t-71.5 -177.5zM852 829q0 38 25 62t63 24q40 0 64 -24t24 -62q0 -40 -24 -64t-64 -24q-39 0 -63.5 24.5t-24.5 63.5z" />
    <glyph glyph-name="uni277F" unicode="&#x277f;" horiz-adv-x="1882" 
d="M940 -125q-187 0 -347 66t-269 179t-170.5 265t-61.5 322q0 169 60.5 320.5t169 264t269 178.5t349.5 66q190 0 351 -66t269.5 -178.5t169 -264t60.5 -320.5q0 -170 -60.5 -322t-169 -265t-269.5 -179t-351 -66zM412 793q97 0 176 20v-444h196v692h-166
q-33 -56 -79.5 -80.5t-126.5 -24.5v-163zM854 713q0 -168 84 -263.5t231 -95.5q144 0 230 96.5t86 262.5q0 168 -86 263t-230 95q-147 0 -231 -94.5t-84 -263.5zM1055 713q0 184 114 184q115 0 115 -184q0 -183 -115 -183q-114 0 -114 183z" />
    <glyph glyph-name="uni27F5" unicode="&#x27f5;" horiz-adv-x="2449" 
d="M717 8l-651 651l651 652l205 -205l-299 -299h1753v-295h-1753l299 -299z" />
    <glyph glyph-name="uni27F6" unicode="&#x27f6;" horiz-adv-x="2449" 
d="M1733 8l-205 205l299 299h-1753v295h1753l-299 299l205 205l651 -652z" />
    <glyph glyph-name="uni2B06" unicode="&#x2b06;" horiz-adv-x="1882" 
d="M545 -37v635h-469l864 995l866 -995h-471v-635h-790z" />
    <glyph glyph-name="uniF8FF" unicode="&#xf8ff;" horiz-adv-x="1239" 
d="M82 -190v378h217v-188h641v188h217v-378h-1075z" />
    <glyph glyph-name="uni004A0301" horiz-adv-x="1015" 
d="M369 -25q-183 0 -361 91l121 276q98 -49 203 -49q103 0 150.5 66t47.5 204v871h353v-891q0 -568 -514 -568zM567 1583l129 277h344l-206 -277h-267z" />
    <glyph glyph-name="Oslash.bold" horiz-adv-x="1681" 
d="M840 -27q-131 0 -256 39l-131 -229l-228 131l127 219q-131 99 -203.5 251t-72.5 333q0 159 58 297t158.5 236t242.5 154t305 56q134 0 256 -39l133 230l227 -131l-127 -220q131 -101 203 -251.5t72 -331.5q0 -158 -57.5 -296.5t-157.5 -236.5t-242.5 -154.5t-306.5 -56.5
zM436 717q0 -186 113.5 -304t290.5 -118q179 0 292 118t113 304t-113 304t-292 118q-177 0 -290.5 -118t-113.5 -304z" />
    <glyph glyph-name="Oslashacute.bold" horiz-adv-x="1681" 
d="M700 1583l129 277h345l-207 -277h-267zM76 717q0 159 58 297t158.5 236t242.5 154t305 56q134 0 256 -39l133 230l227 -131l-127 -220q131 -101 203 -251.5t72 -331.5q0 -158 -57.5 -296.5t-157.5 -236.5t-242.5 -154.5t-306.5 -56.5q-131 0 -256 39l-131 -229l-228 131
l127 219q-131 99 -203.5 251t-72.5 333zM436 717q0 -186 113.5 -304t290.5 -118q179 0 292 118t113 304t-113 304t-292 118q-177 0 -290.5 -118t-113.5 -304z" />
    <glyph glyph-name="Q.bold" horiz-adv-x="1681" 
d="M840 -27q-163 0 -305 56t-242.5 154t-158.5 236.5t-58 297.5t58 297t158.5 236t242.5 154t305 56q219 0 393.5 -95.5t272.5 -265.5t98 -382q0 -155 -53.5 -288.5t-151.5 -233.5l198 -281l-292 -203l-205 301q-125 -39 -260 -39zM436 717q0 -186 113.5 -304t290.5 -118
q179 0 292 118t113 304t-113 304t-292 118q-177 0 -290.5 -118t-113.5 -304z" />
    <glyph glyph-name="Adieresis.ss01" horiz-adv-x="1536" 
d="M27 0l555 1434h376l549 -1434h-362l-90 250h-570l-90 -250h-368zM186 1520q0 74 47.5 121t122.5 47t123.5 -47.5t48.5 -120.5t-48.5 -120.5t-123.5 -47.5t-122.5 47t-47.5 121zM561 504h418l-207 571zM1012 1520q0 73 48.5 120.5t123.5 47.5t122.5 -47t47.5 -121
t-47.5 -121t-122.5 -47t-123.5 47.5t-48.5 120.5z" />
    <glyph glyph-name="Aring.ss01" horiz-adv-x="1536" 
d="M27 0l530 1370q-65 68 -65 170q0 112 79 185t199 73q122 0 201.5 -73t79.5 -185q0 -101 -68 -172l524 -1368h-362l-90 250h-570l-90 -250h-368zM561 504h418l-207 571zM680 1540q0 -40 25 -66t65 -26q41 0 66.5 26t25.5 66t-25.5 66t-66.5 26q-40 0 -65 -26t-25 -66z" />
    <glyph glyph-name="Ccedilla.ss01" horiz-adv-x="1476" 
d="M647 -330l62 310q-288 34 -460.5 237t-172.5 500q0 156 52.5 292.5t146 236t231.5 157t301 57.5q355 0 606 -284l-215 -226q-72 91 -167 140t-202 49q-176 0 -284.5 -117.5t-108.5 -304.5q0 -188 109.5 -305t290.5 -117q236 0 393 199l215 -226q-94 -121 -222.5 -192
t-275.5 -92l-2 -314h-297z" />
    <glyph glyph-name="G.ss01" horiz-adv-x="1624" 
d="M823 -27q-217 0 -387 94t-265 264t-95 386q0 212 97.5 382t271 265.5t389.5 95.5q166 0 315 -57t266 -164l-184 -233q-71 68 -173.5 106.5t-209.5 38.5q-188 0 -305 -121.5t-117 -316.5t113 -312.5t299 -117.5q145 0 243.5 73.5t124.5 200.5h-448v266h788
q25 -392 -167.5 -621t-555.5 -229z" />
    <glyph glyph-name="Gbreve.ss01" horiz-adv-x="1624" 
d="M823 -27q-217 0 -387 94t-265 264t-95 386q0 212 97.5 382t271 265.5t389.5 95.5q166 0 315 -57t266 -164l-184 -233q-71 68 -173.5 106.5t-209.5 38.5q-188 0 -305 -121.5t-117 -316.5t113 -312.5t299 -117.5q145 0 243.5 73.5t124.5 200.5h-448v266h788
q25 -392 -167.5 -621t-555.5 -229zM502 1835l213 39q15 -113 119 -113q101 0 116 113l213 -39q-35 -264 -329 -264q-151 0 -232 66t-100 198z" />
    <glyph glyph-name="Gcircumflex.ss01" horiz-adv-x="1624" 
d="M823 -27q-217 0 -387 94t-265 264t-95 386q0 212 97.5 382t271 265.5t389.5 95.5q166 0 315 -57t266 -164l-184 -233q-71 68 -173.5 106.5t-209.5 38.5q-188 0 -305 -121.5t-117 -316.5t113 -312.5t299 -117.5q145 0 243.5 73.5t124.5 200.5h-448v266h788
q25 -392 -167.5 -621t-555.5 -229zM457 1583l243 277h265l243 -277h-286l-91 113l-88 -113h-286z" />
    <glyph glyph-name="uni0122.ss01" horiz-adv-x="1624" 
d="M823 -27q-217 0 -387 94t-265 264t-95 386q0 212 97.5 382t271 265.5t389.5 95.5q166 0 315 -57t266 -164l-184 -233q-71 68 -173.5 106.5t-209.5 38.5q-188 0 -305 -121.5t-117 -316.5t113 -312.5t299 -117.5q145 0 243.5 73.5t124.5 200.5h-448v266h788
q25 -392 -167.5 -621t-555.5 -229zM702 -250q0 66 40 110t112 44q79 0 124.5 -52t45.5 -133q0 -172 -180 -321l-92 78q68 78 86 139q-61 3 -98.5 42t-37.5 93z" />
    <glyph glyph-name="Gdotaccent.ss01" horiz-adv-x="1624" 
d="M823 -27q-217 0 -387 94t-265 264t-95 386q0 212 97.5 382t271 265.5t389.5 95.5q166 0 315 -57t266 -164l-184 -233q-71 68 -173.5 106.5t-209.5 38.5q-188 0 -305 -121.5t-117 -316.5t113 -312.5t299 -117.5q145 0 243.5 73.5t124.5 200.5h-448v266h788
q25 -392 -167.5 -621t-555.5 -229zM645 1739q0 82 50.5 131t135.5 49t136 -49t51 -131q0 -83 -51 -133t-136 -50t-135.5 50t-50.5 133z" />
    <glyph glyph-name="K.ss01" horiz-adv-x="1402" 
d="M963 0l-465 606v-606h-353v1434h353v-588l450 588h416l-539 -701l557 -733h-419z" />
    <glyph glyph-name="uni0136.ss01" horiz-adv-x="1402" 
d="M963 0l-465 606v-606h-353v1434h353v-588l450 588h416l-539 -701l557 -733h-419zM561 -250q0 66 40.5 110t111.5 44q81 0 126.5 -52t45.5 -133q0 -172 -183 -321l-92 78q66 72 88 139q-63 3 -100 42t-37 93z" />
    <glyph glyph-name="Odieresis.ss01" horiz-adv-x="1681" 
d="M840 -27q-163 0 -305 56t-242.5 154t-158.5 236.5t-58 297.5t58 297t158.5 236t242.5 154t305 56q219 0 393.5 -95.5t272.5 -265.5t98 -382t-97.5 -382t-272.5 -266t-394 -96zM98 1520q0 74 47.5 121t122.5 47t123.5 -47.5t48.5 -120.5t-48.5 -120.5t-123.5 -47.5
t-122.5 47t-47.5 121zM436 717q0 -186 113.5 -304t290.5 -118q179 0 292 118t113 304t-113 304t-292 118q-177 0 -290.5 -118t-113.5 -304zM1239 1520q0 73 48.5 120.5t123.5 47.5t122.5 -47t47.5 -121t-47.5 -121t-122.5 -47t-123.5 47.5t-48.5 120.5z" />
    <glyph glyph-name="Q.ss01" horiz-adv-x="1681" 
d="M664 -387l26 373q-273 48 -443.5 248.5t-170.5 482.5q0 159 58 297t158.5 236t242.5 154t305 56q219 0 393.5 -95.5t272.5 -265.5t98 -382q0 -284 -170 -484.5t-445 -246.5l27 -373h-352zM436 717q0 -186 113.5 -304t290.5 -118q179 0 292 118t113 304t-113 304t-292 118
q-177 0 -290.5 -118t-113.5 -304z" />
    <glyph glyph-name="R.ss01" horiz-adv-x="1380" 
d="M145 0v1434h594q249 0 396 -129.5t147 -343.5q0 -179 -103.5 -300.5t-287.5 -158.5l438 -502h-420l-413 508v-508h-351zM496 727h202q112 0 175 53.5t63 155.5q0 101 -63 155t-175 54h-202v-418z" />
    <glyph glyph-name="Racute.ss01" horiz-adv-x="1380" 
d="M145 0v1434h594q249 0 396 -129.5t147 -343.5q0 -179 -103.5 -300.5t-287.5 -158.5l438 -502h-420l-413 508v-508h-351zM496 727h202q112 0 175 53.5t63 155.5q0 101 -63 155t-175 54h-202v-418zM543 1583l129 277h344l-207 -277h-266z" />
    </font>
</defs>
</svg>
